<svg width="195" height="60" viewBox="0 0 195 60" fill="none" xmlns="http://www.w3.org/2000/svg">
<path d="M4.83115 55.2167C4.83353 55.3877 4.80196 55.5575 4.73822 55.7159C4.67448 55.875 4.58036 56.0191 4.46122 56.1419C4.34208 56.264 4.1997 56.3617 4.04244 56.429C3.88517 56.4963 3.71659 56.532 3.54562 56.5344H1.31769C1.14673 56.5362 0.976949 56.5047 0.818492 56.4409C0.659439 56.3778 0.514686 56.2836 0.392566 56.1639C0.270447 56.0448 0.172751 55.9024 0.105436 55.7451C0.0381216 55.5885 0.00238281 55.4193 0 55.2483V49.5337C0.00119141 49.3622 0.0369312 49.1924 0.10365 49.0351C0.170964 48.8773 0.268065 48.7343 0.39078 48.614C0.512899 48.4942 0.658248 48.3995 0.817301 48.3358C0.976354 48.272 1.14613 48.2405 1.31769 48.2422H2.01645C2.34111 47.805 2.60977 47.329 2.81529 46.8245C3.05774 46.2335 3.25433 45.6247 3.40266 45.004C3.56647 44.3428 3.69872 43.6601 3.80475 42.956C3.91079 42.2524 3.97929 41.5537 4.02695 40.8394L4.16456 38.792C4.186 38.4358 4.34089 38.1016 4.59823 37.855C4.72392 37.7317 4.87285 37.6346 5.03667 37.5696C5.19989 37.5041 5.37503 37.4713 5.55076 37.4743H15.2875C15.4609 37.4719 15.633 37.5047 15.7939 37.5702C15.9547 37.6357 16.1007 37.7323 16.224 37.8556C16.3467 37.9783 16.4432 38.1242 16.5087 38.2851C16.5742 38.4459 16.607 38.6181 16.6046 38.792V48.2422H17.8854C18.0564 48.2405 18.2261 48.272 18.3846 48.3352C18.5436 48.3989 18.6884 48.493 18.8105 48.6122C18.9326 48.7319 19.0303 48.8743 19.0976 49.0315C19.165 49.1882 19.2007 49.3574 19.2031 49.5284V55.2429C19.2049 55.4139 19.1733 55.5837 19.1102 55.7422C19.0464 55.9012 18.9523 56.046 18.8332 56.1681C18.7134 56.2908 18.571 56.3879 18.4144 56.4558C18.2571 56.5231 18.0879 56.5589 17.917 56.5606H15.6682C15.4972 56.563 15.3274 56.5309 15.169 56.4677C15.0099 56.404 14.8658 56.3099 14.7431 56.1907C14.6209 56.071 14.5232 55.9286 14.4559 55.7719C14.3886 55.6147 14.3529 55.4455 14.3505 55.2745V53.0948H4.82579L4.83115 55.2167ZM11.3714 42.3263H9.05409L8.99035 42.9506C8.87538 44.0557 8.65557 45.147 8.33448 46.2103C8.12658 46.918 7.82396 47.5947 7.43497 48.2214H11.3714V42.3263Z" fill="#0073E6"/>
<path d="M25.9454 47.0039C26.1682 47.7056 26.6591 48.2912 27.3108 48.6337C28.0149 48.9929 28.7959 49.1746 29.5858 49.1633C30.0957 49.1675 30.6056 49.1323 31.1102 49.0573C31.548 48.9882 31.9769 48.8732 32.3904 48.7135C32.6346 48.623 32.8925 48.5765 33.1523 48.5759C33.4036 48.5664 33.652 48.6296 33.8683 48.7582C34.0839 48.8869 34.2585 49.0751 34.3693 49.3009L34.8989 50.4119C34.996 50.6055 35.0448 50.82 35.0418 51.0362C35.0514 51.2655 34.9983 51.4931 34.8887 51.695C34.7785 51.8964 34.6153 52.0638 34.4169 52.1793C33.5645 52.6726 32.6394 53.03 31.6761 53.2373C30.804 53.4005 29.9182 53.4821 29.0306 53.481C27.8362 53.497 26.6496 53.2963 25.5272 52.8882C24.5396 52.5237 23.6389 51.9577 22.8817 51.2268C22.1383 50.4905 21.5593 49.6047 21.1828 48.6284C20.7706 47.5549 20.5644 46.4135 20.5746 45.2632C20.5692 44.1755 20.7759 43.0972 21.1828 42.0881C21.5694 41.1034 22.1466 40.2039 22.8817 39.4426C23.6323 38.6771 24.533 38.0755 25.5272 37.6752C26.6418 37.2343 27.832 37.0163 29.0306 37.0348C30.0069 37.0348 30.9756 37.2141 31.8876 37.5644C32.7847 37.9009 33.6062 38.4109 34.3049 39.0655C35.0043 39.7202 35.5672 40.5065 35.9622 41.3793C36.3875 42.327 36.6008 43.3564 36.5865 44.3953C36.5936 44.9159 36.5585 45.4366 36.481 45.9513C36.4173 46.2301 36.2648 46.4803 36.0468 46.6655C35.849 46.8657 35.5821 46.9824 35.301 46.9938L25.9454 47.0039ZM31.3854 43.5381C31.3747 42.9811 31.1441 42.4503 30.745 42.0619C30.4948 41.8236 30.197 41.6408 29.8717 41.5252C29.5465 41.4096 29.2004 41.3632 28.856 41.39C28.1454 41.3358 27.4371 41.5222 26.8449 41.9189C26.3541 42.3419 25.9883 42.8905 25.787 43.5065L31.3854 43.5381Z" fill="#0073E6"/>
<path d="M43.7924 53.0675C43.6215 53.0698 43.4523 53.0383 43.2932 52.9745C43.1348 52.9114 42.99 52.8173 42.8673 52.6975C42.7452 52.5784 42.6475 52.436 42.5802 52.2788C42.5129 52.1215 42.4771 51.9529 42.4753 51.7819V42.6701H39.3002C39.1293 42.6718 38.9595 42.6403 38.801 42.5771C38.642 42.5134 38.4972 42.4193 38.3751 42.3001C38.2524 42.1804 38.1553 42.038 38.088 41.8807C38.0207 41.7241 37.9849 41.5549 37.9825 41.3839V38.7861C37.9802 38.6121 38.0129 38.44 38.0784 38.2791C38.144 38.1183 38.2411 37.9723 38.3638 37.8496C38.4865 37.7269 38.6325 37.6298 38.7933 37.5643C38.9541 37.4988 39.1263 37.466 39.3002 37.4684H50.8777C51.0505 37.4678 51.2209 37.5011 51.3805 37.5661C51.5402 37.6316 51.6849 37.7275 51.8076 37.849C51.9297 37.9705 52.0268 38.1147 52.0936 38.2738C52.1603 38.4322 52.1948 38.6032 52.1954 38.7754V41.3631C52.196 41.5352 52.1633 41.7062 52.0977 41.8653C52.0322 42.0249 51.9363 42.1703 51.8148 42.2924C51.6938 42.4145 51.5491 42.5122 51.3906 42.5783C51.2316 42.645 51.0612 42.6796 50.8884 42.6802H47.714V51.7605C47.7157 51.9314 47.6842 52.1012 47.6204 52.2603C47.5573 52.4187 47.4632 52.5635 47.3434 52.6856C47.2243 52.8083 47.0819 52.906 46.9246 52.9733C46.7674 53.0407 46.5988 53.0764 46.4278 53.0782H46.3963L43.7924 53.0675Z" fill="#0073E6"/>
<path d="M64.8158 42.5325C64.0789 42.1381 63.2592 41.9243 62.4241 41.9082C62.0112 41.9076 61.6014 41.9773 61.2124 42.1143C60.821 42.2567 60.4612 42.4741 60.1538 42.7547C59.8238 43.0507 59.5575 43.4112 59.3711 43.8133C59.1691 44.2713 59.0697 44.7676 59.0798 45.268C59.0691 45.7606 59.1757 46.2491 59.3919 46.6917C59.5861 47.092 59.856 47.4512 60.186 47.7497C60.8282 48.315 61.6532 48.6289 62.5087 48.6337C63.3748 48.6176 64.2177 48.3531 64.9373 47.8718C65.2185 47.6663 65.5581 47.5572 65.906 47.5596C66.1115 47.5567 66.3152 47.6037 66.4993 47.6954C66.6833 47.7878 66.843 47.9224 66.9639 48.0886L68.0225 49.5117C68.2036 49.7512 68.3019 50.0425 68.3031 50.3428C68.309 50.5596 68.2614 50.774 68.1643 50.9676C68.0672 51.1618 67.9242 51.3286 67.7473 51.4537C66.8841 52.1888 65.8815 52.7434 64.7997 53.0836C63.9389 53.329 63.049 53.4571 62.1542 53.4648C60.9324 53.4803 59.7184 53.2796 58.5663 52.8721C57.55 52.5117 56.6189 51.9464 55.8308 51.2107C55.0689 50.4821 54.4762 49.5951 54.0949 48.6122C53.6827 47.5388 53.476 46.3968 53.4867 45.2471C53.4814 44.1605 53.6827 43.0835 54.0794 42.072C54.4601 41.0879 55.0379 40.1908 55.7766 39.4366C56.5153 38.6825 57.3999 38.0867 58.3763 37.6852C59.4432 37.2468 60.5881 37.0294 61.7414 37.0449C62.6838 37.0336 63.6238 37.1259 64.546 37.3201C65.4913 37.5512 66.3879 37.9509 67.1915 38.5002C67.4149 38.6163 67.6037 38.7897 67.7377 39.0023C67.8718 39.2156 67.9462 39.4604 67.9534 39.7118C67.9528 39.9483 67.8807 40.1789 67.7473 40.3737L66.7417 42.0351C66.6279 42.2477 66.4576 42.4253 66.2497 42.5474C66.0412 42.6701 65.8035 42.7326 65.5616 42.7285C65.3001 42.7303 65.0428 42.6623 64.8158 42.5325Z" fill="#0073E6"/>
<path d="M76.4567 45.5969V51.7297C76.459 51.9006 76.4275 52.0704 76.3637 52.2289C76.3 52.3879 76.2059 52.5327 76.0867 52.6548C75.9676 52.7769 75.8252 52.8746 75.668 52.9419C75.5107 53.0092 75.3421 53.045 75.1711 53.0474H72.5727C72.3999 53.0497 72.2284 53.0176 72.0681 52.952C71.9079 52.8865 71.7631 52.7894 71.6416 52.6661C71.5159 52.5452 71.4176 52.3998 71.3521 52.2384C71.2866 52.077 71.255 51.9036 71.2604 51.7297V38.7654C71.2586 38.5944 71.2901 38.4246 71.3533 38.2662C71.417 38.1071 71.5111 37.963 71.6303 37.8403C71.75 37.7181 71.8924 37.6204 72.0491 37.5531C72.2063 37.4858 72.3755 37.4501 72.5465 37.4477H75.139C75.3129 37.4459 75.4851 37.4787 75.6459 37.5436C75.8068 37.6091 75.9527 37.7062 76.0754 37.8289C76.1981 37.9516 76.2952 38.0982 76.3608 38.2584C76.4263 38.4193 76.459 38.592 76.4567 38.7654V44.2423L80.4783 38.3156C80.6671 38.0595 80.909 37.8462 81.1872 37.6913C81.4683 37.5323 81.7852 37.4483 82.1081 37.4477H84.5314C84.7143 37.4429 84.896 37.4781 85.0646 37.5502C85.2326 37.6222 85.3827 37.7301 85.5054 37.8659C85.749 38.1167 85.8861 38.4526 85.8861 38.8023C85.8813 39.0912 85.7848 39.3712 85.6108 39.6018L82.1468 44.1398C82.0045 44.3257 82.0021 44.5836 82.1403 44.7731L83.6057 46.777C84.0537 47.4674 84.7238 47.9845 85.5054 48.2424C85.9075 48.2943 86.281 48.4807 86.5634 48.772C86.7641 49.1175 86.8547 49.516 86.8231 49.9146V52.0311C86.8183 52.3152 86.7063 52.5875 86.5104 52.793C86.3251 53.0158 86.066 53.1641 85.7806 53.2112C85.5954 53.2112 85.4256 53.2535 85.251 53.2642C85.0765 53.2749 84.918 53.2642 84.722 53.2642C84.2848 53.2606 83.8487 53.2148 83.4204 53.1266C82.9469 53.0176 82.4923 52.8395 82.0712 52.5976C81.5738 52.3224 81.118 51.9781 80.7165 51.576C80.2024 51.0589 79.7432 50.4894 79.3458 49.8776L76.4567 45.5969Z" fill="#0073E6"/>
<path d="M101.822 53.0681C101.651 53.0705 101.481 53.0389 101.322 52.9751C101.163 52.9114 101.019 52.8173 100.897 52.6981C100.774 52.579 100.676 52.4366 100.609 52.2794C100.542 52.1221 100.506 51.9535 100.504 51.7826V44.9034L95.546 52.1793C95.3738 52.4259 95.1564 52.6374 94.9056 52.8036C94.6542 52.968 94.3594 53.0532 94.0591 53.0472H91.0746C90.9013 53.0496 90.7297 53.0174 90.5701 52.9519C90.4099 52.8864 90.2645 52.7893 90.143 52.666C90.0179 52.5451 89.919 52.3991 89.8535 52.2383C89.7879 52.0768 89.757 51.9035 89.7623 51.7295V38.7653C89.7599 38.5943 89.7915 38.4245 89.8552 38.2661C89.919 38.107 90.0131 37.9622 90.1322 37.8401C90.2514 37.7174 90.3938 37.6203 90.551 37.553C90.7083 37.4857 90.8769 37.4499 91.0478 37.4476H93.6409C93.8143 37.4452 93.987 37.4779 94.1479 37.5435C94.3087 37.609 94.4547 37.7061 94.5774 37.8288C94.7001 37.9515 94.7972 38.0975 94.8627 38.2583C94.9283 38.4191 94.9604 38.5913 94.9586 38.7653V45.5968L99.9167 38.3155C100.089 38.0742 100.3 37.8634 100.541 37.6912C100.786 37.5268 101.077 37.4416 101.372 37.4476H104.388C104.561 37.4452 104.734 37.4779 104.895 37.5435C105.056 37.609 105.202 37.7061 105.324 37.8288C105.447 37.9515 105.544 38.0975 105.61 38.2583C105.675 38.4191 105.708 38.5913 105.706 38.7653V51.7295C105.708 51.9005 105.676 52.0703 105.613 52.2287C105.549 52.3878 105.455 52.5319 105.336 52.6547C105.216 52.7768 105.074 52.8745 104.916 52.9418C104.76 53.0091 104.591 53.0448 104.42 53.0472H104.388L101.822 53.0681Z" fill="#0073E6"/>
<path d="M121.577 53.0684C121.406 53.0702 121.236 53.0386 121.077 52.9755C120.919 52.9117 120.774 52.8176 120.652 52.6985C120.529 52.5787 120.432 52.4363 120.364 52.2797C120.297 52.1224 120.261 51.9532 120.26 51.7823V44.9037L115.301 52.1796C115.129 52.4256 114.912 52.6377 114.661 52.8039C114.41 52.9683 114.115 53.0529 113.815 53.047H110.851C110.68 53.0493 110.51 53.0178 110.352 52.954C110.193 52.8909 110.049 52.7968 109.926 52.677C109.804 52.5579 109.706 52.4155 109.639 52.2582C109.571 52.101 109.536 51.9324 109.533 51.7614V38.7864C109.531 38.613 109.564 38.4409 109.629 38.2801C109.695 38.1192 109.792 37.9727 109.915 37.85C110.037 37.7272 110.184 37.6301 110.345 37.5646C110.505 37.4997 110.678 37.4669 110.851 37.4687H113.417C113.591 37.4669 113.763 37.4997 113.924 37.5646C114.085 37.6301 114.231 37.7272 114.354 37.85C114.476 37.9727 114.574 38.1192 114.639 38.2801C114.705 38.4409 114.737 38.613 114.735 38.7864V45.5965L119.693 38.3158C119.866 38.0745 120.077 37.8637 120.318 37.6909C120.563 37.5265 120.853 37.4419 121.148 37.4479H124.164C124.338 37.4455 124.51 37.4782 124.671 37.5438C124.832 37.6093 124.978 37.7064 125.101 37.8291C125.223 37.9518 125.321 38.0978 125.386 38.2586C125.452 38.4195 125.484 38.5916 125.482 38.7656V51.7299C125.484 51.9008 125.453 52.07 125.389 52.229C125.325 52.3875 125.231 52.5323 125.112 52.655C124.993 52.7771 124.851 52.8748 124.693 52.9421C124.536 53.0094 124.367 53.0452 124.197 53.047H124.164L121.577 53.0684ZM120.815 30.6431C121.106 30.6211 121.398 30.6628 121.673 30.7641C121.947 30.8653 122.196 31.0244 122.402 31.2305C122.769 31.6535 122.958 32.2009 122.932 32.7597C122.919 33.2225 122.79 33.6747 122.556 34.0744C122.322 34.4741 121.991 34.8083 121.593 35.0454C120.704 35.6697 119.381 35.9818 117.624 35.9818C115.68 35.9818 114.289 35.6697 113.449 35.0454C113.066 34.7982 112.75 34.4604 112.53 34.0613C112.309 33.6628 112.19 33.2154 112.185 32.7597C112.165 32.2015 112.354 31.6564 112.714 31.2305C112.918 31.0208 113.166 30.8594 113.441 30.7575C113.716 30.6562 114.009 30.6169 114.301 30.6431C114.771 30.6009 115.24 30.7325 115.619 31.0131C115.898 31.2674 116.101 31.5933 116.206 31.9555C116.311 32.2462 116.477 32.5113 116.693 32.7329C116.963 32.9569 117.311 33.0653 117.661 33.0349C117.819 33.0474 117.977 33.0272 118.127 32.9753C118.276 32.9235 118.413 32.8407 118.529 32.7329C118.728 32.5053 118.88 32.2408 118.979 31.9555C119.085 31.5921 119.29 31.2663 119.571 31.0131C119.928 30.7444 120.37 30.6128 120.815 30.6431Z" fill="#0073E6"/>
<path d="M141.407 51.7504C141.409 51.9214 141.377 52.0912 141.314 52.2496C141.25 52.4087 141.156 52.5529 141.037 52.6756C140.917 52.7977 140.775 52.8954 140.618 52.9627C140.461 53.03 140.292 53.0658 140.121 53.0681H137.523C137.352 53.0699 137.182 53.0383 137.023 52.9752C136.865 52.9115 136.72 52.8174 136.598 52.6976C136.475 52.5785 136.377 52.4361 136.31 52.2788C136.243 52.1222 136.207 51.953 136.205 51.782V38.7861C136.203 38.6122 136.236 38.4401 136.301 38.2792C136.367 38.1184 136.464 37.9724 136.586 37.8497C136.709 37.727 136.855 37.6299 137.016 37.5644C137.177 37.4988 137.349 37.4667 137.523 37.4685H139.983C140.291 37.4756 140.593 37.5507 140.867 37.6889C141.142 37.8271 141.382 38.0248 141.571 38.2673L145.555 42.7762L149.227 38.3048C149.421 38.0612 149.658 37.8551 149.926 37.696C150.187 37.5423 150.485 37.4637 150.789 37.4685H153.111C153.285 37.4667 153.457 37.4988 153.618 37.5644C153.779 37.6299 153.925 37.727 154.048 37.8497C154.171 37.9724 154.268 38.1184 154.333 38.2792C154.399 38.4401 154.431 38.6122 154.429 38.7861V51.7504C154.431 51.9214 154.4 52.0912 154.336 52.2496C154.273 52.4087 154.179 52.5529 154.059 52.6756C153.94 52.7977 153.798 52.8954 153.64 52.9627C153.483 53.03 153.314 53.0658 153.143 53.0681H150.54C150.367 53.0687 150.196 53.0354 150.037 52.9698C149.878 52.9049 149.732 52.8084 149.61 52.6875C149.488 52.566 149.391 52.4218 149.324 52.2628C149.258 52.1037 149.223 51.9333 149.223 51.7612V45.411L146.307 48.7445C146.195 48.8756 146.056 48.981 145.9 49.0531C145.744 49.1252 145.574 49.1627 145.402 49.1627C145.234 49.1627 145.067 49.1294 144.913 49.0638C144.759 48.9983 144.619 48.9024 144.502 48.782L141.417 45.4217L141.407 51.7504Z" fill="#0073E6"/>
<path d="M170.311 53.0682C170.14 53.07 169.971 53.0384 169.812 52.9753C169.653 52.9115 169.508 52.8174 169.386 52.6983C169.264 52.5786 169.166 52.4362 169.099 52.2789C169.031 52.1223 168.996 51.9531 168.994 51.7821V44.9035L164.041 52.1788C163.868 52.4273 163.649 52.6387 163.395 52.8037C163.144 52.9681 162.849 53.0527 162.548 53.0468H159.569C159.398 53.0492 159.229 53.0176 159.07 52.9539C158.912 52.8907 158.767 52.7966 158.644 52.6769C158.522 52.5577 158.424 52.4153 158.357 52.2581C158.29 52.1008 158.254 51.9322 158.252 51.7612V38.7862C158.25 38.6129 158.282 38.4401 158.348 38.2793C158.414 38.1185 158.51 37.9725 158.633 37.8498C158.755 37.7271 158.902 37.63 159.063 37.5645C159.224 37.4989 159.396 37.4668 159.569 37.4686H162.131C162.304 37.4668 162.476 37.4989 162.637 37.5645C162.798 37.63 162.944 37.7271 163.067 37.8498C163.19 37.9725 163.286 38.1185 163.352 38.2793C163.417 38.4401 163.45 38.6129 163.448 38.7862V45.5963L168.406 38.315C168.587 38.0785 168.807 37.8748 169.057 37.7122C169.302 37.5478 169.592 37.4626 169.888 37.4686H172.904C173.077 37.4668 173.25 37.4989 173.411 37.5645C173.572 37.63 173.718 37.7271 173.84 37.8498C173.963 37.9725 174.06 38.1185 174.126 38.2793C174.191 38.4401 174.223 38.6129 174.222 38.7862V51.7505C174.223 51.9215 174.192 52.0913 174.129 52.2497C174.065 52.4088 173.971 52.5535 173.852 52.6757C173.732 52.7978 173.59 52.8955 173.433 52.9628C173.276 53.0301 173.107 53.0658 172.936 53.0682H170.29H170.311Z" fill="#0073E6"/>
<path d="M183.209 58.6821C183.211 58.853 183.18 59.0228 183.116 59.1819C183.053 59.3403 182.959 59.4851 182.839 59.6072C182.72 59.7299 182.578 59.8276 182.42 59.8949C182.263 59.9622 182.094 59.998 181.923 59.9998H179.326C179.155 60.0021 178.985 59.9706 178.826 59.9068C178.667 59.8431 178.523 59.749 178.401 59.6298C178.278 59.5107 178.18 59.3683 178.113 59.2111C178.045 59.0538 178.01 58.8852 178.008 58.7142V38.7862C178.006 38.6128 178.038 38.4401 178.104 38.2792C178.169 38.1184 178.266 37.9724 178.389 37.8497C178.512 37.727 178.658 37.6299 178.819 37.5644C178.98 37.4989 179.152 37.4667 179.326 37.4685H182.066C182.214 37.4667 182.361 37.4935 182.499 37.5483C182.637 37.6031 182.762 37.6841 182.868 37.7872C182.974 37.8908 183.059 38.0135 183.117 38.1494C183.176 38.2858 183.207 38.4317 183.209 38.5801V38.617C183.728 38.1488 184.327 37.7776 184.976 37.5215C185.792 37.1956 186.665 37.0372 187.543 37.0556C188.527 37.0449 189.501 37.2451 190.4 37.643C191.252 38.0231 192.005 38.5932 192.601 39.3098C193.222 40.0598 193.699 40.917 194.009 41.8391C194.359 42.8614 194.538 43.9342 194.539 45.0143C194.543 46.1467 194.337 47.2702 193.93 48.327C193.544 49.3248 192.967 50.238 192.232 51.0148C191.481 51.788 190.58 52.4004 189.585 52.8138C188.493 53.2677 187.319 53.4929 186.136 53.4756C185.604 53.4744 185.074 53.4339 184.548 53.3535C184.089 53.2909 183.641 53.1682 183.214 52.9883L183.209 58.6821ZM183.209 48.041C183.547 48.2525 183.914 48.4116 184.299 48.5122C184.739 48.6028 185.189 48.6433 185.638 48.6337C186.108 48.6713 186.58 48.5986 187.016 48.4211C187.452 48.2436 187.841 47.9665 188.152 47.6121C188.701 46.9044 188.987 46.0269 188.961 45.1304C188.983 44.3006 188.707 43.4898 188.183 42.8447C187.902 42.5254 187.551 42.2752 187.157 42.1126C186.764 41.95 186.338 41.8803 185.914 41.9083C185.389 41.9297 184.876 42.0643 184.409 42.3038C183.942 42.5433 183.532 42.881 183.209 43.2945V48.041Z" fill="#0073E6"/>
<path d="M58.7457 21.661C53.2522 23.6358 51.3638 21.8332 49.7846 17.4387L47.7538 11.7884C45.7791 6.29545 47.5822 4.40707 51.9762 2.82786L57.6264 0.796512C63.12 -1.17765 65.0078 0.624943 66.5876 5.01945L68.6183 10.6691C70.5925 16.1627 68.7899 18.0511 64.396 19.6303L58.7457 21.661Z" fill="#F72A16"/>
<path d="M83.6808 21.661C89.1744 23.6358 91.0628 21.8332 92.642 17.4387L94.6727 11.7884C96.6475 6.29545 94.8449 4.40707 90.4504 2.82786L84.8002 0.796512C79.3072 -1.17765 77.4188 0.624943 75.839 5.01945L73.8082 10.6691C71.8341 16.1627 73.6367 18.0511 78.0312 19.6303L83.6808 21.661Z" fill="#F8BA22"/>
<path d="M110.857 21.661C105.364 23.6358 103.475 21.8332 101.896 17.4387L99.8652 11.7884C97.8905 6.29545 99.6931 4.40707 104.088 2.82786L109.738 0.796512C115.231 -1.17765 117.119 0.624943 118.698 5.01945L120.729 10.6691C122.704 16.1627 120.901 18.0511 116.507 19.6303L110.857 21.661Z" fill="#06C92E"/>
<path d="M135.791 21.661C141.284 23.6358 143.172 21.8332 144.752 17.4387L146.782 11.7884C148.757 6.29545 146.954 4.40707 142.56 2.82786L136.91 0.796512C131.416 -1.17765 129.528 0.624943 127.949 5.01945L125.918 10.6691C123.943 16.1627 125.746 18.0511 130.14 19.6303L135.791 21.661Z" fill="#00C2FC"/>
</svg>