<svg width="142" height="60" viewBox="0 0 142 60" fill="none" xmlns="http://www.w3.org/2000/svg">
<g clip-path="url(#clip0_384_1611)">
<path d="M118.954 25.6816L118.932 25.818C118.932 28.3861 117.432 31.4089 114.045 31.4089C110.091 31.4089 108.045 27.7725 107.954 22.1134H123.863L123.886 21.9089C124.75 15.818 122.818 7.72705 114.113 7.72705C107.068 7.72705 102.932 13.0225 102.932 21.7498C102.932 30.3861 107 35.4771 114.068 35.4771C119.591 35.4771 123.159 31.6589 123.773 27.2952C123.773 27.2271 123.818 27.0225 123.818 26.9771L118.954 25.6816ZM108.113 18.9771C108.432 14.568 110.636 11.7271 114.045 11.7271C116.886 11.7271 119.363 13.6589 119.159 18.9771H108.113Z" fill="#696C7A"/>
<path d="M91.8633 31.1363H91.3406L85.6815 8.13623H80.3633L87.3178 34.9317H95.4087L102.431 8.13623H97.2042L91.8633 31.1363Z" fill="#696C7A"/>
<path d="M77.9769 8.13623H72.8633V34.9317H77.9769V8.13623Z" fill="#696C7A"/>
<path d="M68.6605 0.54541H63.5469V34.9318H68.6605V0.54541Z" fill="#696C7A"/>
<path d="M59.1371 0.54541H54.0234V34.9318H59.1371V0.54541Z" fill="#696C7A"/>
<path d="M45.2056 8.13623V22.7044C45.2056 27.9772 43.2283 31.659 39.8874 31.659C37.1602 31.659 35.5011 29.6363 35.5011 25.5226V8.13623H30.4102V26.5454C30.4102 32.409 33.5011 35.4999 37.9329 35.4999C41.7056 35.4999 44.2738 32.7272 45.2511 28.6135H45.8647L46.2056 34.9317H50.3192V8.13623H45.2056Z" fill="#696C7A"/>
<path d="M139.341 8C136.569 8.04545 133.569 9.86364 132.455 14.4545H131.75L131.5 8.13636H127.387V34.9318H132.455V22.8181C132.455 15.6818 134.409 13.6364 138.046 13.6364C138.569 13.6364 139.273 13.7273 140.023 14.0227H140.046L141.273 8.18182C140.409 8 139.796 8 139.341 8Z" fill="#696C7A"/>
<path d="M35.9082 59.5909H30.2264C29.9309 59.5909 29.84 59.4772 29.9082 59.1818L29.9764 58.909C30.0673 58.5909 30.1809 58.5 30.4991 58.5C32.34 58.5 33.09 57.3636 33.9309 54.5227L36.5673 45.5454C36.9991 44.1136 36.7037 43.8863 35.1128 43.8863C34.8173 43.8863 34.7264 43.7727 34.7946 43.4772L34.8855 43.1363C34.9537 42.8636 35.1128 42.7954 35.3628 42.7954H39.5673C39.9764 42.7954 40.09 42.9772 40.1582 43.409L42.09 56.159L50.9537 43.4545C51.3855 42.8636 51.5673 42.7954 52.2037 42.7954H56.3627C56.6355 42.7954 56.7264 42.8863 56.6582 43.159L56.5673 43.4772C56.4764 43.7954 56.3855 43.8863 55.9991 43.8863C54.2946 43.8863 53.9082 44.2045 53.59 45.4545L50.5446 56.9318C50.2264 58.0909 50.5673 58.5227 52.2718 58.5227C52.6127 58.5227 52.7037 58.6136 52.6355 58.9545L52.5673 59.2272C52.4991 59.5227 52.34 59.6136 51.9309 59.6136H45.4537C45.1127 59.6136 44.9991 59.5 45.0673 59.1818L45.1355 58.8863C45.2037 58.5681 45.4082 58.5227 45.7718 58.5227C47.2037 58.5227 47.7946 58.1136 48.09 56.9318L51.3173 44.8409L41.2491 59.2272C41.0218 59.5227 40.9309 59.5909 40.6809 59.5909C40.4082 59.5909 40.3173 59.5 40.2718 59.1818L38.0218 44.8636L35.1809 54.5454C34.3173 57.4772 34.2037 58.5 36.1127 58.5C36.4537 58.5 36.5218 58.6363 36.4537 58.9545L36.3855 59.25C36.3173 59.5 36.2037 59.5909 35.9082 59.5909Z" fill="#696C7A"/>
<path d="M60.5004 58.7952C60.5004 58.2725 60.7504 57.3634 61.2958 55.8407L61.1367 55.7725C59.3185 58.2498 57.6594 59.8407 55.9322 59.8407C54.7958 59.8407 54.1367 59.068 54.1367 57.4771C54.1367 53.068 58.5004 46.9771 62.0004 46.9771C63.0685 46.9771 63.7731 47.4998 64.0913 48.1816L64.3185 47.7043C64.4776 47.3407 64.6367 47.2498 64.9094 47.2498L65.8867 47.2271C66.2731 47.2271 66.2958 47.4543 66.1367 47.9089C65.0685 50.7043 63.6367 54.4089 62.7731 56.9998C62.5231 57.7952 62.7731 57.9089 63.0458 57.9089C63.6822 57.9089 64.5004 56.9771 65.3185 55.818C65.4322 55.6589 65.5458 55.6589 65.7049 55.7498L65.9549 55.8861C66.114 55.9771 66.1367 56.068 66.0004 56.318C64.7049 58.3861 62.9549 59.8634 61.4776 59.8634C60.8185 59.8407 60.5004 59.4089 60.5004 58.7952ZM56.4549 56.4316C56.4549 57.1589 56.6367 57.8634 57.3867 57.8634C58.9094 57.8634 61.4322 54.4998 62.3867 52.5452C62.864 51.6361 63.2049 50.3861 63.2049 49.5225C63.2049 48.5225 62.6367 47.818 61.7504 47.818C59.614 47.8407 56.4549 53.4316 56.4549 56.4316Z" fill="#696C7A"/>
<path d="M71.9544 52L72.068 52.0455C73.568 49.4773 75.068 46.9546 76.9089 46.9546C77.7498 46.9546 78.1816 47.4773 78.1816 48.1819C78.1816 49.0455 77.6362 49.8864 76.8635 49.8864C76.4771 49.8864 76.1816 49.6137 76.0226 49.3182C75.9089 49.091 75.7953 48.9546 75.6135 48.9546C74.4544 48.9546 72.1816 52.9773 71.0226 55.4773C70.7271 56.0682 70.5226 56.6137 70.2271 57.4773L69.7044 59.091C69.5907 59.4773 69.4544 59.591 69.068 59.591H67.9544C67.6362 59.591 67.5226 59.4319 67.6816 59.0228C68.7271 56.1137 69.8407 53.1591 70.7498 50.2046C71.0907 49.2273 70.9089 48.9546 70.568 48.9546C70.1589 48.9546 69.0907 49.9773 68.2953 51.0682C68.1816 51.2273 68.068 51.2273 67.9089 51.1364L67.6589 51C67.4998 50.9091 67.4998 50.7273 67.6135 50.5682C69.0453 48.3864 70.818 47 72.068 47C73.1135 47 73.4089 48.341 72.7726 49.9546L71.9544 52Z" fill="#696C7A"/>
<path d="M83.1812 57.8865C82.7267 57.0683 82.1812 56.0229 81.704 55.1592C81.454 54.7274 81.2267 54.5229 80.6358 54.5229H80.2721L78.6585 59.1819C78.5449 59.5229 78.3858 59.6138 78.0221 59.6138H76.8631C76.4767 59.6138 76.454 59.4319 76.5676 59.0683L81.9994 43.6592C82.3403 42.7047 81.9312 42.5456 80.6812 42.5456C80.4994 42.5456 80.3403 42.4774 80.4312 42.2047L80.5449 41.8638C80.6131 41.6819 80.6812 41.6138 80.8858 41.6138H84.2494C84.3858 41.6138 84.4312 41.6365 84.5221 41.7274L84.6131 41.841C84.6812 41.932 84.704 41.9774 84.6585 42.1365L81.7494 49.9092L81.8403 49.9547C83.1585 48.182 84.8176 46.9774 86.5449 46.9774C87.8403 46.9774 88.6131 47.8183 88.6131 48.7729C88.6131 51.0229 86.0221 52.9774 83.4312 53.9092C83.954 54.8638 84.6812 56.182 85.1131 56.9547C85.6812 57.932 85.9767 58.4092 86.2949 58.4092C86.6812 58.4092 86.9994 58.0683 87.454 57.4547C87.5449 57.3183 87.6358 57.2956 87.8176 57.3865L87.9767 57.4774C88.1358 57.5683 88.1812 57.6365 88.0903 57.8183C87.5676 58.8183 86.6812 59.8638 85.3631 59.8638C84.3403 59.841 83.8631 59.0683 83.1812 57.8865ZM80.5221 53.7501H80.6358C81.204 53.7501 82.1358 53.5229 82.8176 53.2729C84.4767 52.6365 86.3176 50.9092 86.3176 49.3865C86.3176 48.841 86.0449 48.3638 85.3858 48.3638C83.8858 48.3638 81.5221 50.8638 80.5449 53.6819L80.5221 53.7501Z" fill="#696C7A"/>
<path d="M89.3418 56.6589C89.3418 52.3861 93.66 46.9771 97.0236 46.9771C98.5009 46.9771 99.2509 47.7952 99.2509 48.9316C99.2509 51.0225 96.8191 53.2725 91.8873 54.3861C91.7963 54.8634 91.7509 55.3407 91.7509 55.7952C91.7509 56.9771 92.1827 57.9998 93.3873 57.9998C94.3418 57.9998 95.3873 57.2725 96.3645 56.068C96.5009 55.9089 96.6145 55.8861 96.7963 55.9998L96.9782 56.1134C97.1373 56.2271 97.1145 56.3407 97.0009 56.5452C95.9554 58.318 94.1827 59.818 92.3191 59.818C90.0691 59.8407 89.3418 58.1589 89.3418 56.6589ZM92.16 53.4089C95.3873 52.6361 97.0691 50.6361 97.0691 49.0452C97.0691 48.4998 96.8873 48.1361 96.2963 48.1361C95.0009 48.1361 93.0236 50.6816 92.16 53.4089Z" fill="#696C7A"/>
<path d="M100.637 59.8408C99.3193 59.8408 99.3647 58.1135 99.8647 56.6817L102.706 48.4545H101.342C101.137 48.4545 101.047 48.3181 101.183 48.0681L101.433 47.5226C101.524 47.2726 101.592 47.2272 101.865 47.2272H103.16L103.865 45.2045C103.978 44.8635 104.069 44.7045 104.41 44.6135C104.933 44.4772 105.66 44.0908 105.91 44.0908C106.16 44.0908 106.297 44.2045 106.16 44.6135L105.251 47.2272H107.592C107.865 47.2272 107.933 47.3408 107.842 47.6135L107.615 48.1363C107.524 48.3863 107.433 48.4545 107.16 48.4545H104.819L101.819 57.0681C101.66 57.5454 101.774 57.8863 102.137 57.8863C102.592 57.8863 103.706 56.8181 104.41 55.8635C104.524 55.7272 104.615 55.6817 104.774 55.7726L105.047 55.9545C105.183 56.0454 105.16 56.1135 105.069 56.2954C104.183 57.7954 102.092 59.8408 100.637 59.8408Z" fill="#696C7A"/>
<path d="M77.9769 3.52295H72.8633V5.0684H77.9769V3.52295Z" fill="#696C7A"/>
<path d="M14.2955 17.1136V21.0909H22.2955C22.7955 27.5 19.0455 31.0682 14.5909 31.0682C8.81818 31.0682 5.40909 25.7045 5.40909 17.75C5.40909 10.2727 9.11364 4.72727 14.4773 4.52273C18.5 4.36364 21.6818 6.75 21.5227 12.1364V12.1818L27.0909 10.8182C26.6136 4.5 21.9318 0 14.6818 0C5.81818 0 0 7.27273 0 17.7727C0 28.4545 5.43182 35.5455 14.2727 35.5455C22.7273 35.5455 28.75 29.7045 27.5455 17.25V17.1364L14.2955 17.1136Z" fill="#696C7A"/>
</g>
<defs>
<clipPath id="clip0_384_1611">
<rect width="141.364" height="60" fill="white"/>
</clipPath>
</defs>
</svg>