<svg width="400" height="400" viewBox="0 0 400 400" fill="none" xmlns="http://www.w3.org/2000/svg">
<path opacity="0.7" d="M54.3499 133.671C54.3499 133.671 32.0459 191.271 63.3899 249.271C94.7339 307.271 159.294 337.911 210.966 364.111C262.638 390.311 316.294 377.551 341.79 334.639C367.286 291.727 332.318 261.095 332.27 199.903C332.222 138.711 341.43 122.511 308.27 70.8155C275.11 19.1195 193.822 7.67147 132.35 46.0155C70.8779 84.3595 54.3499 133.671 54.3499 133.671Z" fill="white"/>
<path d="M78.1848 67.0237L78.6328 66.6237C119.889 29.4717 174.681 27.7997 214.633 67.7837C235.433 88.6237 272.385 84.6397 298.817 92.1757C389.921 118.168 374.161 241.824 329.145 301.6C288.521 355.544 200.497 367.728 141.361 341.192C89.3608 317.864 52.8008 265.768 39.7608 211.296C38.4595 205.829 37.3928 200.314 36.5608 194.752C29.7288 148.376 42.8888 99.1197 78.1848 67.0237Z" fill="url(#paint0_linear_873_6269)"/>
<path d="M78.1848 67.0237L78.6328 66.6237C119.889 29.4717 174.681 27.7997 214.633 67.7837C235.433 88.6237 272.385 84.6397 298.817 92.1757C389.921 118.168 374.161 241.824 329.145 301.6C288.521 355.544 200.497 367.728 141.361 341.192C89.3608 317.864 52.8008 265.768 39.7608 211.296C38.4595 205.829 37.3928 200.314 36.5608 194.752C29.7288 148.376 42.8888 99.1197 78.1848 67.0237Z" fill="white" fill-opacity="0.07"/>
<path opacity="0.7" d="M78.1848 67.0237L78.6328 66.6237C119.889 29.4717 174.681 27.7997 214.633 67.7837C235.433 88.6237 272.385 84.6397 298.817 92.1757C389.921 118.168 374.161 241.824 329.145 301.6C288.521 355.544 200.497 367.728 141.361 341.192C89.3608 317.864 52.8008 265.768 39.7608 211.296C38.4595 205.829 37.3928 200.314 36.5608 194.752C29.7288 148.376 42.8888 99.1197 78.1848 67.0237Z" fill="white"/>
<mask id="mask0_873_6269" style="mask-type:luminance" maskUnits="userSpaceOnUse" x="194" y="80" width="141" height="30">
<path d="M219.204 105.24C219.204 105.24 230.1 92.7522 245.996 92.7522C245.996 92.7522 246.524 83.0482 257.372 80.9522C268.22 78.8562 270.332 88.5442 270.332 88.5442C270.332 88.5442 278.332 84.2962 289.108 88.5442C299.884 92.7922 297.692 105.208 297.692 105.208C297.692 105.208 328.74 104.192 334.068 109.888H194.484C194.484 109.888 197.3 102.92 219.204 105.24Z" fill="white"/>
</mask>
<g mask="url(#mask0_873_6269)">
<path opacity="0.5" d="M219.204 105.24C219.204 105.24 230.1 92.7522 245.996 92.7522C245.996 92.7522 246.524 83.0482 257.372 80.9522C268.22 78.8562 270.332 88.5442 270.332 88.5442C270.332 88.5442 278.332 84.2962 289.108 88.5442C299.884 92.7922 297.692 105.208 297.692 105.208C297.692 105.208 328.74 104.192 334.068 109.888H194.484C194.484 109.888 197.3 102.92 219.204 105.24Z" stroke="#263238" stroke-linecap="round" stroke-linejoin="round"/>
</g>
<path d="M219.204 105.24C219.204 105.24 230.1 92.7522 245.996 92.7522C245.996 92.7522 246.524 83.0482 257.372 80.9522C268.22 78.8562 270.332 88.5442 270.332 88.5442C270.332 88.5442 278.332 84.2962 289.108 88.5442C299.884 92.7922 297.692 105.208 297.692 105.208C297.692 105.208 328.74 104.192 334.068 109.888H194.484C194.484 109.888 197.3 102.92 219.204 105.24Z" stroke="#263238" stroke-linecap="round" stroke-linejoin="round"/>
<mask id="mask1_873_6269" style="mask-type:luminance" maskUnits="userSpaceOnUse" x="260" y="167" width="112" height="24">
<path d="M352.163 187.136C352.163 187.136 343.467 177.176 330.795 177.176C330.795 177.176 330.371 169.44 321.723 167.768C313.075 166.096 311.387 173.824 311.387 173.824C311.387 173.824 304.987 170.432 296.411 173.824C287.835 177.216 289.563 187.112 289.563 187.112C289.563 187.112 264.763 186.312 260.547 190.848H371.859C371.859 190.848 369.611 185.288 352.163 187.136Z" fill="white"/>
</mask>
<g mask="url(#mask1_873_6269)">
<path opacity="0.5" d="M352.163 187.136C352.163 187.136 343.467 177.176 330.795 177.176C330.795 177.176 330.371 169.44 321.723 167.768C313.075 166.096 311.387 173.824 311.387 173.824C311.387 173.824 304.987 170.432 296.411 173.824C287.835 177.216 289.563 187.112 289.563 187.112C289.563 187.112 264.763 186.312 260.547 190.848H371.859C371.859 190.848 369.611 185.288 352.163 187.136Z" stroke="#263238" stroke-linecap="round" stroke-linejoin="round"/>
</g>
<path d="M352.163 187.136C352.163 187.136 343.467 177.176 330.795 177.176C330.795 177.176 330.371 169.44 321.723 167.768C313.075 166.096 311.387 173.824 311.387 173.824C311.387 173.824 304.987 170.432 296.411 173.824C287.835 177.216 289.563 187.112 289.563 187.112C289.563 187.112 264.763 186.312 260.547 190.848H371.859C371.859 190.848 369.611 185.288 352.163 187.136Z" stroke="#263238" stroke-linecap="round" stroke-linejoin="round"/>
<mask id="mask2_873_6269" style="mask-type:luminance" maskUnits="userSpaceOnUse" x="45" y="116" width="67" height="15">
<path d="M56.8057 128.32C56.8057 128.32 61.9577 122.4 69.4857 122.4C69.629 121 70.2369 119.688 71.2127 118.673C72.1884 117.658 73.4759 116.999 74.8697 116.8C80.0137 115.808 81.0137 120.392 81.0137 120.392C82.4188 119.788 83.9322 119.476 85.4617 119.476C86.9913 119.476 88.5047 119.788 89.9097 120.392C95.0057 122.408 93.9737 128.288 93.9737 128.288C93.9737 128.288 108.686 127.808 111.206 130.504H45.0938C45.0938 130.504 46.4057 127.2 56.8057 128.32Z" fill="white"/>
</mask>
<g mask="url(#mask2_873_6269)">
<path opacity="0.5" d="M56.8057 128.32C56.8057 128.32 61.9577 122.4 69.4857 122.4C69.629 121 70.2369 119.688 71.2127 118.673C72.1884 117.658 73.4759 116.999 74.8697 116.8C80.0137 115.808 81.0137 120.392 81.0137 120.392C82.4188 119.788 83.9322 119.476 85.4617 119.476C86.9913 119.476 88.5047 119.788 89.9097 120.392C95.0057 122.408 93.9737 128.288 93.9737 128.288C93.9737 128.288 108.686 127.808 111.206 130.504H45.0938C45.0938 130.504 46.4057 127.2 56.8057 128.32Z" stroke="#263238" stroke-linecap="round" stroke-linejoin="round"/>
</g>
<path d="M56.8057 128.32C56.8057 128.32 61.9577 122.4 69.4857 122.4C69.629 121 70.2369 119.688 71.2127 118.673C72.1884 117.658 73.4759 116.999 74.8697 116.8C80.0137 115.808 81.0137 120.392 81.0137 120.392C82.4188 119.788 83.9322 119.476 85.4617 119.476C86.9913 119.476 88.5047 119.788 89.9097 120.392C95.0057 122.408 93.9737 128.288 93.9737 128.288C93.9737 128.288 108.686 127.808 111.206 130.504H45.0938C45.0938 130.504 46.4057 127.2 56.8057 128.32Z" stroke="#263238" stroke-linecap="round" stroke-linejoin="round"/>
<path d="M23.625 352.856C23.625 352.856 30.585 339.256 46.409 341.776C47.1332 340.013 48.4375 338.55 50.106 337.629C51.7746 336.708 53.7075 336.385 55.585 336.712C55.585 336.712 51.473 325.32 62.233 316.8C72.993 308.28 87.593 315.528 87.593 315.528C87.593 315.528 86.673 309.128 92.649 306.808L184.737 309.864C184.737 309.864 194.841 312.68 197.057 322.176C197.057 322.176 205.921 317.112 216.993 322.176C228.065 327.24 228.073 339.904 228.073 339.904C228.073 339.904 240.641 338.632 241.673 355.816C241.673 355.816 249.625 345.776 261.297 355.816" fill="white"/>
<path d="M23.625 352.856C23.625 352.856 30.585 339.256 46.409 341.776C47.1332 340.013 48.4375 338.55 50.106 337.629C51.7746 336.708 53.7075 336.385 55.585 336.712C55.585 336.712 51.473 325.32 62.233 316.8C72.993 308.28 87.593 315.528 87.593 315.528C87.593 315.528 86.673 309.128 92.649 306.808L184.737 309.864C184.737 309.864 194.841 312.68 197.057 322.176C197.057 322.176 205.921 317.112 216.993 322.176C228.065 327.24 228.073 339.904 228.073 339.904C228.073 339.904 240.641 338.632 241.673 355.816C241.673 355.816 249.625 345.776 261.297 355.816" stroke="#263238" stroke-linecap="round" stroke-linejoin="round"/>
<path d="M52.4211 358.232C52.1817 358.754 51.9708 359.288 51.7891 359.832" stroke="#263238" stroke-linecap="round" stroke-linejoin="round"/>
<path d="M89.7433 326.784C87.0873 327.84 84.4553 329.944 82.4953 333.864C82.4953 333.864 77.1753 331.568 74.2633 335.76C71.3513 339.952 76.1673 344.304 76.1673 344.304C76.1673 344.304 69.5193 345.576 69.1993 351.584C69.1993 351.584 62.4073 349.648 57.0312 352.936" stroke="#263238" stroke-linecap="round" stroke-linejoin="round"/>
<path d="M95.7078 325.864C94.6385 325.807 93.5662 325.861 92.5078 326.024" stroke="#263238" stroke-linecap="round" stroke-linejoin="round"/>
<path d="M156.946 313.824L154.795 306.784H123.003L117.538 318.992C117.538 318.992 103.699 314.872 100.843 326.904C100.425 326.739 99.9975 326.6 99.5625 326.488" stroke="#263238" stroke-linecap="round" stroke-linejoin="round"/>
<path d="M197.258 332.048C193.01 334.632 192.002 339.56 192.002 339.56C188.21 333.232 181.866 337.032 181.866 337.032C181.866 337.032 180.914 325.952 173.634 321.832C169.119 319.391 163.833 318.797 158.89 320.176L157.602 316.04" stroke="#263238" stroke-linecap="round" stroke-linejoin="round"/>
<path d="M224.005 352.952C221.685 350.816 218.253 350.952 218.253 350.952C218.253 350.952 222.373 335.448 208.445 331.328C204.285 330.104 201.141 330.344 198.773 331.288" stroke="#263238" stroke-linecap="round" stroke-linejoin="round"/>
<path d="M226.094 358.232C226.094 357.407 225.979 356.585 225.75 355.792" stroke="#263238" stroke-linecap="round" stroke-linejoin="round"/>
<path d="M186.877 309.84H154.789L162.789 294.88H178.877L186.877 309.84Z" fill="#757575" stroke="#263238" stroke-linecap="round" stroke-linejoin="round"/>
<path d="M119.682 309.84H87.5938L95.5937 294.88H111.682L119.682 309.84Z" fill="#757575" stroke="#263238" stroke-linecap="round" stroke-linejoin="round"/>
<path d="M158.882 309.84H115.594L123.594 294.88H150.882L158.882 309.84Z" fill="#999999" stroke="#263238" stroke-linecap="round" stroke-linejoin="round"/>
<path d="M184.737 295.951H156.945V149.551C156.943 132.434 161.759 115.661 170.841 101.151C179.924 115.661 184.739 132.434 184.737 149.551V295.951Z" fill="url(#paint1_linear_873_6269)"/>
<path d="M184.737 295.951H156.945V149.551C156.943 132.434 161.759 115.661 170.841 101.151C179.924 115.661 184.739 132.434 184.737 149.551V295.951Z" fill="white" fill-opacity="0.07"/>
<mask id="mask3_873_6269" style="mask-type:luminance" maskUnits="userSpaceOnUse" x="156" y="101" width="29" height="195">
<path d="M184.737 295.951H156.945V149.551C156.943 132.434 161.759 115.661 170.841 101.151C179.924 115.661 184.739 132.434 184.737 149.551V295.951Z" fill="white"/>
</mask>
<g mask="url(#mask3_873_6269)">
<path opacity="0.3" d="M184.641 145.599C184.697 146.895 184.737 148.199 184.737 149.503V295.951H156.945V149.551C156.945 148.247 156.945 146.943 157.033 145.647L184.641 145.599Z" fill="white"/>
<path opacity="0.2" d="M165.945 150.56V295.952H156.945V149.552C156.933 138.778 158.829 128.088 162.545 117.976C164.79 128.692 165.929 139.611 165.945 150.56Z" fill="black"/>
<path opacity="0.2" d="M184.74 149.511V295.951H181.004V151.103C181.004 133.927 177.549 116.925 170.844 101.111C179.926 115.621 184.742 132.394 184.74 149.511Z" fill="black"/>
</g>
<path d="M184.737 295.951H156.945V149.551C156.943 132.434 161.759 115.661 170.841 101.151C179.924 115.661 184.739 132.434 184.737 149.551V295.951Z" stroke="#263238" stroke-linecap="round" stroke-linejoin="round"/>
<path d="M117.534 295.951H89.7422V149.551C89.7402 132.434 94.5558 115.661 103.638 101.151C112.721 115.661 117.536 132.434 117.534 149.551V295.951Z" fill="url(#paint2_linear_873_6269)"/>
<path d="M117.534 295.951H89.7422V149.551C89.7402 132.434 94.5558 115.661 103.638 101.151C112.721 115.661 117.536 132.434 117.534 149.551V295.951Z" fill="white" fill-opacity="0.07"/>
<mask id="mask4_873_6269" style="mask-type:luminance" maskUnits="userSpaceOnUse" x="89" y="101" width="29" height="195">
<path d="M117.534 295.951H89.7422V149.551C89.7402 132.434 94.5558 115.661 103.638 101.151C112.721 115.661 117.536 132.434 117.534 149.551V295.951Z" fill="white"/>
</mask>
<g mask="url(#mask4_873_6269)">
<path opacity="0.3" d="M117.422 145.296C117.486 146.696 117.534 148.104 117.534 149.512V295.952H89.7422V149.552C89.7422 148.144 89.7902 146.736 89.8542 145.336L117.422 145.296Z" fill="white"/>
<path opacity="0.2" d="M113.987 124.328C116.34 132.515 117.533 140.992 117.531 149.512V295.952H108.523V150.56C108.524 144.113 108.914 137.672 109.691 131.272C110.225 126.797 110.958 122.352 111.891 117.936C112.667 120.04 113.371 122.168 113.987 124.328Z" fill="black"/>
<path opacity="0.2" d="M103.638 101.111C96.9269 116.924 93.4688 133.926 93.4702 151.103V295.951H89.7422V149.551C89.7327 132.42 94.5486 115.632 103.638 101.111Z" fill="black"/>
</g>
<path d="M117.534 295.951H89.7422V149.551C89.7402 132.434 94.5558 115.661 103.638 101.151C112.721 115.661 117.536 132.434 117.534 149.551V295.951Z" stroke="#263238" stroke-linecap="round" stroke-linejoin="round"/>
<path d="M184.642 145.504H157.266" stroke="#263238" stroke-linecap="round" stroke-linejoin="round"/>
<path d="M156.935 176.488H184.727V174.408H156.935V176.488Z" stroke="#263238" stroke-linecap="round" stroke-linejoin="round"/>
<path d="M156.945 235.601H184.641V230.329H156.945V235.601Z" stroke="#263238" stroke-linecap="round" stroke-linejoin="round"/>
<path d="M89.8359 145.504H117.22" stroke="#263238" stroke-linecap="round" stroke-linejoin="round"/>
<path d="M117.534 174.407H89.7422V176.487H117.534V174.407Z" stroke="#263238" stroke-linecap="round" stroke-linejoin="round"/>
<path d="M117.532 230.319H89.8359V235.591H117.532V230.319Z" stroke="#263238" stroke-linecap="round" stroke-linejoin="round"/>
<path d="M157.267 295.952H117.219V84.92C117.21 60.2534 124.14 36.0819 137.219 15.168C150.293 36.081 157.223 60.2486 157.219 84.912L157.267 295.952Z" fill="url(#paint3_linear_873_6269)"/>
<path d="M157.267 295.952H117.219V84.92C117.21 60.2534 124.14 36.0819 137.219 15.168C150.293 36.081 157.223 60.2486 157.219 84.912L157.267 295.952Z" fill="white" fill-opacity="0.07"/>
<mask id="mask5_873_6269" style="mask-type:luminance" maskUnits="userSpaceOnUse" x="117" y="15" width="41" height="281">
<path d="M157.267 295.952H117.219V84.92C117.21 60.2534 124.14 36.0819 137.219 15.168C150.293 36.081 157.223 60.2486 157.219 84.912L157.267 295.952Z" fill="white"/>
</mask>
<g mask="url(#mask5_873_6269)">
<path opacity="0.2" d="M156.89 75.0322H117.602C119.2 53.7907 125.94 33.2565 137.242 15.2002C148.55 33.2655 155.294 53.8111 156.89 75.0642V75.0322Z" fill="black" fill-opacity="0.7"/>
<g opacity="0.2">
<path d="M144.513 295.952H129.961V91.4641C129.961 67.5601 132.481 44.1361 137.241 23.8721C141.993 44.1361 144.513 67.5601 144.513 91.4561V295.952Z" fill="white"/>
</g>
<path opacity="0.2" d="M156.851 261.976V295.952H117.539V262.072C118.984 260.656 120.276 259.093 121.395 257.408V210.744C121.395 194.6 127.795 185.68 137.243 185.68C146.691 185.68 153.091 194.6 153.091 210.744V257.408C154.18 259.059 155.44 260.59 156.851 261.976Z" fill="black"/>
</g>
<path d="M157.267 295.952H117.219V84.92C117.21 60.2534 124.14 36.0819 137.219 15.168C150.293 36.081 157.223 60.2486 157.219 84.912L157.267 295.952Z" stroke="#263238" stroke-linecap="round" stroke-linejoin="round"/>
<path d="M157.267 109.849H117.219V115.233H157.267V109.849Z" stroke="#263238" stroke-linecap="round" stroke-linejoin="round"/>
<path d="M157.267 156.688H117.219V176.487H157.267V156.688Z" stroke="#263238" stroke-linecap="round" stroke-linejoin="round"/>
<path d="M157.267 250.521H117.219V266.505H157.267V250.521Z" stroke="#263238" stroke-linecap="round" stroke-linejoin="round"/>
<path d="M151.494 259.464V237.672H147.062V290.928H169.006V280.984C169.006 279.724 168.708 278.481 168.137 277.358C167.566 276.235 166.737 275.262 165.718 274.52L155.279 266.904C154.107 266.049 153.153 264.93 152.496 263.637C151.838 262.344 151.495 260.914 151.494 259.464Z" fill="url(#paint4_linear_873_6269)"/>
<path d="M151.494 259.464V237.672H147.062V290.928H169.006V280.984C169.006 279.724 168.708 278.481 168.137 277.358C167.566 276.235 166.737 275.262 165.718 274.52L155.279 266.904C154.107 266.049 153.153 264.93 152.496 263.637C151.838 262.344 151.495 260.914 151.494 259.464Z" fill="white" fill-opacity="0.07"/>
<path d="M151.494 259.464V237.672H147.062V290.928H169.006V280.984C169.006 279.724 168.708 278.481 168.137 277.358C167.566 276.235 166.737 275.262 165.718 274.52L155.279 266.904C154.107 266.049 153.153 264.93 152.496 263.637C151.838 262.344 151.495 260.914 151.494 259.464Z" stroke="#263238" stroke-linecap="round" stroke-linejoin="round"/>
<path d="M122.981 259.464V237.672H127.413V290.928H105.469V280.984C105.469 279.724 105.767 278.481 106.338 277.358C106.91 276.235 107.738 275.262 108.757 274.52L119.205 266.904C120.375 266.049 121.328 264.929 121.984 263.636C122.64 262.343 122.982 260.914 122.981 259.464Z" fill="url(#paint5_linear_873_6269)"/>
<path d="M122.981 259.464V237.672H127.413V290.928H105.469V280.984C105.469 279.724 105.767 278.481 106.338 277.358C106.91 276.235 107.738 275.262 108.757 274.52L119.205 266.904C120.375 266.049 121.328 264.929 121.984 263.636C122.64 262.343 122.982 260.914 122.981 259.464Z" fill="white" fill-opacity="0.07"/>
<path d="M122.981 259.464V237.672H127.413V290.928H105.469V280.984C105.469 279.724 105.767 278.481 106.338 277.358C106.91 276.235 107.738 275.262 108.757 274.52L119.205 266.904C120.375 266.049 121.328 264.929 121.984 263.636C122.64 262.343 122.982 260.914 122.981 259.464Z" stroke="#263238" stroke-linecap="round" stroke-linejoin="round"/>
<path d="M105.469 286.288H169.013" stroke="#263238" stroke-linecap="round" stroke-linejoin="round"/>
<path d="M144.252 295.951H130.236L127.836 288.991H146.652L144.252 295.951Z" fill="url(#paint6_linear_873_6269)"/>
<path d="M144.252 295.951H130.236L127.836 288.991H146.652L144.252 295.951Z" fill="white" fill-opacity="0.07"/>
<path d="M144.252 295.951H130.236L127.836 288.991H146.652L144.252 295.951Z" stroke="#263238" stroke-linecap="round" stroke-linejoin="round"/>
<path d="M151.566 210.84V290.928H123.086V210.84C123.097 202.936 125.721 195.257 130.55 189C131.352 187.967 132.379 187.13 133.553 186.555C134.728 185.98 136.018 185.681 137.326 185.681C138.634 185.681 139.924 185.98 141.099 186.555C142.273 187.13 143.3 187.967 144.102 189C145.494 190.802 146.71 192.734 147.734 194.768C148.478 196.23 149.117 197.743 149.646 199.296C150.917 203.012 151.566 206.912 151.566 210.84Z" fill="white"/>
<mask id="mask6_873_6269" style="mask-type:luminance" maskUnits="userSpaceOnUse" x="123" y="185" width="29" height="106">
<path d="M151.566 210.84V290.928H123.086V210.84C123.097 202.936 125.721 195.257 130.55 189C131.352 187.967 132.379 187.13 133.553 186.555C134.728 185.98 136.018 185.681 137.326 185.681C138.634 185.681 139.924 185.98 141.099 186.555C142.273 187.13 143.3 187.967 144.102 189C145.494 190.802 146.71 192.734 147.734 194.768C148.478 196.23 149.117 197.743 149.646 199.296C150.917 203.012 151.566 206.912 151.566 210.84Z" fill="white"/>
</mask>
<g mask="url(#mask6_873_6269)">
<g opacity="0.3">
<path d="M151.48 210.84V290.928H144.44V212.928C144.445 209.158 144.124 205.395 143.48 201.68C143.219 200.171 142.899 198.701 142.52 197.272C142.036 195.368 141.429 193.498 140.704 191.672C139.848 189.512 138.584 188.472 137.32 188.472C136.056 188.472 134.784 189.552 133.928 191.672C133.21 193.5 132.604 195.37 132.112 197.272C130.819 202.389 130.177 207.65 130.2 212.928V290.928H123V210.84C123.011 202.936 125.635 195.257 130.464 189C131.266 187.967 132.293 187.13 133.467 186.555C134.642 185.98 135.932 185.681 137.24 185.681C138.548 185.681 139.838 185.98 141.013 186.555C142.187 187.13 143.214 187.967 144.016 189C145.408 190.802 146.624 192.734 147.648 194.768C148.392 196.23 149.031 197.743 149.56 199.296C150.831 203.012 151.48 206.912 151.48 210.84Z" fill="url(#paint7_linear_873_6269)"/>
<path d="M151.48 210.84V290.928H144.44V212.928C144.445 209.158 144.124 205.395 143.48 201.68C143.219 200.171 142.899 198.701 142.52 197.272C142.036 195.368 141.429 193.498 140.704 191.672C139.848 189.512 138.584 188.472 137.32 188.472C136.056 188.472 134.784 189.552 133.928 191.672C133.21 193.5 132.604 195.37 132.112 197.272C130.819 202.389 130.177 207.65 130.2 212.928V290.928H123V210.84C123.011 202.936 125.635 195.257 130.464 189C131.266 187.967 132.293 187.13 133.467 186.555C134.642 185.98 135.932 185.681 137.24 185.681C138.548 185.681 139.838 185.98 141.013 186.555C142.187 187.13 143.214 187.967 144.016 189C145.408 190.802 146.624 192.734 147.648 194.768C148.392 196.23 149.031 197.743 149.56 199.296C150.831 203.012 151.48 206.912 151.48 210.84Z" fill="white" fill-opacity="0.07"/>
</g>
</g>
<path d="M151.566 210.84V290.928H123.086V210.84C123.097 202.936 125.721 195.257 130.55 189C131.352 187.967 132.379 187.13 133.553 186.555C134.728 185.98 136.018 185.681 137.326 185.681C138.634 185.681 139.924 185.98 141.099 186.555C142.273 187.13 143.3 187.967 144.102 189C145.494 190.802 146.71 192.734 147.734 194.768C148.478 196.23 149.117 197.743 149.646 199.296C150.917 203.012 151.566 206.912 151.566 210.84Z" stroke="#263238" stroke-linecap="round" stroke-linejoin="round"/>
<path d="M143.202 209.912C140.874 202.824 133.554 202.824 131.202 209.912L128.578 208.312C131.922 198.128 142.442 198.128 145.794 208.312L143.202 209.912Z" fill="white"/>
<path d="M143.202 209.912C140.874 202.824 133.554 202.824 131.202 209.912L128.578 208.312C131.922 198.128 142.442 198.128 145.794 208.312L143.202 209.912Z" fill="#BFBFBF" stroke="#263238" stroke-miterlimit="10"/>
<path d="M147.644 194.768H126.844C127.867 192.734 129.084 190.802 130.476 189C131.277 187.967 132.305 187.13 133.479 186.555C134.654 185.98 135.944 185.681 137.252 185.681C138.56 185.681 139.85 185.98 141.024 186.555C142.199 187.13 143.226 187.967 144.028 189C145.414 190.803 146.625 192.734 147.644 194.768Z" fill="url(#paint8_linear_873_6269)"/>
<path d="M147.644 194.768H126.844C127.867 192.734 129.084 190.802 130.476 189C131.277 187.967 132.305 187.13 133.479 186.555C134.654 185.98 135.944 185.681 137.252 185.681C138.56 185.681 139.85 185.98 141.024 186.555C142.199 187.13 143.226 187.967 144.028 189C145.414 190.803 146.625 192.734 147.644 194.768Z" fill="white" fill-opacity="0.07"/>
<path d="M147.644 194.768H126.844C127.867 192.734 129.084 190.802 130.476 189C131.277 187.967 132.305 187.13 133.479 186.555C134.654 185.98 135.944 185.681 137.252 185.681C138.56 185.681 139.85 185.98 141.024 186.555C142.199 187.13 143.226 187.967 144.028 189C145.414 190.803 146.625 192.734 147.644 194.768Z" stroke="#263238" stroke-linecap="round" stroke-linejoin="round"/>
<path d="M254.79 296.96C255.11 309.76 248.782 308.712 248.782 308.712C248.114 307.241 247.31 305.835 246.382 304.512C243.07 299.416 237.998 292.272 239.902 288.04C241.145 285.515 242.559 283.078 244.134 280.744C247.526 275.544 251.422 270.288 251.422 270.288L234.526 267.488C234.526 267.488 222.526 272.464 212.998 273.04H212.262C203.59 273.208 204.99 266.408 204.99 264.24C204.99 263.304 207.334 261.592 210.078 259.904C213.99 257.504 218.734 255.144 218.734 255.144L216.166 249.824C214.689 250.122 213.177 250.203 211.678 250.064C205.102 249.344 206.006 242.864 207.07 240.048C207.374 239.248 208.886 238.016 211.022 236.608C217.782 232.152 230.726 225.944 230.726 225.944H249.71L268.39 276.936C268.39 276.936 254.478 284.176 254.79 296.96Z" fill="white"/>
<g opacity="0.4">
<path d="M254.79 296.96C255.11 309.76 248.782 308.712 248.782 308.712C248.114 307.241 247.31 305.835 246.382 304.512C243.07 299.416 237.998 292.272 239.902 288.04C241.145 285.515 242.559 283.078 244.134 280.744C247.526 275.544 251.422 270.288 251.422 270.288L234.526 267.488C234.526 267.488 222.526 272.464 212.998 273.04H212.262C203.59 273.208 204.99 266.408 204.99 264.24C204.99 263.304 207.334 261.592 210.078 259.904C213.99 257.504 218.734 255.144 218.734 255.144L216.166 249.824C214.689 250.122 213.177 250.203 211.678 250.064C205.102 249.344 206.006 242.864 207.07 240.048C207.374 239.248 208.886 238.016 211.022 236.608C217.782 232.152 230.726 225.944 230.726 225.944H249.71L268.39 276.936C268.39 276.936 254.478 284.176 254.79 296.96Z" fill="url(#paint9_linear_873_6269)"/>
<path d="M254.79 296.96C255.11 309.76 248.782 308.712 248.782 308.712C248.114 307.241 247.31 305.835 246.382 304.512C243.07 299.416 237.998 292.272 239.902 288.04C241.145 285.515 242.559 283.078 244.134 280.744C247.526 275.544 251.422 270.288 251.422 270.288L234.526 267.488C234.526 267.488 222.526 272.464 212.998 273.04H212.262C203.59 273.208 204.99 266.408 204.99 264.24C204.99 263.304 207.334 261.592 210.078 259.904C213.99 257.504 218.734 255.144 218.734 255.144L216.166 249.824C214.689 250.122 213.177 250.203 211.678 250.064C205.102 249.344 206.006 242.864 207.07 240.048C207.374 239.248 208.886 238.016 211.022 236.608C217.782 232.152 230.726 225.944 230.726 225.944H249.71L268.39 276.936C268.39 276.936 254.478 284.176 254.79 296.96Z" fill="white" fill-opacity="0.07"/>
</g>
<g opacity="0.4">
<path d="M254.79 296.96C255.11 309.76 248.782 308.712 248.782 308.712C248.114 307.241 247.311 305.834 246.382 304.512C246.623 303.287 246.738 302.04 246.726 300.792C246.646 296.416 243.054 288.04 243.054 288.04L246.726 282.232C245.971 281.567 245.089 281.061 244.134 280.744C247.526 275.544 251.422 270.288 251.422 270.288L234.526 267.488C234.526 267.488 222.526 272.464 212.998 273.04H212.262C212.814 268.28 210.934 262.28 210.078 259.88C213.99 257.48 218.734 255.12 218.734 255.12L216.166 249.8C214.69 250.098 213.178 250.179 211.678 250.04C212.542 245.888 211.718 240.128 211.022 236.584C217.782 232.128 230.726 225.92 230.726 225.92H249.71L268.39 276.912C268.39 276.912 254.478 284.176 254.79 296.96Z" fill="url(#paint10_linear_873_6269)"/>
<path d="M254.79 296.96C255.11 309.76 248.782 308.712 248.782 308.712C248.114 307.241 247.311 305.834 246.382 304.512C246.623 303.287 246.738 302.04 246.726 300.792C246.646 296.416 243.054 288.04 243.054 288.04L246.726 282.232C245.971 281.567 245.089 281.061 244.134 280.744C247.526 275.544 251.422 270.288 251.422 270.288L234.526 267.488C234.526 267.488 222.526 272.464 212.998 273.04H212.262C212.814 268.28 210.934 262.28 210.078 259.88C213.99 257.48 218.734 255.12 218.734 255.12L216.166 249.8C214.69 250.098 213.178 250.179 211.678 250.04C212.542 245.888 211.718 240.128 211.022 236.584C217.782 232.128 230.726 225.92 230.726 225.92H249.71L268.39 276.912C268.39 276.912 254.478 284.176 254.79 296.96Z" fill="white" fill-opacity="0.07"/>
</g>
<path d="M249.726 225.944H230.742C230.742 225.944 208.342 236.688 207.086 240.048C205.83 243.408 204.79 251.872 216.182 249.824L218.75 255.144C218.75 255.144 205.006 261.976 205.006 264.24C205.006 266.504 203.526 273.608 213.006 273.04C222.486 272.472 234.534 267.488 234.534 267.488L251.43 270.288C251.43 270.288 242.454 282.4 239.918 288.04C237.382 293.68 247.198 304.456 248.798 308.712C248.798 308.712 255.126 309.744 254.806 296.96C254.486 284.176 268.406 276.96 268.406 276.96" stroke="#263238" stroke-linecap="round" stroke-linejoin="round"/>
<path d="M245.234 285.76C245.234 285.76 249.994 283.096 252.586 288.04" stroke="#263238" stroke-linecap="round" stroke-linejoin="round"/>
<path d="M251.671 148.487H253.487C253.744 148.487 253.99 148.589 254.172 148.771C254.353 148.952 254.455 149.199 254.455 149.455V188.415H250.703V149.455C250.703 149.328 250.728 149.202 250.777 149.085C250.825 148.967 250.897 148.861 250.987 148.771C251.077 148.681 251.183 148.61 251.301 148.561C251.418 148.512 251.544 148.487 251.671 148.487Z" fill="#263238"/>
<path d="M253.742 106.56H251.406V150.408H253.742V106.56Z" fill="#263238"/>
<path d="M254.095 102.216H251.055V108.16H254.095V102.216Z" fill="#757575" stroke="#263238" stroke-linecap="round" stroke-linejoin="round"/>
<path opacity="0.3" d="M251.812 178.208V179" stroke="white" stroke-linecap="round" stroke-linejoin="round"/>
<path opacity="0.3" d="M253.356 149.671H251.812V176.303" stroke="white" stroke-linecap="round" stroke-linejoin="round"/>
<path opacity="0.3" d="M252.422 134.792V136.272" stroke="white" stroke-linecap="round" stroke-linejoin="round"/>
<path opacity="0.3" d="M252.422 109.479V131.735" stroke="white" stroke-linecap="round" stroke-linejoin="round"/>
<path d="M285.415 186.256H219.743C217.339 186.256 215.391 188.204 215.391 190.608V268.592C215.391 270.995 217.339 272.944 219.743 272.944H285.415C287.818 272.944 289.767 270.995 289.767 268.592V190.608C289.767 188.204 287.818 186.256 285.415 186.256Z" fill="#757575"/>
<mask id="mask7_873_6269" style="mask-type:luminance" maskUnits="userSpaceOnUse" x="215" y="186" width="75" height="87">
<path d="M285.415 186.256H219.743C217.339 186.256 215.391 188.204 215.391 190.608V268.592C215.391 270.995 217.339 272.944 219.743 272.944H285.415C287.818 272.944 289.767 270.995 289.767 268.592V190.608C289.767 188.204 287.818 186.256 285.415 186.256Z" fill="white"/>
</mask>
<g mask="url(#mask7_873_6269)">
<path opacity="0.2" d="M218.077 257.392V191.504C218.076 191.099 218.155 190.698 218.31 190.323C218.464 189.948 218.691 189.608 218.977 189.321C219.263 189.034 219.603 188.807 219.977 188.651C220.351 188.496 220.752 188.416 221.157 188.416H281.549C281.681 188.417 281.811 188.383 281.925 188.317C282.039 188.251 282.133 188.155 282.197 188.04C282.259 187.928 282.289 187.802 282.287 187.674C282.284 187.546 282.249 187.421 282.183 187.312C282.118 187.202 282.025 187.111 281.914 187.048C281.803 186.985 281.677 186.952 281.549 186.952H219.997C219.055 186.952 218.152 187.326 217.486 187.993C216.82 188.659 216.445 189.562 216.445 190.504V257.6C216.443 257.753 216.489 257.903 216.576 258.028C216.664 258.153 216.789 258.248 216.933 258.298C217.077 258.349 217.234 258.352 217.38 258.309C217.527 258.266 217.656 258.177 217.749 258.056L217.893 257.864C218.011 257.735 218.076 257.567 218.077 257.392Z" fill="white"/>
<path opacity="0.4" d="M289.769 190.608V268.592C289.769 269.746 289.311 270.853 288.494 271.669C287.678 272.485 286.571 272.944 285.417 272.944H219.745C218.724 272.944 217.735 272.584 216.953 271.928C218.07 271.102 219.295 270.432 220.593 269.936H245.617H283.873C284.722 269.936 285.536 269.599 286.136 268.999C286.736 268.398 287.073 267.585 287.073 266.736V192.2C287.688 191.02 288.499 189.954 289.473 189.048C289.67 189.544 289.77 190.074 289.769 190.608Z" fill="black" fill-opacity="0.7"/>
<path opacity="0.2" d="M289.76 250.841V268.593C289.76 269.747 289.301 270.854 288.485 271.67C287.669 272.486 286.562 272.945 285.408 272.945H246.064L245.608 269.953C245.928 268.713 245.608 263.241 245.608 263.241C243.08 256.497 245.608 246.377 245.608 246.377L261.488 236.553C261.488 236.553 272.192 242.401 274.248 244.553C276.304 246.705 277.888 260.273 277.888 260.273C280.008 259.769 283.704 256.657 287.072 253.449C287.992 252.585 288.92 251.689 289.76 250.841Z" fill="black" fill-opacity="0.7"/>
</g>
<path d="M285.415 186.256H219.743C217.339 186.256 215.391 188.204 215.391 190.608V268.592C215.391 270.995 217.339 272.944 219.743 272.944H285.415C287.818 272.944 289.767 270.995 289.767 268.592V190.608C289.767 188.204 287.818 186.256 285.415 186.256Z" stroke="#263238" stroke-linecap="round" stroke-linejoin="round"/>
<path d="M287.078 256.455V258.831" stroke="#263238" stroke-linecap="round" stroke-linejoin="round"/>
<path d="M243.07 189.216H284.094C284.886 189.216 285.645 189.53 286.204 190.09C286.764 190.649 287.078 191.408 287.078 192.2V253.296" stroke="#263238" stroke-linecap="round" stroke-linejoin="round"/>
<path d="M218.078 202.944V192.2C218.078 191.408 218.393 190.649 218.952 190.09C219.512 189.53 220.271 189.216 221.062 189.216H234.214" stroke="#263238" stroke-linecap="round" stroke-linejoin="round"/>
<path d="M218.078 210.224V208.168" stroke="#263238" stroke-linecap="round" stroke-linejoin="round"/>
<path d="M231.198 269.984H221.062C220.271 269.984 219.512 269.67 218.952 269.11C218.393 268.551 218.078 267.792 218.078 267V214.2" stroke="#263238" stroke-linecap="round" stroke-linejoin="round"/>
<path d="M287.075 267C287.075 267.791 286.761 268.55 286.201 269.11C285.641 269.67 284.882 269.984 284.091 269.984H234.211" stroke="#263238" stroke-linecap="round" stroke-linejoin="round"/>
<path d="M252.579 251.6C260.89 251.6 267.627 244.863 267.627 236.552C267.627 228.241 260.89 221.504 252.579 221.504C244.268 221.504 237.531 228.241 237.531 236.552C237.531 244.863 244.268 251.6 252.579 251.6Z" fill="url(#paint11_linear_873_6269)"/>
<path d="M252.579 251.6C260.89 251.6 267.627 244.863 267.627 236.552C267.627 228.241 260.89 221.504 252.579 221.504C244.268 221.504 237.531 228.241 237.531 236.552C237.531 244.863 244.268 251.6 252.579 251.6Z" fill="white" fill-opacity="0.07"/>
<mask id="mask8_873_6269" style="mask-type:luminance" maskUnits="userSpaceOnUse" x="237" y="221" width="31" height="31">
<path d="M252.579 251.6C260.89 251.6 267.627 244.863 267.627 236.552C267.627 228.241 260.89 221.504 252.579 221.504C244.268 221.504 237.531 228.241 237.531 236.552C237.531 244.863 244.268 251.6 252.579 251.6Z" fill="white"/>
</mask>
<g mask="url(#mask8_873_6269)">
<path opacity="0.2" d="M267.624 236.553C267.625 239.484 266.77 242.351 265.164 244.803C263.558 247.255 261.27 249.184 258.583 250.354C255.895 251.524 252.925 251.884 250.036 251.389C247.147 250.894 244.465 249.566 242.32 247.569C242.847 246.558 243.586 245.673 244.488 244.977C244.488 244.977 253.2 252.433 261.16 244.465C267.12 238.497 261.96 229.601 261.96 229.601C261.96 229.601 262.76 228.737 265.16 228.345C266.762 230.783 267.618 233.635 267.624 236.553Z" fill="black" fill-opacity="0.7"/>
<path opacity="0.2" d="M243.756 239.944C243.591 240.014 243.406 240.022 243.236 239.964C243.066 239.906 242.924 239.788 242.836 239.632C242.659 239.361 242.552 239.05 242.524 238.728C241.5 232.328 244.884 226.28 251.708 225.712C252.98 225.6 256.244 225.712 255.78 227.792C255.584 228.456 255.151 229.025 254.564 229.392C252.552 230.669 250.608 232.05 248.74 233.528C247.816 234.309 247.008 235.217 246.34 236.224C245.996 236.736 244.844 239.496 243.756 239.944Z" fill="black" fill-opacity="0.7"/>
</g>
<path d="M252.579 251.6C260.89 251.6 267.627 244.863 267.627 236.552C267.627 228.241 260.89 221.504 252.579 221.504C244.268 221.504 237.531 228.241 237.531 236.552C237.531 244.863 244.268 251.6 252.579 251.6Z" stroke="#263238" stroke-linecap="round" stroke-linejoin="round"/>
<path d="M240.891 236.552C240.891 235.018 241.193 233.498 241.78 232.08C242.368 230.663 243.229 229.375 244.314 228.29C245.4 227.206 246.688 226.345 248.106 225.759C249.524 225.172 251.044 224.871 252.579 224.872" stroke="#263238" stroke-linecap="round" stroke-linejoin="round"/>
<path d="M249.525 247.823C247.437 247.259 245.548 246.126 244.066 244.551C242.584 242.977 241.569 241.021 241.133 238.903" stroke="#263238" stroke-linecap="round" stroke-linejoin="round"/>
<path d="M260.05 227.575C261.895 229.111 263.222 231.179 263.85 233.496C264.478 235.813 264.377 238.267 263.56 240.524C262.743 242.782 261.251 244.733 259.286 246.112C257.321 247.491 254.979 248.231 252.578 248.231" stroke="#263238" stroke-linecap="round" stroke-linejoin="round"/>
<path d="M254.938 225.104C255.906 225.301 256.844 225.624 257.729 226.064" stroke="#263238" stroke-linecap="round" stroke-linejoin="round"/>
<path d="M241.846 202.575C243.398 202.575 244.198 203.503 244.198 205.119V205.439H242.694V205.023C242.694 204.295 242.398 204.023 241.894 204.023C241.39 204.023 241.094 204.295 241.094 205.023C241.094 205.751 241.414 206.311 242.462 207.223C243.79 208.399 244.214 209.239 244.214 210.423C244.214 212.023 243.414 212.967 241.814 212.967C240.214 212.967 239.414 212.039 239.414 210.423V209.799H240.918V210.519C240.918 211.247 241.238 211.503 241.718 211.503C242.198 211.503 242.518 211.247 242.518 210.519C242.518 209.791 242.206 209.231 241.158 208.319C239.83 207.143 239.406 206.303 239.406 205.119C239.502 203.503 240.302 202.575 241.846 202.575Z" fill="white"/>
<path d="M244.664 202.688H249.6V204.136H247.92V212.8H246.32V204.136H244.656L244.664 202.688Z" fill="white"/>
<path d="M254.88 212.8H253.28L253.008 210.96H251.049L250.777 212.8H249.312L250.913 202.656H253.241L254.88 212.8ZM251.249 209.6H252.793L252.041 204.472L251.249 209.6Z" fill="white"/>
<path d="M258.961 212.799C258.829 212.397 258.78 211.973 258.817 211.552V209.952C258.817 209.008 258.497 208.663 257.777 208.663H257.225V212.799H255.625V202.688H258.025C259.681 202.688 260.425 203.487 260.425 205.023V205.823C260.481 206.231 260.411 206.646 260.223 207.012C260.036 207.379 259.74 207.679 259.377 207.871C260.177 208.207 260.433 208.959 260.433 210.015V211.615C260.404 212.034 260.464 212.454 260.609 212.847L258.961 212.799ZM257.225 204.104V207.223H257.849C258.441 207.223 258.801 206.96 258.801 206.152V205.152C258.801 204.424 258.561 204.104 258.001 204.104H257.225Z" fill="white"/>
<path d="M260.992 202.688H265.92V204.135H264.248V212.799H262.648V204.135H260.984L260.992 202.688Z" fill="white"/>
<path d="M298.786 210.136C298.786 210.136 292.458 212.096 290.242 217.592" stroke="#263238" stroke-linecap="round" stroke-linejoin="round"/>
<path d="M327.469 384.505C326.757 372.273 326.292 359.777 325.685 349.721C324.421 328.865 323.469 314.873 321.573 300.633C319.677 286.393 319.972 264.881 319.036 257.369C318.101 249.857 315.261 248.265 313.029 239.337C310.797 230.409 308.781 212.633 305.117 210.137C301.453 207.641 290.236 202.937 290.236 202.937V253.289C283.588 263.505 275.677 266.033 275.677 266.033C270.613 251.377 271.252 245.561 266.188 240.177C261.124 234.793 257.477 227.761 249.525 230.705C245.741 232.105 243.716 233.529 245.612 246.369C247.508 259.209 251.309 263.233 251.309 263.233C251.941 267.617 250.996 280.369 249.412 286.897C247.828 293.425 253.844 310.753 256.693 321.833C259.54 332.913 274.733 355.353 274.733 355.353C275.074 363.805 274.862 372.271 274.101 380.697C273.981 381.889 273.837 383.161 273.669 384.497C273.669 384.497 280.653 395.257 288.125 395.257C316.189 395.265 327.469 384.505 327.469 384.505Z" fill="white"/>
<g opacity="0.4">
<path d="M246.736 234.488C247.029 233.756 247.029 232.94 246.736 232.208C247.556 231.529 248.502 231.02 249.52 230.712C257.472 227.768 261.12 234.808 266.184 240.184C266.64 240.666 267.065 241.176 267.456 241.712C262.872 239.984 256.864 240.016 254.448 243.368C251.408 247.568 245.216 240 246.736 234.488Z" fill="url(#paint12_linear_873_6269)"/>
<path d="M246.736 234.488C247.029 233.756 247.029 232.94 246.736 232.208C247.556 231.529 248.502 231.02 249.52 230.712C257.472 227.768 261.12 234.808 266.184 240.184C266.64 240.666 267.065 241.176 267.456 241.712C262.872 239.984 256.864 240.016 254.448 243.368C251.408 247.568 245.216 240 246.736 234.488Z" fill="white" fill-opacity="0.07"/>
</g>
<g opacity="0.4">
<path d="M281.082 372.152L283.586 381.536C283.586 381.536 280.058 378.08 274.786 369.696C275.042 361.512 274.73 355.36 274.73 355.36C274.73 355.36 259.53 332.912 256.69 321.84C253.85 310.768 247.826 293.424 249.41 286.904C250.994 280.384 251.938 267.624 251.306 263.24C250.562 262.326 249.943 261.317 249.466 260.24C250.121 259.559 250.952 259.072 251.866 258.832C254.495 265.95 255.546 273.555 254.946 281.12C253.962 293.776 256.13 294.832 260.322 311.288C264.514 327.744 271.474 346.376 274.722 349.688C277.97 353 279.418 368.12 281.082 372.152Z" fill="url(#paint13_linear_873_6269)"/>
<path d="M281.082 372.152L283.586 381.536C283.586 381.536 280.058 378.08 274.786 369.696C275.042 361.512 274.73 355.36 274.73 355.36C274.73 355.36 259.53 332.912 256.69 321.84C253.85 310.768 247.826 293.424 249.41 286.904C250.994 280.384 251.938 267.624 251.306 263.24C250.562 262.326 249.943 261.317 249.466 260.24C250.121 259.559 250.952 259.072 251.866 258.832C254.495 265.95 255.546 273.555 254.946 281.12C253.962 293.776 256.13 294.832 260.322 311.288C264.514 327.744 271.474 346.376 274.722 349.688C277.97 353 279.418 368.12 281.082 372.152Z" fill="white" fill-opacity="0.07"/>
</g>
<g opacity="0.4">
<path d="M287.079 261.279C287.079 261.279 292.071 262.079 294.079 263.239C294.079 263.239 284.335 265.783 283.679 268.495C283.023 271.207 280.959 274.023 277.279 270.711C277.279 270.711 277.087 268.639 276.703 265.631C279.055 264.583 285.031 261.295 290.239 253.295V202.943C290.239 202.943 295.775 205.263 300.343 207.503C296.959 207.951 293.495 208.991 292.143 211.279C292.583 212.68 293.319 213.97 294.302 215.061C295.285 216.151 296.491 217.017 297.839 217.599C301.439 219.199 297.839 246.399 297.839 246.399C297.839 246.399 303.743 247.855 305.639 253.319C305.639 253.319 295.935 254.311 291.927 257.391C287.919 260.471 287.079 261.279 287.079 261.279Z" fill="url(#paint14_linear_873_6269)"/>
<path d="M287.079 261.279C287.079 261.279 292.071 262.079 294.079 263.239C294.079 263.239 284.335 265.783 283.679 268.495C283.023 271.207 280.959 274.023 277.279 270.711C277.279 270.711 277.087 268.639 276.703 265.631C279.055 264.583 285.031 261.295 290.239 253.295V202.943C290.239 202.943 295.775 205.263 300.343 207.503C296.959 207.951 293.495 208.991 292.143 211.279C292.583 212.68 293.319 213.97 294.302 215.061C295.285 216.151 296.491 217.017 297.839 217.599C301.439 219.199 297.839 246.399 297.839 246.399C297.839 246.399 303.743 247.855 305.639 253.319C305.639 253.319 295.935 254.311 291.927 257.391C287.919 260.471 287.079 261.279 287.079 261.279Z" fill="white" fill-opacity="0.07"/>
</g>
<g opacity="0.4">
<path d="M325.679 349.72C326.175 357.864 326.567 367.608 327.071 377.52C325.823 358.68 322.039 326.32 322.039 326.32C322.039 326.32 318.655 338.28 318.399 337.008C317.647 333.264 319.999 312.104 319.775 304.568C319.679 301.152 319.927 292.392 320.231 283.848C320.503 289.72 320.895 295.608 321.567 300.648C323.463 314.872 324.415 328.864 325.679 349.72Z" fill="url(#paint15_linear_873_6269)"/>
<path d="M325.679 349.72C326.175 357.864 326.567 367.608 327.071 377.52C325.823 358.68 322.039 326.32 322.039 326.32C322.039 326.32 318.655 338.28 318.399 337.008C317.647 333.264 319.999 312.104 319.775 304.568C319.679 301.152 319.927 292.392 320.231 283.848C320.503 289.72 320.895 295.608 321.567 300.648C323.463 314.872 324.415 328.864 325.679 349.72Z" fill="white" fill-opacity="0.07"/>
</g>
<path d="M327.469 384.505C326.757 372.273 326.292 359.777 325.684 349.721C324.42 328.865 323.469 314.873 321.573 300.633C319.677 286.393 319.972 264.881 319.036 257.369C318.1 249.857 315.261 248.265 313.029 239.337C310.797 230.409 308.781 212.633 305.117 210.137C301.453 207.641 290.236 202.937 290.236 202.937V253.289C283.588 263.505 275.677 266.033 275.677 266.033C270.613 251.377 271.252 245.561 266.188 240.177C261.124 234.793 257.477 227.761 249.525 230.705C245.741 232.105 243.716 233.529 245.612 246.369C247.508 259.209 251.309 263.233 251.309 263.233C251.941 267.617 250.996 280.369 249.412 286.897C247.828 293.425 253.844 310.753 256.692 321.833C259.541 332.913 274.733 355.353 274.733 355.353C275.074 363.805 274.862 372.271 274.101 380.697C273.981 381.889 273.837 383.161 273.669 384.497" stroke="#263238" stroke-linecap="round" stroke-linejoin="round"/>
<path d="M275.68 266.039C275.68 266.039 277.28 273.095 280.432 274.679C283.584 276.263 288.152 274.679 288.152 274.679" stroke="#263238" stroke-linecap="round" stroke-linejoin="round"/>
<path d="M290.242 253.296C290.242 253.296 293.442 246.256 303.538 252.36" stroke="#263238" stroke-linecap="round" stroke-linejoin="round"/>
<path d="M290.242 224.871C290.242 224.871 290.874 221.135 296.098 220.191" stroke="#263238" stroke-linecap="round" stroke-linejoin="round"/>
<path d="M274.734 355.36C280.742 362.984 279.598 370.256 281.934 374.056C284.27 377.856 283.926 391.464 283.926 391.464" stroke="#263238" stroke-linecap="round" stroke-linejoin="round"/>
<path d="M318.403 282.232V308.712C318.32 316.301 317.579 323.868 316.188 331.328" stroke="#263238" stroke-linecap="round" stroke-linejoin="round"/>
<path d="M251.312 263.239C251.312 263.239 251.312 258.719 252.584 257.367" stroke="#263238" stroke-linecap="round" stroke-linejoin="round"/>
<path d="M254.789 249.024C254.789 249.024 257.597 239.584 265.821 243.704" stroke="#263238" stroke-linecap="round" stroke-linejoin="round"/>
<path d="M280.148 263.704C286.26 263.84 292.452 261.128 296.092 264.424" stroke="#263238" stroke-linecap="round" stroke-linejoin="round"/>
<defs>
<linearGradient id="paint0_linear_873_6269" x1="124.262" y1="130.36" x2="295.961" y2="258.478" gradientUnits="userSpaceOnUse">
<stop stop-color="#356AD1"/>
<stop offset="1" stop-color="#5685DF"/>
</linearGradient>
<linearGradient id="paint1_linear_873_6269" x1="164.47" y1="157.838" x2="186.726" y2="160.108" gradientUnits="userSpaceOnUse">
<stop stop-color="#356AD1"/>
<stop offset="1" stop-color="#5685DF"/>
</linearGradient>
<linearGradient id="paint2_linear_873_6269" x1="97.2667" y1="157.838" x2="119.523" y2="160.108" gradientUnits="userSpaceOnUse">
<stop stop-color="#356AD1"/>
<stop offset="1" stop-color="#5685DF"/>
</linearGradient>
<linearGradient id="paint3_linear_873_6269" x1="128.062" y1="96.8761" x2="160.132" y2="100.145" gradientUnits="userSpaceOnUse">
<stop stop-color="#356AD1"/>
<stop offset="1" stop-color="#5685DF"/>
</linearGradient>
<linearGradient id="paint4_linear_873_6269" x1="153.004" y1="253.169" x2="169.342" y2="257.981" gradientUnits="userSpaceOnUse">
<stop stop-color="#356AD1"/>
<stop offset="1" stop-color="#5685DF"/>
</linearGradient>
<linearGradient id="paint5_linear_873_6269" x1="111.41" y1="253.169" x2="127.748" y2="257.981" gradientUnits="userSpaceOnUse">
<stop stop-color="#356AD1"/>
<stop offset="1" stop-color="#5685DF"/>
</linearGradient>
<linearGradient id="paint6_linear_873_6269" x1="132.93" y1="291.017" x2="136.147" y2="297.231" gradientUnits="userSpaceOnUse">
<stop stop-color="#356AD1"/>
<stop offset="1" stop-color="#5685DF"/>
</linearGradient>
<linearGradient id="paint7_linear_873_6269" x1="130.711" y1="216.308" x2="152.924" y2="220.604" gradientUnits="userSpaceOnUse">
<stop stop-color="#356AD1"/>
<stop offset="1" stop-color="#5685DF"/>
</linearGradient>
<linearGradient id="paint8_linear_873_6269" x1="132.475" y1="188.325" x2="137.053" y2="195.814" gradientUnits="userSpaceOnUse">
<stop stop-color="#356AD1"/>
<stop offset="1" stop-color="#5685DF"/>
</linearGradient>
<linearGradient id="paint9_linear_873_6269" x1="222.094" y1="250.036" x2="261.595" y2="271.685" gradientUnits="userSpaceOnUse">
<stop stop-color="#356AD1"/>
<stop offset="1" stop-color="#5685DF"/>
</linearGradient>
<linearGradient id="paint10_linear_873_6269" x1="225.866" y1="250.018" x2="263.512" y2="268.965" gradientUnits="userSpaceOnUse">
<stop stop-color="#356AD1"/>
<stop offset="1" stop-color="#5685DF"/>
</linearGradient>
<linearGradient id="paint11_linear_873_6269" x1="245.68" y1="230.262" x2="261.797" y2="241.782" gradientUnits="userSpaceOnUse">
<stop stop-color="#356AD1"/>
<stop offset="1" stop-color="#5685DF"/>
</linearGradient>
<linearGradient id="paint12_linear_873_6269" x1="252.174" y1="234.257" x2="260.417" y2="242.732" gradientUnits="userSpaceOnUse">
<stop stop-color="#356AD1"/>
<stop offset="1" stop-color="#5685DF"/>
</linearGradient>
<linearGradient id="paint13_linear_873_6269" x1="258.472" y1="294.539" x2="285.258" y2="299.912" gradientUnits="userSpaceOnUse">
<stop stop-color="#356AD1"/>
<stop offset="1" stop-color="#5685DF"/>
</linearGradient>
<linearGradient id="paint14_linear_873_6269" x1="284.537" y1="223.101" x2="306.034" y2="229.519" gradientUnits="userSpaceOnUse">
<stop stop-color="#356AD1"/>
<stop offset="1" stop-color="#5685DF"/>
</linearGradient>
<linearGradient id="paint15_linear_873_6269" x1="320.638" y1="311.106" x2="327.743" y2="311.584" gradientUnits="userSpaceOnUse">
<stop stop-color="#356AD1"/>
<stop offset="1" stop-color="#5685DF"/>
</linearGradient>
</defs>
</svg>
