<svg width="520" height="520" viewBox="0 0 520 520" fill="none" xmlns="http://www.w3.org/2000/svg">
<path d="M454.424 436.696H67.6067C67.6067 436.696 55.3243 416 46.8067 374.4C38.2891 332.8 78.8803 347.984 89.2595 312.124C99.6387 276.265 54.3571 283.826 58.1323 234.759C61.9075 185.692 124.172 184.756 154.363 191.36C184.555 197.964 180.779 175.323 215.723 137.581C250.667 99.8396 303.468 103.615 329.884 132.87C356.3 162.125 347.803 192.306 380.844 192.306C413.885 192.306 444.087 198.941 463.847 262.152C483.607 325.364 447.446 354.255 448.101 382.792C448.642 400.909 450.758 418.945 454.424 436.696Z" fill="url(#paint0_linear_873_6763)"/>
<path d="M454.424 436.696H67.6067C67.6067 436.696 55.3243 416 46.8067 374.4C38.2891 332.8 78.8803 347.984 89.2595 312.124C99.6387 276.265 54.3571 283.826 58.1323 234.759C61.9075 185.692 124.172 184.756 154.363 191.36C184.555 197.964 180.779 175.323 215.723 137.581C250.667 99.8396 303.468 103.615 329.884 132.87C356.3 162.125 347.803 192.306 380.844 192.306C413.885 192.306 444.087 198.941 463.847 262.152C483.607 325.364 447.446 354.255 448.101 382.792C448.642 400.909 450.758 418.945 454.424 436.696Z" fill="white" fill-opacity="0.07"/>
<path opacity="0.7" d="M454.424 436.696H67.6067C67.6067 436.696 55.3243 416 46.8067 374.4C38.2891 332.8 78.8803 347.984 89.2595 312.124C99.6387 276.265 54.3571 283.826 58.1323 234.759C61.9075 185.692 124.172 184.756 154.363 191.36C184.555 197.964 180.779 175.323 215.723 137.581C250.667 99.8396 303.468 103.615 329.884 132.87C356.3 162.125 347.803 192.306 380.844 192.306C413.885 192.306 444.087 198.941 463.847 262.152C483.607 325.364 447.446 354.255 448.101 382.792C448.642 400.909 450.758 418.945 454.424 436.696Z" fill="white"/>
<path d="M224.033 436.696C214.559 422.271 174.113 361.618 162.278 359.996C150.745 358.415 109.758 419.744 98.6719 436.696H224.033Z" fill="#2E353A" stroke="#2E353A" stroke-linecap="round" stroke-linejoin="round"/>
<path d="M275.891 82.2949V222.165" stroke="#2E353A" stroke-width="3" stroke-linecap="round" stroke-linejoin="round"/>
<path d="M292.516 86.0498V222.165" stroke="#2E353A" stroke-width="3" stroke-linecap="round" stroke-linejoin="round"/>
<path d="M310.734 160.534V292.375" stroke="#2E353A" stroke-width="3" stroke-linecap="round" stroke-linejoin="round"/>
<path d="M330.031 86.0498V292.375" stroke="#2E353A" stroke-width="3" stroke-linecap="round" stroke-linejoin="round"/>
<path d="M349.32 86.0498V225.919" stroke="#2E353A" stroke-width="3" stroke-linecap="round" stroke-linejoin="round"/>
<path d="M261.43 101.047H349.861" stroke="#2E353A" stroke-width="3" stroke-linecap="round" stroke-linejoin="round"/>
<path d="M261.43 132.132H357.328" stroke="#2E353A" stroke-width="3" stroke-linecap="round" stroke-linejoin="round"/>
<path d="M259.828 160.534H366.47" stroke="#2E353A" stroke-width="3" stroke-linecap="round" stroke-linejoin="round"/>
<path d="M258.211 192.161H366.465" stroke="#2E353A" stroke-width="3" stroke-linecap="round" stroke-linejoin="round"/>
<path d="M278.586 226.449H360.58" stroke="#2E353A" stroke-width="3" stroke-linecap="round" stroke-linejoin="round"/>
<path d="M300.016 259.678H353.607" stroke="#2E353A" stroke-width="3" stroke-linecap="round" stroke-linejoin="round"/>
<path d="M158.93 95.5762L177.847 110.386" stroke="#2E353A" stroke-width="2" stroke-linecap="round" stroke-linejoin="round"/>
<path d="M196.766 79.9551L203.349 89.8247" stroke="#2E353A" stroke-width="2" stroke-linecap="round" stroke-linejoin="round"/>
<path d="M230.492 56.0977L236.254 74.1937" stroke="#2E353A" stroke-width="2" stroke-linecap="round" stroke-linejoin="round"/>
<path d="M338.415 288.642H307.215V214.458H264.887V83.0752C247.048 83.2513 229.554 88.0134 214.087 96.9037C198.62 105.794 185.7 118.513 176.569 133.84C167.438 149.166 162.403 166.583 161.948 184.417C161.493 202.251 165.633 219.903 173.97 235.674C177.361 243.568 185.327 262.902 193.304 287.903C200.678 310.981 204.526 334.183 204.526 337.688C204.526 338.031 204.526 338.385 204.526 338.728C204.489 339.771 204.663 340.811 205.037 341.786C205.411 342.76 205.978 343.65 206.703 344.401C207.428 345.152 208.296 345.749 209.257 346.158C210.218 346.566 211.251 346.777 212.294 346.778H319.674C320.718 346.775 321.75 346.564 322.71 346.155C323.67 345.746 324.538 345.148 325.263 344.397C325.988 343.647 326.554 342.758 326.929 341.784C327.303 340.81 327.478 339.771 327.443 338.728C327.443 338.354 327.443 338 327.443 337.688C327.422 334.225 331.198 311.47 338.415 288.642Z" fill="url(#paint1_linear_873_6763)"/>
<path d="M338.415 288.642H307.215V214.458H264.887V83.0752C247.048 83.2513 229.554 88.0134 214.087 96.9037C198.62 105.794 185.7 118.513 176.569 133.84C167.438 149.166 162.403 166.583 161.948 184.417C161.493 202.251 165.633 219.903 173.97 235.674C177.361 243.568 185.327 262.902 193.304 287.903C200.678 310.981 204.526 334.183 204.526 337.688C204.526 338.031 204.526 338.385 204.526 338.728C204.489 339.771 204.663 340.811 205.037 341.786C205.411 342.76 205.978 343.65 206.703 344.401C207.428 345.152 208.296 345.749 209.257 346.158C210.218 346.566 211.251 346.777 212.294 346.778H319.674C320.718 346.775 321.75 346.564 322.71 346.155C323.67 345.746 324.538 345.148 325.263 344.397C325.988 343.647 326.554 342.758 326.929 341.784C327.303 340.81 327.478 339.771 327.443 338.728C327.443 338.354 327.443 338 327.443 337.688C327.422 334.225 331.198 311.47 338.415 288.642Z" fill="white" fill-opacity="0.07"/>
<path d="M338.415 288.642H307.215V214.458H264.887V83.0752C247.048 83.2513 229.554 88.0134 214.087 96.9037C198.62 105.794 185.7 118.513 176.569 133.84C167.438 149.166 162.403 166.583 161.948 184.417C161.493 202.251 165.633 219.903 173.97 235.674C177.361 243.568 185.327 262.902 193.304 287.903C200.678 310.981 204.526 334.183 204.526 337.688C204.526 338.031 204.526 338.385 204.526 338.728C204.489 339.771 204.663 340.811 205.037 341.786C205.411 342.76 205.978 343.65 206.703 344.401C207.428 345.152 208.296 345.749 209.257 346.158C210.218 346.566 211.251 346.777 212.294 346.778H319.674C320.718 346.775 321.75 346.564 322.71 346.155C323.67 345.746 324.538 345.148 325.263 344.397C325.988 343.647 326.554 342.758 326.929 341.784C327.303 340.81 327.478 339.771 327.443 338.728C327.443 338.354 327.443 338 327.443 337.688C327.422 334.225 331.198 311.47 338.415 288.642Z" stroke="#2E353A" stroke-width="2" stroke-linecap="round" stroke-linejoin="round"/>
<path d="M229.648 99.8401C232.658 98.4832 235.745 97.3059 238.894 96.3145" stroke="#2E353A" stroke-width="2" stroke-linecap="round" stroke-linejoin="round"/>
<path d="M195.016 126.193C195.016 126.193 203.492 112.673 222.118 103.573" stroke="#2E353A" stroke-width="2" stroke-linecap="round" stroke-linejoin="round"/>
<path d="M197.242 275.87C201.101 288.475 206.207 305.936 207.975 315.692C210.97 332.144 209.015 340.652 215.463 342.118" stroke="#2E353A" stroke-width="2" stroke-linecap="round" stroke-linejoin="round"/>
<path d="M192.523 260.832C192.523 260.832 193.563 264.212 195.238 269.391" stroke="#2E353A" stroke-width="2" stroke-linecap="round" stroke-linejoin="round"/>
<path d="M259.401 345.769V246.345C259.401 246.345 263.561 220.345 250.041 220.345C236.521 220.345 237.561 233.865 253.161 248.425C268.761 262.985 292.681 249.465 295.801 238.025C298.921 226.585 290.601 221.385 285.401 230.745C280.201 240.105 285.401 346.185 285.401 346.185" stroke="#2E353A" stroke-width="2" stroke-linecap="round" stroke-linejoin="round"/>
<path d="M322.398 346.175H210.172V372.216H322.398V346.175Z" fill="white" stroke="#2E353A" stroke-width="2" stroke-linecap="round" stroke-linejoin="round"/>
<path d="M322.398 378.414H210.172V404.456H322.398V378.414Z" fill="white" stroke="#2E353A" stroke-width="2" stroke-linecap="round" stroke-linejoin="round"/>
<path d="M322.398 372.216H210.172V378.414H322.398V372.216Z" fill="#2E353A" stroke="#2E353A" stroke-linecap="round" stroke-linejoin="round"/>
<path d="M322.398 410.654H210.172V436.696H322.398V410.654Z" fill="white" stroke="#2E353A" stroke-width="2" stroke-linecap="round" stroke-linejoin="round"/>
<path d="M310.656 368.732H318.997" stroke="#2E353A" stroke-linecap="round" stroke-linejoin="round"/>
<path d="M214.578 368.732H306.639" stroke="#2E353A" stroke-linecap="round" stroke-linejoin="round"/>
<path d="M289.023 401.481H315.907" stroke="#2E353A" stroke-linecap="round" stroke-linejoin="round"/>
<path d="M231.242 401.481H285.936" stroke="#2E353A" stroke-linecap="round" stroke-linejoin="round"/>
<path d="M222.289 401.481H226.917" stroke="#2E353A" stroke-linecap="round" stroke-linejoin="round"/>
<path d="M322.398 404.456H210.172V410.654H322.398V404.456Z" fill="#2E353A" stroke="#2E353A" stroke-linecap="round" stroke-linejoin="round"/>
<path d="M263.199 416.364H224.781V436.363H263.199V416.364Z" fill="url(#paint2_linear_873_6763)"/>
<path d="M263.199 416.364H224.781V436.363H263.199V416.364Z" fill="white" fill-opacity="0.07"/>
<path d="M263.199 416.364H224.781V436.363H263.199V416.364Z" stroke="#2E353A" stroke-linecap="round" stroke-linejoin="round"/>
<path d="M313.191 416.364H274.773V436.363H313.191V416.364Z" fill="url(#paint3_linear_873_6763)"/>
<path d="M313.191 416.364H274.773V436.363H313.191V416.364Z" fill="white" fill-opacity="0.07"/>
<path d="M313.191 416.364H274.773V436.363H313.191V416.364Z" stroke="#2E353A" stroke-linecap="round" stroke-linejoin="round"/>
<path d="M347.745 436.696C340.382 430.238 308.943 403.083 299.791 402.376C290.826 401.659 259.002 429.125 250.391 436.696H347.745Z" fill="#2E353A" stroke="#2E353A" stroke-linecap="round" stroke-linejoin="round"/>
<path d="M469.117 436.696H478.144" stroke="#2E353A" stroke-linecap="round" stroke-linejoin="round"/>
<path d="M55.8906 436.696H460.097" stroke="#2E353A" stroke-linecap="round" stroke-linejoin="round"/>
<path d="M41.8516 436.696H48.8716" stroke="#2E353A" stroke-linecap="round" stroke-linejoin="round"/>
<path d="M450.949 377.343H423.961V415.199H435.141H450.949H462.139V396.271L450.949 377.343Z" fill="#2E353A" stroke="#2E353A" stroke-linecap="round" stroke-linejoin="round"/>
<path d="M462.147 415.199H449.781V423.8H462.147V415.199Z" fill="white" stroke="#2E353A" stroke-linecap="round" stroke-linejoin="round"/>
<path d="M403.902 414.773C403.902 414.773 417.422 407.493 412.742 371.093L395.582 361.733L365.942 357.053L339.422 358.093V373.173C339.422 373.173 354.502 386.173 356.062 390.333C357.04 393.18 357.567 396.163 357.622 399.173V413.733L403.902 414.773Z" fill="url(#paint4_linear_873_6763)"/>
<path d="M403.902 414.773C403.902 414.773 417.422 407.493 412.742 371.093L395.582 361.733L365.942 357.053L339.422 358.093V373.173C339.422 373.173 354.502 386.173 356.062 390.333C357.04 393.18 357.567 396.163 357.622 399.173V413.733L403.902 414.773Z" fill="white" fill-opacity="0.07"/>
<path d="M403.902 414.773C403.902 414.773 417.422 407.493 412.742 371.093L395.582 361.733L365.942 357.053L339.422 358.093V373.173C339.422 373.173 354.502 386.173 356.062 390.333C357.04 393.18 357.567 396.163 357.622 399.173V413.733L403.902 414.773Z" stroke="#2E353A" stroke-linecap="round" stroke-linejoin="round"/>
<path d="M412.746 371.093L403.906 414.773" stroke="#2E353A" stroke-linecap="round" stroke-linejoin="round"/>
<path d="M395.583 361.732L385.703 414.772" stroke="#2E353A" stroke-linecap="round" stroke-linejoin="round"/>
<path d="M365.944 357.053L358.664 396.573" stroke="#2E353A" stroke-linecap="round" stroke-linejoin="round"/>
<path d="M340.461 371.093C340.461 371.093 357.621 378.373 364.381 383.053C371.141 387.733 370.101 397.613 370.101 397.613" stroke="#2E353A" stroke-linecap="round" stroke-linejoin="round"/>
<path d="M424.209 415.47H343.578V422.23H424.209V415.47Z" fill="white" stroke="#2E353A" stroke-linecap="round" stroke-linejoin="round"/>
<path d="M440.305 398.132H457.142L448.105 382.532H440.305V398.132Z" fill="white" stroke="#2E353A" stroke-linecap="round" stroke-linejoin="round"/>
<path d="M437.702 382.532H430.422V398.132H437.702V382.532Z" fill="white" stroke="#2E353A" stroke-linecap="round" stroke-linejoin="round"/>
<path d="M393.088 415.199H344V426.92H393.088V415.199Z" fill="white" stroke="#2E353A" stroke-linecap="round" stroke-linejoin="round"/>
<path d="M439.584 436.506C445.197 435.492 448.925 430.12 447.911 424.508C446.897 418.895 441.525 415.167 435.913 416.181C430.3 417.195 426.572 422.567 427.586 428.179C428.6 433.792 433.972 437.52 439.584 436.506Z" fill="#2E353A" stroke="#2E353A" stroke-linecap="round" stroke-linejoin="round"/>
<path d="M437.74 432.401C441.066 432.401 443.762 429.705 443.762 426.379C443.762 423.053 441.066 420.357 437.74 420.357C434.415 420.357 431.719 423.053 431.719 426.379C431.719 429.705 434.415 432.401 437.74 432.401Z" fill="white" stroke="#2E353A" stroke-linecap="round" stroke-linejoin="round"/>
<path d="M359.996 436.528C365.613 435.534 369.359 430.175 368.365 424.559C367.371 418.942 362.012 415.196 356.396 416.19C350.779 417.184 347.033 422.543 348.027 428.159C349.021 433.776 354.38 437.522 359.996 436.528Z" fill="#2E353A" stroke="#2E353A" stroke-linecap="round" stroke-linejoin="round"/>
<path d="M358.178 432.401C361.503 432.401 364.199 429.705 364.199 426.379C364.199 423.053 361.503 420.357 358.178 420.357C354.852 420.357 352.156 423.053 352.156 426.379C352.156 429.705 354.852 432.401 358.178 432.401Z" fill="white" stroke="#2E353A" stroke-linecap="round" stroke-linejoin="round"/>
<path d="M390.084 433.941C394.285 430.084 394.564 423.551 390.706 419.35C386.848 415.149 380.316 414.87 376.115 418.728C371.913 422.586 371.635 429.119 375.493 433.32C379.35 437.521 385.883 437.799 390.084 433.941Z" fill="#2E353A" stroke="#2E353A" stroke-linecap="round" stroke-linejoin="round"/>
<path d="M383.108 432.401C386.433 432.401 389.129 429.705 389.129 426.379C389.129 423.053 386.433 420.357 383.108 420.357C379.782 420.357 377.086 423.053 377.086 426.379C377.086 429.705 379.782 432.401 383.108 432.401Z" fill="white" stroke="#2E353A" stroke-linecap="round" stroke-linejoin="round"/>
<path d="M379.724 397.093H353.724C351.857 397.093 350.344 398.606 350.344 400.473V411.393C350.344 413.259 351.857 414.773 353.724 414.773H379.724C381.59 414.773 383.104 413.259 383.104 411.393V400.473C383.104 398.606 381.59 397.093 379.724 397.093Z" fill="#2E353A" stroke="#2E353A" stroke-linecap="round" stroke-linejoin="round"/>
<path d="M337.344 414.773V363.345H347.744V414.773" stroke="#2E353A" stroke-linecap="round" stroke-linejoin="round"/>
<path d="M337.414 370.156H347.627" stroke="#2E353A" stroke-linecap="round" stroke-linejoin="round"/>
<path d="M337.414 378.186H347.627" stroke="#2E353A" stroke-linecap="round" stroke-linejoin="round"/>
<path d="M337.414 386.214H347.627" stroke="#2E353A" stroke-linecap="round" stroke-linejoin="round"/>
<path d="M337.414 394.254H347.627" stroke="#2E353A" stroke-linecap="round" stroke-linejoin="round"/>
<path d="M337.414 402.282H347.627" stroke="#2E353A" stroke-linecap="round" stroke-linejoin="round"/>
<path d="M337.414 410.311H347.627" stroke="#2E353A" stroke-linecap="round" stroke-linejoin="round"/>
<path d="M129.337 437.704H110.617V111.145L129.337 132.912V437.704Z" stroke="#2E353A" stroke-linecap="round" stroke-linejoin="round"/>
<path d="M110.805 369.064H129.161L110.805 351.312H129.161L110.805 369.064Z" stroke="#2E353A" stroke-linecap="round" stroke-linejoin="round"/>
<path d="M110.805 350.864H129.161L110.805 333.111H129.161L110.805 350.864Z" stroke="#2E353A" stroke-linecap="round" stroke-linejoin="round"/>
<path d="M110.805 332.665H129.161L110.805 314.912H129.161L110.805 332.665Z" stroke="#2E353A" stroke-linecap="round" stroke-linejoin="round"/>
<path d="M110.805 314.465H129.161L110.805 296.712H129.161L110.805 314.465Z" stroke="#2E353A" stroke-linecap="round" stroke-linejoin="round"/>
<path d="M110.805 296.265H129.161L110.805 278.512H129.161L110.805 296.265Z" stroke="#2E353A" stroke-linecap="round" stroke-linejoin="round"/>
<path d="M110.805 278.064H129.161L110.805 260.312H129.161L110.805 278.064Z" stroke="#2E353A" stroke-linecap="round" stroke-linejoin="round"/>
<path d="M110.805 259.864H129.161L110.805 242.111H129.161L110.805 259.864Z" stroke="#2E353A" stroke-linecap="round" stroke-linejoin="round"/>
<path d="M110.805 241.665H129.161L110.805 223.912H129.161L110.805 241.665Z" stroke="#2E353A" stroke-linecap="round" stroke-linejoin="round"/>
<path d="M110.805 223.465H129.161L110.805 205.712H129.161L110.805 223.465Z" stroke="#2E353A" stroke-linecap="round" stroke-linejoin="round"/>
<path d="M110.805 205.265H129.161L110.805 187.512H129.161L110.805 205.265Z" stroke="#2E353A" stroke-linecap="round" stroke-linejoin="round"/>
<path d="M110.805 187.064H129.161L110.805 169.312H129.161L110.805 187.064Z" stroke="#2E353A" stroke-linecap="round" stroke-linejoin="round"/>
<path d="M110.805 168.864H129.161L110.805 151.111H129.161L110.805 168.864Z" stroke="#2E353A" stroke-linecap="round" stroke-linejoin="round"/>
<path d="M110.805 150.665H129.161L110.805 132.912H129.161L110.805 150.665Z" stroke="#2E353A" stroke-linecap="round" stroke-linejoin="round"/>
<path d="M216.247 151.153L207.178 145.443H142.459L134.555 151.153H216.247Z" stroke="#2E353A" stroke-linecap="round" stroke-linejoin="round"/>
<path d="M217.744 150.664H59.6641V154.824H217.744V150.664Z" fill="#2E353A" stroke="#2E353A" stroke-linecap="round" stroke-linejoin="round"/>
<path d="M207.181 145.444L110.617 111.145L142.462 145.444" stroke="#2E353A" stroke-linecap="round" stroke-linejoin="round"/>
<path d="M110.624 111.145L59.6641 150.665" stroke="#2E353A" stroke-linecap="round" stroke-linejoin="round"/>
<path d="M142.867 159.505H103.867V184.465H142.867V159.505Z" fill="#2E353A" stroke="#2E353A" stroke-linecap="round" stroke-linejoin="round"/>
<path d="M134.737 164.704H111.992V171.984H134.737V164.704Z" fill="white" stroke="#2E353A" stroke-linecap="round" stroke-linejoin="round"/>
<path d="M217.742 154.824V199.669" stroke="#2E353A" stroke-linecap="round" stroke-linejoin="round"/>
<path d="M223.672 214.988H212.117V228.082H223.672V214.988Z" fill="#2E353A" stroke="#2E353A" stroke-linecap="round" stroke-linejoin="round"/>
<path d="M212.117 214.988L217.9 198.816L223.682 214.988" stroke="#2E353A" stroke-linecap="round" stroke-linejoin="round"/>
<path d="M186.58 372.996L211.54 412.454L217.78 407.888L199.414 371.155C198.588 369.504 197.319 368.116 195.748 367.146C194.178 366.176 192.368 365.663 190.522 365.664C189.674 365.68 188.846 365.921 188.123 366.362C187.399 366.804 186.806 367.43 186.405 368.177C186.004 368.923 185.808 369.763 185.839 370.61C185.87 371.457 186.126 372.281 186.58 372.996Z" fill="url(#paint5_linear_873_6763)"/>
<path d="M186.58 372.996L211.54 412.454L217.78 407.888L199.414 371.155C198.588 369.504 197.319 368.116 195.748 367.146C194.178 366.176 192.368 365.663 190.522 365.664C189.674 365.68 188.846 365.921 188.123 366.362C187.399 366.804 186.806 367.43 186.405 368.177C186.004 368.923 185.808 369.763 185.839 370.61C185.87 371.457 186.126 372.281 186.58 372.996Z" fill="white" fill-opacity="0.07"/>
<path d="M186.58 372.996L211.54 412.454L217.78 407.888L199.414 371.155C198.588 369.504 197.319 368.116 195.748 367.146C194.178 366.176 192.368 365.663 190.522 365.664C189.674 365.68 188.846 365.921 188.123 366.362C187.399 366.804 186.806 367.43 186.405 368.177C186.004 368.923 185.808 369.763 185.839 370.61C185.87 371.457 186.126 372.281 186.58 372.996Z" stroke="#2E353A" stroke-linecap="round" stroke-linejoin="round"/>
<path d="M215.576 402.75L189.898 421.012C189.898 421.012 192.186 430.705 207.017 430.133C221.847 429.561 221.286 414.159 221.286 414.159L215.576 402.75Z" fill="#2E353A" stroke="white" stroke-linecap="round" stroke-linejoin="round"/>
<path d="M144.25 390.769L190.759 369.813C192.293 369.123 194.017 368.979 195.644 369.405C197.271 369.831 198.703 370.801 199.703 372.153C200.287 372.944 200.706 373.843 200.937 374.798C201.168 375.753 201.204 376.744 201.045 377.714C200.886 378.683 200.535 379.611 200.011 380.442C199.488 381.273 198.803 381.991 197.997 382.553L147.11 418.173L144.25 390.769Z" fill="url(#paint6_linear_873_6763)"/>
<path d="M144.25 390.769L190.759 369.813C192.293 369.123 194.017 368.979 195.644 369.405C197.271 369.831 198.703 370.801 199.703 372.153C200.287 372.944 200.706 373.843 200.937 374.798C201.168 375.753 201.204 376.744 201.045 377.714C200.886 378.683 200.535 379.611 200.011 380.442C199.488 381.273 198.803 381.991 197.997 382.553L147.11 418.173L144.25 390.769Z" fill="white" fill-opacity="0.07"/>
<path d="M144.25 390.769L190.759 369.813C192.293 369.123 194.017 368.979 195.644 369.405C197.271 369.831 198.703 370.801 199.703 372.153C200.287 372.944 200.706 373.843 200.937 374.798C201.168 375.753 201.204 376.744 201.045 377.714C200.886 378.683 200.535 379.611 200.011 380.442C199.488 381.273 198.803 381.991 197.997 382.553L147.11 418.173L144.25 390.769Z" stroke="#2E353A" stroke-linecap="round" stroke-linejoin="round"/>
<path d="M137.418 416.447H89.4844V423.862H137.418V416.447Z" fill="white" stroke="#2E353A" stroke-linecap="round" stroke-linejoin="round"/>
<path d="M114.019 395.335H72.3672V412.453H114.019V395.335Z" fill="#2E353A" stroke="#2E353A" stroke-linecap="round" stroke-linejoin="round"/>
<path d="M108.591 375.929H143.951C144.779 375.929 145.572 376.257 146.158 376.843C146.743 377.428 147.071 378.221 147.071 379.049V412.433H105.461V379.049C105.461 378.638 105.542 378.232 105.699 377.852C105.857 377.473 106.088 377.129 106.378 376.839C106.669 376.549 107.014 376.319 107.394 376.163C107.774 376.007 108.181 375.927 108.591 375.929Z" fill="url(#paint7_linear_873_6763)"/>
<path d="M108.591 375.929H143.951C144.779 375.929 145.572 376.257 146.158 376.843C146.743 377.428 147.071 378.221 147.071 379.049V412.433H105.461V379.049C105.461 378.638 105.542 378.232 105.699 377.852C105.857 377.473 106.088 377.129 106.378 376.839C106.669 376.549 107.014 376.319 107.394 376.163C107.774 376.007 108.181 375.927 108.591 375.929Z" fill="white" fill-opacity="0.07"/>
<path d="M108.591 375.929H143.951C144.779 375.929 145.572 376.257 146.158 376.843C146.743 377.428 147.071 378.221 147.071 379.049V412.433H105.461V379.049C105.461 378.638 105.542 378.232 105.699 377.852C105.857 377.473 106.088 377.129 106.378 376.839C106.669 376.549 107.014 376.319 107.394 376.163C107.774 376.007 108.181 375.927 108.591 375.929Z" stroke="#2E353A" stroke-linecap="round" stroke-linejoin="round"/>
<path d="M71.9349 436.696H140.128C142.282 436.696 144.348 435.84 145.871 434.317C147.394 432.793 148.25 430.727 148.25 428.573C148.25 426.418 147.395 424.351 145.872 422.826C144.349 421.301 142.283 420.443 140.128 420.44H71.9349C69.7797 420.443 67.7138 421.301 66.1909 422.826C64.6679 424.351 63.8125 426.418 63.8125 428.573C63.8125 430.727 64.6682 432.793 66.1915 434.317C67.7147 435.84 69.7807 436.696 71.9349 436.696Z" fill="#2E353A" stroke="#2E353A" stroke-linecap="round" stroke-linejoin="round"/>
<path d="M82.2109 436.696H150.393C152.548 436.696 154.616 435.84 156.14 434.317C157.665 432.794 158.523 430.728 158.526 428.573C158.526 426.416 157.669 424.348 156.144 422.822C154.619 421.297 152.55 420.44 150.393 420.44H82.2109C80.054 420.44 77.9854 421.297 76.4602 422.822C74.935 424.348 74.0781 426.416 74.0781 428.573C74.0809 430.728 74.9389 432.794 76.4638 434.317C77.9887 435.84 80.0558 436.696 82.2109 436.696Z" fill="white" stroke="#2E353A" stroke-linecap="round" stroke-linejoin="round"/>
<path d="M147.112 412.453H72.3672V418.163H147.112V412.453Z" fill="white" stroke="#2E353A" stroke-linecap="round" stroke-linejoin="round"/>
<path d="M87.7752 428.573C87.7752 429.589 87.4739 430.583 86.9094 431.427C86.3448 432.272 85.5425 432.931 84.6037 433.32C83.6649 433.709 82.6319 433.81 81.6353 433.612C80.6387 433.414 79.7233 432.924 79.0048 432.206C78.2863 431.487 77.797 430.572 77.5987 429.575C77.4005 428.579 77.5022 427.546 77.8911 426.607C78.2799 425.668 78.9384 424.866 79.7833 424.301C80.6282 423.737 81.6215 423.436 82.6376 423.436C84.0002 423.436 85.3069 423.977 86.2704 424.94C87.2339 425.904 87.7752 427.211 87.7752 428.573Z" fill="#2E353A" stroke="#2E353A" stroke-linecap="round" stroke-linejoin="round"/>
<path d="M96.3329 433.711C99.1703 433.711 101.471 431.411 101.471 428.573C101.471 425.736 99.1703 423.436 96.3329 423.436C93.4955 423.436 91.1953 425.736 91.1953 428.573C91.1953 431.411 93.4955 433.711 96.3329 433.711Z" fill="#2E353A" stroke="#2E353A" stroke-linecap="round" stroke-linejoin="round"/>
<path d="M110.02 433.711C112.858 433.711 115.158 431.411 115.158 428.573C115.158 425.736 112.858 423.436 110.02 423.436C107.183 423.436 104.883 425.736 104.883 428.573C104.883 431.411 107.183 433.711 110.02 433.711Z" fill="#2E353A" stroke="#2E353A" stroke-linecap="round" stroke-linejoin="round"/>
<path d="M128.853 428.573C128.853 429.589 128.552 430.583 127.987 431.427C127.423 432.272 126.621 432.931 125.682 433.32C124.743 433.709 123.71 433.81 122.713 433.612C121.717 433.414 120.801 432.924 120.083 432.206C119.364 431.487 118.875 430.572 118.677 429.575C118.479 428.579 118.58 427.546 118.969 426.607C119.358 425.668 120.017 424.866 120.861 424.301C121.706 423.737 122.7 423.436 123.716 423.436C125.078 423.436 126.385 423.977 127.349 424.94C128.312 425.904 128.853 427.211 128.853 428.573Z" fill="#2E353A" stroke="#2E353A" stroke-linecap="round" stroke-linejoin="round"/>
<path d="M142.549 428.573C142.549 429.589 142.247 430.583 141.683 431.427C141.118 432.272 140.316 432.931 139.377 433.32C138.438 433.709 137.405 433.81 136.409 433.612C135.412 433.414 134.497 432.924 133.778 432.206C133.06 431.487 132.57 430.572 132.372 429.575C132.174 428.579 132.276 427.546 132.665 426.607C133.053 425.668 133.712 424.866 134.557 424.301C135.402 423.737 136.395 423.436 137.411 423.436C138.774 423.436 140.08 423.977 141.044 424.94C142.007 425.904 142.549 427.211 142.549 428.573Z" fill="#2E353A" stroke="#2E353A" stroke-linecap="round" stroke-linejoin="round"/>
<path d="M156.244 428.573C156.244 429.59 155.942 430.583 155.377 431.429C154.812 432.274 154.009 432.932 153.07 433.321C152.131 433.709 151.097 433.81 150.1 433.611C149.103 433.412 148.188 432.922 147.47 432.202C146.752 431.483 146.263 430.566 146.066 429.569C145.869 428.572 145.972 427.538 146.363 426.6C146.753 425.661 147.413 424.86 148.26 424.296C149.106 423.733 150.1 423.433 151.117 423.436C151.791 423.436 152.459 423.569 153.081 423.827C153.704 424.085 154.27 424.464 154.746 424.941C155.222 425.418 155.6 425.985 155.857 426.608C156.114 427.231 156.245 427.899 156.244 428.573Z" fill="#2E353A" stroke="#2E353A" stroke-linecap="round" stroke-linejoin="round"/>
<path d="M196.181 375.928C196.181 375.362 196.013 374.809 195.698 374.338C195.383 373.868 194.936 373.501 194.413 373.285C193.89 373.069 193.314 373.013 192.759 373.124C192.204 373.235 191.695 373.509 191.295 373.91C190.895 374.311 190.624 374.821 190.515 375.377C190.405 375.932 190.464 376.508 190.682 377.03C190.9 377.552 191.268 377.998 191.74 378.311C192.211 378.624 192.765 378.79 193.331 378.788C193.706 378.788 194.078 378.714 194.424 378.57C194.771 378.427 195.085 378.216 195.35 377.95C195.615 377.684 195.824 377.369 195.967 377.022C196.11 376.675 196.182 376.303 196.181 375.928Z" fill="#2E353A" stroke="#2E353A" stroke-linecap="round" stroke-linejoin="round"/>
<path d="M140.837 380.494H110.594V398.757H140.837V380.494Z" fill="white" stroke="#2E353A" stroke-linecap="round" stroke-linejoin="round"/>
<path d="M140.835 380.494H124.289V398.757H140.835V380.494Z" fill="white" stroke="#2E353A" stroke-linecap="round" stroke-linejoin="round"/>
<defs>
<linearGradient id="paint0_linear_873_6763" x1="160.468" y1="205.14" x2="344.819" y2="376.248" gradientUnits="userSpaceOnUse">
<stop stop-color="#356AD1"/>
<stop offset="1" stop-color="#5685DF"/>
</linearGradient>
<linearGradient id="paint1_linear_873_6763" x1="209.701" y1="159.813" x2="325.917" y2="215.409" gradientUnits="userSpaceOnUse">
<stop stop-color="#356AD1"/>
<stop offset="1" stop-color="#5685DF"/>
</linearGradient>
<linearGradient id="paint2_linear_873_6763" x1="235.183" y1="422.184" x2="245.957" y2="436.977" gradientUnits="userSpaceOnUse">
<stop stop-color="#356AD1"/>
<stop offset="1" stop-color="#5685DF"/>
</linearGradient>
<linearGradient id="paint3_linear_873_6763" x1="285.175" y1="422.184" x2="295.949" y2="436.977" gradientUnits="userSpaceOnUse">
<stop stop-color="#356AD1"/>
<stop offset="1" stop-color="#5685DF"/>
</linearGradient>
<linearGradient id="paint4_linear_873_6763" x1="359.54" y1="373.849" x2="392.098" y2="403.807" gradientUnits="userSpaceOnUse">
<stop stop-color="#356AD1"/>
<stop offset="1" stop-color="#5685DF"/>
</linearGradient>
<linearGradient id="paint5_linear_873_6763" x1="194.485" y1="379.28" x2="215.361" y2="389.467" gradientUnits="userSpaceOnUse">
<stop stop-color="#356AD1"/>
<stop offset="1" stop-color="#5685DF"/>
</linearGradient>
<linearGradient id="paint6_linear_873_6763" x1="159.653" y1="383.426" x2="186.917" y2="406.048" gradientUnits="userSpaceOnUse">
<stop stop-color="#356AD1"/>
<stop offset="1" stop-color="#5685DF"/>
</linearGradient>
<linearGradient id="paint7_linear_873_6763" x1="116.727" y1="386.551" x2="136.963" y2="403.038" gradientUnits="userSpaceOnUse">
<stop stop-color="#356AD1"/>
<stop offset="1" stop-color="#5685DF"/>
</linearGradient>
</defs>
</svg>
