<svg width="302" height="70" viewBox="0 0 302 70" fill="none" xmlns="http://www.w3.org/2000/svg">
<g clip-path="url(#clip0_384_1400)">
<path d="M75.1191 52.1544V5.81055H102.51V11.6208H80.7911V25.8698H100.297V31.6801H80.7911V46.2058H104.032V52.0161H75.1191V52.1544Z" fill="white"/>
<path d="M132.806 52.1545L123.399 39.8423L113.992 52.1545H107.352L120.217 35.6921L106.66 18.6763H114.131L123.399 31.4035L132.806 18.6763H140.138L127.273 35.6921L139.447 52.1545H132.806Z" fill="white"/>
<path d="M148.578 47.1743V70.0004H142.906V35.8304C142.906 27.115 149.547 17.8462 159.922 17.8462C170.436 17.8462 178.321 24.4865 178.321 35.4154C178.321 46.0675 170.298 53.3996 161.167 53.3996C156.74 53.3996 150.792 51.4628 148.578 47.1743ZM172.373 35.4154C172.373 27.945 167.531 23.5181 158.954 23.9331C154.803 24.0715 148.44 27.115 148.993 37.7671C149.132 41.2256 152.728 47.7276 160.614 47.7276C167.392 47.7276 172.373 43.8541 172.373 35.4154Z" fill="white"/>
<path d="M183.162 52.1543V18.6761H188.834V22.2729C191.601 19.0911 195.889 17.9844 200.455 17.9844V24.0713C199.763 23.933 192.984 23.1029 188.834 31.9567V52.2927H183.162V52.1543Z" fill="white"/>
<path d="M201.977 35.4154C201.977 25.7316 208.894 17.8462 218.439 17.8462C230.336 17.8462 234.763 25.7316 234.763 35.8304V38.5972H208.202C208.617 44.9608 214.289 48.281 219.546 48.1426C223.419 48.0043 226.048 46.8976 228.814 44.1308L232.55 48.0043C229.091 51.3244 224.664 53.5379 219.269 53.5379C209.17 53.3995 201.977 45.9292 201.977 35.4154ZM218.024 23.5181C212.629 23.5181 208.479 28.2217 208.202 33.3403H228.814C228.814 28.36 225.218 23.5181 218.024 23.5181Z" fill="white"/>
<path d="M237.668 47.4506L241.818 43.7155C241.68 43.7155 243.893 45.9289 244.17 46.0672C245.138 46.8973 246.107 47.4506 247.352 47.7273C250.949 48.6957 257.451 48.419 258.004 43.4388C258.281 40.672 256.206 39.1502 253.854 38.1818C250.81 37.0751 247.49 36.6601 244.447 35.2767C240.988 33.755 238.775 31.1265 238.775 27.253C238.775 17.1542 253.162 15.4941 259.664 20.1977C259.941 20.4743 263.122 23.3795 262.984 23.3795L258.834 26.6996C256.759 24.2095 254.822 22.9645 250.395 22.9645C248.182 22.9645 245.138 23.9328 244.585 26.2846C243.755 29.6048 247.49 30.8498 249.98 31.5415C253.3 32.3716 256.897 32.9249 259.802 34.7233C263.814 37.2135 264.783 42.6087 263.261 46.7589C261.601 51.3241 256.621 53.1226 252.194 53.2609C246.937 53.5376 242.372 51.8775 238.636 48.1423C238.36 48.1423 237.668 47.4506 237.668 47.4506Z" fill="white"/>
<path d="M266.857 47.4506L271.008 43.7155C270.869 43.7155 273.083 45.9289 273.359 46.0672C274.328 46.8973 275.296 47.4506 276.541 47.7273C280.138 48.6957 286.64 48.419 287.193 43.4388C287.47 40.672 285.395 39.1502 283.043 38.1818C280 37.0751 276.68 36.6601 273.636 35.2767C270.178 33.755 267.964 31.1265 267.964 27.253C267.964 17.1542 282.351 15.4941 288.853 20.1977C289.13 20.4743 292.312 23.3795 292.174 23.3795L288.023 26.6996C285.948 24.2095 284.012 22.9645 279.585 22.9645C277.371 22.9645 274.328 23.9328 273.774 26.2846C272.944 29.6048 276.68 30.8498 279.17 31.5415C282.49 32.3716 286.087 32.9249 288.992 34.7233C293.004 37.2135 293.972 42.6087 292.45 46.7589C290.79 51.3241 285.81 53.1226 281.383 53.2609C276.126 53.5376 271.561 51.8775 267.826 48.1423C267.549 48.1423 266.857 47.4506 266.857 47.4506Z" fill="white"/>
<path d="M293.835 18.6762V15.0794H292.59V14.3877H295.91V15.0794H294.665V18.6762H293.835Z" fill="white"/>
<path d="M300.06 18.6762V15.3561L298.815 18.6762H298.538L297.293 15.3561V18.6762H296.602V14.3877H297.708L298.815 17.2928L299.922 14.3877H301.028V18.6762H300.06Z" fill="white"/>
<path d="M36.6601 52.1539L32.5099 41.0867H10.0988L5.94862 52.1539H0L17.9842 5.81006H24.4862L42.332 52.1539H36.6601ZM21.0277 12.4504L12.5889 35.4148H30.1581L21.0277 12.4504Z" fill="white"/>
<path d="M46.0664 52.1544V5.81055H51.8767V52.1544H46.0664Z" fill="white"/>
<path d="M60.5938 52.1542V19.3677H66.404V52.1542H60.5938Z" fill="white"/>
<path d="M71.9373 8.7154C71.9373 8.57706 71.9373 8.57706 71.9373 8.43872C71.9373 8.30038 71.9373 8.30039 71.9373 8.16205C67.5105 8.02371 63.9136 4.42688 63.7753 0C63.637 0 63.4986 0 63.3603 0C63.2219 0 63.0836 0 62.9452 0C62.8069 4.42688 59.2101 8.02371 54.7832 8.16205C54.7832 8.30039 54.7832 8.30038 54.7832 8.43872C54.7832 8.57706 54.7832 8.57706 54.7832 8.7154C59.2101 8.85374 62.8069 12.4506 62.9452 16.8775C63.0836 16.8775 63.2219 16.8775 63.3603 16.8775C63.4986 16.8775 63.637 16.8775 63.7753 16.8775C63.9136 12.4506 67.5105 8.85374 71.9373 8.7154Z" fill="white"/>
</g>
<defs>
<clipPath id="clip0_384_1400">
<rect width="301.028" height="70" fill="white"/>
</clipPath>
</defs>
</svg>