<svg width="320" height="70" viewBox="0 0 320 70" fill="none" xmlns="http://www.w3.org/2000/svg">
<g clip-path="url(#clip0_384_1394)">
<path fill-rule="evenodd" clip-rule="evenodd" d="M38.4677 0.191097C31.2736 -0.566205 24.0214 0.92179 17.7079 4.45055C11.3944 7.97932 6.32957 13.3756 3.20951 19.8977C0.0894555 26.4198 -0.932632 33.7476 0.28374 40.8738C1.50011 47.9999 4.89523 54.5747 10.0024 59.6943C15.1096 64.814 21.6782 68.2272 28.8053 69.4648C35.9323 70.7024 43.268 69.7037 49.8041 66.6058C56.3401 63.508 61.7556 58.4632 65.3062 52.1648C68.8568 45.8664 70.3682 38.6236 69.6327 31.432C68.8232 23.438 65.2822 15.9669 59.6058 10.2767C53.9294 4.58649 46.4644 1.0247 38.4677 0.191097ZM37.3331 53.5075C33.4639 54.0262 29.5293 53.3203 26.0823 51.4889C22.6354 49.6576 19.8492 46.7929 18.1156 43.2974C16.3819 39.8019 15.7878 35.8514 16.4169 32.0011C17.0459 28.1509 18.8664 24.5943 21.6225 21.8314C24.3786 19.0685 27.9318 17.2381 31.7826 16.5974C35.6335 15.9567 39.5884 16.538 43.0916 18.2596C46.5948 19.9812 49.4701 22.7565 51.3134 26.1955C53.1567 29.6344 53.8754 33.5642 53.3685 37.4324C52.8365 41.5011 50.9771 45.2811 48.0783 48.1871C45.1794 51.0931 41.4028 52.9631 37.3331 53.5075ZM88.3605 1.5754C87.146 1.5783 85.9475 1.85173 84.8522 2.37579C83.7568 2.89985 82.7922 3.66136 82.0284 4.6049C81.2646 5.54844 80.7209 6.65028 80.4368 7.83025C80.1528 9.01021 80.1356 10.2386 80.3864 11.4261C81.1547 15.273 84.7503 17.9015 88.6673 17.9015H111.398L76.0238 64.6836C75.7622 65.029 75.602 65.4404 75.5612 65.8716C75.5204 66.3029 75.6006 66.7369 75.7928 67.1252C75.9851 67.5134 76.2817 67.8405 76.6495 68.0697C77.0173 68.2989 77.4417 68.4212 77.8752 68.4229H133.363C137.277 68.4229 140.876 65.795 141.644 61.9474C141.895 60.7601 141.878 59.5319 141.594 58.3521C141.31 57.1723 140.767 56.0705 140.003 55.1269C139.24 54.1833 138.276 53.4216 137.181 52.8972C136.086 52.3728 134.887 52.0989 133.673 52.0954H105.977L141.325 5.34968C141.589 5.00096 141.75 4.58557 141.792 4.15012C141.833 3.71466 141.752 3.27638 141.557 2.88443C141.363 2.49248 141.063 2.16238 140.692 1.93116C140.32 1.69993 139.892 1.57674 139.454 1.5754H88.3605ZM310.086 1.76371C308.249 2.20025 306.616 3.25025 305.458 4.74009C304.299 6.22993 303.683 8.0704 303.713 9.95719V37.1397L259.638 2.08881C259.293 1.81463 258.876 1.64352 258.438 1.59518C257.999 1.54683 257.556 1.62322 257.159 1.81554C256.762 2.00786 256.427 2.3083 256.193 2.68231C255.959 3.05632 255.836 3.4887 255.837 3.9297V60.0556C255.807 61.9425 256.422 63.783 257.581 65.2729C258.74 66.7627 260.373 67.8127 262.21 68.2491C263.403 68.5114 264.64 68.5027 265.829 68.2237C267.018 67.9447 268.129 67.4025 269.081 66.6371C270.032 65.8716 270.8 64.9025 271.326 63.8011C271.853 62.6998 272.125 61.4943 272.124 60.2737V32.856L316.199 67.9075C316.545 68.1815 316.961 68.3525 317.399 68.4008C317.838 68.4491 318.281 68.3727 318.678 68.1805C319.075 67.9883 319.409 67.688 319.643 67.3141C319.877 66.9403 320 66.5081 319.999 66.0673V9.73649C320 8.51614 319.728 7.31107 319.201 6.21011C318.674 5.10915 317.907 4.14039 316.955 3.37524C316.004 2.6101 314.893 2.0681 313.704 1.78918C312.515 1.51027 311.279 1.50157 310.086 1.76371ZM195.327 16.3388C213.97 16.3388 227.899 26.1842 227.899 34.9909C227.899 43.7975 213.97 53.6429 195.327 53.6429C176.685 53.6429 162.755 43.7975 162.755 34.9909C162.755 26.1842 176.685 16.3388 195.327 16.3388ZM195.327 0.0133511C168.343 0.0133511 146.469 15.6735 146.469 34.9909C146.469 54.3083 168.343 69.9684 195.327 69.9684C222.312 69.9684 244.185 54.3083 244.185 34.9909C244.185 15.6735 222.311 0.0133511 195.327 0.0133511Z" fill="white"/>
</g>
<defs>
<clipPath id="clip0_384_1394">
<rect width="320" height="70" fill="white"/>
</clipPath>
</defs>
</svg>