<svg width="100" height="100" viewBox="0 0 100 100" fill="none" xmlns="http://www.w3.org/2000/svg">
<path d="M75 46.8749H56.25V32.8124C56.25 27.0011 51.0627 26.3771 48.4053 26.4386C47.9966 26.4473 47.6076 26.6157 47.3215 26.9078C47.0355 27.1998 46.8752 27.5923 46.875 28.0011V37.4999L42.1875 46.8749H35.9375V79.6874L41.7709 84.0624C42.0414 84.2653 42.3703 84.3749 42.7084 84.3749H70.3125C71.5557 84.3749 72.748 83.881 73.6271 83.002C74.5061 82.1229 75 80.9306 75 79.6874C75 78.4442 74.5061 77.2519 73.6271 76.3728C72.748 75.4938 71.5557 74.9999 70.3125 74.9999H71.875C73.1182 74.9999 74.3105 74.506 75.1896 73.627C76.0686 72.7479 76.5625 71.5556 76.5625 70.3124C76.5625 69.0692 76.0686 67.8769 75.1896 66.9978C74.3105 66.1188 73.1182 65.6249 71.875 65.6249H73.4375C74.6807 65.6249 75.873 65.131 76.7521 64.252C77.6311 63.3729 78.125 62.1806 78.125 60.9374C78.125 59.6942 77.6311 58.5019 76.7521 57.6228C75.873 56.7438 74.6807 56.2499 73.4375 56.2499H75C76.2432 56.2499 77.4355 55.756 78.3146 54.877C79.1936 53.9979 79.6875 52.8056 79.6875 51.5624C79.6875 50.3192 79.1936 49.1269 78.3146 48.2478C77.4355 47.3688 76.2432 46.8749 75 46.8749ZM3.125 45.3124H17.1875V82.8124H3.125V45.3124ZM31.25 45.3124H20.3125V84.3749C20.3125 84.7893 20.4771 85.1867 20.7701 85.4798C21.0632 85.7728 21.4606 85.9374 21.875 85.9374H31.25C31.6644 85.9374 32.0618 85.7728 32.3549 85.4798C32.6479 85.1867 32.8125 84.7893 32.8125 84.3749V46.8749C32.8125 46.4605 32.6479 46.0631 32.3549 45.7701C32.0618 45.477 31.6644 45.3124 31.25 45.3124ZM26.5625 79.6874C26.2535 79.6874 25.9514 79.5958 25.6944 79.4241C25.4375 79.2524 25.2372 79.0084 25.1189 78.7228C25.0007 78.4373 24.9697 78.1232 25.03 77.8201C25.0903 77.517 25.2391 77.2386 25.4576 77.0201C25.6762 76.8015 25.9546 76.6527 26.2577 76.5924C26.5608 76.5321 26.8749 76.5631 27.1604 76.6813C27.446 76.7996 27.69 76.9999 27.8617 77.2568C28.0334 77.5138 28.125 77.8159 28.125 78.1249C28.125 78.5393 27.9604 78.9367 27.6674 79.2298C27.3743 79.5228 26.9769 79.6874 26.5625 79.6874ZM83.9291 27.0366L80.5258 24.5606L80.6355 20.3532C80.6432 20.0618 80.5691 19.7741 80.4217 19.5225C80.2743 19.271 80.0595 19.0657 79.8015 18.9299C79.5436 18.7941 79.2527 18.7332 78.962 18.754C78.6712 18.7748 78.392 18.8766 78.1561 19.0478L74.7496 21.5196L70.7812 20.1147C70.5064 20.0176 70.2098 19.9992 69.9251 20.0618C69.6404 20.1243 69.3788 20.2653 69.17 20.4687C68.9612 20.6722 68.8135 20.93 68.7436 21.213C68.6736 21.496 68.6842 21.7929 68.7742 22.0702L70.0725 26.0741L67.5104 29.414C67.3333 29.6453 67.2244 29.9216 67.1961 30.2116C67.1677 30.5016 67.2211 30.7937 67.35 31.055C67.4789 31.3163 67.6784 31.5363 67.9257 31.6903C68.1731 31.8442 68.4586 31.9259 68.75 31.9261L72.959 31.9286L75.343 35.3972C75.5081 35.6374 75.7372 35.8267 76.0043 35.9436C76.2714 36.0605 76.5659 36.1003 76.8544 36.0585C77.143 36.0168 77.4141 35.8951 77.6371 35.7073C77.8601 35.5195 78.0262 35.273 78.1164 34.9958L79.4193 30.9938L83.4549 29.7983C83.7344 29.7155 83.9852 29.5561 84.1789 29.3382C84.3726 29.1203 84.5014 28.8525 84.5509 28.5652C84.6003 28.2778 84.5684 27.9824 84.4587 27.7123C84.349 27.4422 84.1659 27.2081 83.9301 27.0366H83.9291ZM44.7227 14.3382L44.0148 18.4872C43.9658 18.7746 43.9981 19.07 44.1082 19.34C44.2183 19.61 44.4018 19.8438 44.6378 20.015C44.8739 20.1862 45.1531 20.2879 45.444 20.3086C45.7348 20.3293 46.0257 20.2683 46.2836 20.1323L50.0072 18.1702L53.7344 20.1255C53.9926 20.2609 54.2835 20.3214 54.5743 20.3002C54.8651 20.2789 55.1441 20.1767 55.3798 20.0051C55.6155 19.8335 55.7985 19.5994 55.9081 19.3292C56.0177 19.059 56.0495 18.7636 56 18.4763L55.2848 14.3286L58.2959 11.388C58.5045 11.1843 58.6519 10.9263 58.7215 10.6432C58.7911 10.3601 58.7801 10.0632 58.6897 9.78598C58.5994 9.5088 58.4333 9.26242 58.2103 9.0747C57.9872 8.88698 57.7161 8.76541 57.4275 8.72373L53.2617 8.12217L51.3955 4.34971C51.2664 4.08861 51.0668 3.86882 50.8193 3.71514C50.5719 3.56146 50.2864 3.48001 49.9951 3.47998H49.9936C49.702 3.48024 49.4163 3.56207 49.1688 3.71622C48.9214 3.87036 48.722 4.09068 48.5932 4.35225L46.734 8.12822L42.5695 8.73721C42.281 8.77936 42.0101 8.9014 41.7873 9.08953C41.5645 9.27766 41.3988 9.52436 41.309 9.80175C41.2191 10.0791 41.2087 10.3761 41.2788 10.6591C41.3489 10.9422 41.4969 11.1999 41.7059 11.4032L44.7227 14.3382ZM16.5461 29.7983L20.5816 30.9938L21.8846 34.9958C21.9748 35.273 22.1408 35.5195 22.3639 35.7073C22.5869 35.8951 22.858 36.0168 23.1465 36.0585C23.4351 36.1003 23.7296 36.0605 23.9967 35.9436C24.2638 35.8267 24.4929 35.6374 24.658 35.3972L27.042 31.9286L31.251 31.9261C31.5425 31.9259 31.8282 31.8442 32.0757 31.6901C32.3232 31.536 32.5227 31.3158 32.6516 31.0542C32.7805 30.7927 32.8336 30.5003 32.805 30.2102C32.7764 29.9201 32.6671 29.6437 32.4896 29.4124L29.9275 26.0726L31.2258 22.0687C31.3157 21.7913 31.3263 21.4944 31.2562 21.2113C31.1862 20.9283 31.0384 20.6705 30.8295 20.4672C30.6206 20.2638 30.359 20.1229 30.0742 20.0604C29.7894 19.998 29.4928 20.0165 29.218 20.1138L25.2504 21.5187L21.8439 19.0478C21.608 18.8766 21.3288 18.7748 21.038 18.754C20.7473 18.7332 20.4564 18.7941 20.1985 18.9299C19.9405 19.0657 19.7257 19.271 19.5783 19.5225C19.4309 19.7741 19.3569 20.0618 19.3645 20.3532L19.4742 24.5606L16.0709 27.0366C15.8351 27.2081 15.652 27.4422 15.5423 27.7123C15.4326 27.9824 15.4007 28.2778 15.4501 28.5652C15.4996 28.8525 15.6284 29.1203 15.8221 29.3382C16.0158 29.5561 16.2666 29.7155 16.5461 29.7983Z" fill="url(#paint0_linear_873_6990)"/>
<defs>
<linearGradient id="paint0_linear_873_6990" x1="60.6588" y1="94.4981" x2="47.262" y2="3.48996" gradientUnits="userSpaceOnUse">
<stop stop-color="#28C479"/>
<stop offset="1" stop-color="#3FCC88"/>
</linearGradient>
</defs>
</svg>
