<svg width="100" height="100" viewBox="0 0 100 100" fill="none" xmlns="http://www.w3.org/2000/svg">
<g clip-path="url(#clip0_873_6959)">
<path d="M87.633 19.9402C87.633 18.1594 85.8246 17.6403 84.4161 17.3254V22.504C85.9863 22.3976 87.633 21.6615 87.633 19.9402ZM82.8459 8.9043C81.0672 8.95536 79.9141 10.0043 79.9141 11.1277C79.9141 12.4361 80.8885 13.1936 82.848 13.585L82.8459 8.9043Z" fill="url(#paint0_linear_873_6959)"/>
<path d="M83.5812 31.6312C92.3044 31.6312 99.3979 24.5356 99.3979 15.8167C99.3979 7.09772 92.3023 0 83.5812 0C74.8559 0 67.7603 7.09559 67.7603 15.8167C67.7603 24.5356 74.8559 31.6312 83.5812 31.6312ZM76.626 11.7274C76.626 8.17429 79.5813 6.33816 82.8493 6.23604V4.84458C82.8493 4.39565 83.1876 3.95311 83.6301 3.95311C84.0769 3.95311 84.4174 4.39565 84.4174 4.84458V6.23604C86.4535 6.28923 90.6428 7.56792 90.6428 10.136C90.6428 11.1551 89.8811 11.7551 88.9939 11.7551C87.2896 11.7551 87.3173 8.95726 84.4195 8.90407V13.8742C87.8747 14.6061 90.93 15.6273 90.93 19.6549C90.93 23.157 88.3151 24.9378 84.4195 25.1739V26.7909C84.4195 27.2377 84.0791 27.6824 83.6323 27.6824C83.1897 27.6824 82.8514 27.2377 82.8514 26.7909V25.1739C78.4324 25.0654 76.2367 22.4251 76.2367 20.357C76.2367 19.3145 76.8665 18.7102 77.8558 18.7102C80.7855 18.7102 78.509 22.3187 82.8536 22.5038V17.0358C78.9749 16.3294 76.626 14.6316 76.626 11.7274ZM19.906 70.4517H6.27009C3.7595 70.4517 1.7255 72.4878 1.7255 74.9984V95.4512C1.7255 96.6567 2.20424 97.8128 3.05645 98.6654C3.90867 99.518 5.06459 99.9973 6.27009 99.9979H19.906C22.4166 99.9979 24.4506 97.966 24.4506 95.4512V74.9984C24.4511 74.4013 24.334 73.81 24.1058 73.2583C23.8776 72.7065 23.5429 72.2052 23.1208 71.7829C22.6988 71.3606 22.1976 71.0257 21.6459 70.7973C21.0943 70.5688 20.503 70.4514 19.906 70.4517ZM55.1478 54.5456H41.5119C39.0013 54.5456 36.9673 56.5818 36.9673 59.0924V95.4554C36.9673 97.9703 39.0034 100.002 41.5119 100.002H55.1478C57.6584 100.002 59.6945 97.9703 59.6945 95.4554V59.086C59.6934 57.881 59.2138 56.7259 58.3611 55.8745C57.5085 55.0231 56.3527 54.5451 55.1478 54.5456ZM90.396 36.3631H76.7622C76.1652 36.3628 75.574 36.4801 75.0224 36.7084C74.4708 36.9366 73.9696 37.2714 73.5473 37.6934C73.1251 38.1154 72.7901 38.6165 72.5616 39.168C72.3331 39.7195 72.2155 40.3107 72.2155 40.9076V95.4512C72.2155 97.966 74.2516 99.9979 76.7622 99.9979H90.396C90.9932 99.9984 91.5847 99.8812 92.1366 99.6529C92.6885 99.4246 93.1899 99.0897 93.6122 98.6674C94.0345 98.2451 94.3694 97.7437 94.5977 97.1918C94.826 96.6399 94.9432 96.0484 94.9427 95.4512V40.9098C94.9429 40.3126 94.8255 39.7212 94.5971 39.1695C94.3687 38.6177 94.0338 38.1164 93.6116 37.6941C93.1893 37.2719 92.688 36.937 92.1362 36.7086C91.5845 36.4802 90.9931 36.3628 90.396 36.3631ZM63.1391 23.3442L51.8521 20.9847C51.4293 20.8971 50.9902 20.9317 50.5864 21.0844C50.1825 21.2372 49.8304 21.5017 49.5713 21.8472C49.3123 22.1926 49.1569 22.6047 49.1233 23.0352C49.0898 23.4657 49.1795 23.8968 49.3819 24.2782L51.884 28.9824L1.83827 54.7967C1.57325 54.9336 1.3378 55.1214 1.14535 55.3493C0.952906 55.5772 0.807231 55.8408 0.716647 56.125C0.626062 56.4092 0.592342 56.7084 0.617412 57.0056C0.642481 57.3029 0.725849 57.5923 0.862757 57.8573C0.999664 58.1223 1.18743 58.3577 1.41533 58.5502C1.64323 58.7426 1.90681 58.8883 2.19101 58.9789C2.47521 59.0695 2.77447 59.1032 3.0717 59.0781C3.36893 59.0531 3.65832 58.9697 3.92333 58.8328L54.0159 32.9929L56.3116 37.3077C56.7073 38.0524 57.4796 38.5141 58.3179 38.5141L58.4328 38.5098C59.3136 38.4651 60.0902 37.9162 60.4221 37.0992L64.7816 26.4228C64.9087 26.1145 64.966 25.7819 64.9495 25.4489C64.933 25.1158 64.843 24.7906 64.6861 24.4963C64.5291 24.2021 64.309 23.9463 64.0416 23.7471C63.7741 23.5479 63.4659 23.4103 63.1391 23.3442Z" fill="url(#paint1_linear_873_6959)"/>
</g>
<defs>
<linearGradient id="paint0_linear_873_6959" x1="85.3666" y1="23.9159" x2="81.68" y2="9.52513" gradientUnits="userSpaceOnUse">
<stop stop-color="#28C479"/>
<stop offset="1" stop-color="#3FCC88"/>
</linearGradient>
<linearGradient id="paint1_linear_873_6959" x1="70.3919" y1="110.384" x2="54.1462" y2="0.0116329" gradientUnits="userSpaceOnUse">
<stop stop-color="#28C479"/>
<stop offset="1" stop-color="#3FCC88"/>
</linearGradient>
<clipPath id="clip0_873_6959">
<rect width="100" height="100" fill="white"/>
</clipPath>
</defs>
</svg>
