<svg width="100" height="100" viewBox="0 0 100 100" fill="none" xmlns="http://www.w3.org/2000/svg">
<path fill-rule="evenodd" clip-rule="evenodd" d="M55.9221 5.69155L61.8764 10.1486C63.505 11.3675 65.219 11.9914 67.2501 12.1044L74.676 12.5175C79.1227 12.7648 82.7343 15.7951 83.7499 20.1314L85.4464 27.373C85.9102 29.3535 86.8223 30.9332 88.3055 32.3251L93.7288 37.4152C96.9761 40.4628 97.7946 45.1056 95.7856 49.0802L92.4303 55.7179C91.5128 57.5334 91.196 59.3296 91.4374 61.3494L92.3202 68.7345C92.8487 73.1566 90.4915 77.2392 86.3977 78.9925L79.5606 81.9207C77.6907 82.7214 76.2934 83.8939 75.1802 85.5962L71.1093 91.8209C68.6718 95.548 64.2417 97.1603 59.9788 95.872L52.8593 93.7205C50.9122 93.132 49.0882 93.132 47.1409 93.7205L40.0214 95.872C35.7585 97.1603 31.3284 95.548 28.8909 91.8209L24.82 85.5962C23.7065 83.8939 22.3093 82.7214 20.4395 81.9207L13.602 78.9921C9.50828 77.2388 7.15105 73.1562 7.67957 68.7341L8.56238 61.349C8.80378 59.3293 8.48699 57.533 7.56941 55.7175L4.21414 49.0798C2.20515 45.1054 3.02371 40.4627 6.27097 37.4148L11.6942 32.3248C13.1774 30.9328 14.0893 29.3531 14.5532 27.3726L16.2497 20.131C17.2653 15.7949 20.8768 12.7646 25.3235 12.5171L32.7495 12.1041C34.7805 11.9912 36.4946 11.3671 38.1231 10.1482L44.0774 5.69116C47.6425 3.0228 52.3569 3.0228 55.9221 5.69155ZM46.2014 52.5507L39.7397 46.089C38.0649 44.4142 35.3483 44.4142 33.6737 46.089C31.9989 47.7638 31.9989 50.4802 33.6737 52.155L43.1778 61.6589C44.8526 63.3335 47.5692 63.3337 49.2438 61.6589C54.9723 55.9302 60.636 50.1373 66.3382 44.3824C68.0009 42.7043 67.9956 39.9964 66.3196 38.3298C64.6434 36.6628 61.9278 36.6675 60.2634 38.3486L46.2014 52.5507ZM49.9997 18.0574C41.1792 18.0574 33.1934 21.6328 27.413 27.4132C21.6325 33.1939 18.0571 41.1794 18.0571 50C18.0571 58.8205 21.6325 66.8062 27.413 72.5867C33.1934 78.3671 41.1792 81.9425 49.9997 81.9425C58.8202 81.9425 66.8059 78.3671 72.5864 72.5867C78.3669 66.8062 81.9423 58.8205 81.9423 50C81.9423 41.1794 78.3669 33.1937 72.5864 27.4132C66.8059 21.6328 58.8202 18.0574 49.9997 18.0574ZM70.3768 29.6228C65.162 24.408 57.9575 21.1824 49.9997 21.1824C42.0419 21.1824 34.8374 24.408 29.6225 29.6228C24.4077 34.8377 21.1821 42.0421 21.1821 50C21.1821 57.9578 24.4077 65.1623 29.6225 70.3771C34.8374 75.5919 42.0419 78.8175 49.9997 78.8175C57.9575 78.8175 65.162 75.5919 70.3768 70.3773C75.5917 65.1625 78.8171 57.958 78.8171 50.0002C78.8173 42.0421 75.5917 34.8377 70.3768 29.6228Z" fill="url(#paint0_linear_873_6980)"/>
<defs>
<linearGradient id="paint0_linear_873_6980" x1="69.3482" y1="105.926" x2="54.6486" y2="3.59765" gradientUnits="userSpaceOnUse">
<stop stop-color="#28C479"/>
<stop offset="1" stop-color="#3FCC88"/>
</linearGradient>
</defs>
</svg>
