<svg width="100" height="100" viewBox="0 0 100 100" fill="none" xmlns="http://www.w3.org/2000/svg">
<g clip-path="url(#clip0_873_6970)">
<path fill-rule="evenodd" clip-rule="evenodd" d="M38.2354 0V17.6471C38.2354 19.9961 40.8535 21.3973 42.808 20.0943L50 15.2996L57.192 20.0943C59.1465 21.3975 61.7646 19.9963 61.7646 17.6471V0H70.5881C72.2125 0 73.5293 1.3168 73.5293 2.94121V44.1178C73.5293 45.7422 72.2125 47.059 70.5881 47.059H29.4117C27.7873 47.059 26.4705 45.7422 26.4705 44.1178V2.94121C26.4705 1.3168 27.7873 0 29.4117 0H38.2354ZM44.1176 0H55.8822V12.1514L51.6314 9.31738C51.1483 8.99531 50.5807 8.82344 50 8.82344C49.4193 8.82344 48.8517 8.99531 48.3686 9.31738L44.1178 12.1514L44.1176 0ZM11.7646 52.9412V70.5883C11.7646 72.9373 14.3828 74.3385 16.3373 73.0355L23.5293 68.2408L30.7213 73.0355C32.6758 74.3387 35.2939 72.9375 35.2939 70.5883V52.9412H44.1174C45.7418 52.9412 47.0586 54.258 47.0586 55.8824V97.059C47.0586 98.6834 45.7418 100 44.1174 100H2.94121C1.3168 100 0 98.6832 0 97.0588V55.8824C0 54.258 1.3168 52.9412 2.94121 52.9412H11.7646ZM17.6471 52.9412H29.4117V65.0926L25.1609 62.2586C24.6778 61.9365 24.1101 61.7646 23.5295 61.7646C22.9488 61.7646 22.3812 61.9365 21.898 62.2586L17.6473 65.0926L17.6471 52.9412ZM64.7059 52.9412V70.5883C64.7059 72.9373 67.324 74.3385 69.2785 73.0355L76.4705 68.2408L83.6625 73.0355C85.617 74.3387 88.2352 72.9375 88.2352 70.5883V52.9412H97.0586C98.683 52.9412 99.9998 54.258 99.9998 55.8824V97.059C99.9998 98.6834 98.683 100 97.0586 100H55.8824C54.258 100 52.9412 98.6834 52.9412 97.059V55.8824C52.9412 54.258 54.258 52.9412 55.8824 52.9412H64.7059ZM70.5883 52.9412H82.3529V65.0926L78.1021 62.2586C77.619 61.9365 77.0514 61.7646 76.4707 61.7646C75.8901 61.7646 75.3224 61.9365 74.8393 62.2586L70.5885 65.0926V52.9412H70.5883Z" fill="url(#paint0_linear_873_6970)"/>
</g>
<defs>
<linearGradient id="paint0_linear_873_6970" x1="70.6382" y1="110.382" x2="54.5816" y2="-0.0448408" gradientUnits="userSpaceOnUse">
<stop stop-color="#28C479"/>
<stop offset="1" stop-color="#3FCC88"/>
</linearGradient>
<clipPath id="clip0_873_6970">
<rect width="100" height="100" fill="white"/>
</clipPath>
</defs>
</svg>
