<svg width="120" height="120" viewBox="0 0 120 120" fill="none" xmlns="http://www.w3.org/2000/svg">
<path d="M22.5 63.75C14.2275 63.75 7.5 57.0225 7.5 48.75C7.5 40.4775 14.2275 33.75 22.5 33.75C30.7725 33.75 37.5 40.4775 37.5 48.75C37.5 57.0225 30.7725 63.75 22.5 63.75ZM29.1375 66.2625C24.8625 67.9125 20.1375 67.9125 15.8625 66.2625C14.775 65.85 13.5375 66 12.5625 66.6C9.86456 68.2841 7.63986 70.6275 6.09809 73.4093C4.55631 76.191 3.74823 79.3196 3.75 82.5V97.5C3.75 99.5625 5.4375 101.25 7.5 101.25H26.25V82.5C26.25 76.6875 27.7875 71.025 30.5625 66.075C30.075 66 29.5875 66.075 29.1375 66.2625ZM97.5 63.75C105.772 63.75 112.5 57.0225 112.5 48.75C112.5 40.4775 105.772 33.75 97.5 33.75C89.2275 33.75 82.5 40.4775 82.5 48.75C82.5 57.0225 89.2275 63.75 97.5 63.75ZM107.438 66.6C106.463 66 105.225 65.85 104.138 66.2625C99.8625 67.9125 95.1375 67.9125 90.8625 66.2625C90.414 66.0692 89.9207 66.0043 89.4375 66.075C92.2549 71.0916 93.7396 76.7465 93.75 82.5V101.25H112.5C114.562 101.25 116.25 99.5625 116.25 97.5V82.5C116.25 76.0125 112.95 70.0875 107.438 66.6ZM60 56.25C49.6613 56.25 41.25 47.8387 41.25 37.5C41.25 27.1613 49.6613 18.75 60 18.75C70.3388 18.75 78.75 27.1613 78.75 37.5C78.75 47.8387 70.3388 56.25 60 56.25ZM86.25 82.5C86.249 78.3761 85.2736 74.3107 83.4033 70.6352C81.533 66.9598 78.8207 63.7783 75.4875 61.35C74.3625 60.525 72.8625 60.4125 71.625 61.0125C69.1125 62.2875 66.45 63.075 63.75 63.45V82.5C63.75 84.5625 62.0625 86.25 60 86.25C57.9375 86.25 56.25 84.5625 56.25 82.5V63.45C53.55 63.075 50.8875 62.2875 48.375 61.0125C47.1375 60.4125 45.6375 60.525 44.5125 61.35C41.1793 63.7783 38.467 66.9598 36.5967 70.6352C34.7264 74.3107 33.751 78.3761 33.75 82.5V101.25H86.25V82.5Z" fill="url(#paint0_linear_211_1161)"/>
<defs>
<linearGradient id="paint0_linear_211_1161" x1="27.0069" y1="31.2283" x2="56.651" y2="102.968" gradientUnits="userSpaceOnUse">
<stop stop-color="#34C47F"/>
<stop offset="1" stop-color="#3FCC88"/>
</linearGradient>
</defs>
</svg>
