<svg width="120" height="120" viewBox="0 0 120 120" fill="none" xmlns="http://www.w3.org/2000/svg">
<path d="M25.0857 24.8345H94.34C95.5957 24.8419 96.8459 25 98.0639 25.3054C96.7246 21.0853 92.8192 18 88.1603 18H30.9208C26.2343 18 22.3082 21.1243 20.9942 25.3835C22.328 25.0218 23.7037 24.8372 25.0857 24.8345ZM18.1892 36.3784H100.892C102.275 36.3784 103.607 36.5874 104.866 36.9688C104.672 36.3807 104.429 35.8097 104.14 35.2619C103.183 33.4975 101.767 32.0244 100.042 30.9981C98.3174 29.9719 96.3472 29.4305 94.34 29.4314H25.0857C23.0733 29.4305 21.0982 29.9747 19.3703 31.0061C17.6423 32.0376 16.226 33.5177 15.2716 35.2895C15.003 35.7991 14.7748 36.3291 14.5893 36.8746C15.762 36.5507 16.9726 36.3846 18.1892 36.3807V36.3784ZM100.892 40.973H18.1892C15.7521 40.973 13.4148 41.9411 11.6915 43.6644C9.96814 45.3877 9 47.725 9 50.1622V93.8108C9 96.2479 9.96814 98.5852 11.6915 100.309C13.4148 102.032 15.7521 103 18.1892 103H100.892C103.329 103 105.666 102.032 107.39 100.309C109.113 98.5852 110.081 96.2479 110.081 93.8108V50.1622C110.081 47.725 109.113 45.3877 107.39 43.6644C105.666 41.9411 103.329 40.973 100.892 40.973ZM75.424 77.9549L54.7484 89.8916C53.6686 90.5142 52.4855 90.8266 51.3024 90.8266C50.1193 90.8266 48.9339 90.5165 47.8565 89.8916C46.8039 89.2924 45.9299 88.4236 45.3243 87.3747C44.7186 86.3257 44.4033 85.1344 44.4105 83.9232V60.0497C44.4105 57.5572 45.6993 55.3265 47.8565 54.0813C50.0136 52.8362 52.5912 52.8362 54.7484 54.0813L75.424 66.0181C77.5812 67.2632 78.87 69.4962 78.87 71.9865C78.87 74.4768 77.5812 76.7097 75.424 77.9549Z" fill="url(#paint0_linear_211_1152)"/>
<defs>
<linearGradient id="paint0_linear_211_1152" x1="29.8963" y1="30.8565" x2="63.3812" y2="101.524" gradientUnits="userSpaceOnUse">
<stop stop-color="#34C47F"/>
<stop offset="1" stop-color="#3FCC88"/>
</linearGradient>
</defs>
</svg>
