<svg width="120" height="120" viewBox="0 0 120 120" fill="none" xmlns="http://www.w3.org/2000/svg">
<path d="M39.2219 58.1156H79.8C82.425 58.1156 84.5687 55.9719 84.5687 53.3469V12.7688C84.5687 10.1438 82.425 8 79.8 8H39.2219C36.5969 8 34.4531 10.1438 34.4531 12.7688V53.3469C34.4531 55.9719 36.5969 58.1156 39.2219 58.1156ZM46.7469 29.1969C46.9875 28.4531 47.5781 27.8844 48.3437 27.6437L54.1188 25.9594L57.5094 20.9719C58.4063 19.6813 60.5719 19.6813 61.4687 20.9719L64.8594 25.9594L70.6344 27.6437C71.4 27.8844 71.9906 28.4531 72.2312 29.1969C72.4937 29.9625 72.3406 30.7719 71.8812 31.3844L68.2062 36.1531L68.3594 42.1906C68.3812 42.9781 68.0312 43.7219 67.375 44.1813C66.9594 44.4875 66.4781 44.6625 65.975 44.6625C65.7125 44.6625 65.45 44.6188 65.1875 44.5094L59.5 42.475L53.8125 44.5094C53.0687 44.7719 52.2375 44.6625 51.625 44.1813C50.9906 43.7219 50.6188 42.9781 50.6406 42.1906L50.7938 36.1531L47.1188 31.3844C46.6375 30.7719 46.4844 29.9625 46.7469 29.1969ZM11.7688 113H52.3469C54.9719 113 57.1156 110.856 57.1156 108.231V67.6531C57.1156 65.0281 54.9719 62.8844 52.3469 62.8844H11.7688C9.14375 62.8844 7 65.0281 7 67.6531V108.231C7 110.856 9.14375 113 11.7688 113ZM32.0469 73.625C35.844 73.625 39.4857 75.1334 42.1707 77.8184C44.8556 80.5034 46.3641 84.145 46.3641 87.9422C46.3641 91.7393 44.8556 95.381 42.1707 98.066C39.4857 100.751 35.844 102.259 32.0469 102.259C24.15 102.259 17.7406 95.85 17.7406 87.9531C17.7406 80.0344 24.15 73.625 32.0469 73.625ZM107.231 62.8844H66.6531C64.0281 62.8844 61.8844 65.0281 61.8844 67.6531V108.231C61.8844 110.856 64.0281 113 66.6531 113H107.231C109.856 113 112 110.856 112 108.231V67.6531C112 65.0281 109.856 62.8844 107.231 62.8844ZM98.5031 99.9625C98.0438 100.663 97.3 101.078 96.4906 101.078H77.3938C76.5844 101.078 75.8406 100.663 75.4031 99.9625C74.9656 99.3063 74.9 98.4531 75.2281 97.7094L84.7656 76.2281C85.1594 75.375 85.9906 74.8281 86.9531 74.8281C87.8937 74.8281 88.725 75.375 89.1188 76.2281L98.6563 97.7094C98.9844 98.4531 98.9188 99.3063 98.5031 99.9625Z" fill="url(#paint0_linear_211_1176)"/>
<defs>
<linearGradient id="paint0_linear_211_1176" x1="28.7065" y1="23.8815" x2="74.4239" y2="105.016" gradientUnits="userSpaceOnUse">
<stop stop-color="#34C47F"/>
<stop offset="1" stop-color="#3FCC88"/>
</linearGradient>
</defs>
</svg>
