<svg width="120" height="120" viewBox="0 0 120 120" fill="none" xmlns="http://www.w3.org/2000/svg">
<path d="M71.25 78.75C73.3211 78.75 75 77.0711 75 75C75 72.9289 73.3211 71.25 71.25 71.25C69.1789 71.25 67.5 72.9289 67.5 75C67.5 77.0711 69.1789 78.75 71.25 78.75Z" fill="url(#paint0_linear_211_1166)"/>
<path d="M48.75 48.75C50.8211 48.75 52.5 47.0711 52.5 45C52.5 42.9289 50.8211 41.25 48.75 41.25C46.6789 41.25 45 42.9289 45 45C45 47.0711 46.6789 48.75 48.75 48.75Z" fill="url(#paint1_linear_211_1166)"/>
<path d="M107.714 49.1625L103.413 44.8613C102.712 44.1641 102.156 43.3349 101.777 42.4215C101.399 41.5081 101.205 40.5287 101.208 39.54V33.4613C101.204 29.47 99.6169 25.6432 96.795 22.8206C93.9731 19.998 90.1467 18.41 86.1554 18.405H80.0729C79.0841 18.4084 78.1045 18.2152 77.191 17.8366C76.2775 17.4581 75.4483 16.9018 74.7517 16.2L70.4504 11.9025C67.6251 9.08383 63.797 7.50085 59.806 7.50085C55.8151 7.50085 51.987 9.08383 49.1617 11.9025L44.8604 16.2C44.1638 16.9018 43.3346 17.4581 42.4211 17.8366C41.5076 18.2152 40.528 18.4084 39.5392 18.405H33.4604C29.4685 18.409 25.6412 19.9966 22.8184 22.8193C19.9957 25.642 18.4081 29.4693 18.4042 33.4613V39.54C18.4072 40.5294 18.2138 41.5094 17.8353 42.4235C17.4568 43.3376 16.9007 44.1674 16.1992 44.865L11.9017 49.1625C9.08297 51.9879 7.5 55.8159 7.5 59.8069C7.5 63.7979 9.08297 67.6259 11.9017 70.4513L16.1992 74.7563C16.9012 75.452 17.4576 76.2804 17.8362 77.1934C18.2148 78.1063 18.4078 79.0855 18.4042 80.0738V86.1563C18.4091 90.1476 19.9971 93.9739 22.8198 96.7958C25.6424 99.6178 29.4691 101.205 33.4604 101.209H39.5392C40.5283 101.207 41.508 101.401 42.4219 101.779C43.3358 102.158 44.1658 102.713 44.8642 103.414L49.1617 107.715C51.9866 110.535 55.8148 112.118 59.806 112.118C63.7973 112.118 67.6255 110.535 70.4504 107.715L74.7554 103.414C75.4516 102.712 76.2802 102.156 77.193 101.778C78.1058 101.399 79.0847 101.206 80.0729 101.209H86.1554C90.1461 101.204 93.9719 99.6163 96.7937 96.7945C99.6155 93.9727 101.203 90.1469 101.208 86.1563V80.0738C101.205 79.0856 101.399 78.1067 101.777 77.1939C102.156 76.281 102.712 75.4525 103.413 74.7563L107.714 70.455C110.534 67.6295 112.118 63.8007 112.118 59.8088C112.118 55.8169 110.534 51.9881 107.714 49.1625ZM37.4992 45C37.4992 42.775 38.159 40.5999 39.3951 38.7499C40.6313 36.8998 42.3883 35.4579 44.444 34.6064C46.4997 33.7549 48.7617 33.5321 50.9439 33.9662C53.1262 34.4003 55.1308 35.4717 56.7041 37.0451C58.2775 38.6184 59.3489 40.623 59.783 42.8053C60.2171 44.9875 59.9943 47.2495 59.1428 49.3052C58.2913 51.3609 56.8494 53.1179 54.9993 54.3541C53.1493 55.5902 50.9742 56.25 48.7492 56.25C45.7655 56.25 42.904 55.0648 40.7942 52.955C38.6844 50.8452 37.4992 47.9837 37.4992 45ZM48.5879 76.7138C47.8807 77.3969 46.9334 77.7748 45.9502 77.7663C44.9669 77.7578 44.0264 77.3634 43.3311 76.6681C42.6358 75.9728 42.2414 75.0323 42.2329 74.049C42.2244 73.0658 42.6023 72.1185 43.2854 71.4113L71.4104 43.2863C72.1177 42.6032 73.0649 42.2252 74.0482 42.2338C75.0314 42.2423 75.972 42.6367 76.6672 43.332C77.3625 44.0272 77.7569 44.9678 77.7654 45.951C77.774 46.9343 77.396 47.8815 76.7129 48.5888L48.5879 76.7138ZM71.2492 86.25C69.0241 86.25 66.8491 85.5902 64.999 84.3541C63.149 83.1179 61.707 81.3609 60.8555 79.3052C60.004 77.2495 59.7813 74.9875 60.2153 72.8053C60.6494 70.623 61.7209 68.6184 63.2942 67.0451C64.8676 65.4717 66.8721 64.4003 69.0544 63.9662C71.2367 63.5321 73.4987 63.7549 75.5544 64.6064C77.61 65.4579 79.3671 66.8998 80.6032 68.7499C81.8394 70.5999 82.4992 72.775 82.4992 75C82.4992 77.9837 81.3139 80.8452 79.2041 82.955C77.0943 85.0648 74.2329 86.25 71.2492 86.25Z" fill="url(#paint2_linear_211_1166)"/>
<defs>
<linearGradient id="paint0_linear_211_1166" x1="69.0505" y1="72.3844" x2="72.316" y2="78.1797" gradientUnits="userSpaceOnUse">
<stop stop-color="#34C47F"/>
<stop offset="1" stop-color="#3FCC88"/>
</linearGradient>
<linearGradient id="paint1_linear_211_1166" x1="46.5505" y1="42.3844" x2="49.816" y2="48.1797" gradientUnits="userSpaceOnUse">
<stop stop-color="#34C47F"/>
<stop offset="1" stop-color="#3FCC88"/>
</linearGradient>
<linearGradient id="paint2_linear_211_1166" x1="29.1275" y1="23.3245" x2="74.6782" y2="104.163" gradientUnits="userSpaceOnUse">
<stop stop-color="#34C47F"/>
<stop offset="1" stop-color="#3FCC88"/>
</linearGradient>
</defs>
</svg>
