<svg width="44" height="29" viewBox="0 0 44 29" fill="none" xmlns="http://www.w3.org/2000/svg">
<path d="M42.5123 4.54409C42.2664 3.66716 41.7876 2.87322 41.1266 2.24668C40.4469 1.60088 39.6139 1.13893 38.7061 0.904418C35.3089 0.00897035 21.6981 0.00897055 21.6981 0.00897055C16.0239 -0.0555873 10.3511 0.228354 4.71171 0.859193C3.80395 1.11103 2.97249 1.58331 2.29129 2.23402C1.62197 2.87802 1.13716 3.67216 0.883901 4.54228C0.275527 7.8197 -0.0200631 11.1475 0.00111647 14.4808C-0.0205913 17.8112 0.274273 21.1379 0.883901 24.4194C1.13173 25.2859 1.61473 26.0764 2.28586 26.715C2.957 27.3536 3.79275 27.8149 4.71171 28.0591C8.15421 28.9527 21.6981 28.9527 21.6981 28.9527C27.3795 29.0174 33.0595 28.7334 38.7061 28.1025C39.6139 27.868 40.4469 27.406 41.1266 26.7602C41.7959 26.1217 42.2717 25.3275 42.5104 24.4628C43.1347 21.1867 43.4382 17.8575 43.4167 14.5225C43.4637 11.1733 43.1605 7.82842 42.5123 4.54228V4.54409ZM17.371 20.6748V8.28869L28.6952 14.4827L17.371 20.6748Z" fill="url(#paint0_linear_84_2690)"/>
<path d="M42.5123 4.54409C42.2664 3.66716 41.7876 2.87322 41.1266 2.24668C40.4469 1.60088 39.6139 1.13893 38.7061 0.904418C35.3089 0.00897035 21.6981 0.00897055 21.6981 0.00897055C16.0239 -0.0555873 10.3511 0.228354 4.71171 0.859193C3.80395 1.11103 2.97249 1.58331 2.29129 2.23402C1.62197 2.87802 1.13716 3.67216 0.883901 4.54228C0.275527 7.8197 -0.0200631 11.1475 0.00111647 14.4808C-0.0205913 17.8112 0.274273 21.1379 0.883901 24.4194C1.13173 25.2859 1.61473 26.0764 2.28586 26.715C2.957 27.3536 3.79275 27.8149 4.71171 28.0591C8.15421 28.9527 21.6981 28.9527 21.6981 28.9527C27.3795 29.0174 33.0595 28.7334 38.7061 28.1025C39.6139 27.868 40.4469 27.406 41.1266 26.7602C41.7959 26.1217 42.2717 25.3275 42.5104 24.4628C43.1347 21.1867 43.4382 17.8575 43.4167 14.5225C43.4637 11.1733 43.1605 7.82842 42.5123 4.54228V4.54409ZM17.371 20.6748V8.28869L28.6952 14.4827L17.371 20.6748Z" fill="url(#paint1_linear_84_2690)"/>
<path d="M42.5123 4.54409C42.2664 3.66716 41.7876 2.87322 41.1266 2.24668C40.4469 1.60088 39.6139 1.13893 38.7061 0.904418C35.3089 0.00897035 21.6981 0.00897055 21.6981 0.00897055C16.0239 -0.0555873 10.3511 0.228354 4.71171 0.859193C3.80395 1.11103 2.97249 1.58331 2.29129 2.23402C1.62197 2.87802 1.13716 3.67216 0.883901 4.54228C0.275527 7.8197 -0.0200631 11.1475 0.00111647 14.4808C-0.0205913 17.8112 0.274273 21.1379 0.883901 24.4194C1.13173 25.2859 1.61473 26.0764 2.28586 26.715C2.957 27.3536 3.79275 27.8149 4.71171 28.0591C8.15421 28.9527 21.6981 28.9527 21.6981 28.9527C27.3795 29.0174 33.0595 28.7334 38.7061 28.1025C39.6139 27.868 40.4469 27.406 41.1266 26.7602C41.7959 26.1217 42.2717 25.3275 42.5104 24.4628C43.1347 21.1867 43.4382 17.8575 43.4167 14.5225C43.4637 11.1733 43.1605 7.82842 42.5123 4.54228V4.54409ZM17.371 20.6748V8.28869L28.6952 14.4827L17.371 20.6748Z" fill="url(#paint2_linear_84_2690)"/>
<defs>
<linearGradient id="paint0_linear_84_2690" x1="19.7822" y1="2.73688" x2="17.176" y2="24.4449" gradientUnits="userSpaceOnUse">
<stop stop-color="#5BCE97"/>
<stop offset="0.515837" stop-color="#BBED82"/>
<stop offset="1" stop-color="#FFDE69"/>
</linearGradient>
<linearGradient id="paint1_linear_84_2690" x1="11.7561" y1="8.42786" x2="28.1103" y2="25.9528" gradientUnits="userSpaceOnUse">
<stop stop-color="#2EBE79"/>
<stop offset="1" stop-color="#3BC583"/>
</linearGradient>
<linearGradient id="paint2_linear_84_2690" x1="8.97645" y1="4.38053" x2="18.6862" y2="30.2157" gradientUnits="userSpaceOnUse">
<stop stop-color="#34C47F"/>
<stop offset="1" stop-color="#3FCC88"/>
</linearGradient>
</defs>
</svg>
