<svg width="24" height="24" viewBox="0 0 24 24" fill="none" xmlns="http://www.w3.org/2000/svg">
<path d="M3.62166 8.49C5.59166 -0.169998 18.4217 -0.159997 20.3817 8.5C21.5317 13.58 18.3717 17.88 15.6017 20.54C13.5917 22.48 10.4117 22.48 8.39166 20.54C5.63166 17.88 2.47166 13.57 3.62166 8.49Z" fill="url(#paint0_linear_84_2661)"/>
<path d="M3.62166 8.49C5.59166 -0.169998 18.4217 -0.159997 20.3817 8.5C21.5317 13.58 18.3717 17.88 15.6017 20.54C13.5917 22.48 10.4117 22.48 8.39166 20.54C5.63166 17.88 2.47166 13.57 3.62166 8.49Z" fill="url(#paint1_linear_84_2661)"/>
<path d="M3.62166 8.49C5.59166 -0.169998 18.4217 -0.159997 20.3817 8.5C21.5317 13.58 18.3717 17.88 15.6017 20.54C13.5917 22.48 10.4117 22.48 8.39166 20.54C5.63166 17.88 2.47166 13.57 3.62166 8.49Z" fill="url(#paint2_linear_84_2661)"/>
<path d="M3.62166 8.49C5.59166 -0.169998 18.4217 -0.159997 20.3817 8.5C21.5317 13.58 18.3717 17.88 15.6017 20.54C13.5917 22.48 10.4117 22.48 8.39166 20.54C5.63166 17.88 2.47166 13.57 3.62166 8.49Z" stroke="url(#paint3_linear_84_2661)" stroke-width="2"/>
<path d="M3.62166 8.49C5.59166 -0.169998 18.4217 -0.159997 20.3817 8.5C21.5317 13.58 18.3717 17.88 15.6017 20.54C13.5917 22.48 10.4117 22.48 8.39166 20.54C5.63166 17.88 2.47166 13.57 3.62166 8.49Z" stroke="url(#paint4_linear_84_2661)" stroke-width="2"/>
<path d="M3.62166 8.49C5.59166 -0.169998 18.4217 -0.159997 20.3817 8.5C21.5317 13.58 18.3717 17.88 15.6017 20.54C13.5917 22.48 10.4117 22.48 8.39166 20.54C5.63166 17.88 2.47166 13.57 3.62166 8.49Z" stroke="url(#paint5_linear_84_2661)" stroke-width="2"/>
<path d="M11.9989 13.4295C13.722 13.4295 15.1189 12.0326 15.1189 10.3095C15.1189 8.58633 13.722 7.18945 11.9989 7.18945C10.2758 7.18945 8.87891 8.58633 8.87891 10.3095C8.87891 12.0326 10.2758 13.4295 11.9989 13.4295Z" fill="white" stroke="white" stroke-width="2"/>
<defs>
<linearGradient id="paint0_linear_84_2661" x1="11.2357" y1="3.88953" x2="8.19536" y2="18.4581" gradientUnits="userSpaceOnUse">
<stop stop-color="#5BCE97"/>
<stop offset="0.515837" stop-color="#BBED82"/>
<stop offset="1" stop-color="#FFDE69"/>
</linearGradient>
<linearGradient id="paint1_linear_84_2661" x1="8.04803" y1="7.81855" x2="18.1594" y2="14.0518" gradientUnits="userSpaceOnUse">
<stop stop-color="#2EBE79"/>
<stop offset="1" stop-color="#3BC583"/>
</linearGradient>
<linearGradient id="paint2_linear_84_2661" x1="6.94404" y1="5.02429" x2="16.2646" y2="19.2908" gradientUnits="userSpaceOnUse">
<stop stop-color="#34C47F"/>
<stop offset="1" stop-color="#3FCC88"/>
</linearGradient>
<linearGradient id="paint3_linear_84_2661" x1="11.2357" y1="3.88953" x2="8.19536" y2="18.4581" gradientUnits="userSpaceOnUse">
<stop stop-color="#5BCE97"/>
<stop offset="0.515837" stop-color="#BBED82"/>
<stop offset="1" stop-color="#FFDE69"/>
</linearGradient>
<linearGradient id="paint4_linear_84_2661" x1="8.04803" y1="7.81855" x2="18.1594" y2="14.0518" gradientUnits="userSpaceOnUse">
<stop stop-color="#2EBE79"/>
<stop offset="1" stop-color="#3BC583"/>
</linearGradient>
<linearGradient id="paint5_linear_84_2661" x1="6.94404" y1="5.02429" x2="16.2646" y2="19.2908" gradientUnits="userSpaceOnUse">
<stop stop-color="#34C47F"/>
<stop offset="1" stop-color="#3FCC88"/>
</linearGradient>
</defs>
</svg>
