<svg width="24" height="24" viewBox="0 0 24 24" fill="none" xmlns="http://www.w3.org/2000/svg">
<path d="M17 20.5H7C4 20.5 2 19 2 15.5V8.5C2 5 4 3.5 7 3.5H17C20 3.5 22 5 22 8.5V15.5C22 19 20 20.5 17 20.5Z" fill="url(#paint0_linear_84_2655)"/>
<path d="M17 20.5H7C4 20.5 2 19 2 15.5V8.5C2 5 4 3.5 7 3.5H17C20 3.5 22 5 22 8.5V15.5C22 19 20 20.5 17 20.5Z" fill="url(#paint1_linear_84_2655)"/>
<path d="M17 20.5H7C4 20.5 2 19 2 15.5V8.5C2 5 4 3.5 7 3.5H17C20 3.5 22 5 22 8.5V15.5C22 19 20 20.5 17 20.5Z" fill="url(#paint2_linear_84_2655)"/>
<path d="M17 20.5H7C4 20.5 2 19 2 15.5V8.5C2 5 4 3.5 7 3.5H17C20 3.5 22 5 22 8.5V15.5C22 19 20 20.5 17 20.5Z" stroke="url(#paint3_linear_84_2655)" stroke-width="2" stroke-miterlimit="10" stroke-linecap="round" stroke-linejoin="round"/>
<path d="M17 20.5H7C4 20.5 2 19 2 15.5V8.5C2 5 4 3.5 7 3.5H17C20 3.5 22 5 22 8.5V15.5C22 19 20 20.5 17 20.5Z" stroke="url(#paint4_linear_84_2655)" stroke-width="2" stroke-miterlimit="10" stroke-linecap="round" stroke-linejoin="round"/>
<path d="M17 20.5H7C4 20.5 2 19 2 15.5V8.5C2 5 4 3.5 7 3.5H17C20 3.5 22 5 22 8.5V15.5C22 19 20 20.5 17 20.5Z" stroke="url(#paint5_linear_84_2655)" stroke-width="2" stroke-miterlimit="10" stroke-linecap="round" stroke-linejoin="round"/>
<path d="M17 9L13.87 11.5C12.84 12.32 11.15 12.32 10.12 11.5L7 9" fill="url(#paint6_linear_84_2655)"/>
<path d="M17 9L13.87 11.5C12.84 12.32 11.15 12.32 10.12 11.5L7 9" fill="url(#paint7_linear_84_2655)"/>
<path d="M17 9L13.87 11.5C12.84 12.32 11.15 12.32 10.12 11.5L7 9" fill="url(#paint8_linear_84_2655)"/>
<path d="M17 9L13.87 11.5C12.84 12.32 11.15 12.32 10.12 11.5L7 9" stroke="white" stroke-width="2" stroke-miterlimit="10" stroke-linecap="round" stroke-linejoin="round"/>
<defs>
<linearGradient id="paint0_linear_84_2655" x1="11.1117" y1="5.1065" x2="9.17935" y2="17.7367" gradientUnits="userSpaceOnUse">
<stop stop-color="#5BCE97"/>
<stop offset="0.515837" stop-color="#BBED82"/>
<stop offset="1" stop-color="#FFDE69"/>
</linearGradient>
<linearGradient id="paint1_linear_84_2655" x1="7.41489" y1="8.447" x2="16.8947" y2="16.4183" gradientUnits="userSpaceOnUse">
<stop stop-color="#2EBE79"/>
<stop offset="1" stop-color="#3BC583"/>
</linearGradient>
<linearGradient id="paint2_linear_84_2655" x1="6.13457" y1="6.07129" x2="12.8771" y2="20.1487" gradientUnits="userSpaceOnUse">
<stop stop-color="#34C47F"/>
<stop offset="1" stop-color="#3FCC88"/>
</linearGradient>
<linearGradient id="paint3_linear_84_2655" x1="11.1117" y1="5.1065" x2="9.17935" y2="17.7367" gradientUnits="userSpaceOnUse">
<stop stop-color="#5BCE97"/>
<stop offset="0.515837" stop-color="#BBED82"/>
<stop offset="1" stop-color="#FFDE69"/>
</linearGradient>
<linearGradient id="paint4_linear_84_2655" x1="7.41489" y1="8.447" x2="16.8947" y2="16.4183" gradientUnits="userSpaceOnUse">
<stop stop-color="#2EBE79"/>
<stop offset="1" stop-color="#3BC583"/>
</linearGradient>
<linearGradient id="paint5_linear_84_2655" x1="6.13457" y1="6.07129" x2="12.8771" y2="20.1487" gradientUnits="userSpaceOnUse">
<stop stop-color="#34C47F"/>
<stop offset="1" stop-color="#3FCC88"/>
</linearGradient>
<linearGradient id="paint6_linear_84_2655" x1="11.5559" y1="9.29437" x2="11.4235" y2="11.6554" gradientUnits="userSpaceOnUse">
<stop stop-color="#5BCE97"/>
<stop offset="0.515837" stop-color="#BBED82"/>
<stop offset="1" stop-color="#FFDE69"/>
</linearGradient>
<linearGradient id="paint7_linear_84_2655" x1="9.70745" y1="9.90646" x2="10.999" y2="12.87" gradientUnits="userSpaceOnUse">
<stop stop-color="#2EBE79"/>
<stop offset="1" stop-color="#3BC583"/>
</linearGradient>
<linearGradient id="paint8_linear_84_2655" x1="9.06728" y1="9.47115" x2="9.60727" y2="12.5476" gradientUnits="userSpaceOnUse">
<stop stop-color="#34C47F"/>
<stop offset="1" stop-color="#3FCC88"/>
</linearGradient>
</defs>
</svg>
