<svg width="39" height="33" viewBox="0 0 39 33" fill="none" xmlns="http://www.w3.org/2000/svg">
<path d="M35.7461 0.969648L2.50239 13.789C0.233637 14.7003 0.246762 15.9659 2.08614 16.5303L10.6211 19.1928L30.3686 6.7334C31.3024 6.16527 32.1555 6.4709 31.4543 7.0934L15.4549 21.5328H15.4511L15.4549 21.5346L14.8661 30.3322C15.7286 30.3322 16.1093 29.9365 16.593 29.4696L20.7386 25.4384L29.3618 31.8078C30.9518 32.6834 32.0936 32.2334 32.4893 30.3359L38.1499 3.6584C38.7293 1.33527 37.263 0.283398 35.7461 0.969648V0.969648Z" fill="url(#paint0_linear_84_2680)"/>
<path d="M35.7461 0.969648L2.50239 13.789C0.233637 14.7003 0.246762 15.9659 2.08614 16.5303L10.6211 19.1928L30.3686 6.7334C31.3024 6.16527 32.1555 6.4709 31.4543 7.0934L15.4549 21.5328H15.4511L15.4549 21.5346L14.8661 30.3322C15.7286 30.3322 16.1093 29.9365 16.593 29.4696L20.7386 25.4384L29.3618 31.8078C30.9518 32.6834 32.0936 32.2334 32.4893 30.3359L38.1499 3.6584C38.7293 1.33527 37.263 0.283398 35.7461 0.969648V0.969648Z" fill="url(#paint1_linear_84_2680)"/>
<path d="M35.7461 0.969648L2.50239 13.789C0.233637 14.7003 0.246762 15.9659 2.08614 16.5303L10.6211 19.1928L30.3686 6.7334C31.3024 6.16527 32.1555 6.4709 31.4543 7.0934L15.4549 21.5328H15.4511L15.4549 21.5346L14.8661 30.3322C15.7286 30.3322 16.1093 29.9365 16.593 29.4696L20.7386 25.4384L29.3618 31.8078C30.9518 32.6834 32.0936 32.2334 32.4893 30.3359L38.1499 3.6584C38.7293 1.33527 37.263 0.283398 35.7461 0.969648V0.969648Z" fill="url(#paint2_linear_84_2680)"/>
<defs>
<linearGradient id="paint0_linear_84_2680" x1="17.8478" y1="3.73704" x2="14.3157" y2="27.1354" gradientUnits="userSpaceOnUse">
<stop stop-color="#5BCE97"/>
<stop offset="0.515837" stop-color="#BBED82"/>
<stop offset="1" stop-color="#FFDE69"/>
</linearGradient>
<linearGradient id="paint1_linear_84_2680" x1="10.9109" y1="9.9218" x2="28.5012" y2="24.9128" gradientUnits="userSpaceOnUse">
<stop stop-color="#2EBE79"/>
<stop offset="1" stop-color="#3BC583"/>
</linearGradient>
<linearGradient id="paint2_linear_84_2680" x1="8.50837" y1="5.5233" x2="20.8865" y2="31.7164" gradientUnits="userSpaceOnUse">
<stop stop-color="#34C47F"/>
<stop offset="1" stop-color="#3FCC88"/>
</linearGradient>
</defs>
</svg>
