<svg width="42" height="23" viewBox="0 0 42 23" fill="none" xmlns="http://www.w3.org/2000/svg">
<path fill-rule="evenodd" clip-rule="evenodd" d="M41.0375 1.66672C41.328 0.779471 41.0375 0.126221 39.6463 0.126221H35.0525C33.8835 0.126221 33.3445 0.690096 33.0522 1.31247C33.0522 1.31247 30.716 6.50597 27.4068 9.87947C26.3358 10.8577 25.8493 11.1681 25.2648 11.1681C24.9725 11.1681 24.5333 10.8577 24.5333 9.96885V1.66672C24.5333 0.600721 24.2113 0.126221 23.2383 0.126221H16.0143C15.2845 0.126221 14.8452 0.620221 14.8452 1.08985C14.8452 2.09897 16.5008 2.33297 16.6705 5.17347V11.3452C16.6705 12.6988 16.4027 12.9442 15.8182 12.9442C14.2607 12.9442 10.472 7.72635 8.22325 1.7561C7.7875 0.59422 7.3465 0.126221 6.17225 0.126221H1.575C0.2625 0.126221 0 0.690096 0 1.31247C0 2.42072 1.5575 7.92622 7.25375 15.2078C11.0513 20.1803 16.3975 22.8762 21.2677 22.8762C24.1885 22.8762 24.549 22.2782 24.549 21.2463V17.4877C24.549 16.2901 24.8255 16.0512 25.7513 16.0512C26.4338 16.0512 27.601 16.3632 30.3275 18.7601C33.4425 21.6022 33.9553 22.8762 35.7088 22.8762H40.3025C41.615 22.8762 42.273 22.2782 41.895 21.0952C41.4785 19.9187 39.991 18.2108 38.0188 16.1845C36.9478 15.0307 35.3413 13.7876 34.853 13.1652C34.1723 12.3673 34.3665 12.0115 34.853 11.3013C34.853 11.3013 40.453 4.1091 41.0357 1.66672H41.0375Z" fill="url(#paint0_linear_84_2685)"/>
<path fill-rule="evenodd" clip-rule="evenodd" d="M41.0375 1.66672C41.328 0.779471 41.0375 0.126221 39.6463 0.126221H35.0525C33.8835 0.126221 33.3445 0.690096 33.0522 1.31247C33.0522 1.31247 30.716 6.50597 27.4068 9.87947C26.3358 10.8577 25.8493 11.1681 25.2648 11.1681C24.9725 11.1681 24.5333 10.8577 24.5333 9.96885V1.66672C24.5333 0.600721 24.2113 0.126221 23.2383 0.126221H16.0143C15.2845 0.126221 14.8452 0.620221 14.8452 1.08985C14.8452 2.09897 16.5008 2.33297 16.6705 5.17347V11.3452C16.6705 12.6988 16.4027 12.9442 15.8182 12.9442C14.2607 12.9442 10.472 7.72635 8.22325 1.7561C7.7875 0.59422 7.3465 0.126221 6.17225 0.126221H1.575C0.2625 0.126221 0 0.690096 0 1.31247C0 2.42072 1.5575 7.92622 7.25375 15.2078C11.0513 20.1803 16.3975 22.8762 21.2677 22.8762C24.1885 22.8762 24.549 22.2782 24.549 21.2463V17.4877C24.549 16.2901 24.8255 16.0512 25.7513 16.0512C26.4338 16.0512 27.601 16.3632 30.3275 18.7601C33.4425 21.6022 33.9553 22.8762 35.7088 22.8762H40.3025C41.615 22.8762 42.273 22.2782 41.895 21.0952C41.4785 19.9187 39.991 18.2108 38.0188 16.1845C36.9478 15.0307 35.3413 13.7876 34.853 13.1652C34.1723 12.3673 34.3665 12.0115 34.853 11.3013C34.853 11.3013 40.453 4.1091 41.0357 1.66672H41.0375Z" fill="url(#paint1_linear_84_2685)"/>
<path fill-rule="evenodd" clip-rule="evenodd" d="M41.0375 1.66672C41.328 0.779471 41.0375 0.126221 39.6463 0.126221H35.0525C33.8835 0.126221 33.3445 0.690096 33.0522 1.31247C33.0522 1.31247 30.716 6.50597 27.4068 9.87947C26.3358 10.8577 25.8493 11.1681 25.2648 11.1681C24.9725 11.1681 24.5333 10.8577 24.5333 9.96885V1.66672C24.5333 0.600721 24.2113 0.126221 23.2383 0.126221H16.0143C15.2845 0.126221 14.8452 0.620221 14.8452 1.08985C14.8452 2.09897 16.5008 2.33297 16.6705 5.17347V11.3452C16.6705 12.6988 16.4027 12.9442 15.8182 12.9442C14.2607 12.9442 10.472 7.72635 8.22325 1.7561C7.7875 0.59422 7.3465 0.126221 6.17225 0.126221H1.575C0.2625 0.126221 0 0.690096 0 1.31247C0 2.42072 1.5575 7.92622 7.25375 15.2078C11.0513 20.1803 16.3975 22.8762 21.2677 22.8762C24.1885 22.8762 24.549 22.2782 24.549 21.2463V17.4877C24.549 16.2901 24.8255 16.0512 25.7513 16.0512C26.4338 16.0512 27.601 16.3632 30.3275 18.7601C33.4425 21.6022 33.9553 22.8762 35.7088 22.8762H40.3025C41.615 22.8762 42.273 22.2782 41.895 21.0952C41.4785 19.9187 39.991 18.2108 38.0188 16.1845C36.9478 15.0307 35.3413 13.7876 34.853 13.1652C34.1723 12.3673 34.3665 12.0115 34.853 11.3013C34.853 11.3013 40.453 4.1091 41.0357 1.66672H41.0375Z" fill="url(#paint2_linear_84_2685)"/>
<defs>
<linearGradient id="paint0_linear_84_2685" x1="19.135" y1="2.2761" x2="17.4644" y2="19.4111" gradientUnits="userSpaceOnUse">
<stop stop-color="#5BCE97"/>
<stop offset="0.515837" stop-color="#BBED82"/>
<stop offset="1" stop-color="#FFDE69"/>
</linearGradient>
<linearGradient id="paint1_linear_84_2685" x1="11.3715" y1="6.74647" x2="23.7691" y2="23.1056" gradientUnits="userSpaceOnUse">
<stop stop-color="#2EBE79"/>
<stop offset="1" stop-color="#3BC583"/>
</linearGradient>
<linearGradient id="paint2_linear_84_2685" x1="8.68277" y1="3.56721" x2="15.1493" y2="24.7541" gradientUnits="userSpaceOnUse">
<stop stop-color="#34C47F"/>
<stop offset="1" stop-color="#3FCC88"/>
</linearGradient>
</defs>
</svg>
