<svg width="275" height="87" viewBox="0 0 275 87" fill="none" xmlns="http://www.w3.org/2000/svg">
<path d="M91.3576 0.585419C90.3745 0.228703 89.3434 0.062236 87.4011 0.014674C85.9385 -0.0328881 84.3319 0.038455 83.8044 0.181141C83.2769 0.300046 82.1978 0.728105 81.4066 1.1086C80.6153 1.46532 79.4403 2.25009 78.7929 2.82084C77.7139 3.77208 77.594 3.81964 77.1144 3.51049C76.8507 3.32024 76.0594 2.8684 75.412 2.51168C74.7406 2.13119 73.5656 1.67935 72.7743 1.4891C71.9831 1.27507 70.6403 1.1086 69.777 1.1086C68.9138 1.1086 67.7389 1.22751 67.1394 1.34641C66.54 1.4891 65.5089 1.82203 64.8615 2.1074C64.1901 2.369 63.3269 2.82084 62.9432 3.10621C62.5596 3.3678 61.8162 3.96232 61.2887 4.43795C60.7852 4.88978 59.9459 5.88859 59.4424 6.64958L58.5072 8.0051C57.8598 6.83983 57.1644 5.91237 56.565 5.17516C55.9655 4.43795 54.9584 3.51049 54.287 3.08243C53.6396 2.67815 52.5126 2.08362 51.7933 1.79825C50.6423 1.32263 50.0668 1.25129 47.2374 1.22751H44.0003C40.7153 2.79705 39.7561 3.46292 38.7011 4.50929C37.67 5.57943 36.9027 6.67336 36.0155 8.43316C35.3201 9.7649 34.6967 10.8588 34.5768 10.8588C34.4809 10.8588 34.313 10.5259 34.2171 10.0978C34.1212 9.66977 33.6417 8.5045 33.1621 7.52948C32.5866 6.31665 31.8193 5.27028 30.8362 4.29526C30.0209 3.4867 28.798 2.55924 28.1026 2.20253C27.4313 1.86959 26.2323 1.41775 25.465 1.22751C24.7217 1.03726 23.4269 0.870791 22.5876 0.870791C21.7724 0.870791 19.6143 1.03726 17.7919 1.22751C15.9936 1.41775 13.6916 1.70313 12.7085 1.84581C11.7254 1.96472 10.2627 2.20253 9.47146 2.34521C8.68017 2.46412 7.38534 2.89218 6.59405 3.27267C5.80276 3.62939 4.72374 4.29526 4.22019 4.72332C3.69267 5.15138 2.8774 6.05506 2.39784 6.69714C1.89429 7.36301 1.31881 8.31425 1.07903 8.83744C0.863221 9.36062 0.527524 10.3356 0.335697 10.9777C0.14387 11.6436 0 13.0229 0 14.0693C0 15.1156 0.167849 17.3035 0.359676 18.9444C0.551502 20.5853 1.00709 24.2713 1.34279 27.1488C1.67849 30.0263 2.15805 34.2118 2.39784 36.4234C2.68558 38.8491 3.06923 41.0845 3.40493 42.012C3.69267 42.8681 4.31611 44.1047 4.7717 44.7944C5.25126 45.484 6.16244 46.5066 6.83383 47.0536C7.48125 47.6243 8.68017 48.3853 9.47146 48.7658C10.2627 49.1463 11.8213 49.6219 12.9483 49.8121C14.8186 50.1451 15.1543 50.1451 17.0246 49.7646C18.1516 49.5506 19.7582 49.0274 20.5974 48.5993C21.4367 48.1713 22.6835 47.3151 23.3549 46.6493C24.0263 46.0072 24.8176 45.1511 25.0814 44.7468L25.5849 44.0334C27.7669 45.9834 29.1577 46.9346 30.0929 47.3627C31.028 47.8145 32.5147 48.2902 33.4498 48.4328C34.6248 48.5993 35.6798 48.6231 36.9267 48.4566C37.9338 48.3139 39.4444 47.8859 40.3316 47.4816C41.3867 47.0298 42.4897 46.2688 43.4488 45.3413C44.5278 44.3425 45.1513 43.9382 45.6069 43.9145C46.1104 43.9145 46.4701 44.1523 47.0456 44.9133C47.4772 45.4602 48.2205 46.2688 48.6761 46.6968C49.1317 47.1249 50.2107 47.8383 51.0739 48.2902C51.9371 48.7182 53.208 49.2176 53.8794 49.3603C54.5748 49.503 55.8216 49.6219 56.6369 49.6219C57.4761 49.6219 58.8429 49.4554 59.7061 49.2414C60.5694 49.0512 61.9601 48.5042 62.8233 48.0286L64.3819 47.1962C67.1634 48.5042 68.674 49.0036 69.5373 49.1463C70.4724 49.3127 71.8152 49.3603 72.8942 49.2652C73.8773 49.1701 75.388 48.8371 76.2512 48.5042C77.1144 48.195 78.1455 47.6956 78.5292 47.434C78.9128 47.1487 79.6801 46.5066 80.2076 46.0072L81.1668 45.0797C83.3968 46.4115 84.5717 46.9584 85.2431 47.1725C85.8905 47.3627 87.4251 47.6005 88.6001 47.6719C90.2306 47.767 91.1658 47.6719 92.4366 47.3627C93.3718 47.1249 94.5467 46.7206 95.0742 46.459C95.6018 46.1974 96.441 45.6742 96.9206 45.3175L97.8317 44.6279C99.6061 46.2212 100.781 47.0298 101.596 47.434C102.508 47.8859 103.898 48.3377 105.073 48.528C106.368 48.742 107.567 48.7896 108.502 48.6707C109.293 48.5755 110.54 48.3377 111.26 48.1237C111.979 47.9097 113.25 47.3151 114.065 46.792L115.576 45.8169C117.902 47.4103 119.268 48.0999 120.132 48.4091C120.995 48.6944 122.434 49.0036 123.369 49.0749C124.52 49.1701 125.527 49.0749 126.606 48.8133C127.469 48.5993 128.86 48.0761 129.699 47.6481C130.538 47.2438 131.809 46.3163 132.504 45.6505C133.296 44.8657 134.015 44.3901 134.327 44.3901C134.694 44.4059 135.406 44.9846 136.461 46.1261C137.468 47.22 138.547 48.0999 139.458 48.5993C140.225 49.0036 141.472 49.503 142.192 49.717C142.911 49.9311 144.35 50.0975 145.357 50.0975C146.388 50.0975 147.851 49.9311 148.594 49.717C149.361 49.503 150.584 49.0274 151.303 48.6469L152.622 47.981C155.596 49.4554 157.154 49.9786 158.017 50.1213C159.168 50.3353 160.463 50.3353 163.053 50.1213C164.971 49.9786 169.167 49.6219 172.404 49.3841C175.642 49.1225 178.927 48.7182 179.718 48.5042C180.509 48.2902 181.684 47.8621 182.355 47.5529L183.554 46.9822C184.849 47.8621 185.617 48.3615 186.072 48.6231C186.528 48.9085 187.823 49.3603 188.95 49.6457C190.508 50.0262 191.371 50.1213 192.666 50.0024C193.601 49.9311 197.75 49.5981 201.898 49.2652C206.046 48.9322 209.979 48.5518 210.65 48.4091C211.297 48.2664 212.376 47.9097 213.048 47.6481C213.695 47.3627 214.774 46.792 215.446 46.3639C216.093 45.9358 216.693 45.5791 216.764 45.5791C216.836 45.5791 217.436 46.0785 218.107 46.6968C218.779 47.3389 219.858 48.1237 220.505 48.4804C221.152 48.8371 222.543 49.3365 223.598 49.6219C224.653 49.8835 225.996 50.0975 226.596 50.0975C227.195 50.0975 228.538 49.8835 229.593 49.6219C230.648 49.3603 232.087 48.8133 232.758 48.4328L234.029 47.7194C235.611 48.6944 236.834 49.2414 237.746 49.5506C238.992 49.9548 239.952 50.0975 241.462 50.0975C242.973 50.0975 243.932 49.9548 245.179 49.5506C246.09 49.2414 247.169 48.7896 247.577 48.5518C247.984 48.3139 248.895 47.6005 249.615 46.9822C250.742 46.031 251.03 45.8883 251.629 46.031C252.085 46.1261 252.564 46.5066 252.972 47.1249C253.331 47.6481 254.147 48.5518 254.794 49.1225C255.442 49.6695 256.449 50.3829 257.048 50.692C257.648 50.9774 258.727 51.4055 259.446 51.6195C260.189 51.8335 261.604 52 262.683 52C263.738 52 265.249 51.8335 266.04 51.6195C266.831 51.4055 267.91 51.025 268.438 50.7634C268.965 50.478 269.829 49.9311 270.356 49.5268C270.908 49.1225 271.723 48.3615 272.202 47.8383C272.658 47.3151 273.329 46.3639 273.665 45.698C274.025 45.0559 274.48 43.8193 274.696 42.9632C274.984 41.8455 275.056 40.8467 274.96 39.3961C274.84 37.5887 274.48 36.3283 271.315 27.1488C269.373 21.5127 267.311 15.4723 266.735 13.7125C266.136 11.9528 265.297 9.86002 264.889 9.09903C264.457 8.33803 263.642 7.24411 263.043 6.67336C262.443 6.10262 261.7 5.43675 261.364 5.19894C261.029 4.93735 260.165 4.46173 259.446 4.12879C258.727 3.81964 257.264 3.41536 256.209 3.24889C255.106 3.08243 253.691 3.03486 252.852 3.12999C252.061 3.22511 250.718 3.55805 249.855 3.89098C248.991 4.2477 247.864 4.79466 247.337 5.15138C246.809 5.50809 245.874 6.36421 245.275 7.07764C244.651 7.79107 242.733 10.8826 241.007 13.9504C239.256 17.0181 237.722 19.634 237.602 19.7767C237.458 19.9194 237.386 19.8005 237.386 19.42C237.386 19.0871 237.218 17.3273 237.026 15.4961C236.858 13.665 236.571 11.6436 236.427 10.9777C236.283 10.3356 235.779 9.09903 235.348 8.24291C234.892 7.38679 233.957 6.10262 233.238 5.38919C232.542 4.67576 231.319 3.7483 230.552 3.32024C229.761 2.91596 228.562 2.44034 227.914 2.29765C227.243 2.15497 225.804 2.03606 224.677 2.03606C223.478 2.03606 222.112 2.20253 221.32 2.44034C220.601 2.65437 219.522 3.05865 218.923 3.3678C218.323 3.65317 217.484 4.17635 217.052 4.53307L216.285 5.15138C214.319 3.39158 213.168 2.55924 212.448 2.15497C211.729 1.72691 210.434 1.20373 209.571 0.989696C208.348 0.656762 207.437 0.6092 205.375 0.704324C203.936 0.775667 200.411 1.01348 197.582 1.22751C194.752 1.44154 191.132 1.75069 189.549 1.91716C187.295 2.17875 186.264 2.41656 184.801 3.03486C183.243 3.70073 182.835 3.79586 182.523 3.55805C182.284 3.39158 181.564 2.93974 180.917 2.53546C180.245 2.13119 179.118 1.63178 178.399 1.39397C177.44 1.1086 176.361 0.989696 174.323 1.03726C172.812 1.03726 169.527 1.22751 167.009 1.44154C164.492 1.65556 160.991 1.94094 159.216 2.08362C157.442 2.20253 155.428 2.4879 154.78 2.70193C154.109 2.91596 153.102 3.32024 152.502 3.60561C151.903 3.91476 150.848 4.62819 150.129 5.17516C149.409 5.7459 148.522 6.67336 148.138 7.24411C147.779 7.79107 147.347 8.24291 147.227 8.24291C147.107 8.24291 146.724 7.76729 146.388 7.17276C146.052 6.57824 145.285 5.60322 144.638 4.98491C144.014 4.34282 142.911 3.51049 142.192 3.10621C141.472 2.67815 140.273 2.17875 139.554 1.9885C138.835 1.77447 137.636 1.53666 136.916 1.46532C136.077 1.37019 134.95 1.44154 133.799 1.67935C132.816 1.89338 131.306 2.39278 130.442 2.82084C129.531 3.27268 128.308 4.15257 127.493 4.96113L126.126 6.34043C123.776 4.03367 122.505 3.08243 121.786 2.72571C121.067 2.369 119.796 1.91716 118.933 1.72691C118.069 1.53666 114.305 1.08482 110.54 0.728105C106.368 0.347608 103.011 0.15736 101.908 0.228703C100.925 0.300046 99.5102 0.585419 98.7909 0.870791C98.0715 1.15616 96.9685 1.70313 96.3451 2.08362L95.1941 2.77327C93.2519 1.46532 92.0769 0.870791 91.3576 0.585419Z" fill="#D7D7DE"/>
<path d="M89.9676 1.49831C88.913 1.14237 87.8824 1 86.3964 1H86.3725C84.8865 1.02373 83.8798 1.1661 82.8492 1.52203C82.0583 1.78305 80.9798 2.30508 80.4525 2.68475C79.9252 3.04068 79.2301 3.58644 78.8946 3.89492C78.559 4.20339 78.1037 4.72542 77.864 5.0339C77.5524 5.46102 77.3607 5.55593 77.121 5.38983C76.9532 5.27119 76.2821 4.74915 75.635 4.27458C74.9879 3.77627 73.8614 3.13559 73.1424 2.85085C72.0638 2.42373 71.3688 2.32881 69.3076 2.32881C67.2943 2.32881 66.5273 2.42373 65.4727 2.82712C64.7537 3.11186 63.5074 3.82373 62.7165 4.39322C61.9256 4.96271 60.871 6.03051 60.3677 6.71864C59.8883 7.43051 59.2172 8.75932 58.8817 9.66102C58.5701 10.5627 58.1866 11.3458 58.0428 11.3932C57.923 11.4169 57.6354 10.9424 57.4196 10.3254C57.2039 9.68475 56.7246 8.54576 56.3411 7.76271C55.9816 6.97966 55.1667 5.81695 54.5196 5.2C53.8725 4.55932 52.6261 3.68136 51.6914 3.23051C50.7087 2.77966 49.3665 2.32881 48.4558 2.21017C47.569 2.09153 46.2747 2.0678 45.4598 2.18644C44.6689 2.28136 43.3747 2.61356 42.5837 2.92203C41.4573 3.32542 40.7622 3.82373 39.4679 5.12881C38.0299 6.57627 37.5266 7.33559 35.8249 10.6102C34.1232 13.9322 33.7876 14.4068 33.2603 14.478C32.6372 14.5254 32.6372 14.5017 32.6372 12.9356C32.6372 11.9627 32.4454 10.6576 32.1339 9.66102C31.8463 8.75932 31.3909 7.62034 31.1033 7.14576C30.8396 6.67119 30.3363 5.98305 30.0008 5.60339C29.6652 5.22373 28.9222 4.53559 28.323 4.06102C27.7238 3.58644 26.6932 2.94576 26.0461 2.66102C25.1833 2.25763 24.2485 2.09153 22.6906 2.02034C21.1807 1.94915 18.8319 2.11525 14.7814 2.63729C11.6176 3.01695 8.59772 3.49153 8.07043 3.68136C7.54315 3.87119 6.72825 4.20339 6.27286 4.44068C5.81748 4.67797 4.90671 5.3661 4.25959 5.95932C3.63643 6.55254 2.8455 7.47797 2.53392 8C2.22235 8.52203 1.76696 9.58983 1.47935 10.3729C1.11984 11.4169 1 12.3898 1 13.9322C1 15.1186 1.11984 16.8271 1.26364 17.7288C1.38348 18.6305 1.69506 21.2169 1.9587 23.4237C2.19838 25.6305 2.7017 29.9017 3.03724 32.9153C3.37279 35.9288 3.80421 39.061 3.99595 39.9153C4.16372 40.7695 4.57117 41.9322 4.90671 42.5254C5.24226 43.1186 6.03319 44.1627 6.68031 44.8746C7.47124 45.7525 8.38201 46.3932 9.60436 47.0102C11.378 47.8644 11.4259 47.8644 14.3979 47.8644C17.274 47.8644 17.4897 47.8407 18.9757 47.1288C19.8385 46.7254 21.1567 45.8237 21.9477 45.1119C22.9303 44.2102 23.5535 43.3559 24.1047 42.2169C24.5122 41.339 24.8957 40.6271 24.9676 40.6271C25.0395 40.6271 25.2312 40.8881 25.375 41.2203C25.5428 41.5525 26.1899 42.3593 26.8131 43.0237C27.4602 43.6881 28.3949 44.5424 28.9222 44.8746C29.4495 45.2305 30.4801 45.7525 31.1991 46.0373C31.9182 46.2983 33.1165 46.6068 33.8356 46.678C34.5546 46.7729 35.8488 46.7017 36.7117 46.5593C37.5745 46.417 38.9167 45.9424 39.7076 45.539C40.4985 45.1356 41.7688 44.1627 42.5358 43.4271C43.8061 42.1932 44.0457 42.0508 44.9325 42.0508C45.4838 42.0508 46.1789 42.1458 46.4904 42.2407C46.802 42.3356 47.0896 42.5966 47.1376 42.8339C47.2095 43.0475 47.8806 43.8542 48.6236 44.6136C49.5104 45.5153 50.6129 46.2983 51.6914 46.8203C53.2972 47.5797 53.465 47.6034 56.1254 47.6034C58.5701 47.6034 59.0494 47.5322 60.4396 46.939C61.3024 46.583 62.4049 45.9898 62.8843 45.5864C63.3876 45.2068 63.843 44.8983 63.9149 44.8983C63.9868 44.8983 64.6099 45.2542 65.281 45.6814C65.9761 46.1322 67.0786 46.678 67.7497 46.8915C68.3968 47.1051 69.5952 47.3661 70.3861 47.4373C71.3448 47.5322 72.4473 47.4373 73.6217 47.1763C74.6044 46.9627 75.9466 46.4881 76.6177 46.1085C77.2648 45.7525 78.1995 45.0881 78.6549 44.6373C79.1343 44.1864 79.7335 43.522 80.0211 43.1186L80.5244 42.4068C81.9624 43.6644 83.1848 44.4 84.1674 44.8746C85.7014 45.5627 86.3006 45.7051 88.1221 45.8C89.9676 45.8949 90.5668 45.8237 92.3644 45.3017C94.2099 44.7322 94.6653 44.4949 95.8397 43.3559C96.6066 42.6441 97.3256 42.0746 97.4695 42.0508C97.6133 42.0508 97.8769 42.3119 98.0686 42.6678C98.2604 43.0237 98.9075 43.7356 99.5067 44.2576C100.106 44.7797 101.28 45.5153 102.143 45.9186C103.629 46.6068 103.869 46.6542 106.697 46.678C109.549 46.678 109.765 46.6542 111.251 45.9661C112.114 45.5627 113.336 44.7559 113.959 44.1864L115.11 43.1186C116.859 44.8271 118.01 45.6576 118.801 46.061C119.592 46.4407 120.982 46.8915 121.916 47.0576C123.211 47.2712 123.978 47.2712 125.272 47.0339C126.207 46.8915 127.549 46.4644 128.268 46.1322C128.987 45.7763 130.281 44.8271 131.144 43.9966C132.702 42.5017 132.702 42.5017 134.068 42.5254C135.386 42.5254 135.482 42.5729 135.889 43.2847C136.129 43.7119 136.704 44.4712 137.16 44.9932C137.615 45.4915 138.574 46.2508 139.293 46.7017C140.012 47.1288 141.306 47.6508 142.169 47.8881C143.271 48.1729 144.254 48.2441 145.524 48.1492C146.507 48.078 147.849 47.8644 148.52 47.6508C149.167 47.461 150.246 46.939 150.917 46.4881L152.115 45.6814C154.344 47.1051 155.591 47.6983 156.31 47.9119C157.173 48.1729 158.419 48.3153 159.905 48.3153C161.151 48.3153 165.082 48.078 168.653 47.7695C172.224 47.4847 175.939 47.1525 176.922 47.0102C177.905 46.8915 179.055 46.678 179.439 46.5593C179.822 46.4407 180.541 46.1322 180.996 45.8949C181.452 45.6576 182.123 45.3017 182.482 45.0644C183.154 44.661 183.154 44.661 184.112 45.4915C184.639 45.9424 185.598 46.583 186.269 46.9153C186.916 47.2475 188.187 47.6746 189.073 47.8644C190.536 48.1729 191.302 48.1492 196.575 47.7458C199.811 47.4847 204.173 47.1288 206.282 46.939C209.638 46.6542 210.357 46.5119 212.034 45.8237C213.329 45.278 214.359 44.6373 215.246 43.8305L216.54 42.6441C217.14 43.5695 217.787 44.3525 218.386 44.9695C219.057 45.6814 220.111 46.4407 221.142 46.939C222.245 47.4847 223.395 47.8169 224.498 47.9593C225.48 48.078 226.87 48.0542 227.853 47.9356C228.836 47.7932 230.082 47.4136 230.849 47.0339C231.568 46.6542 232.479 46.1322 232.886 45.8712L233.605 45.4203C234.899 46.4644 235.93 47.0576 236.721 47.4136C237.752 47.8881 238.686 48.078 240.076 48.1729C241.227 48.2441 242.521 48.1729 243.312 47.9831C244.031 47.8169 245.158 47.4136 245.829 47.0814C246.476 46.7491 247.626 45.9186 248.345 45.2068L249.663 43.9492C252.516 44.2339 252.54 44.2576 253.283 45.4678C253.69 46.1322 254.505 47.0814 255.08 47.5559C255.655 48.0305 256.902 48.7661 257.812 49.2169C259.418 49.9525 259.61 50 262.246 50C264.931 50 265.051 49.9763 266.8 49.1458C267.783 48.6712 269.125 47.8169 269.772 47.2475C270.395 46.678 271.234 45.6576 271.618 45.0169C271.977 44.3525 272.457 43.1424 272.696 42.2881C272.984 41.1966 273.056 40.2237 272.96 38.9661C272.84 37.4949 272.169 35.2881 268.957 25.9153C266.824 19.722 264.763 13.6712 264.356 12.5085C263.948 11.322 263.445 9.99322 263.205 9.54237C262.965 9.09153 262.294 8.1661 261.719 7.52542C261.12 6.86102 260.017 6.00678 259.227 5.57966C258.46 5.17627 257.165 4.65424 256.374 4.46441C255.583 4.25085 254.385 4.08475 253.738 4.08475C253.067 4.08475 251.892 4.25085 251.102 4.46441C250.311 4.65424 249.184 5.08136 248.585 5.41356C247.986 5.72203 247.027 6.4339 246.428 7.00339C245.781 7.62034 244.582 9.30508 243.408 11.322C242.329 13.1492 240.364 16.6136 238.998 19.0339C237.632 21.4542 236.385 23.5898 236.218 23.7797C235.954 24.0881 235.882 24.0644 235.786 23.5424C235.738 23.2102 235.499 20.7661 235.283 18.0847C235.067 15.4034 234.78 12.5797 234.66 11.7966C234.516 11.0136 234.061 9.68475 233.677 8.83051C233.222 7.85763 232.455 6.78983 231.616 5.93559C230.753 5.10508 229.699 4.36949 228.812 3.9661C228.021 3.6339 226.631 3.25424 225.696 3.13559C224.761 3.01695 223.419 3.01695 222.7 3.13559C221.981 3.25424 220.95 3.49153 220.423 3.68136C219.896 3.84746 218.985 4.29831 218.386 4.63051C217.787 4.96271 216.924 5.62712 216.468 6.1017C216.013 6.55254 215.486 6.9322 215.318 6.9322C215.174 6.9322 214.982 6.74237 214.911 6.50508C214.863 6.29153 214.191 5.50847 213.425 4.77288C212.61 3.98983 211.387 3.11186 210.477 2.68475C209.374 2.16271 208.415 1.90169 207.217 1.80678C206.282 1.73559 203.358 1.83051 200.746 2.04407C198.109 2.2339 193.963 2.5661 191.47 2.77966C188.163 3.04068 186.653 3.25424 185.718 3.6339C185.047 3.89492 183.968 4.41695 183.369 4.74915L182.267 5.38983C180.637 3.98983 179.582 3.32542 178.887 2.99322C178.216 2.68475 177.066 2.30508 176.371 2.16271C175.58 1.99661 174.19 1.94915 172.608 2.04407C171.218 2.13898 169.132 2.30508 167.934 2.42373C166.736 2.5661 163.5 2.82712 160.744 3.01695C157.053 3.27797 155.327 3.49153 154.273 3.84746C153.482 4.1322 152.355 4.65424 151.756 5.0339C151.157 5.38983 150.174 6.22034 149.575 6.86102C148.976 7.47797 148.257 8.42712 147.993 8.94915C147.705 9.47119 147.37 10.3492 147.226 10.8949C147.082 11.4644 146.891 11.9153 146.771 11.9153C146.675 11.939 146.339 11.2508 146.028 10.4441C145.716 9.61356 145.165 8.40339 144.781 7.76271C144.422 7.09831 143.583 6.07797 142.912 5.43729C142.241 4.82034 140.971 3.9661 140.06 3.53898C138.526 2.80339 138.334 2.77966 135.578 2.77966C132.774 2.77966 132.654 2.80339 130.904 3.6339C129.898 4.1322 128.651 4.96271 128.076 5.5322C127.501 6.1017 126.71 7.07458 126.326 7.69153L125.631 8.83051C124.217 6.71864 123.283 5.65085 122.683 5.08136C122.06 4.53559 121.125 3.87119 120.598 3.61017C120.071 3.34915 118.968 2.96949 118.129 2.77966C117.315 2.58983 114.151 2.21017 111.131 1.92542C108.111 1.64068 104.636 1.35593 103.461 1.28475C101.664 1.18983 100.993 1.26102 99.5067 1.71186C98.4042 2.02034 97.1339 2.63729 96.1992 3.27797C94.9049 4.20339 94.6652 4.27458 94.2338 4.01356C93.9702 3.87119 93.7545 3.65763 93.7545 3.53898C93.7545 3.44407 93.2512 3.06441 92.604 2.68475C91.9809 2.30508 90.8065 1.75932 89.9676 1.49831Z" fill="white"/>
<path d="M89.2574 6.21588C88.7539 6.09764 87.8669 5.97939 87.2675 6.00304C86.6681 6.00304 85.757 6.16859 85.2296 6.35778C84.7021 6.54697 83.9109 7.04359 83.4794 7.46927C83.0478 7.89495 82.5204 8.65172 82.3286 9.17199C82.1128 9.69226 81.945 10.5909 81.921 11.1821C81.897 11.7734 81.9689 13.618 82.0888 15.3207C82.3046 18.0876 82.2806 18.3714 81.945 18.1586C81.7292 18.0167 80.003 16.0065 78.1089 13.6653C76.2149 11.324 74.2729 9.10104 73.7934 8.69901C73.3139 8.29698 72.5227 7.84765 72.0192 7.70576C71.4918 7.54022 70.6526 7.39833 70.1252 7.39833C69.5977 7.39833 68.7346 7.51657 68.2071 7.68211C67.6317 7.82401 66.8166 8.36793 66.1453 9.0301C65.3541 9.83416 64.9705 10.4254 64.7547 11.3004C64.5149 12.27 64.5389 13.3578 64.8266 17.0944C65.0424 19.6248 65.474 25.1586 65.8096 29.3918C66.1213 33.6249 66.5289 37.5506 66.6967 38.1418C66.8645 38.7094 67.344 39.6317 67.7516 40.152C68.1592 40.6723 68.9743 41.3344 69.5498 41.6182C70.317 42.0202 71.0362 42.1621 72.235 42.1621C73.3379 42.1621 74.129 42.0202 74.7284 41.7128C75.2319 41.4763 75.9991 40.8851 76.4067 40.4121C76.8382 39.9391 77.3657 38.9932 77.5575 38.331C77.8932 37.2668 77.8932 36.581 77.6774 33.7668C77.5335 31.9458 77.5095 30.3614 77.6054 30.2668C77.7013 30.1485 78.972 31.4729 80.4345 33.1992C81.897 34.9256 83.6712 37.0303 84.4144 37.8817C85.2775 38.8986 86.1646 39.6317 86.9318 40.0101C87.5792 40.3175 88.6341 40.625 89.3054 40.6959C89.9527 40.7432 90.9597 40.6723 91.5111 40.5304C92.0865 40.3885 92.9736 39.8918 93.525 39.3952C94.2443 38.7331 94.6039 38.1418 94.8676 37.1959C95.1314 36.2499 95.2033 35.4222 95.0834 34.2398C94.9875 33.3411 94.6998 29.983 94.4601 26.7904C94.1963 23.5978 93.9326 20.5707 93.8607 20.0505C93.7887 19.5302 93.573 17.0707 93.3812 14.6112C93.1174 11.395 92.8777 9.85781 92.566 9.17199C92.3263 8.65172 91.6789 7.82401 91.1515 7.35103C90.6 6.8544 89.7369 6.35778 89.2574 6.21588Z" fill="#1E57AC"/>
<path d="M106.088 6.45237C104.913 6.33413 103.667 6.23953 103.331 6.23953C102.995 6.23953 102.468 6.33413 102.132 6.42872C101.796 6.52332 101.101 6.83075 100.574 7.09089C100.046 7.35103 99.327 7.98955 98.9674 8.48617C98.6318 9.00645 98.2002 9.88146 98.0564 10.4727C97.8885 11.0875 97.8406 11.9862 97.9365 12.6011C98.0324 13.1923 98.3201 14.0673 98.5598 14.5639C98.7996 15.0369 99.3031 15.7227 99.6867 16.0538C100.046 16.3849 100.67 16.8106 101.053 17.0234C101.437 17.2126 102.204 17.4491 102.732 17.5437L103.691 17.7092C103.571 19.6957 103.331 22.4626 103.067 25.135C102.827 27.8073 102.492 31.5911 102.324 33.5303C102.06 36.8648 102.06 37.1486 102.492 38.2601C102.756 38.9222 103.283 39.75 103.691 40.1283C104.074 40.5067 104.745 40.956 105.129 41.1689C105.513 41.3581 106.448 41.5709 107.167 41.6419C108.03 41.7128 108.917 41.6182 109.756 41.3581C110.715 41.0743 111.219 40.7196 111.962 39.8682C112.465 39.2297 113.017 38.3074 113.137 37.7871C113.281 37.2668 113.616 34.5472 113.88 31.7566C114.144 28.9661 114.527 25.0877 114.719 23.1248C114.911 21.1856 115.079 19.3883 115.079 19.1755C115.079 18.8207 115.319 18.7498 116.565 18.7498C117.836 18.7498 118.267 18.6315 119.394 17.993C120.425 17.3781 120.833 16.9288 121.36 15.9119C121.912 14.8477 122.056 14.3038 122.032 13.0268C122.032 11.9153 121.888 11.1348 121.576 10.5436C121.312 10.047 120.809 9.36118 120.425 9.0301C120.066 8.67536 119.394 8.22604 118.963 8.0132C118.459 7.77671 116.469 7.46927 113.233 7.16184C110.476 6.9017 107.263 6.59427 106.088 6.45237Z" fill="#1E57AC"/>
<path d="M208.654 7.04359C208.007 6.8544 207.168 6.71251 206.784 6.73616C206.401 6.73616 204.339 6.9017 202.229 7.06724C200.119 7.23278 196.355 7.54022 193.838 7.75306C191.32 7.9659 188.899 8.24968 188.443 8.39158C187.988 8.53347 187.124 9.0301 186.549 9.50307C185.95 9.97605 185.278 10.7801 185.039 11.3004C184.823 11.8207 184.607 12.7903 184.607 13.4288C184.607 14.091 184.751 15.0369 184.919 15.5572C185.087 16.0775 185.686 16.9525 186.285 17.5673C186.981 18.2295 187.772 18.7498 188.443 18.9626C189.234 19.1991 190.385 19.2464 192.831 19.1282C194.964 19.0336 196.115 19.0809 196.115 19.2228C196.115 19.3646 195.827 19.9559 195.468 20.5944C195.108 21.2093 193.214 24.4255 191.248 27.7363C189.258 31.0472 187.412 34.3107 187.1 34.9492C186.741 35.6587 186.525 36.581 186.525 37.2668C186.525 37.929 186.741 38.8749 187.077 39.6317C187.412 40.3412 188.036 41.1925 188.587 41.6182C189.186 42.1148 190.001 42.4932 190.841 42.6824C191.896 42.8953 193.19 42.8716 197.434 42.5405C200.335 42.3277 204.387 41.9966 206.425 41.8074C208.462 41.6182 210.524 41.3108 210.98 41.1452C211.435 40.956 212.179 40.4831 212.634 40.1283C213.066 39.75 213.665 39.0168 213.929 38.4966C214.264 37.858 214.432 37.1013 214.432 36.1317C214.456 35.3513 214.288 34.3344 214.097 33.885C213.929 33.4357 213.545 32.7499 213.281 32.3952C212.994 32.0168 212.298 31.4256 211.699 31.0945C210.668 30.4796 210.476 30.456 207.743 30.5033C206.161 30.5269 204.507 30.5978 204.099 30.6688C203.571 30.7634 203.26 30.7161 203.164 30.5269C203.092 30.3614 205.13 26.6485 207.647 22.2971C210.189 17.9457 212.346 13.9964 212.466 13.547C212.562 13.0977 212.586 12.2463 212.514 11.6551C212.418 11.0639 212.107 10.1179 211.795 9.52672C211.483 8.9355 210.908 8.22604 210.5 7.94225C210.117 7.63481 209.278 7.23278 208.654 7.04359Z" fill="#1E57AC"/>
<path d="M24.5722 7.25643C23.9248 7.06724 23.1097 6.92535 22.774 6.949C22.4384 6.97265 20.9279 7.11454 19.4175 7.28008C17.907 7.46927 15.3177 7.77671 13.6634 7.98955C12.0091 8.20239 10.2829 8.58077 9.82737 8.81726C9.37184 9.0301 8.62861 9.64497 8.22103 10.1416C7.71755 10.7328 7.33394 11.5369 7.14214 12.3646C6.90239 13.4524 6.95034 14.3984 7.40587 18.395C7.71755 20.9964 8.1491 24.8275 8.38885 26.9086C8.65258 28.9897 9.06016 32.5134 9.32389 34.7127C9.58762 36.9121 9.92327 39.0641 10.0671 39.4425C10.211 39.8446 10.5946 40.5067 10.9302 40.9324C11.2419 41.3344 11.9612 41.9257 12.5366 42.1858C13.088 42.4696 14.1429 42.7534 14.8622 42.8243C15.7253 42.8953 16.6124 42.8007 17.4515 42.5405C18.3626 42.2567 18.938 41.8784 19.6093 41.1216C20.0888 40.554 20.6402 39.6081 20.808 38.9932C21.0478 38.0945 21.0238 37.2668 20.6882 34.1452C20.4484 32.0641 20.3046 30.3141 20.3765 30.2195C20.4484 30.1485 21.6712 29.9357 23.1336 29.7465C24.5961 29.5809 26.0347 29.3208 26.3703 29.2026C26.706 29.0843 27.3293 28.6823 27.7848 28.3039C28.2404 27.9255 28.8158 27.1924 29.0316 26.6721C29.2713 26.1519 29.4871 25.2532 29.4871 24.662C29.4871 24.0708 29.3672 23.2194 29.2473 22.7701C29.1035 22.3208 28.6959 21.5403 28.3363 21.0437C27.9766 20.5471 27.2574 19.9322 26.7299 19.6721C26.2025 19.4356 25.2914 19.1991 24.692 19.1755C24.0927 19.1518 22.5582 19.1991 21.2875 19.2937C19.2736 19.4356 18.938 19.4119 18.938 19.1045C18.938 18.9153 19.0099 18.7498 19.1298 18.7498C19.2257 18.7498 20.5923 18.5606 22.1746 18.3241C24.4283 17.9694 25.2674 17.7565 26.0107 17.2362C26.5381 16.9052 27.2574 16.1484 27.641 15.6045C28.0006 15.0606 28.3123 14.2328 28.3363 13.7835C28.3603 13.3342 28.3363 12.5301 28.3123 12.0099C28.2883 11.4896 28.0486 10.6382 27.8328 10.1179C27.593 9.59767 27.0416 8.81726 26.5861 8.39158C26.1306 7.94225 25.2435 7.46927 24.5722 7.25643Z" fill="#1E57AC"/>
<path d="M177.534 7.51657C177.151 7.35103 176.479 7.18549 176.096 7.13819C175.712 7.06724 174.897 7.06724 174.298 7.09089C173.698 7.13819 171.229 7.32738 168.783 7.51657C166.338 7.72941 162.838 7.98955 160.991 8.13144C159.145 8.24968 157.203 8.50982 156.676 8.69901C156.148 8.8882 155.285 9.38483 154.782 9.81051C154.278 10.2362 153.655 10.993 153.415 11.4896C153.104 12.0571 152.96 12.8612 152.96 13.8545C152.96 14.7768 153.128 15.6754 153.415 16.2666C153.655 16.7869 154.158 17.52 154.542 17.8984C154.926 18.2768 155.717 18.7971 156.316 19.0572C156.916 19.3173 157.923 19.5538 158.594 19.5538C159.241 19.5538 160.848 19.4592 162.142 19.341C164.156 19.1282 164.468 19.1518 164.468 19.4592C164.468 19.6484 163.413 21.564 162.142 23.716C160.872 25.8681 158.906 29.1553 157.803 31.0472C156.676 32.9391 155.573 34.9019 155.333 35.4222C155.094 35.9425 154.878 36.8411 154.878 37.4324C154.878 38.0236 154.998 38.8749 155.141 39.3243C155.309 39.7736 155.717 40.554 156.053 41.027C156.388 41.5 157.059 42.1148 157.515 42.3513C157.971 42.6115 158.786 42.9425 159.313 43.0844C159.96 43.25 161.063 43.25 162.79 43.1081C164.18 42.9662 168.064 42.6588 171.421 42.3986C174.777 42.1385 178.134 41.7365 178.853 41.5473C179.836 41.2635 180.459 40.8851 181.275 40.081C182.114 39.2297 182.425 38.6858 182.617 37.7871C182.785 37.0776 182.809 36.1317 182.689 35.4222C182.593 34.7837 182.353 33.9323 182.138 33.5303C181.946 33.1283 181.466 32.5371 181.083 32.206C180.723 31.8512 180.076 31.4256 179.692 31.2127C179.309 31.0235 178.637 30.787 178.254 30.7161C177.87 30.6215 176.216 30.6688 174.609 30.8107C172.979 30.9289 171.541 30.9999 171.421 30.9289C171.277 30.858 171.397 30.456 171.684 29.9357C171.972 29.4391 173.171 27.3816 174.346 25.3715C175.52 23.3613 177.462 20.0505 178.637 18.0403L180.795 14.3747C180.795 11.4659 180.651 10.8038 180.244 10.0233C179.932 9.43213 179.356 8.69901 178.973 8.39158C178.589 8.06049 177.918 7.68211 177.534 7.51657Z" fill="#1E57AC"/>
<path d="M49.914 7.46927C49.5064 7.30373 48.5234 7.16184 47.7562 7.16184C47.013 7.18549 46.054 7.32738 45.6704 7.51657C45.2628 7.68211 44.6155 8.13144 44.1839 8.50982C43.7763 8.86455 43.0091 9.97605 42.4817 10.9457C41.9782 11.9153 40.1081 15.4862 38.3579 18.868C36.5838 22.2498 34.1383 26.9323 32.9156 29.2735C31.6928 31.6147 30.566 33.956 30.4221 34.4763C30.2783 34.9965 30.2303 35.9898 30.3022 36.6756C30.3981 37.5743 30.6619 38.1655 31.2373 38.9222C31.6688 39.4662 32.46 40.2229 32.9875 40.5777C33.6108 41.027 34.3541 41.2871 35.2412 41.3581C35.9604 41.4527 37.0153 41.3817 37.5668 41.2398C38.1422 41.0979 39.0292 40.5777 39.5807 40.1047C40.1321 39.6081 40.8993 38.6385 41.2589 37.9763L41.9542 36.7229C47.2528 36.9594 49.3626 37.0776 50.0818 37.1722L51.3525 37.3141C52.1677 39.3716 52.839 40.3648 53.4624 41.0033C54.1337 41.6892 54.9009 42.1858 55.5003 42.3513C56.0277 42.5169 56.8429 42.6351 57.2984 42.6351C57.7539 42.6351 58.5931 42.4932 59.1445 42.2804C59.7199 42.0912 60.559 41.6419 61.0385 41.2871C61.4941 40.9087 62.1174 40.152 62.4051 39.5608C62.7408 38.8276 62.8846 38.0236 62.8846 36.9594C62.8846 35.8479 62.7168 34.9729 62.2613 33.8377C61.9016 32.9391 61.3502 31.5675 61.0385 30.7634C60.7029 29.9357 60.0556 28.2566 59.576 27.0269C59.0726 25.7971 57.4662 21.6349 55.9798 17.8038C54.4693 13.9727 53.1027 10.449 52.9109 9.9997C52.7191 9.55037 52.1437 8.86455 51.6402 8.48617C51.1128 8.08414 50.3456 7.63481 49.914 7.46927Z" fill="#1E57AC"/>
<path d="M138.67 8.03684C138.023 7.82401 136.944 7.63481 136.297 7.65846C135.626 7.65846 134.667 7.8713 134.139 8.10779C133.612 8.34428 132.844 8.8882 132.437 9.31388C132.029 9.76321 130.375 12.672 128.745 15.7937C127.138 18.9153 124.861 23.2904 123.71 25.4897C122.535 27.7127 121.001 30.6688 120.257 32.1114C119.011 34.4999 118.915 34.831 118.915 36.3209C118.915 37.3851 119.059 38.1891 119.37 38.804C119.61 39.277 120.257 40.081 120.809 40.5777C121.408 41.0979 122.295 41.5946 123.039 41.8074C123.758 42.0202 124.621 42.1148 125.029 42.0439C125.412 41.9493 126.059 41.7601 126.467 41.6182C126.851 41.4763 127.57 41.0743 128.025 40.7432C128.481 40.3885 129.248 39.4189 129.704 38.6148L130.543 37.1013C135.362 37.3614 137.472 37.527 138.311 37.6216L139.869 37.7871C140.9 40.081 141.619 41.1452 142.147 41.6419C142.698 42.1858 143.489 42.6351 144.185 42.8243C144.784 42.9662 145.599 43.1081 146.007 43.1081C146.39 43.1081 147.302 42.8953 147.973 42.6351C148.668 42.375 149.603 41.8547 150.011 41.4527C150.442 41.0743 150.946 40.4594 151.138 40.1047C151.305 39.7263 151.521 39.1824 151.593 38.8513C151.665 38.5202 151.641 37.6689 151.545 36.9594C151.425 36.2499 150.562 33.6958 149.603 31.2837C148.668 28.8715 147.685 26.3884 147.445 25.7262C147.206 25.0877 146.678 23.7397 146.295 22.7701C145.911 21.8005 144.88 19.1282 143.993 16.8579C143.106 14.5876 142.195 12.199 141.979 11.5605C141.739 10.922 141.188 9.97605 140.708 9.43213C140.157 8.81726 139.414 8.32063 138.67 8.03684Z" fill="#1E57AC"/>
<path d="M227.643 8.55712C227.043 8.27333 226.156 8.13144 225.245 8.13144C224.454 8.13144 223.447 8.27333 223.015 8.41523C222.584 8.58077 221.793 9.05375 221.289 9.47942C220.618 9.9997 220.186 10.6382 219.827 11.6078C219.323 12.9322 219.323 13.0031 219.707 17.2126C219.923 19.5538 220.258 23.5978 220.45 26.1992C220.642 28.8005 220.858 31.4019 220.93 31.9931C221.002 32.5844 221.169 34.4053 221.289 36.0844C221.481 38.5675 221.625 39.2533 222.104 40.1047C222.44 40.6486 222.944 41.3344 223.255 41.6182C223.567 41.902 224.214 42.304 224.694 42.4932C225.197 42.7061 226.18 42.8716 226.851 42.8716C227.547 42.8716 228.602 42.7297 229.201 42.5405C229.848 42.3277 230.592 41.8311 231.095 41.2871C231.551 40.7905 232.078 40.0101 232.294 39.5608C232.558 38.9695 232.653 38.0709 232.63 36.4864C232.606 35.2567 232.414 32.3715 232.198 30.1012L232.125 29.2376C231.92 26.8123 231.592 22.9401 231.359 20.0505C231.095 16.8106 230.807 13.7126 230.735 13.1923C230.664 12.672 230.376 11.7734 230.112 11.1821C229.872 10.5909 229.417 9.85781 229.129 9.55037C228.841 9.24294 228.17 8.79361 227.643 8.55712Z" fill="#1E57AC"/>
<path d="M257.468 9.85781C256.892 9.57402 255.981 9.29023 255.454 9.21929C254.927 9.17199 254.015 9.21929 253.416 9.33753C252.817 9.45578 252.073 9.73956 251.738 9.97605C251.402 10.2362 250.899 10.6855 250.635 10.993C250.347 11.2767 248.237 14.7768 245.984 18.7498C243.706 22.7228 240.709 27.9255 239.319 30.3377C237.952 32.7499 236.657 35.1384 236.466 35.6587C236.298 36.179 236.154 36.983 236.154 37.4324C236.154 37.8817 236.322 38.7331 236.514 39.3243C236.729 39.9155 237.233 40.7432 237.664 41.1925C238.096 41.6182 238.959 42.2331 239.63 42.5405C240.374 42.8953 241.285 43.1081 242.028 43.1081C242.963 43.1081 243.514 42.9426 244.545 42.3513C245.504 41.7838 246.128 41.1689 246.895 40.0337C247.47 39.1824 248.046 38.4966 248.213 38.5202C248.381 38.5439 249.964 38.6621 251.738 38.8276C253.512 38.9695 255.478 39.1587 256.101 39.206C257.252 39.3243 257.252 39.3243 257.66 40.5777C257.875 41.2398 258.259 42.1385 258.547 42.5405C258.834 42.9426 259.362 43.5338 259.77 43.8649C260.177 44.1723 260.92 44.5507 261.448 44.7162C261.975 44.8581 262.718 45 263.126 45C263.534 45 264.445 44.8345 265.164 44.6216C266.123 44.3378 266.77 43.9594 267.49 43.2027C268.065 42.6115 268.616 41.7838 268.76 41.2871C268.88 40.7905 269 40.0101 269 39.5608C269 39.1114 267.585 34.6418 265.859 29.6282C264.157 24.6147 262.071 18.6079 261.28 16.2666C260.369 13.618 259.578 11.7024 259.17 11.1821C258.811 10.7328 258.043 10.1179 257.468 9.85781Z" fill="#1E57AC"/>
<path d="M48.683 10.3554C48.2497 10.1659 47.5034 10 47.046 10C46.4442 10 45.9868 10.2132 45.3368 10.7582C44.735 11.3269 43.6998 13.0328 41.8221 16.6343C40.3536 19.4302 38.211 23.5529 37.0555 25.7565C35.8759 27.96 34.2629 31.0639 33.4685 32.6277C32.3852 34.7365 32 35.708 32 36.4188C32 36.94 32.1926 37.6745 32.4333 38.0773C32.6741 38.4801 33.2759 38.9777 33.7574 39.2147C34.2389 39.4279 35.0333 39.6175 35.4907 39.6175C36.0684 39.6175 36.574 39.4042 37.1036 38.9303C37.5369 38.5512 38.3314 37.4376 38.861 36.4425C39.5832 35.0919 39.9443 34.618 40.3054 34.6417C40.5702 34.6417 42.2554 34.7365 44.0368 34.8787C45.8183 34.9971 48.4182 35.163 49.8145 35.2341L52.3422 35.3762C53.5941 38.5512 54.1478 39.499 54.6052 39.9255C55.0144 40.2809 55.5922 40.5889 55.8811 40.6126H55.8811C56.1941 40.6126 56.7718 40.6126 57.157 40.5889C57.5422 40.5415 58.1681 40.3757 58.5292 40.1861C58.9144 39.9966 59.3717 39.6175 59.5643 39.3331C59.7569 39.0251 59.9254 38.338 59.9254 37.793C59.9254 37.1533 59.5162 35.779 58.8662 34.1205C58.2644 32.6514 56.8922 29.1447 55.8088 26.3488C54.7255 23.5529 53.5459 20.4964 53.1848 19.5961C52.8237 18.6957 52.0293 16.6106 51.4034 14.9757C50.7775 13.3408 50.0793 11.7297 49.8627 11.3506C49.646 10.9951 49.0923 10.545 48.683 10.3554Z" fill="#FAC041"/>
<path d="M137.611 10.8293C137.13 10.6397 136.48 10.4739 136.191 10.4976H136.167C135.878 10.4976 135.396 10.5923 135.132 10.6871C134.843 10.7819 134.337 11.1847 134.024 11.5638C133.687 11.9429 132.315 14.3597 130.967 16.9423C129.643 19.5013 127.428 23.7188 126.104 26.3014L126.103 26.3037C124.755 28.8623 123.07 32.0595 122.373 33.4096C121.385 35.2341 121.073 36.0871 121.073 36.8453C121.073 37.3902 121.265 38.1484 121.506 38.5512C121.747 38.954 122.373 39.4516 122.902 39.7122C123.576 40.0203 124.106 40.115 124.804 40.0203C125.358 39.9255 126.032 39.6175 126.369 39.2857C126.706 38.954 127.404 37.8878 127.934 36.8926L128.896 35.0682C131.135 35.2815 133.302 35.3999 135.156 35.471C137.009 35.5421 139.176 35.6606 139.97 35.7316L141.415 35.8501C142.618 38.8592 143.22 39.9729 143.509 40.2809C143.846 40.6126 144.472 40.8732 145.146 40.968C145.748 41.0391 146.639 40.9917 147.12 40.8258C147.626 40.6837 148.252 40.2809 148.517 39.9255C148.829 39.499 149.022 38.9066 148.998 38.3143C148.998 37.6745 147.505 33.5281 144.304 25.2826C141.728 18.6246 139.369 12.7485 139.08 12.1798C138.67 11.4453 138.261 11.0662 137.611 10.8293Z" fill="#FAC041"/>
<path d="M24.1863 10.5085C23.8743 10.3632 23.3222 10.1695 22.9142 10.0969C22.5062 10 21.8822 9.97579 21.4742 10.0242C21.0662 10.0484 18.9781 10.2906 16.794 10.5569C14.6099 10.8233 12.3778 11.0897 11.8258 11.1623C11.1538 11.235 10.5058 11.5255 10.0258 11.9614C9.56974 12.3488 9.16173 13.0268 9.04172 13.4869C8.94572 13.9712 9.01772 15.6905 9.23373 17.5792C9.42574 19.3711 9.80975 22.7612 10.0738 25.0858C10.3618 27.4104 10.8178 31.5511 11.1298 34.2874C11.4418 37.0236 11.8258 39.5662 12.0178 39.9536C12.2098 40.341 12.6179 40.8738 12.9539 41.1401C13.3139 41.4065 13.9859 41.6002 14.6339 41.6244C15.2339 41.6486 16.074 41.5033 16.53 41.3096C16.962 41.1159 17.49 40.6558 17.658 40.2926C17.85 39.9052 17.9941 39.0092 17.9941 38.2828C17.9941 37.5563 17.778 35.1833 17.514 33.0282C17.25 30.8489 17.058 29.057 17.082 29.0328C17.13 28.9843 18.8341 28.7664 20.8742 28.5C22.9142 28.2579 24.8583 27.9189 25.1943 27.7736C25.5303 27.6283 25.9863 27.1682 26.2024 26.7808C26.4424 26.3691 26.6344 25.788 26.6344 25.449C26.6344 25.11 26.4664 24.4562 26.2744 23.9961C26.0583 23.4876 25.6023 23.0033 25.1463 22.7612C24.4263 22.3979 24.0183 22.3979 20.5141 22.7369C18.4021 22.9307 16.602 23.0275 16.506 22.9549C16.41 22.858 16.194 21.6231 16.026 20.1944C15.858 18.7657 15.81 17.5308 15.93 17.4097C16.026 17.3128 17.706 17.0223 19.6501 16.7801C21.5702 16.5622 23.4663 16.2232 23.8503 16.0537C24.2343 15.9084 24.7623 15.4967 25.0023 15.1577C25.2903 14.7703 25.4583 14.1649 25.4343 13.4143C25.4343 12.7605 25.2663 11.9372 25.0743 11.5255C24.8823 11.1139 24.4743 10.678 24.1863 10.5085Z" fill="#EC1A3F"/>
<path d="M174.436 10.1454L174.432 10.1453C173.328 10.1453 171.696 10.2179 170.76 10.3148C169.848 10.4117 166.536 10.7022 163.439 10.9202C159.119 11.2592 157.583 11.4529 156.839 11.7919C156.311 12.034 155.687 12.5668 155.471 12.9784C155.231 13.3658 155.039 14.1165 155.039 14.6008C155.039 15.1577 155.255 15.86 155.591 16.3685C155.903 16.8285 156.527 17.3613 156.983 17.555C157.679 17.8698 158.375 17.8698 161.759 17.6276C163.943 17.4581 166.392 17.2402 167.232 17.1433C168.36 17.0223 168.72 17.0465 168.72 17.2886C168.72 17.4339 167.352 19.9522 165.695 22.8338C164.015 25.7396 161.903 29.4202 160.967 31.0184C160.055 32.6165 158.807 34.7474 158.207 35.7402C157.583 36.8057 157.103 37.968 157.031 38.5249C156.959 39.1545 157.079 39.7841 157.367 40.341C157.631 40.8738 158.159 41.3581 158.759 41.6486C159.695 42.1087 159.839 42.1087 165.119 41.6971C168.096 41.4791 172.2 41.1159 174.24 40.9222C177 40.6558 178.152 40.4621 178.68 40.1231C179.088 39.8567 179.544 39.3724 179.712 39.0334C179.856 38.6944 180 37.968 180 37.4353C180 36.9025 179.832 36.1519 179.64 35.7402C179.448 35.3286 178.92 34.8443 178.512 34.6021C178.08 34.3842 177.288 34.2147 176.76 34.2389C176.232 34.2389 173.688 34.4326 171.12 34.6506C168.552 34.8443 166.415 34.9896 166.367 34.9654C166.32 34.9169 167.424 32.9313 168.792 30.5341C170.16 28.1368 172.56 23.9477 174.12 21.2114C175.68 18.4752 177.216 15.8115 177.504 15.2788C177.888 14.6492 178.08 13.9228 178.08 13.1721C178.08 12.1793 177.96 11.8645 177.264 11.1139C176.448 10.1943 176.424 10.1937 174.436 10.1454Z" fill="#EC1A3F"/>
<path d="M108.262 9.48375C105.962 9.29349 103.806 9.07945 103.47 9.0081C103.135 8.96053 102.416 9.12701 101.841 9.38862C101.074 9.74536 100.715 10.1021 100.355 10.9345C99.9719 11.7907 99.924 12.1712 100.092 12.8847C100.235 13.3841 100.547 14.0738 100.811 14.4305C101.098 14.8348 101.697 15.1916 102.2 15.3105C102.703 15.4294 103.782 15.5959 104.596 15.6672C105.818 15.7861 106.106 15.8813 106.106 16.2142C106.106 16.452 105.986 17.546 105.866 18.6638C105.746 19.7816 105.411 23.0874 105.147 26.0364C104.884 28.9855 104.548 32.6718 104.381 34.2414C104.141 36.9051 104.141 37.1667 104.572 38.0466C104.884 38.7125 105.315 39.1406 105.986 39.4498C106.681 39.759 107.208 39.8541 107.903 39.7352C108.574 39.6401 109.125 39.3309 109.7 38.7363L110.538 37.9039C111.185 31.3875 111.521 27.5585 111.736 25.204C111.928 22.8496 112.239 19.9243 112.407 18.6876L112.695 16.452C116.241 16.6899 116.96 16.6423 117.535 16.3807C117.966 16.1904 118.541 15.691 118.804 15.2629C119.092 14.811 119.284 14.0738 119.284 13.4792C119.284 12.9322 119.116 12.1474 118.924 11.7669C118.733 11.3626 118.277 10.9107 117.918 10.7204C117.535 10.5302 116.169 10.2686 114.851 10.1259C113.533 9.98318 110.562 9.69779 108.262 9.48375Z" fill="#9CCC47"/>
<path d="M208.798 10.3875C208.247 9.76914 208.103 9.74536 205.851 9.69779C204.557 9.67401 201.946 9.79292 200.029 9.98318C198.112 10.1497 194.877 10.4113 192.841 10.5777C189.774 10.8156 188.959 10.9583 188.169 11.4101C187.57 11.7431 187.09 12.2425 186.875 12.742C186.659 13.2414 186.587 13.9073 186.683 14.5019C186.779 15.144 187.09 15.7148 187.689 16.2856C188.504 17.0942 188.6 17.118 190.397 17.118C191.403 17.118 193.991 16.9515 196.123 16.7612C198.256 16.571 200.077 16.4996 200.196 16.5947C200.292 16.7137 200.22 17.0704 200.005 17.4271C199.789 17.7839 198.855 19.3535 197.944 20.9232C197.034 22.4928 195.261 25.4894 194.039 27.5823C192.817 29.6752 191.116 32.5529 190.277 34.0036C189.462 35.4543 188.696 36.9289 188.624 37.3332C188.552 37.7375 188.648 38.4509 188.863 38.9979C189.055 39.5212 189.462 40.1157 189.774 40.3298C190.085 40.5438 190.66 40.7816 191.044 40.8768C191.427 40.9481 194.446 40.8054 197.753 40.5438C201.035 40.2822 204.964 39.973 206.426 39.8303C207.912 39.7114 209.373 39.4974 209.661 39.3785C209.972 39.2595 210.451 38.9266 210.739 38.665C211.05 38.3796 211.362 37.8802 211.434 37.4996C211.53 37.1429 211.53 36.3819 211.458 35.7873C211.362 35.1214 211.098 34.503 210.763 34.1701C210.451 33.8847 209.876 33.5279 209.493 33.409C208.99 33.2426 207.432 33.2663 204.461 33.5279C202.089 33.7182 199.693 33.9322 199.118 34.0036C198.328 34.0987 198.112 34.0512 198.112 33.7658C198.112 33.5755 198.807 32.2675 199.645 30.8405C200.484 29.4373 202.425 26.1078 203.982 23.4203C205.54 20.7329 207.384 17.5698 208.079 16.4045C208.798 15.2154 209.469 13.9549 209.589 13.5506C209.733 13.0987 209.733 12.5041 209.589 11.9334C209.469 11.4577 209.11 10.768 208.798 10.3875Z" fill="#9CCC47"/>
<path d="M255.784 12.3377C255.424 12.1474 254.729 12.0047 254.226 12.0047C253.675 12.0047 253.052 12.2187 252.597 12.5279C252.142 12.8609 251.231 14.1451 250.273 15.8099C249.434 17.3082 246.727 22.0172 244.283 26.2743C241.863 30.5313 239.515 34.6457 239.107 35.4306C238.604 36.3581 238.317 37.238 238.293 37.9277C238.269 38.5699 238.437 39.2596 238.676 39.6401C238.892 40.0206 239.563 40.52 240.162 40.7816C240.928 41.1146 241.479 41.2097 242.007 41.0908C242.438 40.9957 243.109 40.6627 243.492 40.3298C243.875 39.9968 244.57 39.0217 245.049 38.1893C245.529 37.3569 246.08 36.5959 246.271 36.5483C246.463 36.477 248.021 36.5483 249.746 36.7148C251.471 36.8813 254.154 37.1429 255.712 37.2856L258.563 37.571C259.617 40.52 260.12 41.6378 260.36 41.9708C260.623 42.3037 261.175 42.6842 261.63 42.8507C262.181 43.041 262.78 43.041 263.523 42.8983C264.217 42.7556 264.864 42.4226 265.32 41.947C265.919 41.3524 266.038 41.0432 265.99 40.2346C265.967 39.6876 264.864 36.0251 263.523 32.101C262.181 28.1769 260.216 22.3977 259.162 19.2584C258.108 16.1191 257.053 13.3603 256.838 13.0987C256.622 12.8609 256.167 12.5279 255.784 12.3377Z" fill="#9CCC47"/>
<path d="M89.2648 9.55346C88.8817 9.29364 88.1394 9.05743 87.6127 9.01019C87.0141 8.96295 86.3676 9.08105 85.8408 9.34088C85.4098 9.57708 84.8831 10.0495 84.7155 10.4038C84.5239 10.7817 84.3803 11.7265 84.3803 12.5296C84.3803 13.3563 84.5479 15.9309 84.7394 18.2693C84.931 20.6077 85.1704 23.324 85.2422 24.2925C85.338 25.3081 85.3141 26.1349 85.1944 26.2293C85.0746 26.3238 82.4887 23.4185 79.4718 19.7574C76.4549 16.0963 73.6056 12.6477 73.1986 12.0808C72.6239 11.3486 72.0971 10.9471 71.2831 10.6636C70.3492 10.3565 69.9661 10.3329 69.2478 10.5455C68.745 10.7108 68.0746 11.1124 67.7394 11.4667C67.4281 11.8446 67.0929 12.4115 67.0211 12.7658C66.9492 13.1437 67.069 15.1987 67.2605 17.3718C67.4521 19.5684 67.7873 23.513 68.0028 26.1821C68.1943 28.8512 68.5056 32.6777 68.6971 34.6854C68.9366 37.071 69.176 38.5355 69.4154 38.8662C69.607 39.1732 70.1338 39.622 70.5647 39.8818C70.9718 40.1416 71.738 40.3542 72.2408 40.3542C72.7197 40.3542 73.4619 40.1889 73.845 39.9999C74.2281 39.811 74.7549 39.2913 74.9704 38.8898C75.2338 38.3938 75.3535 37.6143 75.3535 36.8112C75.3295 36.1026 75.1619 33.6461 74.9464 31.3785C74.7549 29.111 74.5155 26.1821 74.4197 24.883C74.3239 23.324 74.3478 22.5918 74.5155 22.7572C74.6352 22.8989 77.4605 26.2766 80.7887 30.3156C84.0929 34.3547 87.1577 37.8505 87.5648 38.1339C87.9958 38.3938 88.7141 38.7008 89.169 38.7717C89.6239 38.8662 90.3901 38.8425 90.8451 38.7244C91.3239 38.5827 91.8747 38.2284 92.138 37.8269C92.4732 37.3545 92.593 36.7876 92.593 35.7483C92.569 34.9688 92.4493 32.843 92.3056 31.0242C92.138 29.2055 91.9225 26.7017 91.8028 25.4735C91.6831 24.2452 91.3479 20.6077 91.0845 17.3954C90.8211 14.1594 90.462 11.1833 90.2944 10.7817C90.1028 10.3565 89.6479 9.78966 89.2648 9.55346Z" fill="#40B7F8"/>
<path d="M226.678 11.5376C226.247 11.2305 225.648 11.0415 225.026 11.0652C224.427 11.0652 223.757 11.2777 223.254 11.5848C222.799 11.8919 222.272 12.4115 222.057 12.7658C221.745 13.3327 221.721 13.8996 222.009 17.7261C222.176 20.1117 222.488 23.9146 222.679 26.1821C222.871 28.4496 223.182 32.2289 223.35 34.5673C223.637 38.3229 223.733 38.9134 224.236 39.7165C224.619 40.2834 225.098 40.6849 225.648 40.8503C226.127 41.0156 226.893 41.0392 227.444 40.9447C228.067 40.8266 228.665 40.496 229.192 39.9763C229.695 39.433 229.958 38.9134 229.982 38.3938C230.006 37.9922 230.006 37.1655 229.982 36.575C229.958 35.9845 229.719 33.0792 229.479 30.0794C229.216 27.0797 228.785 22.0958 228.521 18.9779C228.186 15.4349 227.875 13.0729 227.66 12.6477C227.468 12.2934 227.037 11.7974 226.678 11.5376Z" fill="#40B7F8"/>
<path d="M47.1656 22.2909C47.022 22.1227 46.8544 21.9786 46.7587 22.0026C46.6868 22.0026 45.8012 23.6842 44.7958 25.7262C43.7904 27.7681 42.9766 29.4978 43.0005 29.5458C43.0484 29.5939 44.6043 29.69 46.4714 29.7861C49.4157 29.9062 49.8944 29.8822 49.8944 29.5699C49.8944 29.3777 49.3439 27.7201 48.6497 25.9184C47.9795 24.0926 47.3092 22.4591 47.1656 22.2909Z" fill="#1E57AC"/>
<path d="M137.193 26.3268C136.38 24.2127 135.59 22.4831 135.47 22.4831C135.326 22.4831 134.393 24.1407 133.387 26.1586C132.382 28.1525 131.616 29.8822 131.712 29.9783C131.808 30.0744 133.22 30.2185 134.871 30.3146C136.523 30.4107 138.055 30.4107 138.271 30.3386C138.654 30.1945 138.534 29.7621 137.193 26.3268Z" fill="#1E57AC"/>
<path d="M254.797 27.9603C254.079 25.8223 253.361 24.0446 253.241 24.0206C253.121 23.9725 252.116 25.558 251.015 27.5279C249.938 29.5218 249.052 31.2034 249.052 31.3236C249.052 31.4196 250.584 31.6359 252.451 31.804C254.342 31.9722 255.922 32.0442 255.994 31.9722C256.066 31.8761 255.515 30.0744 254.797 27.9603Z" fill="#1E57AC"/>
<path d="M14.5706 80H6.11667V81.4415C6.11667 81.6882 6.02576 81.896 5.84396 82.0648C5.67514 82.2466 5.46736 82.3375 5.22063 82.3375H4.09083C3.8441 82.3375 3.62983 82.2466 3.44802 82.0648C3.2792 81.896 3.19479 81.6882 3.19479 81.4415V77.9742C3.19479 77.7274 3.2792 77.5197 3.44802 77.3508C3.62983 77.169 3.8441 77.0781 4.09083 77.0781H4.65573C5.04531 76.5717 5.44788 75.6107 5.86344 74.1952C6.26601 72.7797 6.51924 71.0785 6.62313 69.0917L6.70104 67.2606C6.71403 67.0139 6.81142 66.8061 6.99323 66.6373C7.17504 66.4555 7.38931 66.3646 7.63604 66.3646H14.7459C14.9927 66.3646 15.2005 66.4555 15.3693 66.6373C15.5511 66.8061 15.642 67.0139 15.642 67.2606V77.0781H16.5965C16.8432 77.0781 17.051 77.169 17.2198 77.3508C17.4016 77.5197 17.4925 77.7274 17.4925 77.9742V81.4415C17.4925 81.6882 17.4016 81.896 17.2198 82.0648C17.051 82.2466 16.8432 82.3375 16.5965 82.3375H15.4667C15.2199 82.3375 15.0057 82.2466 14.8239 82.0648C14.655 81.896 14.5706 81.6882 14.5706 81.4415V80ZM8.08406 77.0781H12.5253V69.2865H9.75927L9.545 71.585C9.4541 72.6628 9.24632 73.7732 8.92167 74.9159C8.61 76.0457 8.3308 76.7665 8.08406 77.0781ZM31.3358 67.2606V79.104C31.3358 79.3507 31.2449 79.565 31.0631 79.7468C30.8943 79.9156 30.6865 80 30.4398 80H29.1152C28.8684 80 28.6542 79.9156 28.4724 79.7468C28.3035 79.565 28.2191 79.3507 28.2191 79.104V69.2865H25.2193L24.9272 71.8577C24.6544 74.0394 24.3103 75.7276 23.8948 76.9223C23.4922 78.104 22.9987 78.9286 22.4143 79.3961C21.83 79.8507 21.0573 80.0844 20.0963 80.0974C19.8366 80.0974 19.6223 80.026 19.4535 79.8831C19.2977 79.7273 19.2198 79.5325 19.2198 79.2987V78.13C19.2198 77.8313 19.2717 77.6041 19.3756 77.4482C19.4925 77.2794 19.7132 77.1236 20.0379 76.9807C20.5833 76.747 21.0118 76.0977 21.3235 75.0328C21.6352 73.916 21.8949 71.9356 22.1027 69.0917L22.239 67.2606C22.265 67.0009 22.3689 66.7866 22.5507 66.6178C22.7325 66.449 22.9468 66.3646 23.1935 66.3646H30.4398C30.6865 66.3646 30.8943 66.4555 31.0631 66.6373C31.2449 66.8061 31.3358 67.0139 31.3358 67.2606ZM44.7656 67.2801V79.104C44.7656 79.3507 44.6747 79.565 44.4929 79.7468C44.3241 79.9156 44.1163 80 43.8696 80H42.545C42.2983 80 42.084 79.9156 41.9022 79.7468C41.7334 79.565 41.649 79.3507 41.649 79.104V75.6172H40.2659L38.0258 79.4156C37.7921 79.8052 37.4479 80 36.9934 80H35.8052C35.5455 80 35.3312 79.9156 35.1624 79.7468C34.9936 79.565 34.9092 79.3507 34.9092 79.104C34.9092 78.9222 34.9546 78.7663 35.0455 78.6365L37.383 74.9354C35.9805 74.1043 35.2793 72.8641 35.2793 71.2149C35.2793 69.7994 35.7597 68.6242 36.7207 67.6892C37.6817 66.7542 39.1556 66.2867 41.1425 66.2867C41.2594 66.2867 41.8632 66.2997 42.9541 66.3256C43.2268 66.3386 43.5319 66.3451 43.8696 66.3451C44.1163 66.3581 44.3241 66.4555 44.4929 66.6373C44.6747 66.8061 44.7656 67.0204 44.7656 67.2801ZM40.0127 72.6953H41.649V69.2865C41.4282 69.2345 41.0516 69.2085 40.5192 69.2085C39.9737 69.2085 39.5127 69.3774 39.1361 69.715C38.7725 70.0397 38.5907 70.4682 38.5907 71.0006C38.5907 71.4551 38.7206 71.8317 38.9803 72.1304C39.24 72.4161 39.5842 72.6044 40.0127 72.6953ZM65.0993 80H63.7747C63.528 80 63.3137 79.9156 63.1319 79.7468C62.9631 79.565 62.8787 79.3507 62.8787 79.104V71.5266L57.2297 79.4351C56.97 79.8117 56.6323 80 56.2168 80H55.0091C54.7623 80 54.5481 79.9156 54.3663 79.7468C54.1974 79.565 54.113 79.3507 54.113 79.104V67.2606C54.113 67.0139 54.1974 66.8061 54.3663 66.6373C54.5481 66.4555 54.7623 66.3646 55.0091 66.3646H56.3337C56.5804 66.3646 56.7882 66.4555 56.957 66.6373C57.1388 66.8061 57.2297 67.0139 57.2297 67.2606V74.838L62.8787 66.9295C63.1384 66.5529 63.476 66.3646 63.8916 66.3646H65.0993C65.346 66.3646 65.5538 66.4555 65.7226 66.6373C65.9044 66.8061 65.9953 67.0139 65.9953 67.2606V79.104C65.9953 79.3507 65.9044 79.565 65.7226 79.7468C65.5538 79.9156 65.346 80 65.0993 80ZM77.3719 69.2865H73.593V79.104C73.593 79.3507 73.5021 79.565 73.3203 79.7468C73.1514 79.9156 72.9437 80 72.6969 80H71.3723C71.1256 80 70.9113 79.9156 70.7295 79.7468C70.5607 79.565 70.4763 79.3507 70.4763 79.104V67.2606C70.4763 67.0139 70.5607 66.8061 70.7295 66.6373C70.9113 66.4555 71.1256 66.3646 71.3723 66.3646H77.3719C77.6187 66.3646 77.8264 66.4555 77.9953 66.6373C78.1771 66.8061 78.268 67.0139 78.268 67.2606V68.3904C78.268 68.6372 78.1771 68.8514 77.9953 69.0332C77.8264 69.202 77.6187 69.2865 77.3719 69.2865ZM85.5486 66.3256C87.4705 66.3256 88.8731 66.7477 89.7561 67.5918C90.6262 68.4489 91.0612 69.5332 91.0612 70.8448C91.0612 72.1174 90.6002 73.1953 89.6782 74.0783C88.7692 74.9744 87.5485 75.4224 86.0161 75.4224C85.3408 75.4224 84.8344 75.4029 84.4967 75.364V79.104C84.4967 79.3507 84.4058 79.565 84.224 79.7468C84.0552 79.9156 83.8474 80 83.6007 80H82.2761C82.0294 80 81.8151 79.9156 81.6333 79.7468C81.4645 79.565 81.3801 79.3507 81.3801 79.104V67.2801C81.3801 67.0334 81.4645 66.8191 81.6333 66.6373C81.8151 66.4555 82.0294 66.3646 82.2761 66.3646C84.1201 66.3386 85.211 66.3256 85.5486 66.3256ZM84.4967 69.2865V72.4031C85.0421 72.4681 85.5161 72.5005 85.9187 72.5005C86.4511 72.5005 86.8862 72.3642 87.2238 72.0915C87.5744 71.8058 87.7498 71.3837 87.7498 70.8253C87.7498 69.7734 87.1199 69.2475 85.8603 69.2475C85.8473 69.2475 85.7888 69.254 85.685 69.267C85.5811 69.267 85.4187 69.2735 85.198 69.2865C84.9772 69.2865 84.7435 69.2865 84.4967 69.2865ZM108.299 67.2606V79.104C108.299 79.3507 108.208 79.565 108.027 79.7468C107.858 79.9156 107.65 80 107.403 80H106.079C105.832 80 105.618 79.9156 105.436 79.7468C105.267 79.565 105.183 79.3507 105.183 79.104V67.2606C105.183 67.0139 105.267 66.8061 105.436 66.6373C105.618 66.4555 105.832 66.3646 106.079 66.3646H107.403C107.65 66.3646 107.858 66.4555 108.027 66.6373C108.208 66.8061 108.299 67.0139 108.299 67.2606ZM97.6832 73.5719V77.0392C98.0988 77.0911 98.4039 77.1171 98.5987 77.1171C99.8973 77.1171 100.547 76.4873 100.547 75.2276C100.547 74.6562 100.378 74.2212 100.04 73.9225C99.7026 73.6238 99.2286 73.4745 98.6182 73.4745C98.4754 73.4745 98.1637 73.5069 97.6832 73.5719ZM94.5665 79.0845V67.2606C94.5665 67.0139 94.651 66.8061 94.8198 66.6373C95.0016 66.4555 95.2159 66.3646 95.4626 66.3646H96.7872C97.0339 66.3646 97.2417 66.4555 97.4105 66.6373C97.5923 66.8061 97.6832 67.0139 97.6832 67.2606V70.6305C98.0598 70.5786 98.4624 70.5526 98.8909 70.5526C100.501 70.5526 101.728 70.9552 102.572 71.7603C103.43 72.5655 103.858 73.6952 103.858 75.1497C103.858 76.6431 103.358 77.8313 102.358 78.7144C101.371 79.5974 99.9947 80.039 98.2286 80.039C97.8131 80.039 96.8911 80.026 95.4626 80C95.2159 80 95.0016 79.9091 94.8198 79.7273C94.651 79.5455 94.5665 79.3312 94.5665 79.0845ZM128.635 80H127.31C127.064 80 126.849 79.9156 126.667 79.7468C126.499 79.565 126.414 79.3507 126.414 79.104V71.5266L120.765 79.4351C120.506 79.8117 120.168 80 119.752 80H118.545C118.298 80 118.084 79.9156 117.902 79.7468C117.733 79.565 117.649 79.3507 117.649 79.104V67.2606C117.649 67.0139 117.733 66.8061 117.902 66.6373C118.084 66.4555 118.298 66.3646 118.545 66.3646H119.869C120.116 66.3646 120.324 66.4555 120.493 66.6373C120.674 66.8061 120.765 67.0139 120.765 67.2606V74.838L126.414 66.9295C126.674 66.5529 127.012 66.3646 127.427 66.3646H128.635C128.882 66.3646 129.089 66.4555 129.258 66.6373C129.44 66.8061 129.531 67.0139 129.531 67.2606V79.104C129.531 79.3507 129.44 79.565 129.258 79.7468C129.089 79.9156 128.882 80 128.635 80ZM143.638 80H142.314C142.067 80 141.853 79.9156 141.671 79.7468C141.502 79.565 141.418 79.3507 141.418 79.104V69.2865H138.223C137.976 69.2865 137.762 69.202 137.58 69.0332C137.412 68.8514 137.327 68.6372 137.327 68.3904V67.2606C137.327 67.0139 137.412 66.8061 137.58 66.6373C137.762 66.4555 137.976 66.3646 138.223 66.3646H147.729C147.976 66.3646 148.184 66.4555 148.352 66.6373C148.534 66.8061 148.625 67.0139 148.625 67.2606V68.3904C148.625 68.6372 148.534 68.8514 148.352 69.0332C148.184 69.202 147.976 69.2865 147.729 69.2865H144.534V79.104C144.534 79.3507 144.444 79.565 144.262 79.7468C144.093 79.9156 143.885 80 143.638 80ZM160.246 69.676C160.246 71.0136 159.727 72.033 158.688 72.7343C159.273 72.968 159.74 73.3576 160.091 73.903C160.454 74.4355 160.636 75.0912 160.636 75.8704C160.636 77.2469 160.162 78.2923 159.214 79.0066C158.266 79.7208 157.013 80.0779 155.455 80.0779C154.338 80.0779 153.331 80.0584 152.435 80.0195C152.202 80.0065 151.994 79.9091 151.812 79.7273C151.63 79.5325 151.539 79.3182 151.539 79.0845V67.2996C151.539 67.0528 151.624 66.8386 151.793 66.6568C151.974 66.475 152.189 66.3776 152.435 66.3646C153.526 66.3126 154.604 66.2867 155.669 66.2867C157.175 66.2867 158.312 66.5918 159.078 67.2022C159.857 67.7995 160.246 68.6242 160.246 69.676ZM155.864 74.4874H154.656V77.0392C154.942 77.1171 155.292 77.156 155.708 77.156C156.916 77.156 157.519 76.6756 157.519 75.7146C157.519 74.8965 156.967 74.4874 155.864 74.4874ZM154.656 69.2865V71.7603H155.688C156.649 71.7603 157.13 71.3188 157.13 70.4357C157.13 70.0591 156.987 69.7605 156.701 69.5397C156.416 69.3189 156.058 69.2085 155.63 69.2085C155.396 69.2085 155.072 69.2345 154.656 69.2865ZM163.562 73.1823C163.562 71.1694 164.237 69.4877 165.587 68.1372C166.925 66.7996 168.665 66.1308 170.808 66.1308C172.925 66.1308 174.665 66.7736 176.028 68.0593C177.379 69.3449 178.054 71.0526 178.054 73.1823C178.054 75.2341 177.372 76.9223 176.009 78.2469C174.619 79.5715 172.886 80.2338 170.808 80.2338C168.678 80.2338 166.944 79.5909 165.607 78.3053C164.243 77.0197 163.562 75.312 163.562 73.1823ZM166.873 73.1823C166.873 74.3381 167.256 75.3185 168.022 76.1236C168.776 76.9158 169.704 77.3119 170.808 77.3119C172.055 77.3119 173.022 76.9223 173.71 76.1431C174.399 75.3769 174.743 74.39 174.743 73.1823C174.743 71.9486 174.366 70.9552 173.613 70.202C172.847 69.4358 171.912 69.0527 170.808 69.0527C169.665 69.0527 168.724 69.4293 167.983 70.1825C167.243 70.9357 166.873 71.9356 166.873 73.1823ZM185.733 66.3256C187.655 66.3256 189.058 66.7477 189.941 67.5918C190.811 68.4489 191.246 69.5332 191.246 70.8448C191.246 72.1174 190.785 73.1953 189.863 74.0783C188.954 74.9744 187.733 75.4224 186.201 75.4224C185.525 75.4224 185.019 75.4029 184.681 75.364V79.104C184.681 79.3507 184.59 79.565 184.409 79.7468C184.24 79.9156 184.032 80 183.785 80H182.461C182.214 80 182 79.9156 181.818 79.7468C181.649 79.565 181.565 79.3507 181.565 79.104V67.2801C181.565 67.0334 181.649 66.8191 181.818 66.6373C182 66.4555 182.214 66.3646 182.461 66.3646C184.305 66.3386 185.396 66.3256 185.733 66.3256ZM184.681 69.2865V72.4031C185.227 72.4681 185.701 72.5005 186.103 72.5005C186.636 72.5005 187.071 72.3642 187.408 72.0915C187.759 71.8058 187.934 71.3837 187.934 70.8253C187.934 69.7734 187.304 69.2475 186.045 69.2475C186.032 69.2475 185.973 69.254 185.87 69.267C185.766 69.267 185.603 69.2735 185.383 69.2865C185.162 69.2865 184.928 69.2865 184.681 69.2865ZM200.882 71.9356V67.2606C200.882 67.0139 200.966 66.8061 201.135 66.6373C201.317 66.4555 201.531 66.3646 201.778 66.3646H203.102C203.349 66.3646 203.557 66.4555 203.726 66.6373C203.907 66.8061 203.998 67.0139 203.998 67.2606V79.104C203.998 79.3507 203.907 79.565 203.726 79.7468C203.557 79.9156 203.349 80 203.102 80H201.778C201.531 80 201.317 79.9156 201.135 79.7468C200.966 79.565 200.882 79.3507 200.882 79.104V74.7796C200.193 75.312 199.219 75.5782 197.96 75.5782C196.817 75.5782 195.83 75.2341 194.999 74.5458C194.181 73.8446 193.772 72.7408 193.772 71.2344V67.2606C193.772 67.0139 193.856 66.8061 194.025 66.6373C194.207 66.4555 194.421 66.3646 194.668 66.3646H195.992C196.239 66.3646 196.447 66.4555 196.616 66.6373C196.798 66.8061 196.888 67.0139 196.888 67.2606V70.2994C196.888 71.1565 197.051 71.7668 197.375 72.1304C197.7 72.481 198.174 72.6564 198.797 72.6564C199.538 72.6564 200.232 72.4161 200.882 71.9356ZM216.749 77.9742V79.104C216.749 79.3507 216.658 79.565 216.476 79.7468C216.307 79.9156 216.1 80 215.853 80H209.366C209.12 80 208.905 79.9156 208.723 79.7468C208.555 79.565 208.47 79.3507 208.47 79.104V67.2606C208.47 67.0139 208.555 66.8061 208.723 66.6373C208.905 66.4555 209.12 66.3646 209.366 66.3646H215.658C215.905 66.3646 216.113 66.4555 216.281 66.6373C216.463 66.8061 216.554 67.0139 216.554 67.2606V68.3904C216.554 68.6372 216.463 68.8514 216.281 69.0332C216.113 69.202 215.905 69.2865 215.658 69.2865H211.587V71.6824H215.074C215.32 71.6824 215.528 71.7733 215.697 71.9551C215.879 72.1239 215.97 72.3317 215.97 72.5784V73.7082C215.97 73.955 215.879 74.1692 215.697 74.351C215.528 74.5199 215.32 74.6043 215.074 74.6043H211.587V77.0781H215.853C216.1 77.0781 216.307 77.169 216.476 77.3508C216.658 77.5197 216.749 77.7274 216.749 77.9742ZM228.752 69.4033C228.154 69.1696 227.505 69.0527 226.804 69.0527C225.713 69.0527 224.804 69.4163 224.077 70.1435C223.35 70.8708 222.986 71.8837 222.986 73.1823C222.986 74.39 223.369 75.3769 224.135 76.1431C224.901 76.9223 225.895 77.3119 227.116 77.3119C227.843 77.3119 228.551 77.1366 229.239 76.7859C229.408 76.695 229.596 76.6496 229.804 76.6496C230.167 76.6496 230.434 76.8054 230.602 77.1171L231.07 77.8573C231.161 78.0001 231.206 78.1625 231.206 78.3443C231.206 78.6819 231.063 78.9546 230.778 79.1624C229.752 79.8766 228.434 80.2338 226.823 80.2338C224.694 80.2338 222.973 79.5844 221.661 78.2858C220.337 77.0002 219.675 75.299 219.675 73.1823C219.675 71.1305 220.298 69.4423 221.545 68.1177C222.791 66.7931 224.544 66.1308 226.804 66.1308C227.999 66.1308 229.102 66.3841 230.115 66.8905C230.427 67.0334 230.583 67.2866 230.583 67.6502C230.583 67.7671 230.55 67.9099 230.485 68.0787L230.057 68.9748C229.901 69.3254 229.622 69.5007 229.219 69.5007C229.102 69.5007 228.947 69.4683 228.752 69.4033ZM239.102 80H237.777C237.53 80 237.316 79.9156 237.134 79.7468C236.965 79.565 236.881 79.3507 236.881 79.104V69.2865H233.686C233.44 69.2865 233.225 69.202 233.043 69.0332C232.875 68.8514 232.79 68.6372 232.79 68.3904V67.2606C232.79 67.0139 232.875 66.8061 233.043 66.6373C233.225 66.4555 233.44 66.3646 233.686 66.3646H243.192C243.439 66.3646 243.647 66.4555 243.815 66.6373C243.997 66.8061 244.088 67.0139 244.088 67.2606V68.3904C244.088 68.6372 243.997 68.8514 243.815 69.0332C243.647 69.202 243.439 69.2865 243.192 69.2865H239.998V79.104C239.998 79.3507 239.907 79.565 239.725 79.7468C239.556 79.9156 239.348 80 239.102 80ZM255.71 69.676C255.71 71.0136 255.19 72.033 254.151 72.7343C254.736 72.968 255.203 73.3576 255.554 73.903C255.917 74.4355 256.099 75.0912 256.099 75.8704C256.099 77.2469 255.625 78.2923 254.677 79.0066C253.729 79.7208 252.476 80.0779 250.918 80.0779C249.801 80.0779 248.795 80.0584 247.898 80.0195C247.665 80.0065 247.457 79.9091 247.275 79.7273C247.093 79.5325 247.002 79.3182 247.002 79.0845V67.2996C247.002 67.0528 247.087 66.8386 247.256 66.6568C247.437 66.475 247.652 66.3776 247.898 66.3646C248.989 66.3126 250.067 66.2867 251.132 66.2867C252.638 66.2867 253.775 66.5918 254.541 67.2022C255.32 67.7995 255.71 68.6242 255.71 69.676ZM251.327 74.4874H250.119V77.0392C250.405 77.1171 250.755 77.156 251.171 77.156C252.379 77.156 252.983 76.6756 252.983 75.7146C252.983 74.8965 252.431 74.4874 251.327 74.4874ZM250.119 69.2865V71.7603H251.152C252.112 71.7603 252.593 71.3188 252.593 70.4357C252.593 70.0591 252.45 69.7605 252.164 69.5397C251.879 69.3189 251.522 69.2085 251.093 69.2085C250.859 69.2085 250.535 69.2345 250.119 69.2865ZM268.745 79.3572L267.868 77.1366H262.473L261.596 79.3572C261.414 79.7857 261.103 80 260.661 80H259.473C259.239 80 259.038 79.9156 258.869 79.7468C258.713 79.578 258.635 79.3832 258.635 79.1624C258.635 79.0455 258.655 78.9351 258.694 78.8312L263.602 67.0074C263.797 66.5789 264.115 66.3646 264.557 66.3646H265.979C266.42 66.3646 266.738 66.5789 266.933 67.0074L271.842 78.8312C271.881 78.9351 271.9 79.0455 271.9 79.1624C271.9 79.3832 271.816 79.578 271.647 79.7468C271.491 79.9156 271.297 80 271.063 80H269.68C269.225 80 268.914 79.7857 268.745 79.3572ZM266.7 74.2147L265.18 70.3578L263.641 74.2147H266.7Z" fill="#484A5D"/>
</svg>
