<svg width="231" height="70" viewBox="0 0 231 70" fill="none" xmlns="http://www.w3.org/2000/svg">
<path d="M76.7404 0.495354C75.9146 0.193518 75.0485 0.0526612 73.417 0.0124164C72.1883 -0.0278284 70.8388 0.0325388 70.3957 0.153273C69.9526 0.253885 69.0462 0.616089 68.3815 0.938047C67.7168 1.23988 66.7299 1.90392 66.1861 2.38686C65.2797 3.19176 65.179 3.232 64.7761 2.97041C64.5546 2.80943 63.8899 2.42711 63.3461 2.12527C62.7821 1.80331 61.7951 1.42099 61.1304 1.26001C60.4658 1.0789 59.3378 0.938047 58.6127 0.938047C57.8876 0.938047 56.9007 1.03866 56.3971 1.13927C55.8936 1.26001 55.0275 1.54172 54.4836 1.78319C53.9197 2.00453 53.1946 2.38686 52.8723 2.62833C52.55 2.84968 51.9256 3.35274 51.4825 3.75518C51.0595 4.13751 50.3546 4.98265 49.9316 5.62657L49.1461 6.77355C48.6022 5.78755 48.0181 5.00277 47.5146 4.37898C47.011 3.75518 46.1651 2.97041 45.6011 2.60821C45.0573 2.26613 44.1106 1.76307 43.5063 1.5216C42.5395 1.11915 42.0561 1.05878 39.6794 1.03866H36.9603C34.2008 2.36674 33.3951 2.93017 32.5089 3.81555C31.6428 4.72106 30.9983 5.64669 30.253 7.13575C29.6689 8.2626 29.1452 9.18824 29.0445 9.18824C28.9639 9.18824 28.823 8.90652 28.7424 8.54432C28.6618 8.18211 28.259 7.19612 27.8561 6.3711C27.3727 5.34485 26.7282 4.45947 25.9024 3.63445C25.2176 2.95029 24.1903 2.16551 23.6062 1.86368C23.0423 1.58196 22.0352 1.19964 21.3906 1.03866C20.7662 0.87768 19.6786 0.736823 18.9736 0.736823C18.2888 0.736823 16.476 0.87768 14.9452 1.03866C13.4346 1.19964 11.501 1.44111 10.6752 1.56184C9.84935 1.66245 8.6207 1.86368 7.95602 1.98441C7.29134 2.08502 6.20368 2.44723 5.539 2.76919C4.87432 3.07102 3.96794 3.63445 3.54496 3.99665C3.10184 4.35886 2.41702 5.12351 2.01418 5.66681C1.5912 6.23024 1.1078 7.03514 0.906382 7.47783C0.725106 7.92052 0.44312 8.74554 0.281986 9.28885C0.120851 9.85227 0 11.0194 0 11.9048C0 12.7901 0.140993 14.6414 0.302127 16.0299C0.463262 17.4183 0.845957 20.5373 1.12794 22.9721C1.40993 25.4069 1.81276 28.9484 2.01418 30.8198C2.25588 32.8723 2.57815 34.7638 2.86014 35.5486C3.10184 36.273 3.62553 37.3194 4.00822 37.9029C4.41106 38.4865 5.17645 39.3517 5.74042 39.8145C6.28425 40.2975 7.29134 40.9414 7.95602 41.2634C8.6207 41.5853 9.92992 41.9878 10.8766 42.1487C12.4476 42.4305 12.7296 42.4305 14.3007 42.1085C15.2474 41.9274 16.5969 41.4847 17.3018 41.1225C18.0068 40.7603 19.0542 40.0359 19.6181 39.4725C20.1821 38.9292 20.8468 38.2047 21.0684 37.8627L21.4913 37.259C23.3242 38.909 24.4925 39.7139 25.278 40.0761C26.0635 40.4585 27.3123 40.8609 28.0979 40.9816C29.0848 41.1225 29.971 41.1426 31.0184 41.0018C31.8644 40.881 33.1333 40.5188 33.8786 40.1767C34.7648 39.7944 35.6913 39.1505 36.497 38.3657C37.4034 37.5206 37.9271 37.1785 38.3098 37.1584C38.7327 37.1584 39.0349 37.3596 39.5183 38.0035C39.8808 38.4663 40.5052 39.1505 40.8879 39.5127C41.2706 39.8749 42.177 40.4786 42.9021 40.8609C43.6272 41.2231 44.6947 41.6457 45.2587 41.7664C45.8428 41.8871 46.8902 41.9878 47.575 41.9878C48.28 41.9878 49.428 41.8469 50.1532 41.6658C50.8783 41.5048 52.0465 41.042 52.7716 40.6396L54.0808 39.9353C56.4173 41.042 57.6862 41.4646 58.4113 41.5853C59.1968 41.7262 60.3248 41.7664 61.2312 41.6859C62.057 41.6054 63.3259 41.3237 64.051 41.042C64.7761 40.7804 65.6422 40.3578 65.9645 40.1365C66.2868 39.895 66.9313 39.3517 67.3744 38.9292L68.1801 38.1444C70.0533 39.2712 71.0402 39.7341 71.6042 39.9152C72.148 40.0761 73.4371 40.2774 74.4241 40.3377C75.7937 40.4182 76.5792 40.3377 77.6467 40.0761C78.4323 39.8749 79.4192 39.5328 79.8624 39.3115C80.3055 39.0901 81.0104 38.6474 81.4133 38.3456L82.1787 37.7621C83.6692 39.1103 84.6561 39.7944 85.3409 40.1365C86.1063 40.5188 87.2745 40.9012 88.2615 41.0621C89.3492 41.2432 90.3562 41.2835 91.1418 41.1829C91.8064 41.1024 92.8538 40.9012 93.4581 40.7201C94.0623 40.5389 95.1299 40.0359 95.8147 39.5932L97.0836 38.7682C99.0374 40.1164 100.185 40.6999 100.911 40.9615C101.636 41.203 102.844 41.4646 103.63 41.5249C104.597 41.6054 105.442 41.5249 106.349 41.3036C107.074 41.1225 108.242 40.6798 108.947 40.3176C109.652 39.9755 110.72 39.1907 111.304 38.6273C111.968 37.9633 112.573 37.5608 112.835 37.5608C113.143 37.5742 113.741 38.0639 114.627 39.0298C115.473 39.9554 116.379 40.6999 117.145 41.1225C117.789 41.4646 118.837 41.8871 119.441 42.0683C120.045 42.2494 121.254 42.3902 122.1 42.3902C122.966 42.3902 124.195 42.2494 124.819 42.0683C125.463 41.8871 126.491 41.4847 127.095 41.1627L128.203 40.5993C130.7 41.8469 132.01 42.2896 132.735 42.4103C133.701 42.5914 134.789 42.5914 136.964 42.4103C138.576 42.2896 142.101 41.9878 144.82 41.7865C147.539 41.5652 150.298 41.2231 150.963 41.042C151.628 40.8609 152.615 40.4987 153.179 40.2371L154.186 39.7542C155.273 40.4987 155.918 40.9213 156.301 41.1426C156.683 41.3841 157.771 41.7664 158.718 42.0079C160.027 42.3298 160.752 42.4103 161.84 42.3097C162.624 42.2494 166.098 41.9685 169.577 41.6873L169.594 41.6859C173.079 41.4042 176.382 41.0823 176.946 40.9615C177.49 40.8408 178.396 40.5389 178.96 40.3176C179.504 40.0761 180.41 39.5932 180.974 39.231C181.518 38.8688 182.022 38.567 182.082 38.567C182.143 38.567 182.646 38.9895 183.21 39.5127C183.774 40.056 184.68 40.7201 185.224 41.0219C185.768 41.3237 186.936 41.7463 187.823 41.9878C188.709 42.2091 189.837 42.3902 190.34 42.3902C190.844 42.3902 191.972 42.2091 192.858 41.9878C193.744 41.7664 194.953 41.3036 195.517 40.9816L196.584 40.378C197.914 41.203 198.941 41.6658 199.706 41.9274C200.754 42.2695 201.559 42.3902 202.828 42.3902C204.097 42.3902 204.903 42.2695 205.95 41.9274C206.716 41.6658 207.622 41.2835 207.964 41.0823C208.307 40.881 209.072 40.2774 209.676 39.7542C210.623 38.9493 210.865 38.8285 211.368 38.9493C211.751 39.0298 212.154 39.3517 212.496 39.8749C212.798 40.3176 213.483 41.0823 214.027 41.5652C214.571 42.028 215.417 42.6317 215.92 42.8933C216.424 43.1347 217.33 43.4969 217.935 43.678C218.559 43.8591 219.747 44 220.654 44C221.54 44 222.809 43.8591 223.474 43.678C224.138 43.4969 225.045 43.175 225.488 42.9536C225.931 42.7122 226.656 42.2494 227.099 41.9073C227.562 41.5652 228.247 40.9213 228.65 40.4786C229.033 40.0359 229.597 39.231 229.879 38.6676C230.181 38.1243 230.564 37.0779 230.745 36.3535C230.986 35.4077 231.047 34.5626 230.966 33.3351C230.866 31.8058 230.564 30.7393 227.905 22.9721C226.273 18.2031 224.541 13.092 224.058 11.6029C223.554 10.1139 222.849 8.34309 222.507 7.69918C222.144 7.05526 221.459 6.12963 220.956 5.64669C220.452 5.16375 219.828 4.60033 219.546 4.3991C219.264 4.17775 218.539 3.77531 217.935 3.49359C217.33 3.232 216.102 2.88992 215.215 2.74906C214.289 2.60821 213.101 2.56796 212.396 2.64845C211.731 2.72894 210.603 3.01066 209.878 3.29237C209.153 3.59421 208.206 4.05702 207.763 4.35886C207.32 4.66069 206.534 5.3851 206.031 5.98877C205.507 6.59244 203.896 9.20836 202.446 11.8041C200.975 14.3999 199.686 16.6134 199.585 16.7341C199.465 16.8549 199.404 16.7543 199.404 16.4323C199.404 16.1506 199.263 14.6615 199.102 13.1121C198.961 11.5627 198.719 9.85227 198.598 9.28885C198.478 8.74554 198.055 7.69918 197.692 6.97477C197.309 6.25036 196.524 5.16375 195.92 4.56008C195.335 3.95641 194.308 3.17163 193.664 2.80943C192.999 2.46735 191.992 2.0649 191.448 1.94417C190.884 1.82343 189.676 1.72282 188.729 1.72282C187.722 1.72282 186.574 1.86368 185.909 2.0649C185.305 2.246 184.398 2.58808 183.895 2.84968C183.391 3.09114 182.686 3.53384 182.324 3.83567L181.679 4.35886C180.028 2.8698 179.061 2.16551 178.457 1.82343C177.852 1.46123 176.765 1.01854 176.04 0.837435C175.012 0.555721 174.247 0.515477 172.515 0.595966C171.306 0.656334 168.345 0.857558 165.969 1.03866C163.592 1.21976 160.551 1.48135 159.221 1.62221C157.328 1.84356 156.462 2.04478 155.233 2.56796C153.924 3.13139 153.581 3.21188 153.32 3.01066C153.118 2.8698 152.514 2.48747 151.97 2.14539C151.406 1.80331 150.459 1.38074 149.855 1.17952C149.05 0.938047 148.143 0.837435 146.431 0.87768C145.162 0.87768 142.403 1.03866 140.288 1.21976C138.173 1.40086 135.232 1.64233 133.742 1.76307C132.251 1.86368 130.559 2.10515 130.016 2.28625C129.452 2.46735 128.606 2.80943 128.102 3.0509C127.598 3.31249 126.712 3.91616 126.108 4.37898C125.504 4.86192 124.758 5.64669 124.436 6.12963C124.134 6.59244 123.772 6.97477 123.671 6.97477C123.57 6.97477 123.248 6.57232 122.966 6.06926C122.684 5.5662 122.039 4.74118 121.496 4.218C120.972 3.67469 120.045 2.97041 119.441 2.62833C118.837 2.26613 117.83 1.84356 117.225 1.68258C116.621 1.50147 115.614 1.30025 115.01 1.23988C114.305 1.15939 113.358 1.21976 112.391 1.42099C111.566 1.60209 110.297 2.02466 109.572 2.38686C108.806 2.76919 107.779 3.51372 107.094 4.19788L105.946 5.36498C103.972 3.4131 102.905 2.60821 102.3 2.30637C101.696 2.00453 100.629 1.62221 99.9035 1.46123C99.1784 1.30025 96.0161 0.917925 92.8538 0.616089C89.3492 0.29413 86.5293 0.133151 85.6028 0.193518C84.777 0.253885 83.5886 0.495354 82.9843 0.736823C82.3801 0.978292 81.4536 1.44111 80.9299 1.76307L79.9631 2.34662C78.3316 1.23988 77.3446 0.736823 76.7404 0.495354Z" fill="white" fill-opacity="0.4"/>
<path d="M75.9029 2.41695C75.015 2.11913 74.1473 2 72.8963 2H72.8761C71.625 2.01985 70.7775 2.13898 69.9098 2.4368C69.2439 2.65521 68.3359 3.09201 67.892 3.40969C67.448 3.70751 66.8629 4.16416 66.5804 4.42228C66.2979 4.68039 65.9145 5.11719 65.7127 5.3753C65.4504 5.73269 65.2889 5.81211 65.0872 5.67312C64.9459 5.57385 64.3809 5.13705 63.8361 4.73995C63.2913 4.323 62.3429 3.78692 61.7375 3.54867C60.8295 3.19128 60.2443 3.11186 58.5089 3.11186C56.8139 3.11186 56.1682 3.19128 55.2804 3.52881C54.675 3.76707 53.6257 4.36271 52.9598 4.83923C52.2939 5.31574 51.4061 6.2092 50.9823 6.78499C50.5788 7.38063 50.0138 8.49249 49.7313 9.24697C49.4689 10.0015 49.1461 10.6567 49.025 10.6964C48.9241 10.7162 48.682 10.3191 48.5004 9.80291C48.3188 9.26683 47.9152 8.3138 47.5923 7.6586C47.2896 7.00339 46.6036 6.03051 46.0588 5.51429C45.5139 4.97821 44.4646 4.24358 43.6777 3.86634C42.8504 3.4891 41.7204 3.11186 40.9536 3.01259C40.207 2.91332 39.1173 2.89346 38.4313 2.99274C37.7654 3.07215 36.6757 3.35012 36.0098 3.60823C35.0614 3.94576 34.4763 4.36271 33.3866 5.45472C32.1759 6.66586 31.7521 7.30121 30.3195 10.0412C28.8868 12.8208 28.6043 13.2179 28.1604 13.2775C27.6357 13.3172 27.6357 13.2973 27.6357 11.9869C27.6357 11.1729 27.4743 10.0809 27.212 9.24697C26.9698 8.49249 26.5864 7.53947 26.3443 7.14237C26.1223 6.74528 25.6986 6.16949 25.4161 5.85182C25.1336 5.53414 24.508 4.95835 24.0036 4.56126C23.4991 4.16416 22.6314 3.62809 22.0866 3.38983C21.3602 3.0523 20.5732 2.91332 19.2616 2.85375C17.9904 2.79419 16.0129 2.93317 12.6027 3.36998C9.93911 3.68765 7.39661 4.08475 6.95268 4.24358C6.50875 4.40242 5.82268 4.68039 5.43929 4.87893C5.05589 5.07748 4.28911 5.65327 3.74429 6.14964C3.21964 6.646 2.55375 7.42034 2.29143 7.85714C2.02911 8.29395 1.64571 9.18741 1.40357 9.84262C1.10089 10.7162 1 11.5303 1 12.8208C1 13.8136 1.10089 15.2431 1.22196 15.9976C1.32286 16.7521 1.58518 18.9162 1.80714 20.7627C2.00893 22.6092 2.43268 26.1831 2.71518 28.7046C2.99768 31.2262 3.36089 33.847 3.52232 34.5617C3.66357 35.2765 4.00661 36.2494 4.28911 36.7458C4.57161 37.2421 5.2375 38.1157 5.78232 38.7114C6.44822 39.446 7.215 39.9821 8.24411 40.4983C9.73732 41.2131 9.77768 41.2131 12.2798 41.2131C14.7013 41.2131 14.8829 41.1932 16.1339 40.5976C16.8604 40.26 17.9702 39.5056 18.6361 38.9099C19.4634 38.1554 19.988 37.4407 20.4521 36.4877C20.7952 35.753 21.118 35.1574 21.1786 35.1574C21.2391 35.1574 21.4005 35.3758 21.5216 35.6538C21.6629 35.9317 22.2077 36.6068 22.7323 37.1627C23.2771 37.7186 24.0641 38.4334 24.508 38.7114C24.952 39.0092 25.8196 39.446 26.425 39.6843C27.0304 39.9027 28.0393 40.1608 28.6446 40.2203C29.25 40.2998 30.3396 40.2402 31.0661 40.1211C31.7925 40.0019 32.9225 39.6048 33.5884 39.2673C34.2543 38.9298 35.3238 38.1157 35.9695 37.5002C37.0389 36.4678 37.2407 36.3487 37.9873 36.3487C38.4514 36.3487 39.0366 36.4281 39.2989 36.5075C39.5613 36.5869 39.8034 36.8053 39.8438 37.0039C39.9043 37.1826 40.4693 37.8576 41.0948 38.493C41.8414 39.2475 42.7696 39.9027 43.6777 40.3395C45.0296 40.9748 45.1709 40.9947 47.4107 40.9947C49.4689 40.9947 49.8725 40.9351 51.0429 40.4387C51.7693 40.1409 52.6975 39.6446 53.1011 39.307C53.5248 38.9893 53.9082 38.7312 53.9688 38.7312C54.0293 38.7312 54.5539 39.0291 55.1189 39.3864C55.7041 39.7637 56.6323 40.2203 57.1973 40.399C57.7421 40.5777 58.7511 40.7961 59.417 40.8557C60.2241 40.9351 61.1523 40.8557 62.1411 40.6373C62.9684 40.4586 64.0984 40.0615 64.6634 39.7438C65.2082 39.446 65.9952 38.8901 66.3786 38.5128C66.7822 38.1356 67.2866 37.5797 67.5288 37.2421L67.9525 36.6465C69.1632 37.6988 70.1923 38.3143 71.0197 38.7114C72.3111 39.2872 72.8155 39.4063 74.3491 39.4857C75.9029 39.5651 76.4073 39.5056 77.9207 39.0688C79.4745 38.5923 79.8579 38.3937 80.8466 37.4407C81.4923 36.845 82.0977 36.3685 82.2188 36.3487C82.3398 36.3487 82.5618 36.5671 82.7232 36.8649C82.8847 37.1627 83.4295 37.7584 83.9339 38.1952C84.4384 38.632 85.4272 39.2475 86.1536 39.585C87.4047 40.1608 87.6064 40.2005 89.9875 40.2203C92.3888 40.2203 92.5704 40.2005 93.8214 39.6247C94.5479 39.2872 95.577 38.6121 96.1016 38.1356L97.0702 37.2421C98.5432 38.6717 99.5118 39.3666 100.178 39.7041C100.844 40.0218 102.014 40.399 102.801 40.538C103.891 40.7167 104.536 40.7167 105.626 40.5182C106.413 40.399 107.543 40.0416 108.148 39.7637C108.754 39.4659 109.843 38.6717 110.57 37.9768C111.881 36.7259 111.881 36.7259 113.031 36.7458C114.141 36.7458 114.222 36.7855 114.565 37.3811C114.767 37.7385 115.251 38.3738 115.634 38.8107C116.018 39.2276 116.825 39.863 117.43 40.2402C118.036 40.5976 119.125 41.0344 119.852 41.2329C120.78 41.4712 121.607 41.5308 122.677 41.4513C123.504 41.3918 124.634 41.2131 125.199 41.0344C125.744 40.8755 126.652 40.4387 127.217 40.0615L128.226 39.3864C130.103 40.5777 131.152 41.0741 131.757 41.2528C132.484 41.4712 133.533 41.5903 134.784 41.5903C135.833 41.5903 139.143 41.3918 142.149 41.1337C145.156 40.8954 148.283 40.6174 149.111 40.4983C149.938 40.399 150.907 40.2203 151.229 40.1211C151.552 40.0218 152.158 39.7637 152.541 39.5651C152.924 39.3666 153.489 39.0688 153.792 38.8702C154.357 38.5327 154.357 38.5327 155.164 39.2276C155.608 39.6048 156.415 40.1409 156.98 40.4189C157.525 40.6969 158.595 41.0542 159.341 41.2131C160.572 41.4712 161.218 41.4513 165.657 41.1138C168.381 40.8954 172.054 40.5976 173.829 40.4387C176.654 40.2005 177.26 40.0814 178.672 39.5056C179.762 39.0489 180.63 38.5128 181.376 37.8378L182.466 36.845C182.97 37.6194 183.515 38.2746 184.02 38.7908C184.585 39.3864 185.473 40.0218 186.34 40.4387C187.268 40.8954 188.237 41.1734 189.165 41.2925C189.993 41.3918 191.163 41.3719 191.99 41.2726C192.818 41.1535 193.867 40.8358 194.513 40.5182C195.118 40.2005 195.885 39.7637 196.228 39.5453L196.833 39.168C197.923 40.0416 198.79 40.538 199.456 40.8358C200.324 41.2329 201.111 41.3918 202.281 41.4712C203.25 41.5308 204.339 41.4712 205.005 41.3123C205.611 41.1734 206.559 40.8358 207.124 40.5579C207.669 40.2799 208.638 39.585 209.243 38.9893L210.353 37.937C212.754 38.1753 212.774 38.1952 213.4 39.2077C213.743 39.7637 214.429 40.5579 214.913 40.955C215.397 41.3521 216.447 41.9676 217.213 42.3448C218.565 42.9603 218.727 43 220.946 43C223.206 43 223.307 42.9801 224.78 42.2852C225.608 41.8881 226.738 41.1734 227.283 40.6968C227.807 40.2203 228.513 39.3666 228.836 38.8305C229.139 38.2746 229.543 37.262 229.744 36.5472C229.986 35.6339 230.047 34.8199 229.966 33.7676C229.865 32.5366 229.3 30.6901 226.596 22.8475C224.801 17.6654 223.065 12.6024 222.722 11.6295C222.379 10.6368 221.955 9.52494 221.754 9.1477C221.552 8.77046 220.987 7.99613 220.503 7.46005C219.998 6.90412 219.07 6.18935 218.404 5.83196C217.758 5.49443 216.669 5.05763 216.003 4.89879C215.337 4.7201 214.328 4.58111 213.783 4.58111C213.218 4.58111 212.229 4.7201 211.563 4.89879C210.898 5.05763 209.949 5.41501 209.445 5.69298C208.94 5.95109 208.133 6.54673 207.629 7.02324C207.084 7.53947 206.075 8.94915 205.086 10.6368C204.178 12.1656 202.523 15.0644 201.373 17.0896C200.223 19.1148 199.174 20.9017 199.033 21.0605C198.811 21.3186 198.75 21.2988 198.669 20.862C198.629 20.584 198.427 18.539 198.246 16.2954C198.064 14.0518 197.822 11.6891 197.721 11.0339C197.6 10.3787 197.216 9.26683 196.894 8.55206C196.51 7.73801 195.865 6.84455 195.158 6.12978C194.432 5.43487 193.544 4.81937 192.797 4.48184C192.131 4.20387 190.961 3.8862 190.174 3.78692C189.387 3.68765 188.257 3.68765 187.652 3.78692C187.046 3.8862 186.179 4.08475 185.735 4.24358C185.291 4.38257 184.524 4.75981 184.02 5.03777C183.515 5.31574 182.789 5.87167 182.405 6.26876C182.022 6.646 181.578 6.96368 181.437 6.96368C181.316 6.96368 181.154 6.80484 181.094 6.6063C181.053 6.4276 180.488 5.7724 179.843 5.1569C179.157 4.50169 178.128 3.76707 177.361 3.40969C176.433 2.97288 175.625 2.75448 174.616 2.67506C173.829 2.6155 171.368 2.69492 169.168 2.87361C166.949 3.03245 163.458 3.31041 161.359 3.4891C158.574 3.70751 157.303 3.8862 156.516 4.20387C155.951 4.42228 155.043 4.85908 154.539 5.13705L153.611 5.67312C152.238 4.50169 151.351 3.94576 150.765 3.6678C150.2 3.40969 149.232 3.09201 148.647 2.97288C147.981 2.8339 146.81 2.79419 145.479 2.87361C144.308 2.95303 142.553 3.09201 141.544 3.19128C140.535 3.31041 137.811 3.52881 135.49 3.68765C132.383 3.90605 130.93 4.08475 130.042 4.38257C129.376 4.62082 128.428 5.05763 127.923 5.3753C127.419 5.67312 126.591 6.36804 126.087 6.90412C125.583 7.42034 124.977 8.21453 124.755 8.65133C124.513 9.08814 124.231 9.82276 124.109 10.2794C123.988 10.7559 123.827 11.1332 123.726 11.1332C123.645 11.153 123.363 10.5772 123.101 9.90218C122.838 9.20726 122.374 8.19467 122.051 7.6586C121.749 7.10266 121.042 6.24891 120.477 5.71283C119.912 5.19661 118.843 4.48184 118.076 4.12446C116.785 3.50896 116.623 3.4891 114.303 3.4891C111.942 3.4891 111.841 3.50896 110.368 4.20387C109.52 4.62082 108.471 5.31574 107.987 5.79225C107.503 6.26876 106.837 7.08281 106.514 7.59903L105.929 8.55206C104.738 6.78499 103.951 5.89153 103.447 5.41501C102.922 4.95835 102.135 4.40242 101.691 4.18402C101.247 3.96562 100.319 3.64794 99.6127 3.4891C98.9266 3.33027 96.263 3.01259 93.7206 2.77433C91.178 2.53608 88.2522 2.29782 87.2634 2.23826C85.75 2.15884 85.185 2.2184 83.9339 2.59564C83.0057 2.85375 81.9363 3.36998 81.1493 3.90605C80.0597 4.68039 79.8579 4.73995 79.4947 4.52155C79.2727 4.40242 79.0911 4.22373 79.0911 4.12446C79.0911 4.04504 78.6673 3.72736 78.1225 3.40969C77.5979 3.09201 76.6091 2.63535 75.9029 2.41695Z" fill="white"/>
<path d="M74.0711 6.18267C73.6484 6.08262 72.9035 5.98256 72.4002 6.00258C71.8969 6.00258 71.1319 6.14265 70.689 6.30273C70.2461 6.46282 69.5817 6.88304 69.2193 7.24323C68.857 7.60342 68.4141 8.24376 68.253 8.68399C68.0718 9.12422 67.9309 9.88463 67.9108 10.3849C67.8906 10.8852 67.951 12.446 68.0517 13.8867C68.2329 16.228 68.2127 16.4681 67.9309 16.288C67.7497 16.1679 66.3002 14.467 64.7098 12.486C63.1194 10.505 61.4887 8.62396 61.086 8.28378C60.6834 7.9436 60.0191 7.5634 59.5963 7.44334C59.1534 7.30326 58.4488 7.1832 58.0059 7.1832C57.563 7.1832 56.8382 7.28325 56.3953 7.42333C55.9121 7.54339 55.2277 8.00363 54.664 8.56393C53.9996 9.24429 53.6775 9.74455 53.4963 10.4849C53.295 11.3054 53.3151 12.2259 53.5567 15.3875C53.7379 17.5287 54.1003 22.2111 54.3821 25.793C54.6438 29.3749 54.9861 32.6967 55.127 33.1969C55.2679 33.6772 55.6706 34.4576 56.0128 34.8978C56.355 35.3381 57.0395 35.8984 57.5227 36.1385C58.1669 36.4787 58.7709 36.5987 59.7775 36.5987C60.7035 36.5987 61.3679 36.4787 61.8712 36.2185C62.294 36.0184 62.9382 35.5182 63.2804 35.118C63.6428 34.7177 64.0857 33.9173 64.2468 33.357C64.5286 32.4565 64.5286 31.8762 64.3474 29.495C64.2266 27.9542 64.2065 26.6135 64.287 26.5334C64.3675 26.4334 65.4345 27.554 66.6626 29.0147C67.8906 30.4755 69.3804 32.2564 70.0045 32.9768C70.7292 33.8373 71.4741 34.4576 72.1183 34.7778C72.6619 35.0379 73.5477 35.298 74.1114 35.3581C74.6549 35.3981 75.5005 35.3381 75.9635 35.218C76.4467 35.0979 77.1916 34.6777 77.6546 34.2575C78.2586 33.6972 78.5605 33.1969 78.782 32.3965C79.0034 31.5961 79.0638 30.8957 78.9632 29.8952C78.8826 29.1348 78.6411 26.2933 78.4397 23.5919C78.2183 20.8904 77.9968 18.3291 77.9364 17.8889C77.8761 17.4486 77.6949 15.3675 77.5338 13.2864C77.3124 10.565 77.111 9.2643 76.8493 8.68399C76.648 8.24376 76.1044 7.54339 75.6615 7.14318C75.1985 6.72296 74.4738 6.30273 74.0711 6.18267Z" fill="#1E57AC"/>
<path d="M88.2037 6.38278C87.2173 6.28272 86.1704 6.20268 85.8885 6.20268C85.6067 6.20268 85.1638 6.28272 84.882 6.36277C84.6001 6.44281 84.0163 6.70295 83.5734 6.92306C83.1305 7.14318 82.5265 7.68346 82.2245 8.10369C81.9427 8.54392 81.5803 9.28431 81.4595 9.78457C81.3186 10.3048 81.2783 11.0652 81.3589 11.5855C81.4394 12.0858 81.681 12.8262 81.8823 13.2464C82.0836 13.6466 82.5064 14.2269 82.8285 14.5071C83.1305 14.7872 83.6539 15.1474 83.976 15.3275C84.2981 15.4876 84.9424 15.6877 85.3853 15.7677L86.1905 15.9078C86.0899 17.5887 85.8886 19.9299 85.6671 22.1911C85.4658 24.4523 85.1839 27.654 85.043 29.2949C84.8216 32.1164 84.8216 32.3565 85.1839 33.297C85.4054 33.8573 85.8483 34.5577 86.1905 34.8778C86.5126 35.198 87.0763 35.5782 87.3984 35.7583C87.7206 35.9184 88.5057 36.0985 89.1097 36.1585C89.8344 36.2185 90.5793 36.1385 91.2839 35.9184C92.0892 35.6782 92.5119 35.3781 93.136 34.6577C93.5588 34.1174 94.0218 33.337 94.1225 32.8968C94.2433 32.4565 94.5251 30.1553 94.7466 27.7941C94.968 25.4328 95.2901 22.1511 95.4512 20.4902C95.6123 18.8494 95.7532 17.3286 95.7532 17.1485C95.7532 16.8483 95.9545 16.7883 97.0014 16.7883C98.0684 16.7883 98.4307 16.6882 99.3769 16.1479C100.243 15.6277 100.585 15.2475 101.028 14.387C101.491 13.4865 101.612 13.0263 101.591 11.9457C101.591 11.0052 101.471 10.3449 101.209 9.8446C100.987 9.42438 100.565 8.84408 100.243 8.56393C99.9406 8.26377 99.3769 7.88357 99.0146 7.70347C98.5918 7.50337 96.9208 7.24323 94.203 6.98309C91.8879 6.76298 89.1902 6.50284 88.2037 6.38278Z" fill="#1E57AC"/>
<path d="M174.328 6.88304C173.784 6.72296 173.08 6.60289 172.758 6.6229C172.436 6.6229 170.704 6.76298 168.933 6.90305C167.161 7.04313 164 7.30326 161.886 7.48336C159.773 7.66345 157.739 7.90358 157.357 8.02364C156.974 8.14371 156.25 8.56393 155.766 8.96414C155.263 9.36435 154.699 10.0447 154.498 10.4849C154.317 10.9252 154.136 11.7456 154.136 12.2859C154.136 12.8462 154.257 13.6466 154.397 14.0868C154.538 14.5271 155.042 15.2675 155.545 15.7877C156.129 16.348 156.793 16.7883 157.357 16.9684C158.021 17.1685 158.987 17.2085 161.041 17.1084C162.833 17.0284 163.799 17.0684 163.799 17.1885C163.799 17.3085 163.557 17.8088 163.255 18.3491C162.953 18.8694 161.363 21.5908 159.712 24.3923C158.041 27.1938 156.491 29.9552 156.229 30.4955C155.927 31.0958 155.746 31.8762 155.746 32.4565C155.746 33.0168 155.927 33.8173 156.209 34.4576C156.491 35.0579 157.015 35.7783 157.478 36.1385C157.981 36.5587 158.665 36.8789 159.37 37.039C160.256 37.2191 161.343 37.1991 164.906 36.9189C167.342 36.7388 170.745 36.4587 172.456 36.2986C174.167 36.1385 175.898 35.8784 176.281 35.7383C176.663 35.5782 177.287 35.178 177.67 34.8778C178.032 34.5577 178.536 33.9373 178.757 33.4971C179.039 32.9568 179.18 32.3165 179.18 31.496C179.2 30.8357 179.059 29.9752 178.898 29.595C178.757 29.2148 178.435 28.6345 178.213 28.3344C177.972 28.0142 177.388 27.5139 176.885 27.2338C176.019 26.7135 175.858 26.6935 173.563 26.7335C172.234 26.7535 170.845 26.8136 170.503 26.8736C170.06 26.9536 169.798 26.9136 169.718 26.7535C169.657 26.6135 171.369 23.4718 173.482 19.7899C175.616 16.1079 177.428 12.7661 177.529 12.3859C177.61 12.0057 177.63 11.2854 177.569 10.7851C177.489 10.2848 177.227 9.48441 176.965 8.98415C176.704 8.48389 176.22 7.88357 175.878 7.64344C175.556 7.3833 174.851 7.04313 174.328 6.88304Z" fill="#1E57AC"/>
<path d="M19.7552 7.06314C19.2117 6.90305 18.5272 6.78299 18.2454 6.803C17.9635 6.82301 16.6952 6.94307 15.4269 7.08315C14.1586 7.24323 11.9843 7.50337 10.5952 7.68346C9.20613 7.86356 7.75663 8.18373 7.37413 8.38383C6.99162 8.56393 6.36753 9.0842 6.02529 9.50442C5.60252 10.0047 5.28041 10.685 5.11935 11.3854C4.91803 12.3059 4.9583 13.1063 5.3408 16.4881C5.60252 18.6893 5.96489 21.931 6.16621 23.6919C6.38766 25.4528 6.72991 28.4344 6.95136 30.2954C7.17281 32.1564 7.45465 33.9773 7.57545 34.2975C7.69624 34.6377 8.01835 35.198 8.30019 35.5582C8.56191 35.8984 9.16587 36.3986 9.64903 36.6187C10.1121 36.8589 10.9979 37.099 11.6018 37.159C12.3266 37.2191 13.0715 37.139 13.7761 36.9189C14.5411 36.6788 15.0243 36.3586 15.5879 35.7183C15.9906 35.238 16.4536 34.4376 16.5945 33.9173C16.7959 33.1569 16.7757 32.4565 16.4939 29.8151C16.2926 28.0542 16.1718 26.5734 16.2322 26.4934C16.2926 26.4334 17.3193 26.2533 18.5473 26.0932C19.7754 25.9531 20.9833 25.733 21.2651 25.6329C21.547 25.5329 22.0704 25.1927 22.4529 24.8725C22.8354 24.5524 23.3186 23.932 23.4998 23.4918C23.7011 23.0516 23.8823 22.2912 23.8823 21.7909C23.8823 21.2906 23.7816 20.5703 23.681 20.1901C23.5602 19.8099 23.2179 19.1495 22.916 18.7293C22.614 18.3091 22.01 17.7888 21.5671 17.5687C21.1242 17.3686 20.3592 17.1685 19.8559 17.1485C19.3526 17.1285 18.0642 17.1685 16.9972 17.2485C15.3061 17.3686 15.0243 17.3486 15.0243 17.0884C15.0243 16.9283 15.0846 16.7883 15.1853 16.7883C15.2658 16.7883 16.4134 16.6282 17.7421 16.4281C19.6345 16.1279 20.3391 15.9478 20.9632 15.5076C21.4061 15.2274 22.01 14.5871 22.3321 14.1269C22.6341 13.6666 22.8958 12.9663 22.916 12.5861C22.9361 12.2059 22.916 11.5255 22.8958 11.0853C22.8757 10.645 22.6744 9.92465 22.4932 9.48441C22.2919 9.04418 21.8288 8.38383 21.4463 8.02364C21.0638 7.64344 20.3189 7.24323 19.7552 7.06314Z" fill="#1E57AC"/>
<path d="M148.197 7.28325C147.875 7.14318 147.311 7.0031 146.989 6.96308C146.667 6.90305 145.982 6.90305 145.479 6.92306C144.976 6.96308 142.902 7.12317 140.849 7.28325C138.795 7.46335 135.856 7.68346 134.306 7.80353C132.756 7.90358 131.125 8.1237 130.682 8.28378C130.239 8.44386 129.514 8.86409 129.092 9.22428C128.669 9.58447 128.145 10.2248 127.944 10.645C127.682 11.1253 127.562 11.8056 127.562 12.6461C127.562 13.4265 127.703 14.1869 127.944 14.6872C128.145 15.1274 128.568 15.7477 128.89 16.0679C129.212 16.3881 129.877 16.8283 130.38 17.0484C130.883 17.2685 131.729 17.4686 132.293 17.4686C132.836 17.4686 134.185 17.3886 135.272 17.2885C136.963 17.1084 137.225 17.1285 137.225 17.3886C137.225 17.5487 136.339 19.1695 135.272 20.9905C134.205 22.8115 132.554 25.5929 131.628 27.1938C130.682 28.7946 129.756 30.4555 129.555 30.8957C129.353 31.336 129.172 32.0964 129.172 32.5966C129.172 33.0969 129.273 33.8173 129.394 34.1975C129.535 34.5777 129.877 35.238 130.159 35.6382C130.44 36.0384 131.004 36.5587 131.387 36.7588C131.769 36.9789 132.454 37.2591 132.897 37.3791C133.44 37.5192 134.366 37.5192 135.816 37.3992C136.983 37.2791 140.245 37.019 143.063 36.7988C145.882 36.5787 148.7 36.2385 149.304 36.0785C150.129 35.8383 150.653 35.5182 151.337 34.8378C152.042 34.1174 152.304 33.6572 152.465 32.8968C152.606 32.2965 152.626 31.496 152.525 30.8957C152.445 30.3554 152.243 29.6351 152.062 29.2949C151.901 28.9547 151.498 28.4544 151.176 28.1743C150.874 27.8741 150.331 27.5139 150.009 27.3338C149.687 27.1738 149.123 26.9736 148.801 26.9136C148.479 26.8336 147.09 26.8736 145.741 26.9937C144.372 27.0937 143.164 27.1537 143.063 27.0937C142.942 27.0337 143.043 26.6935 143.285 26.2533C143.526 25.833 144.533 24.0921 145.519 22.3912C146.506 20.6903 148.136 17.8889 149.123 16.188L150.935 13.0863C150.935 10.625 150.814 10.0647 150.472 9.40437C150.21 8.90411 149.727 8.28378 149.405 8.02364C149.083 7.74349 148.519 7.42333 148.197 7.28325Z" fill="#1E57AC"/>
<path d="M41.0347 7.24323C40.6924 7.10316 39.867 6.98309 39.2228 6.98309C38.5987 7.0031 37.7934 7.12317 37.4713 7.28325C37.1291 7.42333 36.5855 7.80353 36.2231 8.1237C35.8809 8.42385 35.2367 9.36435 34.7938 10.1848C34.371 11.0052 32.8007 14.0268 31.3311 16.8883C29.8416 19.7492 27.7887 23.7103 26.7618 25.6917L26.7612 25.693C25.7344 27.674 24.7882 29.6551 24.6674 30.0953C24.5466 30.5355 24.5064 31.376 24.5668 31.9563C24.6473 32.7167 24.8688 33.2169 25.3519 33.8573C25.7143 34.3175 26.3786 34.9579 26.8215 35.258C27.345 35.6382 27.9691 35.8583 28.7139 35.9184C29.3179 35.9984 30.2037 35.9384 30.6667 35.8183C31.1499 35.6983 31.8948 35.258 32.3578 34.8578C32.8209 34.4376 33.4651 33.6172 33.7671 33.0569L34.3509 31.9963C38.8 32.1964 40.5716 32.2965 41.1756 32.3765L42.2426 32.4966C42.9271 34.2375 43.4908 35.0779 44.0142 35.6182C44.5779 36.1985 45.2221 36.6187 45.7254 36.7588C46.1683 36.8989 46.8528 36.9989 47.2353 36.9989C47.6178 36.9989 48.3224 36.8789 48.7855 36.6988C49.2686 36.5387 49.9732 36.1585 50.3759 35.8583C50.7584 35.5382 51.2818 34.8978 51.5234 34.3976C51.8052 33.7772 51.926 33.0969 51.926 32.1964C51.926 31.2559 51.7851 30.5155 51.4026 29.555C51.1006 28.7946 50.6376 27.634 50.3759 26.9536C50.094 26.2533 49.5505 24.8325 49.1478 23.792C48.7251 22.7514 47.3762 19.2296 46.128 15.9878C44.8597 12.7461 43.7122 9.76456 43.5512 9.38436C43.3901 9.00416 42.9069 8.42385 42.4842 8.10369C42.0413 7.76351 41.397 7.3833 41.0347 7.24323Z" fill="#1E57AC"/>
<path d="M115.563 7.72348C115.019 7.54339 114.113 7.3833 113.57 7.40332C113.006 7.40332 112.201 7.58341 111.758 7.78352C111.315 7.98362 110.671 8.44386 110.329 8.80405C109.986 9.18426 108.597 11.6456 107.228 14.287C105.88 16.9283 103.967 20.6303 103.001 22.4913C102.014 24.3723 100.726 26.8736 100.102 28.0942C99.0548 30.1153 98.9743 30.3955 98.9743 31.6561C98.9743 32.5566 99.0951 33.237 99.3568 33.7572C99.5581 34.1574 100.102 34.8378 100.565 35.258C101.068 35.6983 101.813 36.1185 102.437 36.2986C103.041 36.4787 103.766 36.5587 104.108 36.4987C104.43 36.4186 104.974 36.2586 105.316 36.1385C105.638 36.0184 106.242 35.6782 106.624 35.3981C107.007 35.0979 107.651 34.2775 108.034 33.5971L108.738 32.3165C112.785 32.5366 114.556 32.6767 115.261 32.7567L116.57 32.8968C117.435 34.8378 118.039 35.7383 118.482 36.1585C118.945 36.6187 119.609 36.9989 120.193 37.159C120.697 37.2791 121.381 37.3992 121.723 37.3992C122.045 37.3992 122.81 37.2191 123.374 36.9989C123.958 36.7788 124.743 36.3386 125.085 35.9984C125.448 35.6782 125.871 35.158 126.032 34.8578C126.172 34.5376 126.354 34.0774 126.414 33.7973C126.474 33.5171 126.454 32.7967 126.374 32.1964C126.273 31.5961 125.548 29.4349 124.743 27.3939C123.958 25.3528 123.133 23.2517 122.931 22.6914C122.73 22.1511 122.287 21.0105 121.965 20.1901C121.643 19.3696 120.777 17.1084 120.032 15.1874C119.287 13.2664 118.522 11.2453 118.341 10.7051C118.14 10.1648 117.677 9.36435 117.274 8.90411C116.811 8.38383 116.187 7.96361 115.563 7.72348Z" fill="#1E57AC"/>
<path d="M190.272 8.16372C189.769 7.92359 189.024 7.80353 188.259 7.80353C187.595 7.80353 186.749 7.92359 186.387 8.04365C186.025 8.18373 185.36 8.58394 184.938 8.94413C184.374 9.38436 184.011 9.92465 183.709 10.7451C183.287 11.8657 183.287 11.9257 183.609 15.4876C183.79 17.4686 184.072 20.8904 184.233 23.0916C184.394 25.2928 184.575 27.4939 184.636 27.9942C184.696 28.4945 184.837 30.0353 184.938 31.456C185.099 33.5571 185.219 34.1374 185.622 34.8578C185.904 35.3181 186.327 35.8984 186.588 36.1385C186.85 36.3786 187.394 36.7188 187.796 36.8789C188.219 37.059 189.044 37.199 189.608 37.199C190.192 37.199 191.078 37.079 191.581 36.9189C192.125 36.7388 192.749 36.3186 193.171 35.8583C193.554 35.4381 193.997 34.7778 194.178 34.3976C194.4 33.8973 194.48 33.1369 194.46 31.7962C194.44 30.7556 194.279 28.3144 194.098 26.3933L194.036 25.6629C193.864 23.6107 193.589 20.334 193.393 17.8889C193.171 15.1474 192.93 12.526 192.869 12.0858C192.809 11.6456 192.568 10.8852 192.346 10.3849C192.145 9.88463 191.762 9.2643 191.521 9.00416C191.279 8.74402 190.715 8.36382 190.272 8.16372Z" fill="#1E57AC"/>
<path d="M215.317 9.2643C214.833 9.02417 214.068 8.78404 213.625 8.72401C213.183 8.68399 212.418 8.72401 211.914 8.82407C211.411 8.92412 210.787 9.16424 210.505 9.36435C210.223 9.58447 209.8 9.96467 209.579 10.2248C209.337 10.4649 207.566 13.4265 205.673 16.7883C203.761 20.15 201.244 24.5524 200.077 26.5934C198.929 28.6345 197.842 30.6556 197.681 31.0958C197.54 31.5361 197.419 32.2164 197.419 32.5966C197.419 32.9768 197.56 33.6972 197.721 34.1975C197.902 34.6977 198.325 35.3981 198.688 35.7783C199.05 36.1385 199.775 36.6588 200.338 36.9189C200.963 37.2191 201.728 37.3992 202.352 37.3992C203.137 37.3992 203.6 37.2591 204.465 36.7588C205.271 36.2786 205.794 35.7583 206.438 34.7978C206.922 34.0774 207.405 33.4971 207.546 33.5171C207.687 33.5371 209.015 33.6372 210.505 33.7772C211.995 33.8973 213.646 34.0574 214.169 34.0974C215.135 34.1975 215.135 34.1975 215.478 35.258C215.659 35.8183 215.981 36.5787 216.223 36.9189C216.464 37.2591 216.907 37.7593 217.249 38.0395C217.591 38.2996 218.216 38.6198 218.658 38.7599C219.101 38.8799 219.725 39 220.068 39C220.41 39 221.175 38.8599 221.779 38.6798C222.584 38.4397 223.128 38.1195 223.732 37.4792C224.215 36.9789 224.678 36.2786 224.799 35.8583C224.899 35.4381 225 34.7778 225 34.3976C225 34.0174 223.812 30.2354 222.363 25.9931C220.933 21.7509 219.182 16.6682 218.518 14.6872C217.753 12.446 217.088 10.8251 216.746 10.3849C216.444 10.0047 215.8 9.48441 215.317 9.2643Z" fill="#1E57AC"/>
<path d="M40.9738 9.29809C40.6109 9.13911 39.9858 9 39.6027 9C39.0986 9 38.7154 9.17885 38.171 9.63592C37.6669 10.1129 36.7998 11.5437 35.227 14.5643C33.997 16.9092 32.2024 20.367 31.2345 22.2151C30.2464 24.0632 28.8954 26.6665 28.23 27.9781C27.3226 29.7467 27 30.5615 27 31.1577C27 31.5949 27.1613 32.2109 27.363 32.5487C27.5646 32.8866 28.0687 33.3039 28.472 33.5026C28.8753 33.6815 29.5407 33.8404 29.9238 33.8404C30.4078 33.8404 30.8312 33.6616 31.2748 33.2641C31.6378 32.9462 32.3032 32.0122 32.7468 31.1775C33.3517 30.0448 33.6542 29.6474 33.9567 29.6673C34.1785 29.6673 35.59 29.7467 37.0821 29.866C38.5743 29.9653 40.752 30.1044 41.9216 30.1641L44.0388 30.2833C45.0873 32.9462 45.5511 33.7411 45.9342 34.0988C46.277 34.3969 46.761 34.6552 47.0029 34.6751H47.003C47.2652 34.6751 47.7491 34.6751 48.0717 34.6552C48.3943 34.6155 48.9186 34.4764 49.221 34.3174C49.5436 34.1584 49.9268 33.8404 50.0881 33.602C50.2494 33.3436 50.3905 32.7673 50.3905 32.3103C50.3905 31.7737 50.0477 30.6211 49.5033 29.2301C48.9992 27.998 47.8498 25.0569 46.9425 22.7119C46.0351 20.367 45.047 17.8035 44.7445 17.0483C44.4421 16.2932 43.7767 14.5444 43.2524 13.1732C42.7281 11.802 42.1434 10.4507 41.9619 10.1327C41.7804 9.83464 41.3166 9.45706 40.9738 9.29809Z" fill="#FAC041"/>
<path d="M115.461 9.69553C115.057 9.53655 114.513 9.39745 114.271 9.41732H114.251C114.009 9.41732 113.605 9.49681 113.384 9.5763C113.142 9.65579 112.718 9.99362 112.456 10.3116C112.174 10.6295 111.024 12.6565 109.895 14.8226C108.786 16.9688 106.931 20.5061 105.822 22.6722L105.821 22.6742C104.692 24.82 103.281 27.5015 102.697 28.6339C101.87 30.1641 101.608 30.8795 101.608 31.5154C101.608 31.9724 101.769 32.6084 101.971 32.9462C102.172 33.284 102.697 33.7013 103.14 33.9199C103.705 34.1783 104.148 34.2578 104.733 34.1783C105.197 34.0988 105.762 33.8404 106.044 33.5622C106.326 33.284 106.911 32.3898 107.355 31.5551L108.161 30.025C110.036 30.2038 111.851 30.3032 113.404 30.3628C114.957 30.4224 116.771 30.5218 117.437 30.5814L118.647 30.6807C119.655 33.2045 120.159 34.1385 120.401 34.3969C120.683 34.6751 121.207 34.8937 121.772 34.9732C122.276 35.0328 123.022 34.993 123.425 34.8539C123.849 34.7347 124.373 34.3969 124.595 34.0988C124.857 33.7411 125.018 33.2443 124.998 32.7475C124.998 32.2109 123.748 28.7332 121.066 21.8177C118.909 16.2335 116.933 11.3052 116.691 10.8283C116.348 10.2122 116.005 9.89426 115.461 9.69553Z" fill="#FAC041"/>
<path d="M20.7884 9.42905C20.5257 9.30647 20.0608 9.14302 19.7172 9.08172C19.3737 9 18.8482 8.97957 18.5046 9.02043C18.161 9.04086 16.4026 9.24517 14.5634 9.46992C12.7241 9.69466 10.8445 9.9194 10.3796 9.9807C9.81373 10.042 9.26802 10.2872 8.8638 10.6549C8.47978 10.9818 8.13619 11.5539 8.03513 11.9421C7.95429 12.3507 8.01492 13.8013 8.19682 15.395C8.35851 16.9069 8.68189 19.7672 8.90422 21.7286C9.14675 23.69 9.53077 27.1837 9.79351 29.4925C10.0563 31.8012 10.3796 33.9465 10.5413 34.2734C10.703 34.6003 11.0466 35.0497 11.3296 35.2745C11.6327 35.4992 12.1987 35.6627 12.7444 35.6831C13.2496 35.7035 13.957 35.5809 14.3411 35.4175C14.7049 35.254 15.1495 34.8659 15.291 34.5594C15.4527 34.2325 15.5739 33.4765 15.5739 32.8636C15.5739 32.2507 15.392 30.2484 15.1697 28.43C14.9474 26.5912 14.7857 25.0793 14.8059 25.0589C14.8463 25.018 16.2813 24.8342 17.9993 24.6094C19.7172 24.4051 21.3544 24.1191 21.6373 23.9965C21.9203 23.8739 22.3043 23.4857 22.4862 23.1588C22.6883 22.8115 22.85 22.3211 22.85 22.0351C22.85 21.749 22.7085 21.1974 22.5468 20.8092C22.3649 20.3802 21.9809 19.9715 21.5969 19.7672C20.9906 19.4608 20.647 19.4608 17.6961 19.7468C15.9175 19.9102 14.4017 19.992 14.3208 19.9307C14.24 19.8489 14.0581 18.807 13.9166 17.6015C13.7751 16.3961 13.7347 15.3541 13.8358 15.2519C13.9166 15.1702 15.3314 14.925 16.9685 14.7207C18.5854 14.5368 20.1821 14.2508 20.5055 14.1078C20.8289 13.9852 21.2735 13.6379 21.4756 13.3518C21.7182 13.0249 21.8596 12.5142 21.8394 11.8808C21.8394 11.3292 21.698 10.6345 21.5363 10.2872C21.3746 9.93983 21.031 9.57207 20.7884 9.42905Z" fill="#EC1A3F"/>
<path d="M147.314 9.12267L147.311 9.12259C146.381 9.12259 145.007 9.18388 144.219 9.26561C143.451 9.34733 140.661 9.5925 138.054 9.77638C134.416 10.0624 133.123 10.2259 132.496 10.5119C132.051 10.7162 131.526 11.1657 131.344 11.513C131.142 11.8399 130.98 12.4733 130.98 12.8819C130.98 13.3518 131.162 13.9443 131.445 14.3734C131.708 14.7616 132.233 15.2111 132.617 15.3745C133.204 15.6401 133.79 15.6401 136.639 15.4358C138.479 15.2928 140.54 15.1089 141.248 15.0272C142.198 14.925 142.501 14.9455 142.501 15.1498C142.501 15.2724 141.349 17.3972 139.954 19.8285C138.539 22.2803 136.761 25.3858 135.972 26.7343C135.204 28.0827 134.153 29.8807 133.648 30.7183C133.123 31.6173 132.718 32.598 132.658 33.0679C132.597 33.5991 132.698 34.1303 132.941 34.6003C133.163 35.0497 133.608 35.4584 134.113 35.7035C134.901 36.0917 135.023 36.0917 139.469 35.7444C141.975 35.5605 145.431 35.254 147.149 35.0906C149.474 34.8659 150.444 34.7024 150.888 34.4164C151.232 34.1916 151.616 33.783 151.757 33.497C151.879 33.2109 152 32.598 152 32.1485C152 31.699 151.859 31.0657 151.697 30.7183C151.535 30.371 151.09 29.9624 150.747 29.7581C150.383 29.5742 149.716 29.4312 149.271 29.4516C148.827 29.4516 146.684 29.615 144.522 29.7989C142.359 29.9624 140.56 30.085 140.52 30.0645C140.48 30.0237 141.409 28.3483 142.561 26.3256C143.713 24.3029 145.735 20.7684 147.048 18.4596C148.362 16.1509 149.656 13.9035 149.898 13.454C150.221 12.9228 150.383 12.3098 150.383 11.6765C150.383 10.8388 150.282 10.5732 149.696 9.93983C149.009 9.16395 148.989 9.16345 147.314 9.12267Z" fill="#EC1A3F"/>
<path d="M90.968 8.41261C89.0281 8.25033 87.2095 8.06776 86.9266 8.00691C86.6437 7.96634 86.0375 8.10833 85.5525 8.33147C84.9059 8.63575 84.6028 8.94002 84.2996 9.65C83.9763 10.3803 83.9359 10.7048 84.0774 11.3134C84.1986 11.7394 84.4613 12.3276 84.6836 12.6319C84.9261 12.9768 85.4312 13.281 85.8556 13.3825C86.28 13.4839 87.1893 13.6259 87.8763 13.6867C88.9069 13.7882 89.1494 13.8693 89.1494 14.1533C89.1494 14.3562 89.0483 15.2893 88.9473 16.2427C88.8463 17.1961 88.5634 20.0157 88.3411 22.5311C88.1188 25.0464 87.8359 28.1906 87.6945 29.5294C87.4924 31.8014 87.4924 32.0245 87.8561 32.7751C88.1188 33.3431 88.4825 33.7082 89.0483 33.9719C89.6343 34.2356 90.0789 34.3167 90.6649 34.2153C91.2307 34.1342 91.6955 33.8705 92.1805 33.3633L92.8877 32.6534C93.4333 27.0952 93.7162 23.8293 93.8981 21.8211C94.0597 19.8129 94.3224 17.3178 94.4639 16.263L94.7064 14.3562C97.697 14.559 98.3032 14.5184 98.7882 14.2953C99.1519 14.133 99.6369 13.707 99.8592 13.3419C100.102 12.9565 100.263 12.3276 100.263 11.8205C100.263 11.354 100.122 10.6845 99.9602 10.36C99.7986 10.0151 99.4146 9.62972 99.1115 9.46744C98.7882 9.30516 97.6364 9.08202 96.525 8.96031C95.4136 8.8386 92.9079 8.59518 90.968 8.41261Z" fill="#9CCC47"/>
<path d="M175.757 9.18345C175.293 8.65603 175.171 8.63575 173.272 8.59518C172.181 8.57489 169.978 8.67632 168.362 8.8386C166.745 8.98059 164.017 9.20373 162.299 9.34573C159.713 9.54858 159.026 9.67029 158.359 10.0557C157.854 10.3397 157.45 10.7657 157.268 11.1917C157.086 11.6177 157.025 12.1856 157.106 12.6928C157.187 13.2405 157.45 13.7273 157.955 14.2142C158.642 14.9039 158.723 14.9241 160.238 14.9241C161.087 14.9241 163.269 14.7821 165.068 14.6199C166.866 14.4576 168.402 14.3967 168.503 14.4779C168.584 14.5793 168.523 14.8836 168.341 15.1878C168.16 15.4921 167.371 16.8309 166.604 18.1698C165.836 19.5086 164.34 22.0645 163.31 23.8496C162.279 25.6347 160.844 28.0892 160.137 29.3266C159.45 30.564 158.804 31.8217 158.743 32.1665C158.682 32.5114 158.763 33.1199 158.945 33.5865C159.107 34.0328 159.45 34.5399 159.713 34.7224C159.976 34.905 160.461 35.1079 160.784 35.189C161.107 35.2499 163.653 35.1281 166.442 34.905C169.21 34.6819 172.524 34.4182 173.757 34.2965C175.01 34.195 176.242 34.0125 176.485 33.911C176.748 33.8096 177.152 33.5256 177.394 33.3025C177.657 33.0591 177.92 32.6331 177.98 32.3085C178.061 32.0042 178.061 31.3551 178 30.848C177.92 30.28 177.697 29.7526 177.414 29.4686C177.152 29.2252 176.667 28.9209 176.343 28.8195C175.919 28.6775 174.606 28.6978 172.1 28.9209C170.099 29.0832 168.079 29.2657 167.594 29.3266C166.927 29.4077 166.745 29.3672 166.745 29.1237C166.745 28.9615 167.331 27.8458 168.038 26.6287C168.746 25.4318 170.382 22.5919 171.696 20.2997C173.009 18.0075 174.565 15.3096 175.151 14.3156C175.757 13.3013 176.323 12.2262 176.424 11.8814C176.545 11.496 176.545 10.9888 176.424 10.502C176.323 10.0963 176.02 9.50801 175.757 9.18345Z" fill="#9CCC47"/>
<path d="M215.384 10.8468C215.081 10.6845 214.495 10.5628 214.07 10.5628C213.605 10.5628 213.08 10.7454 212.696 11.0091C212.312 11.2931 211.544 12.3885 210.736 13.8085C210.029 15.0864 207.745 19.1029 205.684 22.7339C203.643 26.365 201.663 29.8743 201.32 30.5437C200.895 31.3348 200.653 32.0854 200.632 32.6736C200.612 33.2213 200.754 33.8096 200.956 34.1342C201.138 34.4587 201.703 34.8847 202.209 35.1079C202.855 35.3919 203.32 35.473 203.765 35.3716C204.128 35.2904 204.694 35.0064 205.017 34.7224C205.341 34.4385 205.927 33.6068 206.331 32.8968C206.735 32.1868 207.2 31.5377 207.361 31.4971C207.523 31.4363 208.837 31.4971 210.292 31.6391C211.746 31.7811 214.01 32.0042 215.323 32.1259L217.728 32.3694C218.617 34.8847 219.041 35.8381 219.243 36.1221C219.466 36.4061 219.93 36.7307 220.314 36.8727C220.779 37.035 221.284 37.035 221.911 36.9132C222.497 36.7915 223.042 36.5075 223.426 36.1018C223.931 35.5947 224.032 35.331 223.992 34.6413C223.972 34.1747 223.042 31.0508 221.911 27.7038C220.779 24.3567 219.122 19.4274 218.233 16.7498C217.344 14.0722 216.455 11.7191 216.273 11.496C216.091 11.2931 215.707 11.0091 215.384 10.8468Z" fill="#9CCC47"/>
<path d="M74.7134 8.46698C74.3914 8.24776 73.7675 8.04846 73.3248 8.0086C72.8216 7.96874 72.2783 8.06839 71.8356 8.28761C71.4733 8.48691 71.0306 8.8855 70.8897 9.18444C70.7287 9.50332 70.608 10.3005 70.608 10.9781C70.608 11.6756 70.7488 13.848 70.9098 15.821C71.0708 17.794 71.2721 20.0859 71.3324 20.903C71.4129 21.76 71.3928 22.4575 71.2922 22.5373C71.1916 22.617 69.0181 20.1656 66.4824 17.0766C63.9468 13.9875 61.5519 11.0778 61.2098 10.5994C60.7268 9.98163 60.2841 9.64282 59.5999 9.40367C58.815 9.14459 58.493 9.12466 57.8893 9.30402C57.4667 9.44353 56.9032 9.78233 56.6214 10.0813C56.3598 10.4001 56.0781 10.8785 56.0177 11.1774C55.9573 11.4963 56.058 13.2301 56.219 15.0637C56.38 16.9171 56.6617 20.2454 56.8428 22.4974C57.0038 24.7494 57.2654 27.978 57.4264 29.672C57.6277 31.6849 57.8289 32.9206 58.0302 33.1996C58.1912 33.4587 58.6339 33.8373 58.9961 34.0565C59.3382 34.2758 59.9822 34.4551 60.4048 34.4551C60.8073 34.4551 61.4312 34.3156 61.7532 34.1562C62.0752 33.9968 62.5179 33.5583 62.699 33.2195C62.9204 32.801 63.021 32.1433 63.021 31.4657C63.0009 30.8678 62.86 28.7951 62.6789 26.8819C62.5179 24.9687 62.3167 22.4974 62.2362 21.4013C62.1557 20.0859 62.1758 19.4681 62.3167 19.6076C62.4173 19.7272 64.792 22.5771 67.5893 25.9851C70.3665 29.393 72.9424 32.3426 73.2845 32.5818C73.6468 32.801 74.2505 33.0601 74.6329 33.1199C75.0152 33.1996 75.6592 33.1796 76.0416 33.08C76.4441 32.9604 76.9069 32.6615 77.1283 32.3227C77.41 31.9241 77.5107 31.4458 77.5107 30.5689C77.4905 29.9112 77.3899 28.1175 77.2692 26.583C77.1283 25.0484 76.9472 22.9358 76.8465 21.8995C76.7459 20.8632 76.4642 17.794 76.2428 15.0836C76.0214 12.3532 75.7196 9.84212 75.5787 9.50332C75.4177 9.14459 75.0353 8.66628 74.7134 8.46698Z" fill="#40B7F8"/>
<path d="M190.208 10.1411C189.845 9.88198 189.342 9.72254 188.819 9.74247C188.316 9.74247 187.753 9.92184 187.33 10.1809C186.948 10.44 186.505 10.8785 186.324 11.1774C186.062 11.6557 186.042 12.134 186.283 15.3626C186.424 17.3755 186.686 20.5842 186.847 22.4974C187.008 24.4106 187.27 27.5994 187.41 29.5724C187.652 32.7412 187.732 33.2394 188.155 33.917C188.477 34.3953 188.88 34.7341 189.342 34.8737C189.745 35.0132 190.389 35.0331 190.852 34.9534C191.375 34.8537 191.878 34.5747 192.321 34.1363C192.743 33.6779 192.965 33.2394 192.985 32.801C193.005 32.4622 193.005 31.7646 192.985 31.2664C192.965 30.7682 192.764 28.3168 192.562 25.7858C192.341 23.2547 191.979 19.0496 191.757 16.4189C191.476 13.4294 191.214 11.4365 191.033 11.0778C190.872 10.7788 190.51 10.3603 190.208 10.1411Z" fill="#40B7F8"/>
<path d="M39.5007 19.2327C39.38 19.0982 39.2391 18.9829 39.1587 19.0021C39.0983 19.0021 38.354 20.3474 37.5092 21.981C36.6643 23.6145 35.9803 24.9982 36.0004 25.0367C36.0407 25.0751 37.3482 25.152 38.9173 25.2289C41.3916 25.325 41.7939 25.3057 41.7939 25.0559C41.7939 24.9022 41.3312 23.5761 40.7479 22.1347C40.1846 20.6741 39.6214 19.3673 39.5007 19.2327Z" fill="#1E57AC"/>
<path d="M115.158 22.4614C114.474 20.7702 113.81 19.3865 113.709 19.3865C113.589 19.3865 112.804 20.7125 111.959 22.3269C111.114 23.922 110.471 25.3057 110.551 25.3826C110.632 25.4595 111.819 25.5748 113.207 25.6517C114.595 25.7285 115.882 25.7285 116.063 25.6709C116.385 25.5556 116.284 25.2096 115.158 22.4614Z" fill="#1E57AC"/>
<path d="M213.989 23.7683C213.385 22.0578 212.782 20.6357 212.681 20.6164C212.581 20.578 211.736 21.8464 210.811 23.4223C209.905 25.0175 209.161 26.3627 209.161 26.4588C209.161 26.5357 210.448 26.7087 212.018 26.8432C213.607 26.9777 214.934 27.0354 214.995 26.9777C215.055 26.9009 214.592 25.4595 213.989 23.7683Z" fill="#1E57AC"/>
<path d="M12.7193 64H5.618V65.2108C5.618 65.4181 5.54164 65.5926 5.38893 65.7344C5.24712 65.8871 5.07258 65.9635 4.86533 65.9635H3.9163C3.70904 65.9635 3.52905 65.8871 3.37634 65.7344C3.23453 65.5926 3.16363 65.4181 3.16363 65.2108V62.2983C3.16363 62.091 3.23453 61.9165 3.37634 61.7747C3.52905 61.622 3.70904 61.5456 3.9163 61.5456H4.39081C4.71806 61.1202 5.05622 60.313 5.40529 59.124C5.74345 57.935 5.95616 56.506 6.04343 54.837L6.10888 53.2989C6.11978 53.0917 6.2016 52.9171 6.35431 52.7753C6.50703 52.6226 6.68702 52.5462 6.89428 52.5462H12.8666C13.0738 52.5462 13.2484 52.6226 13.3902 52.7753C13.5429 52.9171 13.6193 53.0917 13.6193 53.2989V61.5456H14.421C14.6283 61.5456 14.8028 61.622 14.9446 61.7747C15.0973 61.9165 15.1737 62.091 15.1737 62.2983V65.2108C15.1737 65.4181 15.0973 65.5926 14.9446 65.7344C14.8028 65.8871 14.6283 65.9635 14.421 65.9635H13.472C13.2647 65.9635 13.0848 65.8871 12.932 65.7344C12.7902 65.5926 12.7193 65.4181 12.7193 65.2108V64ZM7.27061 61.5456H11.0013V55.0006H8.67779L8.4978 56.9314C8.42144 57.8368 8.24691 58.7695 7.9742 59.7294C7.7124 60.6784 7.47787 61.2838 7.27061 61.5456ZM26.8021 53.2989V63.2473C26.8021 63.4546 26.7257 63.6346 26.573 63.7873C26.4312 63.9291 26.2567 64 26.0494 64H24.9367C24.7295 64 24.5495 63.9291 24.3968 63.7873C24.255 63.6346 24.1841 63.4546 24.1841 63.2473V55.0006H21.6642L21.4188 57.1605C21.1897 58.9931 20.9007 60.4112 20.5516 61.4147C20.2134 62.4074 19.7989 63.1001 19.308 63.4928C18.8172 63.8746 18.1681 64.0709 17.3609 64.0818C17.1427 64.0818 16.9628 64.0218 16.8209 63.9018C16.69 63.7709 16.6246 63.6073 16.6246 63.4109V62.4292C16.6246 62.1783 16.6682 61.9874 16.7555 61.8565C16.8537 61.7147 17.0391 61.5838 17.3118 61.4638C17.77 61.2675 18.1299 60.722 18.3917 59.8276C18.6535 58.8894 18.8717 57.2259 19.0462 54.837L19.1608 53.2989C19.1826 53.0808 19.2699 52.9008 19.4226 52.759C19.5753 52.6172 19.7553 52.5462 19.9625 52.5462H26.0494C26.2567 52.5462 26.4312 52.6226 26.573 52.7753C26.7257 52.9171 26.8021 53.0917 26.8021 53.2989ZM38.0831 53.3153V63.2473C38.0831 63.4546 38.0068 63.6346 37.854 63.7873C37.7122 63.9291 37.5377 64 37.3304 64H36.2178C36.0105 64 35.8305 63.9291 35.6778 63.7873C35.536 63.6346 35.4651 63.4546 35.4651 63.2473V60.3184H34.3034L32.4217 63.5091C32.2253 63.8364 31.9363 64 31.5545 64H30.5564C30.3382 64 30.1582 63.9291 30.0164 63.7873C29.8746 63.6346 29.8037 63.4546 29.8037 63.2473C29.8037 63.0946 29.8419 62.9637 29.9182 62.8546L31.8817 59.7457C30.7036 59.0476 30.1146 58.0059 30.1146 56.6205C30.1146 55.4315 30.5182 54.4443 31.3254 53.6589C32.1326 52.8735 33.3707 52.4808 35.0397 52.4808C35.1379 52.4808 35.6451 52.4917 36.5614 52.5135C36.7905 52.5244 37.0468 52.5299 37.3304 52.5299C37.5377 52.5408 37.7122 52.6226 37.854 52.7753C38.0068 52.9171 38.0831 53.0971 38.0831 53.3153ZM34.0907 57.8641H35.4651V55.0006C35.2797 54.957 34.9633 54.9352 34.5161 54.9352C34.0579 54.9352 33.6707 55.077 33.3544 55.3606C33.0489 55.6333 32.8962 55.9933 32.8962 56.4405C32.8962 56.8223 33.0053 57.1387 33.2235 57.3895C33.4416 57.6295 33.7307 57.7877 34.0907 57.8641ZM55.1634 64H54.0507C53.8435 64 53.6635 63.9291 53.5108 63.7873C53.369 63.6346 53.2981 63.4546 53.2981 63.2473V56.8823L48.5529 63.5255C48.3348 63.8418 48.0512 64 47.7021 64H46.6876C46.4804 64 46.3004 63.9291 46.1477 63.7873C46.0059 63.6346 45.9349 63.4546 45.9349 63.2473V53.2989C45.9349 53.0917 46.0059 52.9171 46.1477 52.7753C46.3004 52.6226 46.4804 52.5462 46.6876 52.5462H47.8003C48.0075 52.5462 48.1821 52.6226 48.3239 52.7753C48.4766 52.9171 48.5529 53.0917 48.5529 53.2989V59.6639L53.2981 53.0208C53.5162 52.7044 53.7999 52.5462 54.1489 52.5462H55.1634C55.3707 52.5462 55.5452 52.6226 55.687 52.7753C55.8397 52.9171 55.9161 53.0917 55.9161 53.2989V63.2473C55.9161 63.4546 55.8397 63.6346 55.687 63.7873C55.5452 63.9291 55.3707 64 55.1634 64ZM65.4724 55.0006H62.2981V63.2473C62.2981 63.4546 62.2217 63.6346 62.069 63.7873C61.9272 63.9291 61.7527 64 61.5454 64H60.4328C60.2255 64 60.0455 63.9291 59.8928 63.7873C59.751 63.6346 59.6801 63.4546 59.6801 63.2473V53.2989C59.6801 53.0917 59.751 52.9171 59.8928 52.7753C60.0455 52.6226 60.2255 52.5462 60.4328 52.5462H65.4724C65.6797 52.5462 65.8542 52.6226 65.996 52.7753C66.1487 52.9171 66.2251 53.0917 66.2251 53.2989V54.2479C66.2251 54.4552 66.1487 54.6352 65.996 54.7879C65.8542 54.9297 65.6797 55.0006 65.4724 55.0006ZM72.3408 52.5135C73.9553 52.5135 75.1334 52.868 75.8751 53.5771C76.606 54.297 76.9714 55.2079 76.9714 56.3096C76.9714 57.3786 76.5842 58.284 75.8097 59.0258C75.0461 59.7785 74.0207 60.1548 72.7335 60.1548C72.1663 60.1548 71.7409 60.1384 71.4573 60.1057V63.2473C71.4573 63.4546 71.3809 63.6346 71.2282 63.7873C71.0864 63.9291 70.9118 64 70.7046 64H69.5919C69.3847 64 69.2047 63.9291 69.052 63.7873C68.9102 63.6346 68.8393 63.4546 68.8393 63.2473V53.3153C68.8393 53.108 68.9102 52.928 69.052 52.7753C69.2047 52.6226 69.3847 52.5462 69.5919 52.5462C71.1409 52.5244 72.0572 52.5135 72.3408 52.5135ZM71.4573 55.0006V57.6186C71.9154 57.6732 72.3136 57.7004 72.6517 57.7004C73.099 57.7004 73.4644 57.5859 73.748 57.3568C74.0425 57.1168 74.1898 56.7623 74.1898 56.2933C74.1898 55.4097 73.6607 54.9679 72.6026 54.9679C72.5917 54.9679 72.5426 54.9734 72.4554 54.9843C72.3681 54.9843 72.2317 54.9897 72.0463 55.0006C71.8609 55.0006 71.6645 55.0006 71.4573 55.0006ZM91.4515 53.2989V63.2473C91.4515 63.4546 91.3751 63.6346 91.2224 63.7873C91.0806 63.9291 90.906 64 90.6988 64H89.5861C89.3789 64 89.1989 63.9291 89.0462 63.7873C88.9044 63.6346 88.8335 63.4546 88.8335 63.2473V53.2989C88.8335 53.0917 88.9044 52.9171 89.0462 52.7753C89.1989 52.6226 89.3789 52.5462 89.5861 52.5462H90.6988C90.906 52.5462 91.0806 52.6226 91.2224 52.7753C91.3751 52.9171 91.4515 53.0917 91.4515 53.2989ZM82.5339 58.6004V61.5129C82.883 61.5565 83.1393 61.5783 83.3029 61.5783C84.3938 61.5783 84.9392 61.0493 84.9392 59.9912C84.9392 59.5112 84.7974 59.1458 84.5138 58.8949C84.2301 58.644 83.832 58.5186 83.3193 58.5186C83.1993 58.5186 82.9375 58.5458 82.5339 58.6004ZM79.9159 63.231V53.2989C79.9159 53.0917 79.9868 52.9171 80.1286 52.7753C80.2813 52.6226 80.4613 52.5462 80.6686 52.5462H81.7812C81.9885 52.5462 82.163 52.6226 82.3048 52.7753C82.4575 52.9171 82.5339 53.0917 82.5339 53.2989V56.1296C82.8502 56.086 83.1884 56.0642 83.5484 56.0642C84.901 56.0642 85.9318 56.4023 86.6409 57.0787C87.3608 57.755 87.7208 58.704 87.7208 59.9257C87.7208 61.1802 87.3008 62.1783 86.4609 62.9201C85.6319 63.6618 84.4756 64.0327 82.9921 64.0327C82.643 64.0327 81.8685 64.0218 80.6686 64C80.4613 64 80.2813 63.9236 80.1286 63.7709C79.9868 63.6182 79.9159 63.4382 79.9159 63.231ZM108.533 64H107.421C107.213 64 107.033 63.9291 106.881 63.7873C106.739 63.6346 106.668 63.4546 106.668 63.2473V56.8823L101.923 63.5255C101.705 63.8418 101.421 64 101.072 64H100.057C99.8502 64 99.6703 63.9291 99.5175 63.7873C99.3757 63.6346 99.3048 63.4546 99.3048 63.2473V53.2989C99.3048 53.0917 99.3757 52.9171 99.5175 52.7753C99.6703 52.6226 99.8502 52.5462 100.057 52.5462H101.17C101.377 52.5462 101.552 52.6226 101.694 52.7753C101.846 52.9171 101.923 53.0917 101.923 53.2989V59.6639L106.668 53.0208C106.886 52.7044 107.17 52.5462 107.519 52.5462H108.533C108.741 52.5462 108.915 52.6226 109.057 52.7753C109.21 52.9171 109.286 53.0917 109.286 53.2989V63.2473C109.286 63.4546 109.21 63.6346 109.057 63.7873C108.915 63.9291 108.741 64 108.533 64ZM121.136 64H120.024C119.816 64 119.636 63.9291 119.484 63.7873C119.342 63.6346 119.271 63.4546 119.271 63.2473V55.0006H116.587C116.38 55.0006 116.2 54.9297 116.047 54.7879C115.906 54.6352 115.835 54.4552 115.835 54.2479V53.2989C115.835 53.0917 115.906 52.9171 116.047 52.7753C116.2 52.6226 116.38 52.5462 116.587 52.5462H124.572C124.78 52.5462 124.954 52.6226 125.096 52.7753C125.249 52.9171 125.325 53.0917 125.325 53.2989V54.2479C125.325 54.4552 125.249 54.6352 125.096 54.7879C124.954 54.9297 124.78 55.0006 124.572 55.0006H121.889V63.2473C121.889 63.4546 121.813 63.6346 121.66 63.7873C121.518 63.9291 121.343 64 121.136 64ZM135.087 55.3279C135.087 56.4514 134.651 57.3077 133.778 57.8968C134.269 58.0931 134.662 58.4204 134.956 58.8785C135.262 59.3258 135.414 59.8766 135.414 60.5311C135.414 61.6874 135.016 62.5656 134.22 63.1655C133.424 63.7655 132.371 64.0655 131.062 64.0655C130.124 64.0655 129.278 64.0491 128.526 64.0164C128.329 64.0055 128.155 63.9236 128.002 63.7709C127.849 63.6073 127.773 63.4273 127.773 63.231V53.3316C127.773 53.1244 127.844 52.9444 127.986 52.7917C128.138 52.639 128.318 52.5572 128.526 52.5462C129.442 52.5026 130.347 52.4808 131.242 52.4808C132.507 52.4808 133.462 52.7371 134.105 53.2498C134.76 53.7516 135.087 54.4443 135.087 55.3279ZM131.405 59.3694H130.391V61.5129C130.631 61.5783 130.926 61.6111 131.275 61.6111C132.289 61.6111 132.796 61.2075 132.796 60.4002C132.796 59.713 132.333 59.3694 131.405 59.3694ZM130.391 55.0006V57.0787H131.258C132.065 57.0787 132.469 56.7078 132.469 55.966C132.469 55.6497 132.349 55.3988 132.109 55.2133C131.869 55.0279 131.569 54.9352 131.209 54.9352C131.013 54.9352 130.74 54.957 130.391 55.0006ZM137.872 58.2731C137.872 56.5823 138.439 55.1697 139.573 54.0352C140.697 52.9117 142.159 52.3499 143.959 52.3499C145.737 52.3499 147.198 52.8899 148.344 53.9698C149.478 55.0497 150.045 56.4842 150.045 58.2731C150.045 59.9966 149.473 61.4147 148.327 62.5274C147.16 63.64 145.704 64.1964 143.959 64.1964C142.17 64.1964 140.713 63.6564 139.59 62.5765C138.444 61.4965 137.872 60.0621 137.872 58.2731ZM140.653 58.2731C140.653 59.244 140.975 60.0675 141.619 60.7439C142.251 61.4093 143.031 61.742 143.959 61.742C145.006 61.742 145.818 61.4147 146.397 60.7602C146.975 60.1166 147.264 59.2876 147.264 58.2731C147.264 57.2368 146.947 56.4023 146.315 55.7697C145.671 55.1261 144.886 54.8043 143.959 54.8043C142.999 54.8043 142.208 55.1206 141.586 55.7533C140.964 56.386 140.653 57.2259 140.653 58.2731ZM156.496 52.5135C158.11 52.5135 159.288 52.868 160.03 53.5771C160.761 54.297 161.126 55.2079 161.126 56.3096C161.126 57.3786 160.739 58.284 159.965 59.0258C159.201 59.7785 158.176 60.1548 156.889 60.1548C156.321 60.1548 155.896 60.1384 155.612 60.1057V63.2473C155.612 63.4546 155.536 63.6346 155.383 63.7873C155.241 63.9291 155.067 64 154.86 64H153.747C153.54 64 153.36 63.9291 153.207 63.7873C153.065 63.6346 152.994 63.4546 152.994 63.2473V53.3153C152.994 53.108 153.065 52.928 153.207 52.7753C153.36 52.6226 153.54 52.5462 153.747 52.5462C155.296 52.5244 156.212 52.5135 156.496 52.5135ZM155.612 55.0006V57.6186C156.07 57.6732 156.469 57.7004 156.807 57.7004C157.254 57.7004 157.619 57.5859 157.903 57.3568C158.198 57.1168 158.345 56.7623 158.345 56.2933C158.345 55.4097 157.816 54.9679 156.758 54.9679C156.747 54.9679 156.698 54.9734 156.61 54.9843C156.523 54.9843 156.387 54.9897 156.201 55.0006C156.016 55.0006 155.82 55.0006 155.612 55.0006ZM169.221 57.2259V53.2989C169.221 53.0917 169.292 52.9171 169.433 52.7753C169.586 52.6226 169.766 52.5462 169.973 52.5462H171.086C171.293 52.5462 171.468 52.6226 171.61 52.7753C171.762 52.9171 171.839 53.0917 171.839 53.2989V63.2473C171.839 63.4546 171.762 63.6346 171.61 63.7873C171.468 63.9291 171.293 64 171.086 64H169.973C169.766 64 169.586 63.9291 169.433 63.7873C169.292 63.6346 169.221 63.4546 169.221 63.2473V59.6148C168.642 60.0621 167.824 60.2857 166.766 60.2857C165.806 60.2857 164.977 59.9966 164.279 59.4185C163.592 58.8294 163.248 57.9022 163.248 56.6369V53.2989C163.248 53.0917 163.319 52.9171 163.461 52.7753C163.614 52.6226 163.794 52.5462 164.001 52.5462H165.114C165.321 52.5462 165.495 52.6226 165.637 52.7753C165.79 52.9171 165.866 53.0917 165.866 53.2989V55.8515C165.866 56.5714 166.003 57.0841 166.275 57.3895C166.548 57.6841 166.946 57.8313 167.47 57.8313C168.092 57.8313 168.675 57.6295 169.221 57.2259ZM182.549 62.2983V63.2473C182.549 63.4546 182.473 63.6346 182.32 63.7873C182.178 63.9291 182.004 64 181.796 64H176.348C176.14 64 175.96 63.9291 175.808 63.7873C175.666 63.6346 175.595 63.4546 175.595 63.2473V53.2989C175.595 53.0917 175.666 52.9171 175.808 52.7753C175.96 52.6226 176.14 52.5462 176.348 52.5462H181.633C181.84 52.5462 182.015 52.6226 182.156 52.7753C182.309 52.9171 182.385 53.0917 182.385 53.2989V54.2479C182.385 54.4552 182.309 54.6352 182.156 54.7879C182.015 54.9297 181.84 55.0006 181.633 55.0006H178.213V57.0132H181.142C181.349 57.0132 181.524 57.0896 181.665 57.2423C181.818 57.3841 181.895 57.5586 181.895 57.7659V58.7149C181.895 58.9222 181.818 59.1022 181.665 59.2549C181.524 59.3967 181.349 59.4676 181.142 59.4676H178.213V61.5456H181.796C182.004 61.5456 182.178 61.622 182.32 61.7747C182.473 61.9165 182.549 62.091 182.549 62.2983ZM192.632 55.0988C192.13 54.9024 191.584 54.8043 190.995 54.8043C190.079 54.8043 189.315 55.1097 188.705 55.7206C188.094 56.3314 187.788 57.1823 187.788 58.2731C187.788 59.2876 188.11 60.1166 188.754 60.7602C189.397 61.4147 190.232 61.742 191.257 61.742C191.868 61.742 192.462 61.5947 193.041 61.3002C193.182 61.2238 193.341 61.1856 193.515 61.1856C193.821 61.1856 194.044 61.3165 194.186 61.5783L194.579 62.2001C194.655 62.3201 194.693 62.4565 194.693 62.6092C194.693 62.8928 194.573 63.1219 194.333 63.2964C193.471 63.8964 192.364 64.1964 191.012 64.1964C189.223 64.1964 187.777 63.6509 186.676 62.5601C185.563 61.4802 185.007 60.0512 185.007 58.2731C185.007 56.5496 185.53 55.1315 186.577 54.0189C187.625 52.9062 189.097 52.3499 190.995 52.3499C191.999 52.3499 192.926 52.5626 193.777 52.988C194.039 53.108 194.17 53.3207 194.17 53.6262C194.17 53.7243 194.142 53.8443 194.088 53.9861L193.728 54.7388C193.597 55.0333 193.362 55.1806 193.024 55.1806C192.926 55.1806 192.795 55.1533 192.632 55.0988ZM201.325 64H200.213C200.005 64 199.825 63.9291 199.673 63.7873C199.531 63.6346 199.46 63.4546 199.46 63.2473V55.0006H196.776C196.569 55.0006 196.389 54.9297 196.237 54.7879C196.095 54.6352 196.024 54.4552 196.024 54.2479V53.2989C196.024 53.0917 196.095 52.9171 196.237 52.7753C196.389 52.6226 196.569 52.5462 196.776 52.5462H204.761C204.969 52.5462 205.143 52.6226 205.285 52.7753C205.438 52.9171 205.514 53.0917 205.514 53.2989V54.2479C205.514 54.4552 205.438 54.6352 205.285 54.7879C205.143 54.9297 204.969 55.0006 204.761 55.0006H202.078V63.2473C202.078 63.4546 202.002 63.6346 201.849 63.7873C201.707 63.9291 201.533 64 201.325 64ZM215.276 55.3279C215.276 56.4514 214.84 57.3077 213.967 57.8968C214.458 58.0931 214.851 58.4204 215.145 58.8785C215.451 59.3258 215.603 59.8766 215.603 60.5311C215.603 61.6874 215.205 62.5656 214.409 63.1655C213.613 63.7655 212.56 64.0655 211.251 64.0655C210.313 64.0655 209.467 64.0491 208.715 64.0164C208.518 64.0055 208.344 63.9236 208.191 63.7709C208.038 63.6073 207.962 63.4273 207.962 63.231V53.3316C207.962 53.1244 208.033 52.9444 208.175 52.7917C208.327 52.639 208.507 52.5572 208.715 52.5462C209.631 52.5026 210.536 52.4808 211.431 52.4808C212.696 52.4808 213.651 52.7371 214.294 53.2498C214.949 53.7516 215.276 54.4443 215.276 55.3279ZM211.595 59.3694H210.58V61.5129C210.82 61.5783 211.115 61.6111 211.464 61.6111C212.478 61.6111 212.985 61.2075 212.985 60.4002C212.985 59.713 212.522 59.3694 211.595 59.3694ZM210.58 55.0006V57.0787H211.447C212.254 57.0787 212.658 56.7078 212.658 55.966C212.658 55.6497 212.538 55.3988 212.298 55.2133C212.058 55.0279 211.758 54.9352 211.398 54.9352C211.202 54.9352 210.929 54.957 210.58 55.0006ZM226.226 63.46L225.489 61.5947H220.957L220.221 63.46C220.068 63.82 219.806 64 219.435 64H218.437C218.241 64 218.072 63.9291 217.93 63.7873C217.799 63.6455 217.734 63.4819 217.734 63.2964C217.734 63.1982 217.75 63.1055 217.783 63.0182L221.906 53.0862C222.07 52.7262 222.337 52.5462 222.708 52.5462H223.902C224.273 52.5462 224.54 52.7262 224.704 53.0862L228.827 63.0182C228.86 63.1055 228.876 63.1982 228.876 63.2964C228.876 63.4819 228.806 63.6455 228.664 63.7873C228.533 63.9291 228.369 64 228.173 64H227.011C226.629 64 226.367 63.82 226.226 63.46ZM224.508 59.1403L223.231 55.9006L221.939 59.1403H224.508Z" fill="white"/>
</svg>
