<svg width="61" height="61" viewBox="0 0 61 61" fill="none" xmlns="http://www.w3.org/2000/svg">
<path d="M27.5844 3.56768C29.091 1.72414 31.909 1.72414 33.4156 3.56768C34.556 4.96317 36.5253 5.3549 38.1129 4.50205C40.2103 3.37538 42.8138 4.45377 43.5002 6.73352C44.0197 8.4592 45.6893 9.57474 47.4824 9.39437C49.8513 9.15609 51.8439 11.1487 51.6056 13.5176C51.4253 15.3107 52.5408 16.9803 54.2665 17.4998C56.5462 18.1862 57.6246 20.7897 56.4979 22.8871C55.6451 24.4747 56.0368 26.444 57.4323 27.5844C59.2759 29.091 59.2759 31.909 57.4323 33.4156C56.0368 34.556 55.6451 36.5253 56.4979 38.1129C57.6246 40.2103 56.5462 42.8138 54.2665 43.5002C52.5408 44.0197 51.4253 45.6893 51.6056 47.4824C51.8439 49.8513 49.8513 51.8439 47.4824 51.6056C45.6893 51.4253 44.0197 52.5408 43.5002 54.2665C42.8138 56.5462 40.2103 57.6246 38.1129 56.4979C36.5253 55.6451 34.556 56.0368 33.4156 57.4323C31.909 59.2759 29.091 59.2759 27.5844 57.4323C26.444 56.0368 24.4747 55.6451 22.8871 56.498C20.7897 57.6246 18.1862 56.5462 17.4998 54.2665C16.9803 52.5408 15.3107 51.4253 13.5176 51.6056C11.1487 51.8439 9.15609 49.8513 9.39437 47.4824C9.57474 45.6893 8.4592 44.0197 6.73352 43.5002C4.45377 42.8138 3.37538 40.2103 4.50205 38.1129C5.3549 36.5253 4.96317 34.556 3.56768 33.4156C1.72414 31.909 1.72414 29.091 3.56768 27.5844C4.96317 26.444 5.3549 24.4747 4.50205 22.8871C3.37538 20.7897 4.45377 18.1862 6.73352 17.4998C8.4592 16.9803 9.57474 15.3107 9.39437 13.5176C9.15609 11.1487 11.1487 9.15609 13.5176 9.39437C15.3107 9.57474 16.9803 8.4592 17.4998 6.73352C18.1862 4.45377 20.7897 3.37538 22.8871 4.50205C24.4747 5.3549 26.444 4.96317 27.5844 3.56768Z" fill="white"/>
<path d="M6.44522 44.4577L6.73352 43.5002L6.44522 44.4577C7.71258 44.8393 8.53186 46.0654 8.39939 47.3823C8.09783 50.3804 10.6196 52.9022 13.6177 52.6006C14.9346 52.4681 16.1607 53.2874 16.5423 54.5548C17.411 57.44 20.7059 58.8048 23.3603 57.3789C24.5263 56.7525 25.9726 57.0402 26.8101 58.0651C28.7168 60.3983 32.2832 60.3983 34.1899 58.0651C35.0274 57.0402 36.4737 56.7525 37.6397 57.3789C40.2941 58.8048 43.589 57.44 44.4577 54.5548C44.8393 53.2874 46.0654 52.4681 47.3823 52.6006C50.3804 52.9022 52.9022 50.3804 52.6006 47.3823C52.4681 46.0654 53.2874 44.8393 54.5548 44.4577C57.44 43.589 58.8048 40.2941 57.3789 37.6397C56.7525 36.4737 57.0402 35.0274 58.0651 34.1899C60.3983 32.2832 60.3983 28.7168 58.0651 26.8101C57.0402 25.9726 56.7525 24.5263 57.3789 23.3603C58.8048 20.7059 57.44 17.411 54.5548 16.5423C53.2874 16.1607 52.4681 14.9346 52.6006 13.6177C52.9022 10.6196 50.3804 8.09783 47.3823 8.39939C46.0654 8.53186 44.8393 7.71258 44.4577 6.44522L43.5002 6.73352L44.4577 6.44522C43.589 3.56001 40.2941 2.19521 37.6397 3.62111C36.4737 4.24745 35.0274 3.95976 34.1899 2.9349C32.2832 0.601735 28.7168 0.601737 26.8101 2.9349C25.9726 3.95976 24.5263 4.24745 23.3603 3.62111C20.7059 2.19521 17.411 3.56 16.5423 6.44522C16.1607 7.71258 14.9346 8.53186 13.6177 8.39939C10.6196 8.09783 8.09783 10.6196 8.39939 13.6177C8.53186 14.9346 7.71258 16.1607 6.44522 16.5423C3.56 17.411 2.19521 20.7059 3.62111 23.3603C4.24745 24.5263 3.95976 25.9726 2.9349 26.8101C0.601737 28.7168 0.601736 32.2832 2.9349 34.1899C3.95976 35.0274 4.24745 36.4737 3.62111 37.6397C2.19521 40.2941 3.56001 43.589 6.44522 44.4577Z" stroke="white" stroke-opacity="0.4" stroke-width="2"/>
</svg>
