<svg width="19" height="19" viewBox="0 0 19 19" fill="none" xmlns="http://www.w3.org/2000/svg">
<path d="M12.4662 3.98737L12.4662 3.98737L12.4677 3.99052C12.7006 4.45664 13.0918 4.87933 13.5268 5.20491C13.9622 5.53079 14.4779 5.78661 14.9882 5.88546L14.9967 5.88711L15.0053 5.88846L16.031 6.05052C16.0317 6.05064 16.0324 6.05076 16.0331 6.05087C17.4862 6.29375 18.2183 6.92031 18.4284 7.58063C18.6392 8.24289 18.405 9.18884 17.3574 10.2505C17.3571 10.2508 17.3568 10.2511 17.3565 10.2514L16.41 11.1987L16.4099 11.1986L16.4026 11.2063C16.02 11.6058 15.7428 12.1602 15.5848 12.7177C15.4268 13.2748 15.3722 13.8899 15.4892 14.4256L15.4892 14.4256L15.4913 14.4346L15.6261 15.0011C16.0357 16.829 15.6963 17.8403 15.1571 18.2352C14.6206 18.6282 13.5681 18.6415 11.9799 17.6878L11.9799 17.6877L11.9725 17.6834L11.269 17.2772C11.2688 17.2771 11.2686 17.277 11.2684 17.2769C10.7546 16.9785 10.1141 16.8433 9.5 16.8433C8.88593 16.8433 8.24542 16.9785 7.73157 17.2769C7.73138 17.277 7.73118 17.2771 7.73099 17.2772L7.0275 17.6834L7.02746 17.6833L7.01908 17.6884C5.41667 18.6559 4.35904 18.6407 3.82366 18.2462C3.28508 17.8494 2.94996 16.8322 3.37353 15.0028C3.37364 15.0023 3.37375 15.0018 3.37386 15.0013L3.5087 14.4346L3.50879 14.4346L3.51075 14.4256C3.62783 13.8899 3.57319 13.2748 3.41523 12.7177C3.25717 12.1602 2.98003 11.6058 2.59741 11.2063L2.59742 11.2062L2.59492 11.2037L1.6463 10.2272L1.64631 10.2271L1.64349 10.2243C0.595132 9.16228 0.360726 8.21596 0.571561 7.5535C0.781715 6.89318 1.51377 6.26662 2.96695 6.02374L3.99474 5.86133L3.99474 5.86135L3.99896 5.86064C4.50661 5.77597 5.02714 5.51515 5.46361 5.18754C5.90087 4.85932 6.2991 4.43008 6.53225 3.96339L6.53226 3.9634L6.53381 3.96024L7.29192 2.4157C7.98801 1.02322 8.81625 0.497605 9.49824 0.500009C10.1809 0.502414 11.0108 1.03474 11.7076 2.44191C11.7078 2.44218 11.7079 2.44245 11.708 2.44272L12.4662 3.98737Z" fill="#58C69E"/>
<path d="M12.4662 3.98737L12.4662 3.98737L12.4677 3.99052C12.7006 4.45664 13.0918 4.87933 13.5268 5.20491C13.9622 5.53079 14.4779 5.78661 14.9882 5.88546L14.9967 5.88711L15.0053 5.88846L16.031 6.05052C16.0317 6.05064 16.0324 6.05076 16.0331 6.05087C17.4862 6.29375 18.2183 6.92031 18.4284 7.58063C18.6392 8.24289 18.405 9.18884 17.3574 10.2505C17.3571 10.2508 17.3568 10.2511 17.3565 10.2514L16.41 11.1987L16.4099 11.1986L16.4026 11.2063C16.02 11.6058 15.7428 12.1602 15.5848 12.7177C15.4268 13.2748 15.3722 13.8899 15.4892 14.4256L15.4892 14.4256L15.4913 14.4346L15.6261 15.0011C16.0357 16.829 15.6963 17.8403 15.1571 18.2352C14.6206 18.6282 13.5681 18.6415 11.9799 17.6878L11.9799 17.6877L11.9725 17.6834L11.269 17.2772C11.2688 17.2771 11.2686 17.277 11.2684 17.2769C10.7546 16.9785 10.1141 16.8433 9.5 16.8433C8.88593 16.8433 8.24542 16.9785 7.73157 17.2769C7.73138 17.277 7.73118 17.2771 7.73099 17.2772L7.0275 17.6834L7.02746 17.6833L7.01908 17.6884C5.41667 18.6559 4.35904 18.6407 3.82366 18.2462C3.28508 17.8494 2.94996 16.8322 3.37353 15.0028C3.37364 15.0023 3.37375 15.0018 3.37386 15.0013L3.5087 14.4346L3.50879 14.4346L3.51075 14.4256C3.62783 13.8899 3.57319 13.2748 3.41523 12.7177C3.25717 12.1602 2.98003 11.6058 2.59741 11.2063L2.59742 11.2062L2.59492 11.2037L1.6463 10.2272L1.64631 10.2271L1.64349 10.2243C0.595132 9.16228 0.360726 8.21596 0.571561 7.5535C0.781715 6.89318 1.51377 6.26662 2.96695 6.02374L3.99474 5.86133L3.99474 5.86135L3.99896 5.86064C4.50661 5.77597 5.02714 5.51515 5.46361 5.18754C5.90087 4.85932 6.2991 4.43008 6.53225 3.96339L6.53226 3.9634L6.53381 3.96024L7.29192 2.4157C7.98801 1.02322 8.81625 0.497605 9.49824 0.500009C10.1809 0.502414 11.0108 1.03474 11.7076 2.44191C11.7078 2.44218 11.7079 2.44245 11.708 2.44272L12.4662 3.98737Z" fill="url(#paint0_linear_6_1006)"/>
<path d="M12.4662 3.98737L12.4662 3.98737L12.4677 3.99052C12.7006 4.45664 13.0918 4.87933 13.5268 5.20491C13.9622 5.53079 14.4779 5.78661 14.9882 5.88546L14.9967 5.88711L15.0053 5.88846L16.031 6.05052C16.0317 6.05064 16.0324 6.05076 16.0331 6.05087C17.4862 6.29375 18.2183 6.92031 18.4284 7.58063C18.6392 8.24289 18.405 9.18884 17.3574 10.2505C17.3571 10.2508 17.3568 10.2511 17.3565 10.2514L16.41 11.1987L16.4099 11.1986L16.4026 11.2063C16.02 11.6058 15.7428 12.1602 15.5848 12.7177C15.4268 13.2748 15.3722 13.8899 15.4892 14.4256L15.4892 14.4256L15.4913 14.4346L15.6261 15.0011C16.0357 16.829 15.6963 17.8403 15.1571 18.2352C14.6206 18.6282 13.5681 18.6415 11.9799 17.6878L11.9799 17.6877L11.9725 17.6834L11.269 17.2772C11.2688 17.2771 11.2686 17.277 11.2684 17.2769C10.7546 16.9785 10.1141 16.8433 9.5 16.8433C8.88593 16.8433 8.24542 16.9785 7.73157 17.2769C7.73138 17.277 7.73118 17.2771 7.73099 17.2772L7.0275 17.6834L7.02746 17.6833L7.01908 17.6884C5.41667 18.6559 4.35904 18.6407 3.82366 18.2462C3.28508 17.8494 2.94996 16.8322 3.37353 15.0028C3.37364 15.0023 3.37375 15.0018 3.37386 15.0013L3.5087 14.4346L3.50879 14.4346L3.51075 14.4256C3.62783 13.8899 3.57319 13.2748 3.41523 12.7177C3.25717 12.1602 2.98003 11.6058 2.59741 11.2063L2.59742 11.2062L2.59492 11.2037L1.6463 10.2272L1.64631 10.2271L1.64349 10.2243C0.595132 9.16228 0.360726 8.21596 0.571561 7.5535C0.781715 6.89318 1.51377 6.26662 2.96695 6.02374L3.99474 5.86133L3.99474 5.86135L3.99896 5.86064C4.50661 5.77597 5.02714 5.51515 5.46361 5.18754C5.90087 4.85932 6.2991 4.43008 6.53225 3.96339L6.53226 3.9634L6.53381 3.96024L7.29192 2.4157C7.98801 1.02322 8.81625 0.497605 9.49824 0.500009C10.1809 0.502414 11.0108 1.03474 11.7076 2.44191C11.7078 2.44218 11.7079 2.44245 11.708 2.44272L12.4662 3.98737Z" stroke="url(#paint1_linear_6_1006)"/>
<defs>
<linearGradient id="paint0_linear_6_1006" x1="2.27394" y1="-5.13" x2="8.14704" y2="29.3003" gradientUnits="userSpaceOnUse">
<stop stop-color="#73DFB8"/>
<stop offset="1" stop-color="#087B52"/>
</linearGradient>
<linearGradient id="paint1_linear_6_1006" x1="18" y1="28" x2="8" y2="10.5" gradientUnits="userSpaceOnUse">
<stop stop-color="white"/>
<stop offset="1" stop-opacity="0"/>
</linearGradient>
</defs>
</svg>
