<svg width="90" height="90" viewBox="0 0 90 90" fill="none" xmlns="http://www.w3.org/2000/svg">
<path fill-rule="evenodd" clip-rule="evenodd" d="M45.0324 -0.00341797C69.8839 -0.00341797 90.0307 20.1417 90.0307 44.9916C90.0307 69.8431 69.8839 89.9882 45.0324 89.9882C20.1842 89.9882 0.0390625 69.8431 0.0390625 44.9916C0.0390625 20.1417 20.1842 -0.00341797 45.0324 -0.00341797ZM45.0324 9.5013C64.6364 9.5013 80.526 25.3909 80.526 44.9916C80.526 64.5939 64.6364 80.4835 45.0324 80.4835C25.4334 80.4835 9.54378 64.5939 9.54378 44.9916C9.54378 25.3909 25.4334 9.5013 45.0324 9.5013Z" fill="black"/>
<path fill-rule="evenodd" clip-rule="evenodd" d="M11.2262 61.0616C11.1627 60.8461 11.0441 60.5104 10.8554 60.0895C10.5063 59.3179 10.1255 58.8486 9.67794 58.6616C9.33557 58.5213 8.95478 58.4979 8.54727 58.6816C7.84581 58.9989 7.7122 59.6937 7.80907 60.1898L7.78903 60.1998C7.39154 59.7873 6.85208 59.6586 6.38946 59.8674C6.01702 60.0361 5.80658 60.3167 5.73477 60.644C5.62621 61.0398 5.69802 61.4808 5.97359 62.0904C6.16232 62.5112 6.39948 62.9204 6.58319 63.1576L11.2262 61.0616ZM6.71346 62.3643C6.64666 62.2757 6.5548 62.1238 6.42787 61.8432C6.14896 61.2269 6.18737 60.7108 6.73183 60.4636C7.18945 60.2582 7.70552 60.482 7.99278 61.12L8.2433 61.6745L6.71346 62.3643ZM8.69925 61.4674L8.47044 60.963C8.16982 60.2966 8.1932 59.6186 8.83119 59.3313C9.51928 59.0207 10.012 59.4983 10.2992 60.1296C10.3961 60.3467 10.4662 60.5188 10.5013 60.654L8.69925 61.4674ZM4.50722 58.1472L7.44164 57.2937C8.99486 56.8428 9.34726 55.9059 9.04997 54.8871C8.73766 53.8082 7.88255 53.1819 6.35271 53.6278L3.44168 54.4729L3.6304 55.1242L6.58653 54.2641C7.68047 53.9468 8.30677 54.2858 8.52054 55.0174C8.71261 55.6821 8.38359 56.315 7.2763 56.6374L4.32016 57.4958L4.50722 58.1472ZM7.94268 51.637C8.08631 51.3364 8.16481 50.7736 8.098 50.2792C7.92932 49.0667 7.15772 48.5823 6.37276 48.6909C5.61786 48.7944 5.26546 49.2855 5.03999 50.2007C4.86463 50.9472 4.66922 51.293 4.19824 51.3581C3.84752 51.4065 3.39157 51.1961 3.2947 50.4946C3.23124 50.0303 3.32978 49.6679 3.4066 49.4942L2.83208 49.3857C2.74022 49.6245 2.67175 50.0287 2.74356 50.5481C2.88051 51.5468 3.56693 52.128 4.36693 52.0178C5.08341 51.9193 5.45418 51.3414 5.62788 50.4629C5.79155 49.7331 6.03706 49.4191 6.51806 49.3539C7.0358 49.2821 7.44164 49.6312 7.5335 50.3093C7.59696 50.7669 7.51178 51.2145 7.36982 51.5368L7.94268 51.637ZM2.49137 47.126L7.67713 47.0492L7.66711 46.3711L2.48135 46.4496L2.49137 47.126ZM7.60197 44.0329L5.39239 43.8659C4.53227 43.8008 3.91098 43.7607 3.25462 43.749L3.24961 43.7256C3.82915 43.5152 4.44542 43.2145 5.04834 42.8972L7.79738 41.4542L7.84915 40.7795L2.67676 40.387L2.62999 41.0166L4.80116 41.1803C5.59948 41.2421 6.22912 41.2738 6.9239 41.2655L6.93058 41.2889C6.38278 41.486 5.81493 41.7515 5.18028 42.0822L2.43793 43.5335L2.38281 44.2701L7.55187 44.6625L7.60197 44.0329ZM5.60784 35.9578L5.27548 37.9386L3.65879 37.668L4.01119 35.5653L3.45671 35.4735L2.99241 38.2426L8.10802 39.101L8.59236 36.2167L8.03621 36.1232L7.66711 38.3394L5.82161 38.0305L6.15397 36.0497L5.60784 35.9578ZM8.63745 35.0192C8.90133 34.8171 9.22534 34.3512 9.38901 33.8785C9.78817 32.7211 9.31553 31.9395 8.56731 31.6806C7.84748 31.4318 7.31137 31.7124 6.69676 32.4272C6.2024 33.0134 5.87339 33.2338 5.42245 33.0785C5.08842 32.9633 4.77444 32.5708 5.00659 31.9011C5.16024 31.4568 5.41243 31.1779 5.5594 31.0577L5.09344 30.7019C4.90638 30.8723 4.66254 31.203 4.49052 31.699C4.1615 32.651 4.50889 33.4793 5.27548 33.7432C5.95856 33.9804 6.55146 33.6313 7.10427 32.9265C7.58026 32.3503 7.93934 32.18 8.39862 32.3386C8.89131 32.509 9.09674 33.0034 8.87294 33.6514C8.72263 34.0873 8.44205 34.4464 8.17149 34.6702L8.63745 35.0192ZM10.0587 30.9007C10.3427 30.7253 10.7084 30.2927 10.9189 29.8385C11.4299 28.7262 11.0374 27.9028 10.3176 27.5721C9.62617 27.2531 9.06501 27.4786 8.38359 28.1316C7.83245 28.666 7.48506 28.8531 7.05083 28.6527C6.72849 28.5057 6.45793 28.0832 6.75187 27.4402C6.94895 27.0143 7.22619 26.7604 7.38485 26.6552L6.95897 26.256C6.75187 26.408 6.47797 26.712 6.25919 27.188C5.83831 28.1049 6.10386 28.9633 6.83872 29.3007C7.49508 29.603 8.11971 29.314 8.73933 28.6677C9.26876 28.1399 9.64287 28.008 10.0838 28.2101C10.5598 28.4289 10.7134 28.9399 10.4278 29.5629C10.2358 29.9821 9.92178 30.3128 9.62951 30.5082L10.0587 30.9007ZM12.776 25.5596C13.08 25.4243 13.5009 25.0435 13.7681 24.6193C14.4194 23.5838 14.1389 22.717 13.4658 22.2945C12.8228 21.8886 12.2366 22.0373 11.4767 22.5951C10.8604 23.0544 10.4913 23.193 10.0871 22.9392C9.78817 22.7504 9.57273 22.2978 9.95018 21.6982C10.2007 21.3008 10.508 21.0853 10.68 21.0018L10.3093 20.5509C10.0855 20.6745 9.77314 20.94 9.49423 21.3843C8.95645 22.236 9.10843 23.1229 9.79151 23.5538C10.4045 23.9396 11.0608 23.7341 11.7589 23.173C12.3535 22.7204 12.7426 22.6369 13.1518 22.8957C13.5927 23.1746 13.6796 23.7024 13.3172 24.2819C13.07 24.6727 12.7176 24.96 12.4003 25.1153L12.776 25.5596ZM16.9781 20.4256C17.8248 19.4185 17.7931 17.9739 16.432 16.8298C15.2512 15.8411 13.8332 15.8428 12.9163 16.9334C12.0261 17.9939 12.1982 19.4653 13.4591 20.5241C14.6599 21.5346 16.0879 21.4861 16.9731 20.4323L16.9781 20.4256ZM16.5756 20.0565C15.8975 20.8649 14.7384 20.6745 13.9017 19.973C13.0416 19.2498 12.6023 18.1576 13.3205 17.3025C14.0387 16.4474 15.2094 16.7296 15.9977 17.3926C16.9013 18.1492 17.2637 19.2381 16.5806 20.0515L16.5756 20.0565ZM21.6862 14.7822C21.5709 15.0595 21.3154 15.3968 21.0014 15.6724C20.0595 16.5008 18.9789 16.3772 18.1372 15.4252C17.2436 14.4081 17.3355 13.2908 18.2491 12.4875C18.5731 12.2019 18.9054 12.0332 19.171 11.9631L18.9321 11.4353C18.7434 11.4887 18.3392 11.6591 17.8599 12.0816C16.6541 13.1438 16.5505 14.692 17.6228 15.9096C18.7484 17.1872 20.1781 17.1572 21.2753 16.1902C21.7497 15.7743 22.0436 15.3501 22.1405 15.0996L21.6862 14.7822ZM20.4069 10.2645L23.4198 14.4866L23.9709 14.0941L20.958 9.87038L20.4069 10.2645ZM26.9187 10.4032L28.2014 11.5539L28.8243 11.2031L24.7409 7.5489L24.0361 7.94639L25.0415 13.3309L25.6461 12.9919L25.3154 11.305L26.9187 10.4032ZM25.1801 10.7806L24.8878 9.22404C24.8177 8.90003 24.7358 8.57603 24.649 8.28042L24.669 8.2704C24.8828 8.49419 25.0999 8.72467 25.3605 8.96684L26.5413 10.0157L25.1801 10.7806ZM30.0118 10.6887L32.699 9.61318L32.4903 9.0921L30.4293 9.91547L28.7141 5.6199L28.0845 5.87209L30.0118 10.6887ZM38.7315 7.31007C38.4961 7.4988 38.1119 7.67416 37.7078 7.76769C36.4852 8.04994 35.59 7.42698 35.3044 6.18941C35.0005 4.87001 35.6117 3.92973 36.7975 3.65749C37.2167 3.56063 37.5892 3.56898 37.8564 3.63411L37.8998 3.05625C37.7078 3.01282 37.2702 2.97107 36.6489 3.1147C35.0823 3.47712 34.2556 4.78817 34.6197 6.37146C35.0021 8.02823 36.2748 8.68292 37.6977 8.3539C38.3157 8.21194 38.775 7.97979 38.9787 7.8061L38.7315 7.31007ZM42.2689 7.75599C43.5816 7.65746 44.5887 6.62365 44.4567 4.84997C44.3382 3.31512 43.3444 2.30302 41.9248 2.40991C40.5436 2.51512 39.6117 3.66584 39.737 5.30925C39.8555 6.87417 40.8877 7.86121 42.2605 7.75767L42.2689 7.75599ZM42.2505 7.20986C41.2 7.29003 40.5253 6.3297 40.4418 5.24078C40.3566 4.12012 40.8292 3.04122 41.9432 2.95771C43.0555 2.87253 43.6751 3.90634 43.7536 4.93514C43.8405 6.10925 43.3177 7.1297 42.2589 7.20986H42.2505ZM50.5494 7.8729L51.2108 7.92301L51.2792 2.72723L50.4275 2.6621L49.3168 5.09381C49.0379 5.72846 48.8108 6.29129 48.6321 6.80235L48.617 6.80068C48.5202 6.25288 48.3949 5.66499 48.2279 5.01197L47.5348 2.44331L46.683 2.37817L45.9298 7.52385L46.5661 7.57228L46.8734 5.36437C46.9786 4.59277 47.0822 3.72764 47.1473 3.08464L47.1624 3.08631C47.2609 3.71094 47.4095 4.39402 47.5983 5.14224L48.258 7.66915L48.764 7.70756L49.868 5.2675C50.182 4.58108 50.4392 3.93641 50.6696 3.35186L50.6847 3.35353C50.6362 3.98985 50.6145 4.87669 50.5995 5.59318L50.5494 7.8729ZM52.7373 8.33887L53.3886 8.48751L53.8512 6.44661C53.9949 6.51843 54.1719 6.56686 54.369 6.61029C55.007 6.75559 55.6116 6.69546 56.0408 6.40653C56.3631 6.20444 56.5769 5.8771 56.6821 5.41948C56.784 4.97857 56.6938 4.57273 56.47 4.27043C56.2312 3.93307 55.7936 3.6742 55.1473 3.52889C54.6228 3.40864 54.1986 3.36021 53.8696 3.34852L52.7373 8.33887ZM54.4174 3.96313C54.5377 3.95812 54.7598 3.98484 55.0454 4.04997C55.7652 4.21365 56.1644 4.6412 56.0141 5.30758C55.8571 5.99568 55.2909 6.26791 54.5026 6.0892C54.2855 6.0391 54.1084 5.98399 53.9748 5.91551L54.4174 3.96313ZM57.1948 9.55139L59.8971 10.5869L60.0992 10.0608L58.0282 9.26913L59.6833 4.95018L59.0504 4.70801L57.1948 9.55139ZM63.4612 6.52511L61.0545 11.1213L61.6541 11.4353L64.0591 6.84076L63.4612 6.52511ZM66.3305 12.2236L65.9296 13.9004L66.5359 14.2812L67.8002 8.94847L67.1171 8.51757L62.8633 11.9681L63.4495 12.3372L64.7722 11.2432L66.3305 12.2236ZM65.1697 10.8758L66.3989 9.87539C66.6528 9.66161 66.8966 9.43281 67.1154 9.21569L67.1338 9.22905C67.0403 9.52299 66.94 9.82529 66.8515 10.1693L66.4925 11.7075L65.1697 10.8758ZM68.0858 15.4319L69.5338 13.7518C70.0966 13.0987 70.4974 12.6228 70.8949 12.1017L70.9183 12.11C70.7429 12.7029 70.6193 13.3777 70.5158 14.0507L70.0448 17.1187L70.5576 17.5613L73.9446 13.6315L73.4653 13.2207L72.0456 14.8708C71.5229 15.477 71.1221 15.9647 70.7162 16.5292L70.6945 16.5208C70.8598 15.9613 70.9834 15.3467 71.0953 14.6403L71.5546 11.5722L70.9951 11.0896L67.6081 15.0194L68.0858 15.4319ZM74.646 20.8732C74.3705 20.7563 74.0314 20.5008 73.7575 20.1884C72.9275 19.2482 73.0511 18.1642 74.0047 17.3258C75.0201 16.4307 76.1375 16.5225 76.9391 17.4361C77.2247 17.7584 77.3967 18.0908 77.4669 18.358L77.9946 18.1192C77.9412 17.9304 77.7709 17.5263 77.3483 17.0469C76.2844 15.8394 74.7379 15.7359 73.5187 16.8098C72.2427 17.9338 72.2711 19.3634 73.2381 20.4607C73.6556 20.935 74.0782 21.2289 74.3287 21.3275L74.646 20.8732ZM79.0218 23.021L77.8711 21.3742L79.2138 20.4356L80.4364 22.1826L80.894 21.8602L79.2873 19.5588L75.0335 22.5316L76.712 24.9283L77.1713 24.6059L75.8836 22.7638L77.4168 21.6932L78.5675 23.3383L79.0218 23.021ZM82.7779 25.1254L78.2001 27.5671L78.5191 28.165L83.0969 25.7233L82.7779 25.1254ZM79.5262 30.271L81.5788 29.436C82.3787 29.1103 82.9516 28.8681 83.5445 28.5859L83.5595 28.6042C83.1353 29.0518 82.7161 29.5963 82.3186 30.1491L80.5015 32.666L80.757 33.294L85.562 31.3382L85.3232 30.7537L83.3057 31.5737C82.5641 31.876 81.9863 32.1282 81.3683 32.4472L81.3516 32.4288C81.7541 32.0063 82.1416 31.5153 82.5641 30.9374L84.3712 28.4155L84.0923 27.7308L79.289 29.6865L79.5262 30.271ZM86.1299 33.5061L81.1495 34.9541L81.3382 35.6038L86.3186 34.1558L86.1299 33.5061ZM81.8994 38.2342L82.0113 38.9023L86.5658 38.1373L86.8263 39.7006L87.3891 39.6071L86.7545 35.8192L86.1933 35.9144L86.4522 37.4693L81.8994 38.2342ZM87.5361 41.1753L82.3654 41.5678L82.4155 42.2425L87.5879 41.85L87.5361 41.1753ZM84.114 46.6483L82.4739 47.1778L82.4622 47.8926L87.6764 46.2007L87.6881 45.3924L82.5291 43.5536L82.519 44.245L84.1407 44.8095L84.114 46.6483ZM84.6635 44.9548L86.1549 45.4859C86.4689 45.5911 86.7912 45.6797 87.0902 45.7531V45.7765C86.7896 45.85 86.4806 45.9218 86.1399 46.0237L84.6384 46.5164L84.6635 44.9548ZM82.2301 49.5711L82.1399 50.2408L86.7144 50.8704L86.4973 52.4403L87.0618 52.5172L87.5845 48.7126L87.02 48.6358L86.8063 50.199L82.2301 49.5711ZM86.7445 54.0403L81.6873 52.8929L81.5353 53.5527L86.5958 54.7017L86.7445 54.0403ZM80.555 56.9948L84.7988 60.5054L85.0426 59.834L82.9332 58.1355C82.3771 57.6795 81.8326 57.262 81.3182 56.9196L81.3215 56.9046C81.9378 56.9714 82.6042 57.0098 83.3357 57.0449L86.0129 57.1568L86.2618 56.4687L80.8055 56.3L80.555 56.9948ZM81.0961 63.4315L81.9345 61.6077L83.4242 62.2924L82.5341 64.2281L83.0435 64.4636L84.2176 61.9117L79.5044 59.7438L78.2836 62.401L78.793 62.6365L79.7316 60.5939L81.4318 61.3755L80.5917 63.201L81.0961 63.4315Z" fill="white"/>
<path fill-rule="evenodd" clip-rule="evenodd" d="M23.5567 81.7077L24.5153 82.3223L27.0823 77.8063L25.7863 76.9746L24.3967 78.132C23.9358 78.5211 23.4164 79.0021 22.9754 79.433L22.9504 79.4163C23.1809 78.8418 23.4013 78.2155 23.5817 77.6176L24.0894 75.8873L22.7734 75.0439L19.6953 79.2309L20.6089 79.8171L21.7563 78.2121C22.132 77.6844 22.5896 77.028 22.9871 76.4502L23.0005 76.4585C22.745 77.0998 22.4878 77.813 22.299 78.4226L21.6844 80.4067L22.456 80.9011L24.0794 79.5366C24.5754 79.1341 25.1566 78.628 25.656 78.162L25.6677 78.1704C25.2619 78.805 24.8744 79.4531 24.5571 79.9892L23.5567 81.7077ZM28.9579 82.7365C29.0063 82.6664 29.0998 82.5144 29.1833 82.3324C29.5675 81.4856 29.5391 80.4317 28.4318 79.929C27.241 79.3879 26.2656 80.1027 25.8715 80.9712C25.3838 82.0434 25.7445 83.0188 26.9069 83.5465C27.3696 83.757 27.8288 83.8822 28.2464 83.8939L28.4334 83.1073C28.1011 83.0756 27.7854 82.9904 27.4213 82.825C26.9236 82.5996 26.5763 82.1887 26.7499 81.7345L28.9579 82.7365ZM27.0739 81.0029C27.2293 80.7357 27.5984 80.405 28.0476 80.6088C28.5387 80.8309 28.4535 81.3169 28.3349 81.5758L27.0739 81.0029ZM28.9913 84.4618L30.0702 84.8275L30.7733 82.7499C30.805 82.6547 30.8468 82.5562 30.9136 82.481C31.0372 82.3273 31.2777 82.1653 31.5633 82.2622C31.919 82.3825 31.9758 82.7432 31.8271 83.1875L31.1474 85.1933L32.2263 85.5574L32.9328 83.4731C32.9645 83.3779 33.0163 83.2743 33.0664 83.2008C33.2184 83.0171 33.4505 82.9019 33.7144 82.9904C34.0718 83.1106 34.1369 83.4664 33.9632 83.9841L33.3052 85.9231L34.3841 86.2889L35.0956 84.1895C35.458 83.1173 35.1039 82.461 34.4192 82.2288C34.157 82.1403 33.9148 82.1319 33.681 82.1754C33.4706 82.2171 33.2701 82.3123 33.0664 82.4543L33.053 82.4493C33.023 82.0251 32.7491 81.6643 32.2831 81.5056C31.6785 81.3019 31.2443 81.5274 31.0104 81.7094L30.9904 81.7027L31.109 81.2067L30.1687 80.8877C30.0752 81.2134 29.9633 81.5908 29.813 82.0351L28.9913 84.4618ZM35.4931 85.3687C35.4196 85.7862 35.3261 86.2304 35.2676 86.4709L36.2463 86.643L36.3816 86.1352L36.3966 86.1369C36.577 86.6229 36.9745 86.8567 37.4054 86.9319C38.2555 87.0805 39.2141 86.5611 39.4479 85.2267C39.655 84.091 39.1373 83.2426 38.2521 83.0873C37.7377 82.9971 37.3152 83.134 37.0396 83.4129L37.0246 83.4113L37.397 81.2885L36.2446 81.0864L35.4931 85.3687ZM36.8225 84.5553C36.8359 84.4801 36.8559 84.4133 36.8826 84.3482C37.0179 84.0275 37.3469 83.8422 37.6576 83.8973C38.1953 83.9925 38.3741 84.4918 38.2722 85.068C38.1536 85.7344 37.7862 86.0601 37.2935 85.9749C36.9595 85.9165 36.7373 85.6259 36.7139 85.3102C36.7089 85.2467 36.7139 85.1766 36.7273 85.1014L36.8225 84.5553ZM43.2842 86.0183C43.3076 85.9348 43.3444 85.7611 43.3594 85.5607C43.4295 84.6321 43.0421 83.6534 41.8296 83.5616C40.5235 83.463 39.8538 84.4685 39.782 85.4204C39.6918 86.5945 40.3632 87.3862 41.6392 87.483C42.1452 87.5215 42.6195 87.4814 43.0153 87.3494L42.9218 86.5461C42.5995 86.6296 42.2721 86.6597 41.8746 86.6296C41.3268 86.5878 40.8625 86.3206 40.8692 85.8346L43.2842 86.0183ZM40.9227 85.0363C40.9761 84.7323 41.2099 84.2948 41.6993 84.3315C42.2371 84.3733 42.3256 84.8576 42.3039 85.1415L40.9227 85.0363ZM43.9122 87.5281L45.0813 87.5532L45.1231 85.6459C45.1264 85.5524 45.1347 85.4605 45.1531 85.3837C45.2383 85.0246 45.5356 84.8008 45.9665 84.8092C46.0967 84.8125 46.1886 84.8309 46.2805 84.8476L46.3055 83.747C46.2203 83.7303 46.1669 83.7219 46.06 83.7186C45.6892 83.7102 45.2316 83.9307 45.0262 84.4801H44.9945L44.9644 83.787L43.9657 83.7637C43.979 84.0877 43.979 84.4501 43.9673 85.0046L43.9105 87.5281H43.9122ZM49.6792 83.4296C48.475 83.5866 47.7819 84.4601 47.9406 85.6743C48.0942 86.8801 49.0295 87.4881 50.1201 87.3461C51.1205 87.2158 52.009 86.4643 51.8303 85.0981C51.6833 83.9691 50.8182 83.281 49.6792 83.4296ZM49.751 84.2664C50.2787 84.1979 50.566 84.7357 50.6362 85.2851C50.7247 85.9632 50.4992 86.4509 50.0433 86.5094C49.5472 86.5745 49.2165 86.1286 49.1347 85.4872C49.0629 84.9378 49.2015 84.3382 49.751 84.2664ZM54.0766 86.6346L53.5756 83.777L54.3104 83.6484L54.1618 82.7983L53.4186 82.9303L53.3852 82.7399C53.3217 82.3758 53.4286 82.0518 53.8077 81.9866C53.9597 81.9599 54.085 81.9616 54.1869 81.9733L54.0783 81.0798C53.9129 81.0697 53.7092 81.0664 53.457 81.1098C53.118 81.1699 52.7405 81.337 52.4933 81.6626C52.2194 82.0234 52.171 82.5395 52.2495 82.987L52.2746 83.1307L51.7819 83.2175L51.9305 84.066L52.4232 83.9791L52.9226 86.8367L54.0766 86.6346ZM56.971 85.8964C57.2315 85.8497 57.6524 85.7511 58.2002 85.5691C59.1789 85.2434 59.7233 84.8826 59.9872 84.4801C60.211 84.1294 60.2979 83.7102 60.1492 83.2576C59.9405 82.6296 59.381 82.3374 58.7697 82.3791L58.7647 82.3641C59.249 81.9683 59.3709 81.4806 59.229 81.0497C59.0787 80.5971 58.7246 80.3416 58.3204 80.2731C57.8862 80.1829 57.4469 80.2547 56.7689 80.4802C56.206 80.6672 55.6382 80.9127 55.3626 81.0614L56.971 85.8964ZM56.7121 81.4322C56.7939 81.3887 56.9275 81.3286 57.1764 81.2451C57.6791 81.0781 58.0315 81.18 58.1551 81.5524C58.2753 81.9182 58.0499 82.2605 57.457 82.4576L57.0912 82.5795L56.7121 81.4322ZM57.3568 83.3745L57.7375 83.2493C58.292 83.0639 58.8014 83.114 58.9651 83.6033C59.1371 84.1211 58.758 84.4668 58.2536 84.6338C58.0649 84.6973 57.933 84.7407 57.8177 84.7624L57.3568 83.3745ZM61.2181 84.1712C61.5521 84.1979 62.15 84.1044 62.6912 83.8605C63.9888 83.2743 64.2878 82.3273 63.9287 81.5357C63.6281 80.8693 63.0469 80.6088 62.0715 80.6773C61.3484 80.724 61.031 80.709 60.8941 80.4067C60.7872 80.1679 60.9125 79.8505 61.3751 79.6401C61.8294 79.4347 62.2352 79.413 62.459 79.4213L62.3104 78.4577C61.9697 78.451 61.5371 78.5211 60.996 78.765C59.887 79.266 59.4845 80.1829 59.8486 80.9896C60.1592 81.6777 60.8741 81.8764 61.7876 81.8029C62.444 81.7428 62.7446 81.8096 62.8765 82.1035C63.0168 82.4125 62.8498 82.7332 62.3588 82.9553C61.9012 83.1607 61.3868 83.2159 61.0394 83.1958L61.2181 84.1712ZM68.0105 79.7186C67.8535 79.924 67.5529 80.1745 67.2389 80.3549C66.3371 80.8693 65.4786 80.6071 64.9625 79.7052C64.3897 78.7032 64.7404 77.8564 65.5421 77.3988C65.9095 77.1884 66.2419 77.1048 66.4924 77.0765L66.2469 76.1529C66.0097 76.1562 65.5521 76.2848 65.0243 76.5854C63.6615 77.3654 63.0502 78.8401 63.9287 80.3766C64.6619 81.6593 66.0214 82.177 67.578 81.2869C68.1174 80.9779 68.4848 80.6272 68.6168 80.4368L68.0105 79.7186ZM66.4172 75.717L69.4134 79.9508L70.3687 79.276L67.3725 75.0422L66.4172 75.717Z" fill="white"/>
<path fill-rule="evenodd" clip-rule="evenodd" d="M25.1484 68.654L25.9501 71.3112H26.3893L26.8169 70.0486C26.9104 69.763 26.9939 69.484 27.0574 69.1651H27.0708C27.1359 69.4774 27.2127 69.7412 27.3046 70.0435L27.7121 71.3112H28.1513L29.0081 68.654H28.5305L28.1513 69.9884C28.0645 70.3007 27.9927 70.5813 27.9492 70.8502H27.9325C27.8708 70.5813 27.7939 70.2957 27.6954 69.9834L27.2845 68.654H26.877L26.4445 70.0051C26.3559 70.2957 26.2691 70.5813 26.209 70.8502H26.1923C26.1422 70.5763 26.0703 70.2957 26.0002 69.9984L25.6428 68.654H25.1484ZM29.2553 68.654L30.057 71.3112H30.4962L30.9237 70.0486C31.0173 69.763 31.0991 69.484 31.1659 69.1651H31.1743C31.2427 69.4774 31.3196 69.7412 31.4131 70.0435L31.8189 71.3112H32.2582L33.115 68.654H32.6373L32.2582 69.9884C32.168 70.3007 32.0979 70.5813 32.0544 70.8502H32.0377C31.9759 70.5813 31.9008 70.2957 31.8022 69.9834L31.388 68.654H30.9839L30.5513 70.0051C30.4628 70.2957 30.3726 70.5813 30.3142 70.8502H30.2975C30.249 70.5763 30.1772 70.2957 30.1037 69.9984L29.7496 68.654H29.2553ZM33.3605 68.654L34.1621 71.3112H34.6014L35.0306 70.0486C35.1241 69.763 35.206 69.484 35.2711 69.1651H35.2828C35.3479 69.4774 35.4248 69.7412 35.5183 70.0435L35.9241 71.3112H36.3634L37.2201 68.654H36.7425L36.3634 69.9884C36.2765 70.3007 36.2047 70.5813 36.1613 70.8502H36.1429C36.0845 70.5813 36.0076 70.2957 35.9091 69.9834L35.4966 68.654H35.0907L34.6565 70.0051C34.5696 70.2957 34.4811 70.5813 34.421 70.8502H34.4043C34.3542 70.5763 34.2841 70.2957 34.2122 69.9984L33.8548 68.654H33.3605ZM37.6978 71.3713C37.8949 71.3713 38.0268 71.2227 38.0268 71.0256C38.0268 70.8235 37.8949 70.6799 37.7028 70.6799C37.5107 70.6799 37.3721 70.8285 37.3721 71.0256C37.3721 71.2227 37.5057 71.3713 37.6911 71.3713H37.6978ZM38.6264 70.6247C38.6264 70.8619 38.6197 71.1308 38.6013 71.3112H39.0205L39.0489 70.8719H39.059C39.2627 71.2227 39.5633 71.3713 39.9491 71.3713C40.542 71.3713 41.1449 70.9003 41.1449 69.945C41.1449 69.1433 40.684 68.5939 40.0243 68.5939C39.5967 68.5939 39.2894 68.7809 39.1191 69.0765H39.1091V67.4131H38.6264V70.6247ZM39.1091 69.768C39.1091 69.6911 39.1191 69.626 39.1341 69.5659C39.2293 69.2035 39.5366 68.973 39.864 68.973C40.3817 68.973 40.6573 69.4289 40.6573 69.9667C40.6573 70.5763 40.36 70.9872 39.8506 70.9872C39.5049 70.9872 39.2193 70.7567 39.1258 70.4227C39.1141 70.3675 39.1091 70.3074 39.1091 70.2456V69.768ZM41.5675 71.1792C41.7529 71.2895 42.0218 71.3663 42.314 71.3663C42.9353 71.3663 43.3028 71.0373 43.3028 70.5646C43.3028 70.1688 43.0606 69.9383 42.6063 69.768C42.2606 69.631 42.1069 69.5325 42.1069 69.3137C42.1069 69.1149 42.2606 68.9513 42.5445 68.9513C42.7917 68.9513 42.9821 69.0448 43.089 69.1049L43.2042 68.7592C43.0606 68.6657 42.8251 68.5939 42.5545 68.5939C41.9917 68.5939 41.6393 68.9446 41.6393 69.3738C41.6393 69.6861 41.8631 69.95 42.3474 70.1254C42.6998 70.2573 42.8368 70.3776 42.8368 70.608C42.8368 70.8335 42.6714 71.0039 42.3257 71.0039C42.0836 71.0039 41.8314 70.9053 41.6811 70.8168L41.5675 71.1792ZM45.7345 70.8502C45.5975 70.9103 45.4171 70.9771 45.1416 70.9771C44.6155 70.9771 44.2197 70.598 44.2197 69.9834C44.2197 69.4339 44.5487 68.978 45.1583 68.978C45.4222 68.978 45.6009 69.0448 45.7178 69.1049L45.828 68.7358C45.6961 68.6657 45.4439 68.5939 45.1583 68.5939C44.2915 68.5939 43.7303 69.1918 43.7303 70.0101C43.7303 70.8235 44.2531 71.3663 45.0547 71.3663C45.4105 71.3663 45.6894 71.2728 45.8146 71.2126L45.7345 70.8502ZM46.8651 68.654H46.3825V71.3112H46.8651V68.654ZM46.6163 68.2097C46.805 68.2097 46.9186 68.0728 46.9186 67.9125C46.9186 67.7438 46.8 67.6118 46.6246 67.6118C46.4426 67.6118 46.3224 67.7438 46.3224 67.9125C46.3224 68.0728 46.4376 68.2097 46.613 68.2097H46.6163ZM47.4313 70.0051H48.7875V69.6527H47.4313V70.0051ZM49.8363 68.654H49.352V71.3112H49.8363V68.654ZM49.5891 68.2097C49.7745 68.2097 49.8898 68.0728 49.8898 67.9125C49.8898 67.7438 49.7695 67.6118 49.5941 67.6118C49.4121 67.6118 49.2918 67.7438 49.2918 67.9125C49.2918 68.0728 49.4071 68.2097 49.5825 68.2097H49.5891ZM50.6363 71.3112H51.1206V69.7078C51.1206 69.631 51.1307 69.5442 51.1524 69.484C51.2409 69.2135 51.4881 68.9897 51.8004 68.9897C52.2563 68.9897 52.415 69.3521 52.415 69.7797V71.3112H52.8993V69.7245C52.8993 68.8127 52.3281 68.5939 51.9607 68.5939C51.5215 68.5939 51.2125 68.841 51.0822 69.0882H51.0689L51.0438 68.654H50.6146C50.6313 68.8745 50.6363 69.0932 50.6363 69.3738V71.3112ZM53.7711 68.1663V68.654H53.3603V69.0214H53.7711V70.4661C53.7711 70.7784 53.8263 71.0156 53.9582 71.1625C54.0734 71.2895 54.2555 71.3663 54.4793 71.3663C54.6663 71.3663 54.815 71.3329 54.9085 71.2995L54.8868 70.9321C54.815 70.9538 54.7381 70.9655 54.6062 70.9655C54.3373 70.9655 54.2438 70.7784 54.2438 70.4494V69.0214H54.9352V68.654H54.2438V68.0177L53.7711 68.1663ZM55.4797 71.3112H55.9624V67.4131H55.4797V71.3112ZM56.9277 71.3713C57.1264 71.3713 57.2584 71.2227 57.2584 71.0256C57.2584 70.8235 57.1264 70.6799 56.9344 70.6799C56.7423 70.6799 56.6037 70.8285 56.6037 71.0256C56.6037 71.2227 56.7339 71.3713 56.9227 71.3713H56.9277ZM58.9435 71.3713C59.5748 71.3713 60.2596 70.9437 60.2596 69.955C60.2596 69.1484 59.7452 68.5939 58.9819 68.5939C58.2488 68.5939 57.6642 69.1149 57.6642 70.0051C57.6642 70.8452 58.2237 71.3713 58.9369 71.3713H58.9435ZM58.9536 71.0089C58.4876 71.0089 58.1586 70.5696 58.1586 69.9884C58.1586 69.484 58.4058 68.9563 58.9703 68.9563C59.5414 68.9563 59.7669 69.5208 59.7669 69.9717C59.7669 70.5763 59.4212 71.0089 58.9586 71.0089H58.9536ZM60.8675 71.3112H61.3535V69.8899C61.3535 69.8131 61.3585 69.7362 61.3669 69.6644C61.4354 69.307 61.6775 69.0498 62.0166 69.0498C62.0834 69.0498 62.1318 69.0548 62.1819 69.0598V68.6056C62.1385 68.5989 62.1001 68.5939 62.05 68.5939C61.726 68.5939 61.4304 68.8193 61.3084 69.1751H61.2917L61.27 68.654H60.8475C60.8642 68.9012 60.8675 69.1701 60.8675 69.484V71.3112ZM64.8942 69.3788C64.8942 69.0598 64.8992 68.841 64.9159 68.654H64.4867L64.4717 69.0548H64.46C64.3397 68.8294 64.0925 68.5939 63.6316 68.5939C63.017 68.5939 62.4291 69.0982 62.4291 69.9984C62.4291 70.74 62.9017 71.2995 63.5581 71.2995C63.9706 71.2995 64.2629 71.1024 64.4049 70.8552H64.4166V71.1458C64.4166 71.8222 64.0541 72.0794 63.5581 72.0794C63.2308 72.0794 62.9552 71.9809 62.7798 71.8657L62.6596 72.2398C62.8734 72.3817 63.2241 72.4586 63.5431 72.4586C63.8788 72.4586 64.2512 72.3767 64.5151 72.1396C64.7673 71.9041 64.8942 71.5366 64.8942 70.922V69.3788ZM64.4099 70.1755C64.4099 70.2623 64.3999 70.3559 64.3715 70.4327C64.2729 70.7467 64.0024 70.9321 63.7001 70.9321C63.184 70.9321 62.9168 70.4928 62.9168 69.9767C62.9168 69.3571 63.2475 68.968 63.7084 68.968C64.0642 68.968 64.2946 69.1985 64.3831 69.484C64.4049 69.5492 64.4099 69.621 64.4099 69.6978V70.1755Z" fill="black"/>
<path fill-rule="evenodd" clip-rule="evenodd" d="M31.9375 60.432C32.4068 60.5055 33.1834 60.5773 34.2189 60.5773C36.0727 60.5773 37.2068 60.2566 37.8832 59.6888C38.4644 59.1928 38.8518 58.4947 38.8518 57.5911C38.8518 56.3369 38.0635 55.4784 36.998 55.1861V55.1577C38.0502 54.7352 38.5312 53.9335 38.5312 53.0734C38.5312 52.1699 38.0769 51.5002 37.4272 51.1361C36.7341 50.7135 35.9475 50.5816 34.6615 50.5816C33.5976 50.5816 32.492 50.6835 31.9375 50.7853V60.432ZM34.0252 52.2584C34.1922 52.2283 34.4544 52.1999 34.9254 52.1999C35.8773 52.1999 36.4185 52.5924 36.4185 53.3356C36.4185 54.0638 35.8373 54.5448 34.7166 54.5448H34.0252V52.2584ZM34.0252 56.1331H34.745C35.7955 56.1331 36.6389 56.5272 36.6389 57.5026C36.6389 58.5381 35.7955 58.9306 34.8419 58.9306C34.4828 58.9306 34.2339 58.9306 34.0252 58.9022V56.1331ZM39.9391 60.0095C40.4669 60.3151 41.5174 60.6207 42.5829 60.6207C45.1399 60.6207 46.329 59.2228 46.329 57.5761C46.329 56.1915 45.5674 55.288 43.924 54.6467C42.7065 54.1657 42.1954 53.8901 42.1954 53.2638C42.1954 52.7678 42.638 52.3152 43.5499 52.3152C44.4485 52.3152 45.1265 52.5924 45.4856 52.7828L45.9566 51.0041C45.4021 50.7269 44.6422 50.5098 43.5783 50.5098C41.3938 50.5098 40.0527 51.7774 40.0527 53.4525C40.0527 54.8805 41.0748 55.784 42.6247 56.3669C43.7437 56.7744 44.1862 57.1252 44.1862 57.7364C44.1862 58.3778 43.6752 58.8003 42.7065 58.8003C41.808 58.8003 40.9228 58.4947 40.3683 58.1874L39.9391 60.0095ZM54.3056 58.4646C53.8763 58.655 53.1849 58.7853 52.5336 58.7853C50.668 58.7853 49.5624 57.5477 49.5624 55.5803C49.5624 53.3941 50.8618 52.3302 52.5219 52.3302C53.2818 52.3302 53.8763 52.5056 54.2905 52.6943L54.7331 50.9457C54.3607 50.7269 53.5306 50.5098 52.4384 50.5098C49.6175 50.5098 47.3495 52.3603 47.3495 55.7106C47.3495 58.508 49.0096 60.6358 52.2313 60.6358C53.3502 60.6358 54.2354 60.4036 54.6095 60.2132L54.3056 58.4646ZM56.0308 60.4754H58.1335V50.6551H56.0308V60.4754Z" fill="black"/>
<path fill-rule="evenodd" clip-rule="evenodd" d="M34.6606 23.7192H46.9879V22.4616H39.5157C36.8852 22.4616 34.7324 20.3088 34.7324 17.6767V17.2642H53.5966L64.252 23.7192V43.1746C64.252 44.5073 63.1631 45.5979 61.8286 45.5979H32.5596C31.2502 45.5979 30.1797 44.5257 30.1797 43.2163C30.1797 41.9069 31.2502 40.8364 32.5596 40.8364C35.0548 40.8364 37.5483 40.8364 40.0418 40.8364V39.9796C35.9249 39.9796 31.8064 39.9796 27.6878 39.9796C26.3785 39.9796 25.3079 38.9091 25.3079 37.5997C25.3079 36.2903 26.3785 35.2181 27.6878 35.2181C31.3371 35.2181 34.9863 35.2181 38.6355 35.2181V34.231C34.1997 34.231 29.7772 34.231 25.2879 34.231C23.9785 34.231 22.9062 33.1588 22.9062 31.8494C22.9062 30.54 23.9785 29.4695 25.2879 29.4695C30.355 29.4695 35.3103 29.4695 40.3341 29.4695L41.8806 28.4808C37.1491 28.4808 32.4193 28.4808 27.6878 28.4808C26.3785 28.4808 25.3079 27.4102 25.3079 26.1008C25.3079 24.7914 26.3785 23.7192 27.6878 23.7192H34.6606Z" fill="black"/>
<path fill-rule="evenodd" clip-rule="evenodd" d="M47.2466 25.9453C52.4274 25.9453 56.6261 30.144 56.6261 35.3248C56.6261 40.5038 52.4274 44.7042 47.2466 44.7042C42.0676 44.7042 37.8672 40.5038 37.8672 35.3248C37.8672 30.144 42.0676 25.9453 47.2466 25.9453ZM53.3794 40.3702H41.1139C42.5719 42.1372 44.7782 43.2646 47.2466 43.2646C49.7168 43.2646 51.923 42.1372 53.3794 40.3702ZM40.5811 39.6421H53.9121C54.657 38.4947 55.113 37.1419 55.1798 35.6889H39.3152C39.3803 37.1419 39.8363 38.4947 40.5811 39.6421ZM39.3152 34.9607H55.1798C55.113 33.506 54.657 32.1549 53.9121 31.0058H40.5811C39.8363 32.1549 39.3803 33.506 39.3152 34.9607ZM41.1139 30.2793H53.3794C51.923 28.5106 49.7168 27.3833 47.2466 27.3833C44.7782 27.3833 42.5703 28.5106 41.1139 30.2793Z" fill="white"/>
<path fill-rule="evenodd" clip-rule="evenodd" d="M46.8847 27.6188C45.6204 28.5391 44.7118 29.613 44.0772 30.7102C43.1486 32.3136 42.7979 33.9687 42.7711 35.2864C42.7461 36.6759 43.2304 38.5314 44.1774 40.1364C44.8538 41.2805 45.764 42.2926 46.8847 42.9022V27.6188ZM47.6129 26.7336C49.1878 27.7808 50.2951 29.0468 51.0483 30.3461C52.0454 32.068 52.4212 33.8517 52.4496 35.2747C52.4779 36.7845 51.9585 38.7853 50.9448 40.5055C50.1398 41.8667 49.0224 43.0608 47.6129 43.7139V44.1548H46.8847V43.7139C45.4751 43.0608 44.3561 41.8667 43.5528 40.5055C42.539 38.7853 42.0196 36.7845 42.048 35.2747C42.0764 33.8517 42.4505 32.068 43.4475 30.3461C44.2024 29.0468 45.3097 27.7808 46.8847 26.7336V26.251H47.6129V26.7336ZM47.6129 42.9022C48.7335 42.2926 49.6437 41.2805 50.3201 40.1364C51.2671 38.5314 51.7498 36.6759 51.7247 35.2864C51.6997 33.9687 51.3489 32.3136 50.4203 30.7102C49.784 29.613 48.8755 28.5391 47.6129 27.6188V42.9022Z" fill="white"/>
<path fill-rule="evenodd" clip-rule="evenodd" d="M13.3134 67.1309C14.404 67.1309 15.2891 68.016 15.2891 69.1066C15.2891 70.1989 14.404 71.0841 13.3134 71.0841C12.2211 71.0841 11.3359 70.1989 11.3359 69.1066C11.3359 68.016 12.2211 67.1309 13.3134 67.1309ZM76.75 67.3613C77.8422 67.3613 78.7274 68.2465 78.7274 69.3388C78.7274 70.4294 77.8422 71.3145 76.75 71.3145C75.6594 71.3145 74.7742 70.4294 74.7742 69.3388C74.7742 68.2465 75.6594 67.3613 76.75 67.3613Z" fill="white"/>
</svg>
