<svg width="98" height="72" viewBox="0 0 98 72" fill="none" xmlns="http://www.w3.org/2000/svg">
<path d="M59.0019 6.34008C60.4819 5.84008 61.8719 5.23008 63.1319 4.51008C60.3819 3.38008 57.4619 2.58008 54.4119 2.14008C56.0619 3.12008 57.6019 4.55008 59.0019 6.34008ZM40.1919 6.82008C45.7919 8.43008 52.2919 8.30008 57.7819 6.71008C55.2119 3.58008 52.2319 1.78008 49.1019 1.75008H48.9919C45.8119 1.78008 42.7819 3.61008 40.1919 6.82008ZM34.8819 4.58008C36.1519 5.33008 37.5319 5.94008 38.9819 6.44008C40.3919 4.62008 41.9419 3.16008 43.6119 2.16008C40.5519 2.62008 37.6219 3.44008 34.8819 4.58008ZM64.0519 16.0401C68.1219 15.3401 72.0419 14.3601 75.7019 13.1501C72.5719 9.80008 68.7519 7.05008 64.4719 5.09008C63.0519 5.98008 61.4519 6.73008 59.7419 7.33008C61.4219 9.73008 62.8819 12.6801 64.0519 16.0401ZM35.1519 16.3201C44.2319 17.7901 53.8919 17.6701 62.8819 16.2301C61.7019 12.8901 60.2319 10.0101 58.5519 7.71008C52.6119 9.53008 45.5019 9.68008 39.4219 7.82008C37.7719 10.1201 36.3219 12.9901 35.1519 16.3201ZM22.5819 13.0601C26.2019 14.4001 30.0319 15.4101 33.9819 16.1101C35.1419 12.7701 36.5819 9.83008 38.2519 7.42008C36.5819 6.82008 35.0019 6.07008 33.5719 5.14008C29.3919 7.10008 25.6619 9.79008 22.5819 13.0601ZM13.2219 27.7201C14.5419 22.4301 17.0919 17.6101 20.5719 13.5401C18.8919 12.8601 17.2619 12.1101 15.6919 11.2701L16.2419 10.2301C17.8919 11.1101 19.6119 11.8901 21.3919 12.6001C24.4819 9.23008 28.2419 6.42008 32.4519 4.37008C32.2719 4.23008 32.0819 4.09008 31.9119 3.95008L32.6519 3.04008C32.9819 3.31008 33.3219 3.57008 33.6819 3.81008C38.3319 1.75008 43.5119 0.600078 48.9619 0.580078H49.1019C54.5419 0.580078 59.7119 1.71008 64.3619 3.74008C64.7019 3.51008 65.0319 3.28008 65.3419 3.03008L66.0619 3.96008C65.9119 4.08008 65.7519 4.19008 65.6019 4.31008C69.9219 6.39008 73.7619 9.26008 76.9119 12.7201C78.7419 12.0801 80.4919 11.3701 82.1619 10.6101L82.6519 11.6801C81.0819 12.4001 79.4519 13.0601 77.7419 13.6801C80.8419 17.3401 83.1919 21.5901 84.5719 26.2501C84.0519 25.7601 83.4919 25.3201 82.9019 24.9101C81.4819 20.9201 79.3119 17.2701 76.5519 14.1001C72.7519 15.3901 68.6719 16.4201 64.4219 17.1701C65.3119 19.9401 66.0019 22.9701 66.4719 26.1601C66.1119 26.4901 65.7619 26.8501 65.4419 27.2201C64.9719 23.6601 64.2219 20.3501 63.2519 17.3701C54.0219 18.8601 44.1019 18.9901 34.7619 17.4601C33.8919 20.1401 33.2119 23.0901 32.7419 26.2401C32.4119 25.9301 32.0619 25.6401 31.7019 25.3601C32.1619 22.5001 32.8019 19.7801 33.6019 17.2601C29.4819 16.5201 25.4819 15.4501 21.7219 14.0201C18.7019 17.4701 16.3719 21.5101 14.9519 25.9201C14.3319 26.4501 13.7419 27.0601 13.2219 27.7201ZM32.1419 32.4001C32.0819 33.5801 32.0519 34.7801 32.0519 36.0001C32.0519 37.1701 32.0819 38.3201 32.1419 39.4501L30.9319 38.7501C30.8919 37.8401 30.8819 36.9301 30.8819 36.0001C30.8819 35.0201 30.9019 34.0401 30.9419 33.0701L32.1419 32.4001ZM59.9219 64.4101C61.6619 65.0401 63.2919 65.8301 64.7619 66.7801C68.9619 64.8101 72.6919 62.0801 75.7719 58.7801C72.1019 57.4001 68.1919 56.3701 64.1519 55.6701C63.0019 59.0301 61.5719 61.9901 59.9219 64.4101ZM39.2319 63.9001C45.2619 62.0801 52.5719 62.0901 58.7419 64.0201C60.3819 61.7001 61.8219 58.8101 62.9819 55.4801C53.8719 54.0401 44.1819 54.2201 35.1519 55.7001C36.2719 58.8801 37.6619 61.6601 39.2319 63.9001ZM33.1919 66.6701C34.6319 65.7101 36.2719 64.9201 38.0519 64.2901C36.4619 61.9401 35.0919 59.1001 33.9819 55.9001C29.9519 56.6101 26.0619 57.5801 22.4319 58.7901C25.4519 62.0201 29.1019 64.7101 33.1919 66.6701ZM38.7619 65.2801C37.2119 65.8001 35.7619 66.4601 34.4719 67.2401C37.3319 68.4701 40.3919 69.3601 43.6019 69.8301C41.8519 68.7801 40.2319 67.2401 38.7619 65.2801ZM58.0019 65.0201C52.2719 63.3201 45.5619 63.3201 39.9819 64.9101C42.6219 68.2901 45.7319 70.2301 49.0019 70.2401H49.1119C52.3219 70.2101 55.3819 68.3201 58.0019 65.0201ZM63.4619 67.3701C62.1519 66.5901 60.7219 65.9401 59.2019 65.4101C57.7519 67.3201 56.1419 68.8401 54.4119 69.8701C57.5819 69.4101 60.6119 68.5601 63.4619 67.3701ZM65.5919 68.8401C65.2819 68.5901 64.9719 68.3501 64.6419 68.1301C59.9219 70.2401 54.6519 71.4101 49.1019 71.4101H48.9819C43.3719 71.3901 38.0619 70.1701 33.3119 68.0101C32.9519 68.2701 32.6119 68.5401 32.2819 68.8201L31.5119 67.9401C31.7119 67.7701 31.9119 67.6001 32.1119 67.4401C27.9519 65.3701 24.2619 62.5601 21.2119 59.1901C19.2819 59.8601 17.4419 60.6001 15.6919 61.4101L15.2019 60.3401C16.8519 59.5801 18.5819 58.8801 20.3819 58.2401C16.9619 54.1801 14.4619 49.3701 13.1719 44.1201C13.6919 44.7901 14.2719 45.4001 14.9119 45.9601C16.3019 50.3601 18.5919 54.3801 21.5719 57.8301C25.3419 56.5501 29.3919 55.5201 33.6019 54.7701C32.7919 52.2201 32.1419 49.4701 31.6819 46.5601C32.0419 46.2801 32.3919 45.9901 32.7319 45.6801C33.2019 48.8701 33.8919 51.8601 34.7719 54.5601C44.0319 53.0301 53.9919 52.8401 63.3519 54.3401C64.2819 51.4101 65.0019 48.1601 65.4519 44.6901C65.7719 45.0601 66.1219 45.4101 66.4819 45.7501C66.0319 48.8701 65.3619 51.8301 64.5019 54.5401C68.7019 55.2801 72.7719 56.3701 76.5919 57.8401C79.3519 54.6501 81.5319 50.9601 82.9419 46.9401C83.5319 46.5401 84.0919 46.0901 84.6119 45.6001C83.2319 50.3001 80.8719 54.6101 77.7519 58.3001C79.3119 58.9401 80.8219 59.6501 82.2819 60.4201L81.7319 61.4601C80.1919 60.6401 78.5819 59.9001 76.9319 59.2401C73.8419 62.6501 70.0819 65.4801 65.8519 67.5601C66.0119 67.6801 66.1719 67.8101 66.3219 67.9301L65.5919 68.8401Z" fill="black"/>
<path d="M0 36.0001C0.05 16.2801 22.07 0.590088 49 0.590088C75.93 0.590088 97.95 16.2801 98 36.0001C97.95 55.7201 75.93 71.4101 49 71.4101C22.07 71.4101 0.05 55.7201 0 36.0001ZM1.18 36.0001C1.18 45.3901 6.46 53.9301 15.11 60.1501C23.76 66.3701 35.74 70.2401 49 70.2401C62.25 70.2401 74.24 66.3701 82.89 60.1501C91.54 53.9301 96.83 45.3901 96.83 36.0001C96.83 26.6101 91.55 18.0801 82.89 11.8501C74.24 5.63009 62.25 1.76009 49 1.76009C35.74 1.76009 23.76 5.63009 15.11 11.8501C6.46 18.0801 1.18 26.6101 1.18 36.0001Z" fill="black"/>
<path d="M63.5031 35.95C63.5031 29.33 68.8631 23.97 75.4831 23.97C79.8731 23.97 83.7131 26.33 85.7931 29.85L81.0431 32.51C79.8931 30.65 77.8331 29.41 75.4831 29.41C71.8731 29.41 68.9431 32.34 68.9431 35.95C68.9431 39.56 71.8731 42.49 75.4831 42.49C77.8631 42.49 79.9431 41.22 81.0931 39.32L85.7931 42.06C83.7031 45.57 79.8731 47.93 75.4931 47.93C68.8631 47.92 63.5031 42.56 63.5031 35.95ZM11.7031 35.95C11.7031 29.33 17.0631 23.97 23.6831 23.97C28.0731 23.97 31.9131 26.33 33.9931 29.85L29.2431 32.51C28.0931 30.65 26.0331 29.41 23.6831 29.41C20.0731 29.41 17.1431 32.34 17.1431 35.95C17.1431 39.56 20.0731 42.49 23.6831 42.49C26.0631 42.49 28.1431 41.22 29.2831 39.32L33.9831 42.06C31.8931 45.57 28.0631 47.93 23.6831 47.93C17.0631 47.92 11.7031 42.56 11.7031 35.95ZM43.2431 40.66C44.4131 41.79 46.0131 42.48 47.7731 42.48C49.5631 42.48 51.1931 41.76 52.3731 40.59C51.3031 39.78 49.9931 39.17 48.1631 39.05C46.6931 38.96 44.8531 39.38 43.2431 40.66ZM41.2231 35.95V36.15C45.5531 33.55 50.4131 33.8 54.2831 36.36C54.2931 36.23 54.2931 36.09 54.2931 35.95C54.2931 32.34 51.3631 29.41 47.7531 29.41C44.1531 29.41 41.2231 32.33 41.2231 35.95ZM35.7831 35.95C35.7831 29.33 41.1431 23.97 47.7631 23.97C54.3831 23.97 59.7431 29.33 59.7431 35.95C59.7431 37.47 59.4631 38.92 58.9431 40.26C60.0431 40.8 61.2231 40.88 62.8431 40.87V45.79C62.3931 45.81 60.7031 45.88 59.6031 45.76C58.2131 45.61 57.1731 45.07 56.2831 44.36C54.1131 46.56 51.0931 47.93 47.7531 47.93C41.1531 47.92 35.7831 42.56 35.7831 35.95Z" fill="black"/>
</svg>
