<svg width="98" height="90" viewBox="0 0 98 90" fill="none" xmlns="http://www.w3.org/2000/svg">
<path d="M71.1256 43.3268C75.1445 41.7116 78.8564 40.0128 82.1158 38.2857C82.0693 34.2116 81.5191 31.3305 80.3628 29.0064C79.1984 31.8201 77.4942 35.9188 76.9912 37.1051C76.8106 37.5313 76.5535 37.8009 76.2156 37.8009C75.8803 37.8009 75.6792 37.6061 75.4366 37.129C75.0744 36.4168 72.8197 31.7453 71.1256 28.2062V43.3268ZM21.0816 35.2247V20.6883C18.1515 24.6169 16.288 30.0792 15.8665 35.2247H21.0816ZM97.5195 25.5893C97.5195 34.8214 75.2405 46.816 45.697 53.751C36.4962 55.9107 25.9939 57.6139 17.6228 57.6139C5.44878 57.6139 0.484375 53.2941 0.484375 48.4265C0.484375 45.4545 2.2822 42.6688 6.04895 40.1513C6.24898 40.0175 6.46196 39.9191 6.63423 39.9191C6.85255 39.9191 6.98719 40.0579 6.98719 40.2405C6.98719 40.4036 6.89706 40.5377 6.67752 40.7106C3.72307 43.0414 2.22271 45.468 2.22271 47.9852C2.22271 51.4329 5.99578 55.1721 17.4212 55.1721C18.5316 55.1721 19.7596 55.1334 21.0816 55.0586V40.8915H15.8847C16.0656 43.406 16.4966 45.5852 17.3592 48.6664C17.4564 49.0145 17.5117 49.2998 17.5117 49.472C17.5117 49.9552 17.2826 50.2284 16.5724 50.4892C15.7198 50.8025 14.9708 51.0677 14.2085 51.3217C13.8985 51.4252 13.6368 51.4737 13.4124 51.4737C12.8866 51.4737 12.5757 51.1762 12.3203 50.5768C10.6904 46.7493 10.0981 41.8228 10.0981 37.8679C10.0981 26.5401 16.1532 15.3874 24.7641 8.9016C25.1835 8.57983 25.5854 8.45079 25.8648 8.45079C26.4465 8.45079 26.7747 8.88104 26.7747 9.36555V54.5721C28.1238 54.4228 29.5266 54.2466 30.9713 54.0431V45.8073C30.9713 44.7641 31.3809 44.405 32.4993 44.405H35.2112C36.3291 44.405 36.6839 44.7641 36.6839 45.8073V53.1337C38.228 52.8602 39.7971 52.5606 41.3793 52.2348V44.4727C41.3793 43.0219 40.9976 42.4595 39.8904 41.8032C38.7678 41.1385 36.569 39.8268 35.0144 38.8895C32.2483 37.2217 30.9713 35.7176 30.9713 32.2082V8.33017C30.9713 6.57748 31.3356 5.44742 32.9405 4.42619C36.0518 2.44707 41.5515 0.581856 44.2415 0.581856C45.9032 0.581856 46.6094 1.36353 46.6094 2.67148V29.6964C46.6094 30.7395 46.2577 31.099 45.1398 31.099H42.3695C41.2516 31.099 40.9005 30.7395 40.9005 29.6964V8.37026C40.9005 7.54411 40.7142 7.23752 40.0572 7.23752C39.5491 7.23752 38.5707 7.58353 37.8166 8.04917C36.9962 8.55591 36.8133 9.10072 36.8133 10.1007V30.9272C36.8133 32.4215 37.0616 32.8554 38.2698 33.597C39.728 34.4919 41.848 35.7476 43.1451 36.5108C46.0373 38.2112 47.1862 39.8854 47.1862 43.192V50.9306C49.1381 50.4575 51.0821 49.9511 53.0084 49.4168V6.36858C52.322 6.28199 51.0137 6.13441 49.6839 5.99123C48.6148 5.87633 48.4497 5.43664 48.4497 4.67316V1.79378C48.4497 0.946075 48.884 0.480103 49.8166 0.480103C53.3055 0.480103 59.5821 1.74021 62.2021 2.78637C63.2472 3.20382 63.4632 3.60072 63.4632 4.35477V7.61386C63.4632 8.30759 63.1071 8.63071 62.5744 8.63071C62.348 8.63071 62.0986 8.56467 61.5724 8.39249C60.3924 8.00604 59.3675 7.6991 58.6977 7.51413V47.7385C60.9426 47.0367 63.1461 46.3002 65.29 45.536V5.11049C65.29 4.51784 65.6104 4.09634 66.1724 4.09634C66.7631 4.09634 67.0875 4.56332 67.5164 5.55288C69.1805 9.39317 73.1451 18.5549 76.3156 25.8622C77.4568 22.6954 78.853 18.8187 79.1441 17.9804C79.3571 17.3662 79.664 17.0626 80.1273 17.0626C80.4858 17.0626 80.7796 17.2449 81.2139 17.7864C84.8311 22.748 87.0434 28.3221 87.6539 35.033C92.724 31.687 95.784 28.3679 95.784 25.4747C95.784 22.624 93.0471 20.1728 86.4706 19.8447C86.1657 19.8292 85.9925 19.6806 85.9925 19.4552C85.9925 19.2473 86.1643 19.0822 86.4993 19.0822C93.9531 19.0822 97.5195 22.312 97.5195 25.5893ZM41.3793 57.1243V68.8086C41.3793 69.6344 41.0417 69.9478 40.3847 69.9478C39.6842 69.9478 38.4389 69.6813 37.726 69.2587C36.8965 68.7665 36.6839 68.2688 36.6839 67.1896V57.9673C34.7553 58.3066 32.8474 58.5872 30.9702 58.8461L30.9713 69.1368C30.9713 71.2806 31.613 72.4448 33.6501 73.5994C36.3109 75.1078 41.8901 76.4646 44.6751 76.4646C46.3678 76.4646 47.1862 75.5134 47.1862 74.0825V55.8342C45.2445 56.2985 43.3059 56.7295 41.3793 57.1243ZM21.0816 59.7271V63.5199C21.0816 64.8648 21.3674 65.3924 22.1538 66.0434C22.9619 66.7119 23.9269 67.506 24.9656 68.3528C25.3226 68.6442 25.6824 68.7837 25.9862 68.7837C26.4444 68.7837 26.775 68.4697 26.7747 67.8168V59.321C24.8588 59.4902 22.9272 59.6256 21.0816 59.7271ZM53.0084 54.3699V75.0201C53.0084 75.7108 53.3614 76.129 54.1178 76.129C54.9319 76.129 56.5831 75.7702 57.5842 75.4376C58.4204 75.1587 58.6977 74.7517 58.6977 73.9471V52.7301C56.8608 53.2877 54.9625 53.8345 53.0084 54.3699ZM71.1256 48.5286C69.2688 49.2459 67.3237 49.9538 65.29 50.6496V71.4616C65.29 72.2014 65.6307 72.564 66.2745 72.564C66.5161 72.564 66.7509 72.5255 67.0838 72.3851C67.7691 72.0966 69.6067 71.0984 70.3089 70.5988C71.0114 70.0986 71.1256 69.7031 71.1256 68.6671V48.5286ZM87.8001 40.4339C87.4942 47.8383 84.8652 55.7688 79.1428 62.6603C78.8665 62.9916 78.6579 63.1084 78.3278 63.1084C77.9966 63.1084 77.7513 62.9895 77.4554 62.7553C76.9312 62.3402 75.6546 61.3311 75.2647 61.0087C74.9036 60.7091 74.7068 60.4212 74.7068 60.0543C74.7068 59.7052 74.88 59.3753 75.1108 59.0424C78.9268 53.5337 80.9767 48.9009 81.7513 43.8868C83.3709 43.1102 86.0838 41.5761 87.8001 40.4339Z" fill="#0B3053"/>
<path d="M4.75717 87.2578L3.39433 83.7875L2.02147 87.2578H4.75717ZM5.8689 89.4617C5.70451 89.4617 5.54973 89.3649 5.48197 89.2006L4.99882 87.9731H1.78944L1.3063 89.2006C1.23852 89.3649 1.084 89.4617 0.919618 89.4617C0.65863 89.4617 0.484375 89.2589 0.484375 89.0364C0.484375 88.9883 0.494247 88.93 0.513725 88.8818L2.73679 83.3333C2.84326 83.0722 3.09451 82.8983 3.39433 82.8983C3.67425 82.8983 3.92577 83.0722 4.03197 83.3333L6.27479 88.8818C6.29427 88.93 6.30373 88.9883 6.30373 89.0364C6.30373 89.2299 6.12988 89.4617 5.8689 89.4617Z" fill="#0B3053"/>
<path d="M9.51243 89.5195C8.5655 89.5195 7.78241 89.2005 7.25054 88.7174C7.16381 88.6402 7.125 88.5435 7.125 88.4273C7.125 88.2342 7.26991 88.0213 7.50206 88.0213C7.57931 88.0213 7.66631 88.031 7.7341 88.0988C8.18841 88.4951 8.79714 88.8043 9.54178 88.8043C10.6919 88.8043 11.0592 88.1856 11.0592 87.6928C11.0592 86.0301 7.24094 86.9485 7.24094 84.6477C7.24094 83.5944 8.18841 82.8595 9.45465 82.8595C10.2764 82.8595 11.0108 83.1109 11.5232 83.5459C11.6103 83.623 11.6586 83.7198 11.6586 83.836C11.6586 84.0291 11.5039 84.2224 11.2816 84.2224C11.1946 84.2224 11.1173 84.1934 11.0495 84.1355C10.5759 83.749 9.98612 83.5749 9.39677 83.5749C8.62328 83.5749 8.07234 83.9809 8.07234 84.5995C8.07234 86.0496 11.8904 85.218 11.8904 87.6251C11.8904 88.5627 11.2528 89.5195 9.51243 89.5195Z" fill="#0B3053"/>
<path d="M17.1355 83.6717H15.3761V89.0655C15.3761 89.2878 15.2022 89.4617 14.9702 89.4617C14.7479 89.4617 14.5741 89.2878 14.5741 89.0655V83.6717H12.8243C12.6309 83.6717 12.4766 83.5267 12.4766 83.3043C12.4766 83.111 12.6309 82.9563 12.8243 82.9563H17.1355C17.3291 82.9563 17.4836 83.1011 17.4836 83.3235C17.4836 83.5169 17.3291 83.6717 17.1355 83.6717Z" fill="#0B3053"/>
<path d="M24.6559 89.0655C24.6559 89.2878 24.482 89.4617 24.25 89.4617C24.0277 89.4617 23.8536 89.2878 23.8536 89.0655V84.0968L21.6883 89.336C21.6593 89.4131 21.5916 89.4617 21.4853 89.4617C21.4078 89.4617 21.3306 89.4131 21.3016 89.336L19.1459 84.0968V89.0655C19.1459 89.2878 18.9721 89.4617 18.7399 89.4617C18.5177 89.4617 18.3438 89.2878 18.3438 89.0655V83.5553C18.3438 83.2076 18.6337 82.9078 19.0108 82.9078C19.2717 82.9078 19.5423 83.053 19.6488 83.3138L21.495 87.8088L23.3509 83.3138C23.4574 83.053 23.7184 82.9078 23.9889 82.9078C24.3466 82.9078 24.6559 83.2076 24.6559 83.5553V89.0655Z" fill="#0B3053"/>
<path d="M28.9583 89.0655C28.9583 89.2878 28.7844 89.4617 28.5524 89.4617C28.3302 89.4617 28.1562 89.2878 28.1562 89.0655V83.2848C28.1562 83.0624 28.3302 82.8983 28.5717 82.8983C28.794 82.8983 28.9583 83.0624 28.9583 83.2848V89.0655Z" fill="#0B3053"/>
<path d="M35.5544 89.0072C35.5544 89.2394 35.3614 89.4617 35.0713 89.4617C34.9166 89.4617 34.762 89.3845 34.6747 89.2589L31.0208 84.2613V89.0655C31.0208 89.2878 30.8469 89.4617 30.6149 89.4617C30.3926 89.4617 30.2188 89.2878 30.2188 89.0655V83.3815C30.2188 83.1207 30.4314 82.8983 30.7308 82.8983C30.8952 82.8983 31.05 82.9661 31.1562 83.111L34.7522 87.9926V83.2848C34.7522 83.0624 34.9264 82.8983 35.168 82.8983C35.39 82.8983 35.5544 83.0624 35.5544 83.2848V89.0072Z" fill="#0B3053"/>
<path d="M41.12 83.6717H39.3605V89.0655C39.3605 89.2878 39.1867 89.4617 38.9545 89.4617C38.7325 89.4617 38.5586 89.2878 38.5586 89.0655V83.6717H36.8086C36.6156 83.6717 36.4609 83.5267 36.4609 83.3043C36.4609 83.111 36.6156 82.9563 36.8086 82.9563H41.12C41.3137 82.9563 41.468 83.1011 41.468 83.3235C41.468 83.5169 41.3137 83.6717 41.12 83.6717Z" fill="#0B3053"/>
<path d="M46.2621 89.4038H42.908C42.5889 89.4038 42.3281 89.1427 42.3281 88.8239V83.5361C42.3281 83.2171 42.5889 82.9564 42.908 82.9564H46.2621C46.4555 82.9564 46.6101 83.1012 46.6101 83.3236C46.6101 83.5169 46.4555 83.6717 46.2621 83.6717H43.13V85.7499H46.1944C46.3878 85.7499 46.5424 85.895 46.5424 86.1175C46.5424 86.3104 46.3878 86.4654 46.1944 86.4654H43.13V88.6885H46.2621C46.4555 88.6885 46.6101 88.8431 46.6101 89.0365C46.6101 89.2589 46.4555 89.4038 46.2621 89.4038Z" fill="#0B3053"/>
<path d="M48.5753 83.6717V86.1365H50.2674C51.0406 86.1365 51.5531 85.6339 51.5531 84.8991C51.5531 84.1646 51.0406 83.6717 50.2674 83.6717H48.5753ZM50.7118 86.7744L52.0942 88.872C52.1329 88.9398 52.1521 89.0072 52.1521 89.0749C52.1521 89.2683 51.9877 89.4617 51.7559 89.4617C51.6302 89.4617 51.5143 89.4038 51.4368 89.2878L49.861 86.8421H48.5753V89.0655C48.5753 89.2878 48.4015 89.4617 48.1693 89.4617C47.9473 89.4617 47.7734 89.2878 47.7734 89.0655V83.5361C47.7734 83.2171 48.0342 82.9563 48.3533 82.9563H50.3641C51.543 82.9563 52.3839 83.71 52.3839 84.8991C52.3839 86.0591 51.6013 86.6972 50.7118 86.7744Z" fill="#0B3053"/>
<path d="M58.8903 89.0072C58.8903 89.2394 58.6972 89.4617 58.4071 89.4617C58.2525 89.4617 58.0978 89.3845 58.0106 89.2589L54.3566 84.2613V89.0655C54.3566 89.2878 54.1827 89.4617 53.9506 89.4617C53.7285 89.4617 53.5547 89.2878 53.5547 89.0655V83.3815C53.5547 83.1207 53.7673 82.8983 54.0668 82.8983C54.2309 82.8983 54.3859 82.9661 54.492 83.111L58.088 87.9926V83.2848C58.088 83.0624 58.2622 82.8983 58.5038 82.8983C58.7258 82.8983 58.8903 83.0624 58.8903 83.2848V89.0072Z" fill="#0B3053"/>
<path d="M64.1401 87.2578L62.7772 83.7875L61.4042 87.2578H64.1401ZM65.2516 89.4617C65.0872 89.4617 64.9325 89.3649 64.8648 89.2006L64.3817 87.9731H61.1721L60.689 89.2006C60.6212 89.3649 60.4669 89.4617 60.3025 89.4617C60.0414 89.4617 59.8672 89.2589 59.8672 89.0364C59.8672 88.9883 59.877 88.93 59.8965 88.8818L62.1195 83.3333C62.2257 83.0722 62.4774 82.8983 62.7772 82.8983C63.0572 82.8983 63.3086 83.0722 63.4147 83.3333L65.6576 88.8818C65.6772 88.93 65.6866 88.9883 65.6866 89.0364C65.6866 89.2299 65.5127 89.4617 65.2516 89.4617Z" fill="#0B3053"/>
<path d="M69.8934 83.6717H68.134V89.0655C68.134 89.2878 67.9601 89.4617 67.728 89.4617C67.5059 89.4617 67.3321 89.2878 67.3321 89.0655V83.6717H65.5821C65.389 83.6717 65.2344 83.5267 65.2344 83.3043C65.2344 83.111 65.389 82.9563 65.5821 82.9563H69.8934C70.0871 82.9563 70.2415 83.1011 70.2415 83.3235C70.2415 83.5169 70.0871 83.6717 69.8934 83.6717Z" fill="#0B3053"/>
<path d="M71.9975 89.0655C71.9975 89.2878 71.8237 89.4617 71.5915 89.4617C71.3692 89.4617 71.1953 89.2878 71.1953 89.0655V83.2848C71.1953 83.0624 71.3692 82.8983 71.6111 82.8983C71.8331 82.8983 71.9975 83.0624 71.9975 83.2848V89.0655Z" fill="#0B3053"/>
<path d="M76.2541 83.5651C74.804 83.5651 73.8859 84.677 73.8859 86.185C73.8859 87.6833 74.804 88.8043 76.2541 88.8043C77.6847 88.8043 78.6224 87.6833 78.6224 86.185C78.6224 84.677 77.6847 83.5651 76.2541 83.5651ZM76.2541 89.5195C74.3498 89.5195 73.0547 88.089 73.0547 86.185C73.0547 84.2803 74.3498 82.8498 76.2541 82.8498C78.1585 82.8498 79.4539 84.2803 79.4539 86.185C79.4539 88.089 78.1585 89.5195 76.2541 89.5195Z" fill="#0B3053"/>
<path d="M85.8981 89.0072C85.8981 89.2394 85.705 89.4617 85.4149 89.4617C85.2603 89.4617 85.1056 89.3845 85.0184 89.2589L81.3644 84.2613V89.0655C81.3644 89.2878 81.1905 89.4617 80.9584 89.4617C80.7364 89.4617 80.5625 89.2878 80.5625 89.0655V83.3815C80.5625 83.1207 80.7751 82.8983 81.0746 82.8983C81.2387 82.8983 81.3937 82.9661 81.4998 83.111L85.0959 87.9926V83.2848C85.0959 83.0624 85.27 82.8983 85.5116 82.8983C85.7337 82.8983 85.8981 83.0624 85.8981 83.2848V89.0072Z" fill="#0B3053"/>
<path d="M91.1401 87.2578L89.7769 83.7875L88.4042 87.2578H91.1401ZM92.2516 89.4617C92.0872 89.4617 91.9325 89.3649 91.8648 89.2006L91.3817 87.9731H88.1721L87.6889 89.2006C87.6212 89.3649 87.4669 89.4617 87.3025 89.4617C87.0414 89.4617 86.8672 89.2589 86.8672 89.0364C86.8672 88.9883 86.877 88.93 86.8965 88.8818L89.1195 83.3333C89.226 83.0722 89.4774 82.8983 89.7769 82.8983C90.0572 82.8983 90.3086 83.0722 90.4147 83.3333L92.6576 88.8818C92.6772 88.93 92.6866 88.9883 92.6866 89.0364C92.6866 89.2299 92.5127 89.4617 92.2516 89.4617Z" fill="#0B3053"/>
<path d="M97.1728 89.4038H94.2439C93.9248 89.4038 93.6641 89.1427 93.6641 88.8239V83.2849C93.6641 83.0625 93.8379 82.8984 94.0795 82.8984C94.3019 82.8984 94.466 83.0625 94.466 83.2849V88.6885H97.1728C97.3659 88.6885 97.5209 88.8431 97.5209 89.0365C97.5209 89.2589 97.3659 89.4038 97.1728 89.4038Z" fill="#0B3053"/>
</svg>
