<svg width="189" height="78" viewBox="0 0 189 78" fill="none" xmlns="http://www.w3.org/2000/svg">
<path d="M162.633 33.9429C159.454 34.6766 151.058 35.0841 151.058 35.0841L150.026 38.3991C150.026 38.3991 154.183 38.0459 157.226 38.3447C157.226 38.3447 158.204 38.2632 158.313 39.4316C158.367 40.6272 158.232 41.8771 158.232 41.8771C158.232 41.8771 158.15 42.6107 157.145 42.8009C155.976 42.9911 148.097 43.3444 148.097 43.3444L146.819 47.6375C146.819 47.6375 146.358 48.6157 147.417 48.344C148.395 48.0723 156.656 46.4963 157.743 46.7137C158.884 46.9854 160.188 48.5614 159.808 49.9743C159.373 51.6861 151.113 56.9574 146.113 56.6042C146.113 56.6042 143.477 56.7672 141.276 53.2077C139.157 49.8113 142.01 43.4259 142.01 43.4259C142.01 43.4259 140.733 40.437 141.684 39.3501C141.684 39.3501 142.227 38.8882 143.858 38.7523L145.896 34.5679C145.896 34.5679 143.586 34.7037 142.227 33.0191C140.978 31.3888 140.869 30.6823 141.847 30.2475C142.88 29.7041 152.444 27.9923 159.02 28.2097C159.02 28.2097 161.329 27.9379 163.367 31.9322C163.367 31.9322 164.291 33.5625 162.661 33.9429M137.853 50.0286C137.038 52.0122 134.782 54.1044 132.065 52.8273C129.294 51.5231 124.919 42.6107 124.919 42.6107C124.919 42.6107 123.289 39.2958 122.963 39.4044C122.963 39.4044 122.609 38.7523 122.419 42.3933C122.147 46.0072 122.473 53.0447 120.979 54.1588C119.62 55.2456 117.99 54.7837 117.066 53.5066C116.305 52.2296 115.979 49.1591 116.414 43.8063C116.903 38.4534 118.126 32.7474 119.675 30.9812C121.305 29.1878 122.609 30.4921 123.098 30.9812C123.098 30.9812 125.191 32.8832 128.723 38.5078L129.321 39.5403C129.321 39.5403 132.527 44.8932 132.853 44.866C132.853 44.866 133.125 45.1377 133.342 44.9203C133.668 44.8388 133.56 43.0998 133.56 43.0998C133.56 43.0998 132.962 37.3122 129.973 27.5304C129.973 27.5304 129.538 26.2805 129.837 25.0849C130.109 23.998 131.277 24.5415 131.277 24.5415C131.277 24.5415 135.788 26.7152 137.989 34.0516C140.162 41.388 138.695 48.0451 137.88 50.0286M115.735 31.1986C115.3 31.9594 115.11 33.0191 113.235 33.318C113.235 33.318 95.03 34.595 94.1333 35.8721C94.1333 35.8721 93.5355 36.6329 94.5137 36.8231C95.5462 37.0405 99.6763 37.5839 101.633 37.6926C103.752 37.6926 110.871 37.747 113.48 40.9532C113.48 40.9532 114.974 42.4749 114.92 45.9257C114.865 49.458 114.24 50.7079 112.855 51.985C111.415 53.1806 99.0786 58.7236 91.1172 50.246C91.1172 50.246 87.4762 46.1702 92.3943 43.0726C92.3943 43.0726 95.9266 40.8989 104.975 43.4259C104.975 43.4259 107.692 44.4041 107.583 45.4094C107.42 46.4963 105.328 47.5832 102.285 47.5288C99.3503 47.4473 97.1765 46.0344 97.6113 46.2789C98.0189 46.4148 94.4322 44.5399 93.3181 45.817C92.2313 47.0126 92.503 47.719 93.5899 48.4527C96.307 50.0286 106.986 49.458 110.165 45.8985C110.165 45.8985 111.442 44.4584 109.513 43.29C107.611 42.2031 102.067 41.5239 99.9209 41.4423C97.883 41.3336 90.2477 41.4423 89.1065 39.4588C89.1065 39.4588 88.0196 38.0459 89.2152 34.1875C90.4651 30.1117 99.3503 28.5357 103.209 28.2097C103.209 28.2097 113.806 27.7749 115.789 29.9487C115.789 29.9487 116.061 30.4377 115.735 31.1714M85.6828 55.0826C84.4058 56.0336 81.6886 55.626 80.9006 54.5392C80.1398 53.5881 79.8681 49.8384 80.0039 43.9421C80.1941 37.91 80.2757 30.5193 81.6342 29.3237C82.9928 28.1553 83.808 29.1878 84.3514 29.9758C84.8949 30.791 85.6013 31.6876 85.71 33.5625C85.8731 35.4645 86.335 45.2464 86.335 45.2464C86.335 45.2464 86.9328 54.1587 85.71 55.0826M88.4 23.2916C84.6503 24.5686 82.0962 24.1611 79.9224 23.21C78.9714 24.9219 78.4008 25.4381 77.6943 25.5468C76.6075 25.6555 75.6564 23.9165 75.5206 23.3731C75.3032 22.9655 74.7869 22.2319 75.4119 20.5744C73.2925 18.6723 73.1295 16.1182 73.5099 14.4064C73.999 12.3957 77.5856 4.84189 88.4544 3.94522C88.4544 3.94522 93.7801 3.56481 94.7039 6.39068H94.8669C94.8669 6.39068 100.03 6.39068 99.9209 11.0099C99.9209 15.6291 94.2148 21.3895 88.4 23.3731M93.2366 10.1404C89.813 10.6838 84.5416 15.2487 82.0147 19.0256C85.9002 19.732 92.6932 19.4603 95.7364 13.3195C95.7364 13.3195 97.1765 9.4611 93.2366 10.1404ZM78.2106 13.1293C77.1237 14.8955 77.0694 15.9552 77.5856 16.6616C78.8627 14.7596 81.118 11.7707 84.5145 9.43393C81.906 9.70564 79.705 10.7925 78.2106 13.1293ZM170.785 54.8924C168.285 61.0332 166.166 67.2556 164.943 76.5755C164.943 76.5755 164.671 78.396 163.177 77.7982C161.682 77.2548 159.237 74.8093 158.694 71.3585C158.15 66.848 160.161 59.2399 164.264 50.4906C163.068 48.5885 162.226 45.7627 162.905 41.7956C162.905 41.7956 163.992 34.4592 171.328 27.8292C171.328 27.8292 172.198 27.0956 172.687 27.3402C173.285 27.6119 173.04 29.9487 172.551 31.1442C172.116 32.2854 168.856 37.9372 168.856 37.9372C168.856 37.9372 166.818 41.7956 167.389 44.8116C171.247 38.8882 180.023 26.8782 185.458 30.6823C188.909 33.1278 188.909 41.0076 186.327 45.5725C184.289 49.1863 178.529 56.6586 170.839 54.9196M182.143 36.4427C180.132 38.6165 176.545 42.7466 173.72 48.344C176.708 48.0179 179.616 46.3604 180.513 45.5181C181.953 44.241 185.268 40.7902 184.751 36.2253C184.751 36.2253 184.425 33.8342 182.143 36.4427ZM60.413 58.0987C50.7942 61.0332 41.7188 59.6746 36.7736 58.3704C36.6377 60.3811 36.4203 61.2234 36.0943 61.5495C35.7139 61.9842 32.5619 63.7776 30.8229 61.2234C30.0621 60.0007 29.6817 57.7998 29.4643 55.7891C18.3239 50.7351 13.1612 43.29 12.9982 43.0183C12.7265 42.7466 10.1995 40.1109 12.7265 36.8503C15.0904 33.9157 22.9159 30.954 29.9263 29.7856C30.198 23.8078 30.8501 19.1886 31.6924 17.1507C32.6978 14.7053 33.9749 16.879 35.1161 18.5093C36.0399 19.732 36.6105 24.9762 36.6649 29.1607C41.2297 28.9433 44.0013 29.2694 49.0824 30.2475C55.7667 31.3888 60.2228 34.8124 59.8696 38.6708C59.5436 42.4749 56.0656 44.0508 54.707 44.1595C53.3484 44.2682 51.1746 43.2628 51.1746 43.2628C49.653 42.5564 51.0388 41.9043 52.8049 41.1434C54.7613 40.1924 54.3266 39.2414 54.3266 39.2414C53.6201 37.0677 44.9523 35.6276 36.3388 35.6276C36.3388 40.3826 36.529 48.2625 36.6649 52.8545C42.697 53.9957 47.2075 53.7512 47.2075 53.7512C47.2075 53.7512 69.2167 53.1262 69.8417 39.0784C70.521 25.0034 47.8325 11.5262 31.1218 7.28735C14.4383 2.91269 4.98252 6.01027 4.16737 6.41785C3.2707 6.8526 4.08585 7.01563 4.08585 7.01563C4.08585 7.01563 4.98252 7.15149 6.61283 7.69493C8.24314 8.23836 6.93889 9.05352 6.93889 9.05352C4.08585 10.0317 0.906749 9.4611 0.281797 8.15685C-0.343155 6.87977 0.689374 5.71138 1.91211 3.99956C3.05332 2.23339 4.35757 2.28773 4.35757 2.28773C25.0082 -4.9128 50.2236 7.99382 50.2236 7.99382C73.8088 19.8951 77.8302 33.8886 77.3954 39.3229C77.015 44.6758 74.95 53.724 60.413 58.1258M15.0361 38.6708C12.6993 39.7577 14.3296 41.4967 14.3296 41.4967C18.7315 46.1974 24.1115 49.1591 29.2741 51.0068C29.8719 42.8553 29.8176 39.9479 29.8176 35.8449C21.8291 36.3884 17.2098 37.6926 15.0361 38.6708Z" fill="#484A5E"/>
</svg>
