<svg width="98" height="90" viewBox="0 0 98 90" fill="none" xmlns="http://www.w3.org/2000/svg">
<g clip-path="url(#clip0_709_4144)">
<path d="M97.7829 0H0V90H97.7829V0Z" fill="white"/>
<path d="M0 45V90H48.8914H97.7829V45V0H48.8914H0V45ZM50.713 10.3827C53.0478 10.4655 55.8298 10.9209 58.3137 11.6329C65.9476 13.8188 72.4885 18.563 77.1914 25.3027C77.448 25.6752 77.6633 26.023 77.6633 26.0727C77.6633 26.1389 77.2907 26.1637 76.471 26.1637H75.2788L74.8979 25.6256C73.8464 24.1684 71.793 21.8832 70.4434 20.6826L69.8638 20.1693L68.448 20.5253C65.9144 21.1463 63.1242 21.6513 60.3422 21.9908C59.713 22.0736 59.1996 22.1647 59.1996 22.1895C59.1996 22.2226 59.3155 22.6201 59.4563 23.0672C59.7792 24.1352 60.276 25.9236 60.276 26.0561C60.276 26.1389 60.0193 26.1637 59.241 26.1637H58.2144L58.0736 25.6835C58.0074 25.4269 57.8666 24.9466 57.7838 24.632C57.5189 23.7213 57.1132 22.4876 57.0469 22.4131C57.0138 22.3717 56.4673 22.3799 55.8381 22.4296C55.2171 22.4793 53.4535 22.5621 51.9301 22.6201C49.0074 22.7194 44.8924 22.6283 42.1435 22.3965C41.4397 22.3385 40.8353 22.3137 40.8022 22.3468C40.736 22.4131 40.1398 24.276 39.8583 25.3275L39.6348 26.1637H38.6164C37.6808 26.1637 37.5897 26.1472 37.5897 26.0147C37.5897 25.8326 38.0616 24.0773 38.4177 22.943C38.5584 22.5124 38.6412 22.1316 38.5998 22.0984C38.5667 22.0736 38.1527 21.9991 37.6725 21.9494C35.4121 21.6927 32.1334 21.0883 29.6247 20.4756L28.0764 20.0948L27.6375 20.4673C26.3045 21.6099 24.1601 23.9614 23.0589 25.4765L22.5621 26.1637H21.345C20.6661 26.1637 20.1196 26.1389 20.1196 26.1141C20.1196 26.0064 21.4443 24.1684 22.1895 23.2245C25.3689 19.242 29.2604 16.1122 33.8638 13.8353C37.3744 12.0966 40.8022 11.0782 44.8344 10.5566C45.8528 10.4241 48.552 10.2833 49.1812 10.3247C49.3385 10.333 50.034 10.3661 50.713 10.3827ZM46.8215 29.3183C48.1132 29.4756 48.8418 29.5087 52.311 29.5336L56.3018 29.5667V34.0377V38.5005H52.7415H49.1895L49.1647 37.5317L49.1398 36.5547L48.6431 36.356C47.219 35.793 45.3064 35.4867 43.1785 35.4784C41.0837 35.4784 40.1398 35.6605 39.2374 36.2649C38.31 36.8694 38.1776 38.103 38.9476 38.8648C39.7507 39.6762 40.736 39.9328 45.1242 40.4793C48.9163 40.9595 50.3818 41.2659 52.2199 41.9862C53.1058 42.3339 54.2236 42.988 54.919 43.5759C55.9457 44.4287 56.7902 45.8362 57.1794 47.3266C57.4692 48.4361 57.552 50.5722 57.345 51.7065C56.989 53.644 56.2604 55.035 54.9273 56.3017C53.4867 57.6762 51.632 58.5787 49.0736 59.15C46.2502 59.7875 42.2512 59.8868 38.2438 59.4315C36.8694 59.2824 36.0745 59.2493 32.7709 59.2245L28.896 59.1914V54.7617V50.3404H32.4563H36.0166V51.2511V52.1619L36.3395 52.3275C37.391 52.8574 39.552 53.2465 41.8289 53.2962C45.7535 53.3956 47.517 52.7001 47.5253 51.0442C47.5253 50.3983 47.3431 50.0506 46.7967 49.6697C46.0018 49.1067 44.8841 48.85 41.3155 48.3947C37.0267 47.8399 35.3293 47.4508 33.4664 46.5731C30.494 45.1656 29.0285 43.0212 28.7305 39.6431C28.5649 37.8546 28.8546 36.1822 29.5584 34.7249C31.1398 31.4545 34.758 29.575 40.3634 29.1113C41.4894 29.0202 45.3809 29.1444 46.8215 29.3183ZM78.1601 29.2686C81.8528 29.8234 84.7921 31.2143 87.069 33.483C89.8427 36.2567 91.184 39.8169 91.1757 44.379C91.1757 46.5649 90.9356 48.2042 90.3643 49.9264C88.4186 55.7718 83.3763 59.2659 76.2806 59.6881C72.563 59.9034 68.7792 59.1665 66.0718 57.6927C64.242 56.6992 62.2962 54.9522 61.2447 53.3625C59.9696 51.425 59.1831 49.2061 58.8684 46.6145C58.7443 45.5796 58.7691 42.9632 58.9098 41.8786C59.5888 36.7452 62.3376 32.8537 66.759 30.759C68.6053 29.8896 70.6007 29.368 73.0681 29.1113C73.896 29.0285 77.2493 29.1279 78.1601 29.2686ZM26.7433 33.3257V37.0101H24.3422H21.9411V44.4618V51.9135H24.3422H26.7433V55.598V59.2824L17.2052 59.2659L7.65869 59.241L7.63385 55.5731L7.6173 51.9135H10.0184H12.4195V44.4618V37.0101L10.0432 36.9936L7.65869 36.9687L7.63385 33.3008L7.6173 29.6412H17.1803H26.7433V33.3257ZM22.8519 63.149C23.9034 64.6394 26.2052 67.1978 27.5051 68.3238L27.977 68.7295L29.3266 68.3983C31.9181 67.7608 34.4848 67.2889 37.1343 66.966C37.954 66.8666 38.6329 66.7755 38.6495 66.7672C38.6661 66.759 38.5584 66.3864 38.4177 65.931C38.0782 64.8629 37.5897 63.0911 37.5897 62.9089C37.5897 62.7764 37.6891 62.7599 38.6164 62.7599H39.6348L39.8583 63.563C39.9825 64.0101 40.2392 64.8712 40.4213 65.4839L40.7691 66.5851L41.2328 66.5354C43.9071 66.2622 50.8786 66.1877 54.149 66.4029C55.1757 66.4692 56.2521 66.5271 56.5419 66.5271H57.08L57.3615 65.6578C57.5189 65.1776 57.7673 64.3413 57.9163 63.7948L58.1895 62.8013L59.2328 62.7764C59.9282 62.7599 60.276 62.7847 60.276 62.8427C60.276 62.9834 59.5557 65.5667 59.3321 66.2125L59.1251 66.8086L59.3901 66.85C59.5391 66.8749 60.1187 66.9577 60.69 67.0239C63.1159 67.3303 66.1297 67.9016 68.4149 68.4811C69.5989 68.7875 69.7397 68.804 69.9052 68.6964C70.3027 68.4315 72.0911 66.6513 72.9522 65.6826C73.4489 65.1113 74.1776 64.2254 74.5667 63.7038L75.287 62.7599H76.471C77.1251 62.7599 77.6633 62.793 77.6633 62.8261C77.6633 62.9338 76.5704 64.5069 75.9328 65.3266C70.2199 72.6872 61.7829 77.3901 52.4517 78.425C50.9117 78.5906 46.4572 78.5658 45 78.3836C37.4241 77.4066 31.0405 74.4259 25.5014 69.276C23.5971 67.5041 21.2125 64.6394 20.1693 62.8592C20.1196 62.7847 20.3763 62.7599 21.345 62.7599H22.5787L22.8519 63.149Z" fill="#E30613"/>
<path d="M47.7638 12.4443C45.8512 13.0983 44.0296 15.1683 42.3572 18.5878C41.9763 19.3578 41.6451 20.0616 41.6203 20.1361C41.5789 20.252 41.6451 20.2851 42.0011 20.3265C44.0545 20.5501 49.4363 20.666 52.3673 20.5418C55.8861 20.3927 56.2173 20.3679 56.2173 20.2106C56.2173 20.0036 54.9754 17.5114 54.4455 16.6669C53.3691 14.9282 52.301 13.7193 51.2081 12.999C50.0572 12.2538 48.8898 12.0634 47.7638 12.4443Z" fill="#E30613"/>
<path d="M43.136 12.7672C38.6981 13.7028 35.0716 15.2014 31.2796 17.6853C30.3522 18.2897 30.0542 18.5464 30.286 18.5464C30.3191 18.5464 30.849 18.6623 31.4617 18.7948C33.4654 19.2502 37.6466 19.9374 39.1038 20.0533L39.4185 20.0781L39.7662 19.2502C40.7763 16.8905 42.3495 14.3155 43.6245 12.9742C43.9061 12.6761 43.9061 12.6678 43.7156 12.6761C43.5997 12.6844 43.343 12.7175 43.136 12.7672Z" fill="#E30613"/>
<path d="M54.272 13.0157C54.8433 13.6781 55.7872 14.978 56.2674 15.748C56.8552 16.7001 57.7412 18.4389 58.122 19.4076L58.4118 20.1279L58.95 20.0783C61.5581 19.8216 67.7264 18.7369 67.7264 18.53C67.7264 18.4886 67.1965 18.1077 66.5507 17.6854C63.0236 15.3588 59.1156 13.7029 55.2324 12.8832C53.8994 12.6017 53.9077 12.6017 54.272 13.0157Z" fill="#E30613"/>
<path d="M73.8609 36.1075C71.1038 36.5298 69.4975 38.4921 69.0007 42.0358C68.8103 43.4185 68.8765 46.3909 69.1249 47.55C69.9115 51.1765 71.94 52.8739 75.2933 52.7166C77.0403 52.6338 77.9925 52.2529 79.0274 51.2097C80.4681 49.7773 81.0477 47.7984 81.0559 44.3789C81.0559 41.5721 80.6502 39.792 79.6732 38.3182C78.9943 37.2833 77.8931 36.5215 76.6677 36.2235C75.9805 36.0661 74.5481 35.9999 73.8609 36.1075Z" fill="#E30613"/>
<path d="M45.3732 68.3569C43.1377 68.4811 41.606 68.5722 41.5811 68.597C41.5149 68.6632 42.5581 70.8077 43.1046 71.7516C44.2803 73.7718 45.4395 75.1297 46.6317 75.9079C47.41 76.413 47.882 76.5786 48.652 76.6448C49.4054 76.7028 49.9519 76.5786 50.7964 76.1481C51.7486 75.6596 53.123 74.2769 54.0586 72.861C54.6796 71.9254 56.2196 68.9861 56.2196 68.7378C56.2196 68.6053 56.0457 68.5804 54.4395 68.4728C53.0816 68.3817 46.4661 68.2989 45.3732 68.3569Z" fill="#E30613"/>
<path d="M38.5449 68.8621C38.4125 68.8787 37.6176 68.9863 36.7814 69.1022C34.7942 69.3755 33.2377 69.6404 31.4907 70.013C30.3812 70.2531 30.0831 70.3442 30.1493 70.427C30.2984 70.6091 32.4759 72.0084 33.5689 72.6128C36.4005 74.1942 39.4805 75.3617 42.5606 76.0075C43.1981 76.1482 43.7611 76.2559 43.8108 76.2559C43.8605 76.2559 43.7032 76.024 43.4548 75.7342C42.1135 74.2025 40.8467 72.116 39.82 69.7563L39.4226 68.8456L39.1079 68.8373C38.9341 68.829 38.6857 68.8373 38.5449 68.8621Z" fill="#E30613"/>
<path d="M58.2144 69.3257C57.9081 70.104 56.8814 72.1408 56.3432 73.0268C55.7636 73.9872 55.0599 74.9642 54.4472 75.668C54.1905 75.966 54.0001 76.2144 54.0166 76.2393C54.1077 76.3303 56.9228 75.6514 58.4297 75.1712C61.1371 74.3101 64.5484 72.6211 67.0157 70.9237L67.7443 70.4187L67.3055 70.3193C65.0865 69.806 62.4288 69.3257 60.3175 69.0525C59.5888 68.9614 58.8602 68.8704 58.7029 68.8455C58.4131 68.8124 58.4131 68.8124 58.2144 69.3257Z" fill="#E30613"/>
</g>
<defs>
<clipPath id="clip0_709_4144">
<rect width="97.7829" height="90" fill="white"/>
</clipPath>
</defs>
</svg>
