<svg width="88" height="77" viewBox="0 0 88 77" fill="none" xmlns="http://www.w3.org/2000/svg">
<path fill-rule="evenodd" clip-rule="evenodd" d="M58.1878 71.3223C65.2123 68.0707 71.378 62.7026 75.059 55.8161C76.6847 52.7793 77.8504 49.5585 78.6786 46.2149C79.4455 43.1168 79.7829 39.9266 79.5988 36.7517C79.5835 36.629 80.0129 36.5217 79.7982 36.445C79.5835 36.3683 79.5682 36.5217 79.4455 36.5677C74.2767 39.037 69.0927 41.6444 63.8933 44.1444C63.6633 44.2517 63.6633 44.4818 63.5866 44.7272C61.7001 50.4787 57.4516 55.6321 51.7921 57.948C46.8228 59.9726 41.1786 60.172 36.1172 58.2855C36.0252 58.2548 35.9179 58.2701 35.9025 58.1781C35.8718 58.0861 35.8565 57.9174 35.9332 57.9174C36.0252 57.902 36.1479 57.8407 36.2553 57.8253C37.5283 57.6873 38.7093 58.4082 39.9669 58.5922C41.1939 58.7763 42.4363 58.9603 43.6786 58.945C46.1632 58.9296 48.6326 58.4082 50.9332 57.4879C56.3013 55.3407 60.7645 50.8775 62.559 45.31C62.6817 44.9572 63.0498 44.7272 63.2185 44.5278C63.2798 44.4511 62.9271 44.5585 62.8657 44.6658C62.789 44.7885 62.6203 44.7579 62.4363 44.8499C62.0068 45.0493 61.8688 45.2333 61.7461 45.6168C58.4792 55.172 47.3902 60.2487 37.9117 57.4419C37.651 57.3652 37.6663 56.9051 37.9424 56.9358C40.0896 57.0892 42.1755 57.7487 44.3534 57.5953C46.5774 57.4266 48.7246 56.9511 50.7645 56.0922C55.3964 54.1597 59.2614 50.3867 61.0252 45.6474C60.6418 45.6781 60.3657 45.8928 60.059 46.0462C59.9056 46.1229 59.6755 46.2149 59.6602 46.3836C59.6602 46.491 59.7062 46.583 59.6448 46.6904C56.1939 54.129 47.2062 58.2548 39.3381 56.1689C38.6632 56.491 37.9731 56.9204 37.2522 57.2272C36.47 57.5646 35.6725 57.9941 34.8902 58.3775C33.3258 59.1444 31.7307 59.9112 30.1663 60.6934C27.0682 62.2272 23.924 63.7149 20.8412 65.264C21.3933 65.448 21.7307 65.4787 22.0682 65.7548C32.0835 73.8836 46.608 75.3867 58.1725 69.9419C64.7982 66.8284 70.381 61.6597 73.8933 55.218C76.8841 49.7272 78.3105 43.5309 78.3718 37.3039C78.3718 37.0585 78.8933 36.8744 78.9393 37.1352C78.9547 37.2579 78.9087 37.3039 78.924 37.4266C79.7215 51.491 70.9639 65.0186 58.3258 70.7395C46.1172 76.2456 30.9025 74.7579 20.6878 65.7855C20.4424 65.5707 20.4884 65.3407 20.0436 65.6014C19.7982 65.7548 19.7215 65.7548 19.7369 65.9695C19.7522 66.0922 19.9669 65.9388 20.059 66.0155C25.5958 70.3714 32.1448 73.3468 39.1234 74.2671C45.6111 75.08 52.2982 74.037 58.1878 71.3223ZM18.6786 66.5063C18.97 66.2609 19.8749 66.0002 19.5221 65.9388C19.2307 65.8928 18.924 66.1996 18.4945 66.3376C18.1878 66.445 18.4945 66.6597 18.6786 66.5063ZM59.0774 46.6444C59.1847 46.445 59.2921 46.445 59.0927 46.537C52.8964 49.5125 46.8381 52.5493 40.6418 55.5401C40.3964 55.6628 40.335 55.8161 40.6264 55.8622C48.0191 57.1198 55.6571 53.3468 59.0774 46.6444ZM61.2706 45.4941C61.2706 45.5094 61.562 45.3867 61.5467 45.3407C61.516 45.31 61.2553 45.4787 61.2706 45.4941ZM59.062 73.4695C73.2952 67.2732 83.0037 51.8898 81.7921 36.2149C81.7767 35.9542 81.8688 35.7241 81.5007 35.8008C81.2399 35.8622 81.0866 35.9849 81.0099 35.8775C80.9332 35.7855 81.1786 35.6934 81.3166 35.6321C83.2952 34.6352 85.3197 33.7303 87.2829 32.672C86.8228 31.7057 86.5774 30.8008 85.8872 30.0339C60.8258 42.3192 35.7338 54.5278 10.7031 66.8898C11.1019 67.7947 11.424 68.3315 11.7614 69.1904C11.8841 69.5125 12.1755 69.4818 12.4363 69.3438C14.3074 68.3928 16.1172 67.5186 18.0191 66.629C18.2491 66.5217 18.4179 66.6597 18.0191 66.8284C17.8504 66.9051 17.9271 66.9665 17.9884 67.0892C18.0497 67.2272 18.1264 67.1352 18.2031 67.2118C29.108 77.3806 45.6878 79.2977 59.062 73.4695Z" fill="black"/>
<path fill-rule="evenodd" clip-rule="evenodd" d="M44.6926 69.4202C44.9533 69.4356 45.2601 69.3129 45.1834 69.0061C45.1067 68.684 45.2754 68.4693 45.076 68.1779C44.5699 68.1165 43.9564 68.2086 43.4656 67.9785C43.3736 67.5491 43.3736 67.0889 43.5883 66.6902C44.0177 66.5215 44.4625 66.7208 44.9073 66.5981C45.0147 66.2607 44.9993 65.8773 44.9226 65.5399C44.4932 65.4018 44.0791 65.6626 43.665 65.4172C43.5423 65.0797 43.5883 64.6043 43.7417 64.2822C44.1404 64.0981 44.5545 64.2975 44.9533 64.1902C45.076 63.7914 45.0453 63.454 44.9687 63.0092C43.895 62.9785 42.9134 62.8251 41.8245 62.7178C41.4564 64.819 41.0576 66.7669 40.7969 68.9141C42.0239 69.3742 43.3889 69.3129 44.6926 69.4202Z" fill="black"/>
<path fill-rule="evenodd" clip-rule="evenodd" d="M48.5752 65.2792C48.928 64.8958 48.8513 63.8682 48.2378 63.8375C47.701 63.8222 48.0998 64.7271 48.0998 65.1259C48.0845 65.2946 48.4372 65.4173 48.5752 65.2792ZM46.5507 69.405C47.2562 69.3283 47.8851 69.3437 48.5599 69.1289C48.5292 68.2394 48.3299 67.5185 48.3145 66.5983C48.3145 66.2455 48.744 66.1381 48.9127 66.4602C49.3575 67.3038 49.1427 68.178 49.4341 69.0523C50.201 68.9909 50.9065 68.7915 51.6734 68.6688C51.6427 67.8406 51.3206 67.2578 51.2133 66.4296C51.1519 65.8774 50.4771 65.8161 50.1397 65.6013C49.9556 65.4786 50.5845 65.2946 50.6151 65.0799C50.6458 64.9572 50.6611 64.7885 50.6918 64.6044C50.8299 63.5461 49.9863 62.5492 48.928 62.6719C47.8697 62.7946 46.9648 62.948 45.9219 63.086C45.9219 65.0952 46.0599 66.997 46.0292 69.0062C46.0292 69.2823 46.2593 69.451 46.5507 69.405Z" fill="black"/>
<path fill-rule="evenodd" clip-rule="evenodd" d="M39.648 67.9939C39.9088 67.3804 40.1542 66.9202 40.1235 66.2914C39.3413 66.184 38.6971 65.9847 37.9302 65.7853C37.7769 66.1994 37.5775 66.5675 37.4394 66.9509C37.3321 67.2423 36.5652 67.2423 36.5805 66.9509C36.7032 65.6012 37.4241 64.1902 37.8689 62.8865C37.9609 62.6104 38.6511 62.7638 38.6358 63.0705C38.6204 63.6073 38.329 64.0521 38.2523 64.6043C38.8351 64.911 39.3259 64.957 39.9855 65.1564C40.2922 65.2485 40.3382 65.1564 40.4763 64.8343C41.3658 62.7945 39.3106 61.5828 37.5775 61.5061C36.6879 61.4601 35.737 61.8435 35.4149 62.7485C35.0775 63.684 34.5713 64.4049 34.2646 65.2945C34.1419 65.6779 34.0805 66.138 34.2646 66.4908C35.2769 68.2699 37.8996 68.8067 39.648 67.9939Z" fill="black"/>
<path fill-rule="evenodd" clip-rule="evenodd" d="M53.9608 68.0553C54.7737 67.7026 55.3872 67.5339 56.1387 67.1658C55.5406 65.5553 54.7277 64.0369 54.1909 62.4112C54.605 62.1658 54.9271 62.1504 55.2185 61.8437C55.0651 61.4602 54.9731 61.1228 54.6357 60.7854C53.424 61.4296 52.1357 61.9204 50.786 62.2425C50.7553 62.7026 50.878 63.0553 51.0467 63.4541C51.4761 63.4541 51.7215 63.178 52.2123 63.2087C52.9179 64.7425 53.1633 66.5369 53.9608 68.0553Z" fill="black"/>
<path fill-rule="evenodd" clip-rule="evenodd" d="M10.4448 66.1534C10.5368 66.184 10.7055 66.2147 10.8129 66.1687C17.0859 63.0092 23.3896 59.9264 29.7086 56.8589C32.8528 55.3405 35.9816 53.8221 39.1258 52.2883C42.2239 50.7853 45.3221 49.2669 48.4203 47.7331C51.5644 46.1687 54.7086 44.6196 57.8681 43.0705C60.9509 41.5675 64.0491 40.0337 67.1472 38.5307C70.3068 36.9816 73.4816 35.4478 76.6411 33.8834C78.2055 33.1166 79.77 32.3497 81.3344 31.5828C82.1166 31.1994 82.9141 30.8006 83.6963 30.4172C84.0951 30.2331 84.5246 29.9877 84.8773 29.8343C85.1841 29.6963 85.8282 29.5429 85.6442 29.1748C85.4448 28.73 84.862 29.3589 84.4939 29.4969C84.1411 29.6196 83.727 29.865 83.3436 30.0491C82.5767 30.4325 81.7792 30.8313 80.9969 31.2147C79.4172 31.9969 77.8374 32.7638 76.273 33.546C73.1442 35.0797 70 36.5981 66.8405 38.0859C63.6657 39.5889 60.5215 41.1687 57.3773 42.7485C54.2792 44.2975 51.1963 45.8619 48.0828 47.365C41.8252 50.3405 35.5982 53.3926 29.3712 56.4601C23.1288 59.5276 16.9019 62.6104 10.6288 65.6165C10.5215 65.6626 10.4601 65.7546 10.3988 65.8466C10.3221 65.954 10.3681 66.1227 10.4448 66.1534Z" fill="black"/>
<path fill-rule="evenodd" clip-rule="evenodd" d="M58.2093 66.23C59.0375 65.7392 59.605 65.5245 60.2798 64.9417C59.0682 63.1625 58.0405 61.322 56.7522 59.6042C56.2154 60.1104 55.6479 60.1104 55.2031 60.6779C56.2921 62.4723 57.1203 64.4509 58.2093 66.23Z" fill="black"/>
<path fill-rule="evenodd" clip-rule="evenodd" d="M61.3048 64.3283C61.949 63.8068 62.7005 63.4081 63.1607 62.7946C62.6392 62.0277 62.0104 61.5216 61.5502 60.7854C61.7036 60.5246 61.857 60.3866 62.1024 60.2332C62.4245 60.0338 62.5778 59.6504 62.2251 59.405C62.0257 59.267 61.9797 59.1289 61.7343 59.0216C61.2895 59.1136 61.1668 59.7424 60.7067 59.8651C60.3079 59.6811 60.1392 59.1903 60.0165 58.8068C60.2465 58.4234 60.63 58.2854 60.9061 57.9479C60.7987 57.5185 60.4306 57.4725 60.1545 56.9817C59.311 57.6565 58.6208 58.4541 57.5625 59.0216C58.7588 60.8621 59.9705 62.6105 61.3048 64.3283Z" fill="black"/>
<path fill-rule="evenodd" clip-rule="evenodd" d="M65.0332 61.0769C65.7694 60.5554 66.1989 59.9419 66.7357 59.2364C65.0792 57.856 63.4688 56.491 61.751 55.2026C61.3676 55.8008 60.9535 56.0615 60.5547 56.5677C61.9504 58.1781 63.5148 59.5738 65.0332 61.0769Z" fill="black"/>
<path fill-rule="evenodd" clip-rule="evenodd" d="M23.1866 57.2425C22.8492 56.675 22.7112 56.2916 22.4658 55.8314C22.159 55.2639 22.0363 54.6351 21.5608 54.1903C20.8246 55.402 19.5056 56.4909 18.0179 56.2455C16.3001 55.9695 15.1345 54.4511 14.475 52.948C13.9075 51.6597 13.432 50.1566 13.9688 48.7609C14.5823 47.1965 16.4228 46.5063 18.0026 46.813C17.8492 46.1995 17.5884 45.8161 17.3431 45.356C17.0363 44.7578 16.8676 44.0676 16.3921 43.6382C13.7541 43.8682 11.2694 45.3866 10.0731 47.7639C8.95348 49.9725 9.22955 52.6259 10.1805 54.8345C11.2848 57.3805 13.524 59.6044 16.3308 60.0492C18.9381 60.4327 21.5608 59.129 23.1866 57.2425Z" fill="black"/>
<path fill-rule="evenodd" clip-rule="evenodd" d="M67.5281 58.316C68.4177 57.089 69.1539 55.9387 69.844 54.6197C69.568 54.313 69.1999 54.1749 68.8164 53.9909C68.4023 54.451 68.3103 55.1565 67.7581 55.5093C67.39 55.2639 66.9913 55.1105 66.6845 54.7884C66.7612 54.3436 67.1446 54.0676 67.2367 53.6228C67.0986 53.3007 66.6845 53.1933 66.3778 53.04C65.9483 53.2547 65.9943 53.8375 65.5649 54.0982C65.2121 54.0676 64.8747 53.7762 64.5986 53.5308C64.6293 53.086 64.9974 52.7946 65.1354 52.3805C64.8747 52.043 64.5219 51.9357 64.0925 51.7209C63.5557 52.6872 63.0189 53.4847 62.3594 54.4663C64.0618 55.8007 65.7336 57.1197 67.5281 58.316Z" fill="black"/>
<path fill-rule="evenodd" clip-rule="evenodd" d="M28.2336 44.8191C28.9391 44.4356 29.6139 44.2056 30.1661 43.6688C30.4882 43.3467 30.7029 42.9633 30.7642 42.5031C30.7949 42.2731 30.7336 42.043 30.6569 41.8283C30.5188 41.4142 30.2428 41.0461 29.844 40.862C29.5372 40.7087 29.1691 40.678 28.8317 40.77C28.0649 40.9847 27.39 41.3528 26.6998 41.7669C27.206 42.7945 27.6354 43.8528 28.2336 44.8191ZM30.2121 54.3129C30.9023 53.9755 31.5925 53.6841 32.2673 53.27C31.8839 52.3498 31.4238 51.5215 31.0096 50.632C30.5802 49.7117 30.0894 48.8375 29.6906 47.8866C29.4912 47.4264 30.3195 47.2731 30.7182 47.0583C31.1017 46.8436 31.5925 46.6289 32.0219 46.3528C33.0188 45.7547 33.8317 44.9878 34.5219 44.0062C35.7029 42.3037 35.3501 40.0185 34.0771 38.4234C32.8348 36.859 30.4882 36.7209 28.6937 37.4264C26.8685 38.1473 25.1201 39.1442 23.2949 39.9571C22.8348 40.1565 22.4667 40.4479 21.9145 40.6166C21.3624 40.7853 21.1323 41.1534 21.4238 41.6289C21.9759 42.5645 22.3287 43.4234 22.7734 44.3129C24.5986 47.9786 26.3011 51.6289 28.1415 55.2792C28.8777 55.0185 29.5066 54.6504 30.2121 54.3129Z" fill="black"/>
<path fill-rule="evenodd" clip-rule="evenodd" d="M70.3218 50.9081C70.3832 50.8468 70.5212 50.678 70.4906 50.5707C70.3679 49.8345 69.3096 49.6658 68.6347 49.4357C68.0212 49.221 67.239 48.9296 66.6102 48.9142C66.3341 48.9142 66.1194 49.5277 66.4875 49.5738C66.6869 49.6044 66.7942 49.7118 66.9476 49.7578C67.3004 49.8652 67.6378 50.0032 67.9752 50.1259C68.6501 50.356 69.3096 50.6474 69.9998 50.8621C70.1225 50.9081 70.2605 50.9695 70.3218 50.9081ZM70.3372 53.7302C70.92 52.0124 71.8863 50.3866 72.009 48.5615C72.0396 48.0553 71.5488 47.5952 71.058 47.5185C69.693 47.3345 68.374 46.7057 66.9783 46.7517C66.5642 46.767 66.2268 47.0738 65.9814 47.4112C65.2298 48.4695 65.1991 49.8192 64.5703 50.9848C66.5335 51.9204 68.2973 52.902 70.3372 53.7302Z" fill="black"/>
<path fill-rule="evenodd" clip-rule="evenodd" d="M1.97906 48.5153C14.5558 42.457 27.1018 36.3067 39.6324 30.1411C45.8901 27.0736 52.1018 23.9294 58.3901 20.908C64.6324 17.9018 70.7674 14.6963 77.0251 11.7668C77.1631 11.7055 77.0097 11.3987 76.9177 11.3527C76.841 11.3067 76.703 11.3681 76.5956 11.4294C51.703 23.7147 26.7183 35.7546 1.84103 48.0705C1.61097 48.1779 1.76434 48.6227 1.97906 48.5153Z" fill="black"/>
<path fill-rule="evenodd" clip-rule="evenodd" d="M7.92945 40.9847C6.51841 26.2148 15.8436 11.1995 29.4939 5.63197C35.6595 3.11664 42.4847 2.21173 49.0798 3.224C52.4847 3.74547 55.7822 4.83443 58.865 6.30682C60.5675 7.1197 62.2086 8.08596 63.773 9.15958C64.5859 9.71173 65.3374 10.3559 66.135 10.9234C66.5644 11.2301 66.7945 11.7823 67.362 11.8896C67.7454 11.951 67.592 11.4449 67.316 11.2148C61.7485 6.41418 54.9386 3.5921 47.7301 2.47246C41.089 1.44486 34.3405 2.90191 28.2822 5.67799C21.135 8.94486 15.0307 14.5277 11.4571 21.5676C8.40491 27.5645 6.82515 34.2363 7.2546 41.0001C7.26994 41.2455 7.96012 41.2301 7.92945 40.9847ZM22.2546 34.0215C22.6534 33.8222 23.0061 33.5461 23.1135 33.1013C25.6902 21.9663 38.4356 14.8344 49.2791 18.316C49.9693 18.5307 50.5982 18.6381 51.2883 19.0215C51.9325 19.3743 52.546 19.3283 53.1442 18.9755C54.4325 18.224 55.7209 17.6719 57.0092 16.997C58.2975 16.3375 59.6012 15.724 60.9049 15.0952C62.1319 14.497 63.3742 13.9142 64.6012 13.3007C64.954 13.132 65.2914 12.9326 65.6595 12.8099C66.0123 12.6872 66.5031 12.3958 66.1656 12.135C65.4601 11.5982 64.908 11.1074 64.2638 10.632C63.0522 9.75774 61.8558 8.91418 60.5675 8.17799C58.1595 6.79762 55.6595 5.63197 52.9755 4.8651C42.6074 1.90498 31.0123 4.11357 22.4233 10.6166C13.2669 17.5185 7.82209 29.0369 8.75767 40.6166C13.2055 38.4541 17.7607 36.1841 22.2546 34.0215ZM24.0644 33.132C24.1871 33.1013 24.4939 33.0553 24.5245 32.9173C25.4294 30.0492 26.9018 27.3191 28.9724 25.0952C31.089 22.8252 33.6963 21.0614 36.5951 19.9878C39.0184 19.0982 41.6104 18.7455 44.1871 18.8682C45.4908 18.9295 46.7945 19.0829 48.0675 19.405C48.6963 19.5584 49.2945 19.8344 49.9233 19.9725C50.2607 20.0338 50.5982 20.0338 50.9356 19.9418C51.1196 19.8958 51.181 19.635 50.9356 19.5584C50.7822 19.5123 50.7362 19.6197 50.6288 19.5737C40.046 14.9111 26.7791 21.6596 23.9724 32.7485C23.911 32.9479 23.911 33.1627 24.0644 33.132ZM25.9816 32.2271C26.6718 31.951 26.7178 31.2455 27.0092 30.6627C27.2853 30.0952 27.5767 29.5277 27.9141 28.9755C28.6043 27.8252 29.4325 26.7516 30.3681 25.7854C32.1779 23.9295 34.3865 22.5031 36.7791 21.5215C38.8497 20.678 41.1043 20.2792 43.3589 20.2792C44.4939 20.2792 45.6288 20.3866 46.7331 20.632C47.2853 20.7547 47.8528 20.862 48.4202 20.8927C48.7117 20.908 48.9417 20.8774 49.2791 20.7393C49.5859 20.6166 49.3558 20.4326 49.1104 20.3559C39.8006 17.1964 28.589 22.5492 25.6595 32.0737C25.5828 32.3191 25.7362 32.3344 25.9816 32.2271ZM27.4693 31.3988C27.638 31.4602 27.6994 31.3068 27.8067 31.2455C34.3712 28.132 40.8742 24.9111 47.3773 21.6749C47.4847 21.6136 47.6227 21.6442 47.638 21.4449C47.6534 21.2455 47.5153 21.3988 47.3926 21.3682C39.5092 19.313 30.7515 23.5768 27.4847 31.0461C27.4387 31.2148 27.2546 31.3222 27.4693 31.3988ZM1.30368 47.5492C26.4571 35.3559 51.5491 23.0706 76.6104 10.6933C76.1043 9.72707 75.8129 8.97553 75.2607 8.05529C74.4479 8.48473 73.6963 8.80682 72.8834 9.23627C71.9479 9.7424 71.135 9.91111 70.092 10.7393C59.0798 -0.441647 41.319 -2.86496 27.2853 3.4694C12.7914 10.0185 3.26687 26.3222 5.30675 42.2577C3.51227 43.2854 1.7638 43.9602 0 44.9265C0.398773 45.862 0.812883 46.7363 1.30368 47.5492Z" fill="black"/>
<path fill-rule="evenodd" clip-rule="evenodd" d="M52.3141 39.9724C52.3601 37.8405 50.6576 36.046 48.5871 35.9233C47.6055 35.862 46.6699 35.8773 45.719 35.9694C44.7834 36.0614 43.7404 36.2454 42.9889 35.6013C42.7895 35.4326 42.7282 35.1565 42.6975 34.8957C42.6822 34.681 42.7435 34.4663 42.8509 34.2516C43.2957 33.3467 44.2619 32.9326 45.1975 32.7025C45.6269 32.5951 46.1024 32.5951 46.5472 32.6105C46.946 32.6105 47.3447 32.7178 47.7282 32.7332C47.9582 32.7332 47.7128 32.3497 47.6208 32.181C47.5288 31.997 47.3907 31.7362 47.2987 31.5062C47.13 31.1074 46.8693 30.724 46.7159 30.3099C46.5319 29.8344 46.2711 29.2822 45.7036 29.451C45.2588 29.5737 44.8907 29.589 44.5073 29.6657C42.5901 30.1105 40.7496 31.0154 39.446 32.5184C38.2496 33.9142 37.7742 35.908 38.6331 37.6105C39.5073 39.3283 41.8079 39.6657 43.449 39.5583C44.9981 39.4663 47.8049 39.0675 47.7435 41.0767C47.6822 43.1933 45.0748 43.6841 43.5104 43.7454C43.1269 43.7608 42.4981 43.6994 42.1454 43.6227C41.9613 43.5767 41.5319 43.5767 41.6699 43.8221C41.7926 44.0368 41.8539 44.2056 41.946 44.3743C42.4521 45.2178 42.7128 46.2454 43.3417 46.9816C47.3447 47.1043 52.222 44.4049 52.3141 39.9724Z" fill="black"/>
<path fill-rule="evenodd" clip-rule="evenodd" d="M58.8613 40.4019C60.3951 39.635 61.438 39.1442 63.0024 38.3774C60.7018 33.5921 58.3859 28.7915 56.0086 24.0369C54.5208 24.8651 53.2632 25.2945 51.8828 26.1381C54.2448 30.8927 56.4687 35.678 58.8613 40.4019Z" fill="black"/>
<path fill-rule="evenodd" clip-rule="evenodd" d="M72.2048 27.1964C71.6834 26.3529 71.0545 25.724 70.5024 24.9725C70.1496 24.497 69.7662 24.0676 69.3981 23.5921C69.2601 23.4081 69.168 23.2854 68.9993 23.0553C68.846 22.8559 68.7079 23.0553 68.7539 23.2394C69.2447 24.9265 69.4901 26.5676 69.9656 28.2701C70.7785 28.0093 71.4533 27.5952 72.2048 27.1964ZM67.1282 36.3529C68.6619 35.632 69.9349 35.0492 71.3306 34.2823C71.0699 33.178 70.8858 32.3038 70.6098 31.2148C71.6987 30.5247 72.8797 30.0952 74.0147 29.4664C74.7969 30.2639 75.3337 31.1228 76.0852 31.9817C77.619 31.2608 78.984 30.632 80.5637 29.7885C76.668 25.7547 72.8183 21.7363 68.8613 17.7639C67.4349 18.6075 66.1466 19.0062 64.7969 19.8498C65.5944 25.3713 66.2999 30.8621 67.1282 36.3529Z" fill="black"/>
<path fill-rule="evenodd" clip-rule="evenodd" d="M19.8766 31.4294C21.1956 30.5705 21.7631 28.8221 21.5483 27.3037C21.487 26.8589 21.2569 26.4141 20.8888 26.1227C20.6281 25.908 20.3827 25.7699 19.9839 25.6779C19.6465 26.3527 19.2017 27.0736 19.079 27.8711C19.5085 28.3006 20.6588 28.1319 20.3214 29.2055C18.9563 28.9448 17.4533 28.73 16.1649 27.9478C15.6588 27.6411 16.2263 26.6748 16.8398 27.0736C17.2385 27.3343 17.4533 27.2576 17.898 27.4724C18.2355 26.7362 18.5115 26 18.8643 25.2638C18.6802 24.957 18.3275 24.8957 18.0361 24.7423C17.6066 24.5122 17.0545 24.4969 16.625 24.7423C15.6895 25.2638 15.1526 26.2914 14.8612 27.2883C14.6312 28.1012 14.4778 28.9601 14.7692 29.819C15.122 30.8313 16.4103 30.8773 17.3306 31.1073C18.1434 31.3374 19.033 31.5061 19.8766 31.4294Z" fill="black"/>
<path fill-rule="evenodd" clip-rule="evenodd" d="M22.6358 25.9233C23.2646 24.9417 23.8781 23.8988 24.5836 22.9478C24.3996 22.5184 24.0468 22.3497 23.6941 22.135C23.2646 22.4877 23.1112 22.9785 22.7125 23.3926C22.2984 23.2546 21.8382 22.9325 21.5468 22.5644C21.7769 22.135 22.0836 21.8742 22.2677 21.4141C22.0223 21.184 21.7616 20.8926 21.4241 20.7392C21.0254 21.092 20.9027 21.6902 20.3812 21.9356C20.1051 21.6902 19.7677 21.5675 19.5223 21.2761C19.645 20.7086 20.1511 20.3865 20.3812 19.8804C20.1818 19.5276 19.8597 19.4662 19.4916 19.0981C18.464 20.2638 17.7278 21.5368 16.9609 22.9478C18.8935 23.9601 20.6573 25.0031 22.6358 25.9233Z" fill="black"/>
<path fill-rule="evenodd" clip-rule="evenodd" d="M23.9443 17.9325C24.2664 17.4571 24.0517 16.9816 23.5915 16.6442C23.1314 16.3068 22.5333 16.9969 23.0547 17.3497C23.4382 17.6104 23.4995 17.9325 23.9443 17.9325ZM25.0639 22.227C25.5547 21.6442 26.1836 21.3681 26.5977 20.7086C26.0455 20.0644 25.3707 19.6196 24.8032 19.0061C24.6038 18.8068 24.4965 18.5 24.7879 18.3773C25.294 18.1626 25.5547 18.8221 25.9228 19.0675C26.3523 19.3436 26.6284 20.0338 27.0885 20.1718C27.5946 19.7423 27.9474 19.4356 28.4382 18.9908C28.0854 18.2853 27.4873 17.6871 26.9811 17.0736C26.8277 16.8742 26.521 16.8129 26.3216 16.8282C26.1836 16.8436 25.8615 17.0583 25.8155 16.9509C25.6928 16.6442 26.1222 16.046 25.8155 15.6319C25.6774 15.4632 25.6314 15.2792 25.478 15.1258C25.1866 14.8497 24.8492 14.681 24.4504 14.6503C23.9443 14.6196 23.4688 14.773 23.0854 15.1104C22.0118 16.0767 21.0455 16.9356 20.1406 18.1933C21.8124 19.5276 23.3922 20.862 25.0639 22.227Z" fill="black"/>
<path fill-rule="evenodd" clip-rule="evenodd" d="M29.9708 17.8559C30.6456 17.4725 31.029 17.181 31.7039 16.8283C31.029 15.2485 30.0474 13.8375 29.2806 12.3037C29.664 11.905 30.1855 11.859 30.5843 11.4602C30.4309 11.1074 30.3389 10.724 30.0014 10.4172C28.2836 11.2915 26.6425 12.3344 25.0781 13.454C25.3389 13.8988 25.4002 14.1596 25.7223 14.497C26.3205 14.5123 26.4585 13.7301 27.072 13.6381C28.0689 15.0031 29.0198 16.4448 29.9708 17.8559Z" fill="black"/>
<path fill-rule="evenodd" clip-rule="evenodd" d="M33.3889 15.908C34.1098 15.5859 34.6926 15.4939 35.2754 15.0951C34.5545 13.0706 34.0024 11.0614 33.0975 9.11353C32.2999 9.48162 31.5637 9.69635 30.7969 10.0951C31.5331 12.1043 32.5607 13.9448 33.3889 15.908Z" fill="black"/>
<path fill-rule="evenodd" clip-rule="evenodd" d="M51.0281 13.8375C51.703 12.8559 51.8564 11.8436 52.2091 10.77C52.3011 10.4633 52.3932 10.1718 52.0864 9.94178C51.795 9.72706 51.5343 9.81908 51.4422 10.0952C51.0281 11.2608 50.7674 12.2884 50.3533 13.4847C50.2153 13.8988 50.7827 14.2056 51.0281 13.8375ZM52.2858 15.5553C52.6079 15.6166 52.9453 15.3866 53.1447 15.1412C53.7275 14.451 53.9576 13.3774 54.4177 12.6258C54.8472 11.905 55.338 10.7547 54.6324 10.1258C53.2214 8.86816 51.3042 8.71479 49.5864 8.08596C49.3717 8.00927 49.1723 8.17798 49.111 8.3927C48.6048 10.1872 48.3594 11.997 47.93 13.7915C47.8686 14.0676 47.9146 14.405 48.2061 14.4356C49.6784 14.6197 50.9054 15.3099 52.2858 15.5553Z" fill="black"/>
<path fill-rule="evenodd" clip-rule="evenodd" d="M38.1738 14.2977C38.2045 13.8682 38.0358 13.5001 37.9898 13.132C37.9437 12.6872 37.637 12.1964 37.7597 11.7977C37.8824 11.4142 38.6493 11.6289 38.9407 11.3989C39.2321 11.1842 39.1094 10.4173 38.772 10.2946C38.4192 10.1719 37.6984 10.7087 37.4836 10.402C37.2689 10.1105 37.0542 9.42036 37.4069 9.23631C37.7904 9.03692 38.3885 9.08294 38.7566 8.9449C39.0787 8.8222 38.956 8.10134 38.7413 7.87128C38.4959 7.61054 37.8364 7.90196 37.4223 7.94797C36.9928 7.97864 36.5174 8.13202 36.0572 8.23938C35.5971 8.34674 35.2444 8.53079 34.7076 8.59214C34.2014 8.65349 34.4775 9.1903 34.6002 9.58907C35.137 11.3069 35.6738 13.0553 36.2106 14.8038C36.9622 14.7271 37.5143 14.4817 38.1738 14.2977Z" fill="black"/>
<path fill-rule="evenodd" clip-rule="evenodd" d="M42.3501 13.8221C42.3961 12.5951 42.3501 11.4755 42.3194 10.2485C42.3041 9.55827 42.1814 8.99079 42.2888 8.19324C42.3961 7.42637 41.6906 7.31901 40.9698 7.45705C40.6017 7.53373 40.3716 7.54907 39.9421 7.5184C39.5127 7.50306 39.528 7.88649 39.6047 8.22392C39.7428 8.83742 39.7581 9.46625 39.8501 10.0797C40.0495 11.3681 40.0648 12.7331 40.4023 13.9755C41.1538 13.8681 41.6599 13.8988 42.3501 13.8221Z" fill="black"/>
<path fill-rule="evenodd" clip-rule="evenodd" d="M46.7183 14.1136C46.933 14.1443 47.1631 14.0676 47.1631 13.8069C47.1477 13.4848 47.3624 13.2854 47.2551 12.9633C46.7796 12.764 46.1355 12.994 45.706 12.5799C45.66 12.1811 45.6907 11.721 45.8594 11.3376C46.3348 11.2149 46.795 11.4449 47.2551 11.3989C47.4238 11.0768 47.4238 10.7241 47.4698 10.3867C47.0097 10.0952 46.4422 10.3253 45.9821 10.0032C45.8901 9.65045 45.9821 9.22101 46.0894 8.86825C46.6876 8.69953 47.2091 9.02162 47.7919 9.00628C47.9299 8.62285 47.9759 8.30076 47.9913 7.84064C46.5035 7.54923 45.0618 7.36518 43.5127 7.4572C43.4821 9.49708 43.4054 11.4296 43.3594 13.4695C43.3594 13.7455 43.6048 13.8682 43.8655 13.8529C44.8318 13.8222 45.7674 13.9909 46.7183 14.1136Z" fill="black"/>
</svg>
