<svg width="120" height="100" viewBox="0 0 120 100" fill="none" xmlns="http://www.w3.org/2000/svg">
<path d="M60 95C91.7564 95 117.5 74.8528 117.5 50C117.5 25.1472 91.7564 5 60 5C28.2436 5 2.5 25.1472 2.5 50C2.5 74.8528 28.2436 95 60 95Z" fill="white"/>
<path fill-rule="evenodd" clip-rule="evenodd" d="M60 6.75C28.7864 6.75 4.25 26.4889 4.25 50C4.25 73.5111 28.7864 93.25 60 93.25C91.2136 93.25 115.75 73.5111 115.75 50C115.75 26.4889 91.2136 6.75 60 6.75ZM0.75 50C0.75 23.8055 27.7009 3.25 60 3.25C92.2991 3.25 119.25 23.8055 119.25 50C119.25 76.1945 92.2991 96.75 60 96.75C27.7009 96.75 0.75 76.1945 0.75 50Z" fill="black"/>
<path fill-rule="evenodd" clip-rule="evenodd" d="M40.5198 26.1158C43.4935 24.7636 46.6985 24.0423 49.9498 24.0002L50.0533 31.9996C47.9204 32.0272 45.8068 32.5 43.8312 33.3983C41.855 34.2969 40.0489 35.6069 38.5231 37.2658C35.4367 40.6212 33.6963 45.1876 33.7513 49.9692C33.8062 54.7506 35.6508 59.2673 38.8098 62.5382C41.9611 65.8011 46.1528 67.5558 50.4498 67.5002L50.5533 75.4996C43.9764 75.5847 37.6869 72.8913 33.0554 68.0958C28.4317 63.3084 25.8294 56.8166 25.7518 50.0611C25.6741 43.3058 28.1262 36.7519 32.6351 31.85C34.87 29.4202 37.5469 27.4676 40.5198 26.1158Z" fill="black"/>
<path fill-rule="evenodd" clip-rule="evenodd" d="M59.5198 26.1158C62.4935 24.7636 65.6985 24.0423 68.9498 24.0002L69.0533 31.9996C66.9204 32.0272 64.8068 32.5 62.8312 33.3983C60.855 34.2969 59.0489 35.6069 57.5231 37.2658C54.4367 40.6212 52.6963 45.1876 52.7513 49.9692C52.8062 54.7506 54.6508 59.2673 57.8098 62.5382C60.9611 65.8011 65.1528 67.5558 69.4498 67.5002L69.5533 75.4996C62.9764 75.5847 56.6869 72.8913 52.0554 68.0958C47.4317 63.3084 44.8294 56.8166 44.7518 50.0611C44.6741 43.3058 47.1262 36.7519 51.6351 31.85C53.87 29.4202 56.5469 27.4676 59.5198 26.1158Z" fill="black"/>
<path fill-rule="evenodd" clip-rule="evenodd" d="M78.5198 26.1158C81.4935 24.7636 84.6985 24.0423 87.9498 24.0002L88.0533 31.9996C85.9204 32.0272 83.8068 32.5 81.8312 33.3983C79.855 34.2969 78.0489 35.6069 76.5231 37.2658C73.4367 40.6212 71.6963 45.1876 71.7513 49.9692C71.8062 54.7506 73.6508 59.2673 76.8098 62.5382C79.9611 65.8011 84.1528 67.5558 88.4498 67.5002L88.5533 75.4996C81.9764 75.5847 75.6869 72.8913 71.0554 68.0958C66.4317 63.3084 63.8294 56.8166 63.7518 50.0611C63.6741 43.3058 66.1262 36.7519 70.6351 31.85C72.87 29.4202 75.5469 27.4676 78.5198 26.1158Z" fill="black"/>
</svg>
