<svg width="210" height="55" viewBox="0 0 210 55" fill="none" xmlns="http://www.w3.org/2000/svg">
<path d="M79 33V28.1H80.18L83.58 33H87.46L83.38 27.48C84.14 27.1 85.74 26.04 85.74 23.44C85.74 20.86 84.38 18.96 80.56 18.96C80.16 18.96 76.58 19 75.8 19V33H79ZM80.4 21.96C81.94 21.96 82.34 22.7 82.34 23.48C82.34 24.66 81.38 25.1 80.16 25.1H79V22C79.66 21.98 79.92 21.96 80.4 21.96ZM94.8163 30.1C94.3363 30.4 93.4963 30.74 92.4563 30.74C91.4763 30.74 90.6363 30.36 90.3563 29.5H96.3163C96.4363 29.1 96.4963 28.7 96.4963 28C96.4963 25.44 94.4563 23.76 92.1363 23.76C89.1763 23.76 87.2563 25.88 87.2563 28.5C87.2563 31.34 89.1763 33.24 92.1363 33.24C93.4163 33.24 94.6963 32.92 95.6363 32.22L94.8163 30.1ZM92.0363 26.26C92.9963 26.26 93.4963 26.88 93.4963 27.5H90.2563C90.5363 26.7 91.0363 26.26 92.0363 26.26ZM104.031 37H107.031V24.88C106.071 24.28 104.391 23.76 102.751 23.76C99.6106 23.76 97.4906 25.88 97.4906 28.5C97.4906 31.34 99.2906 33.24 102.231 33.24C102.751 33.24 103.411 33.1 104.031 32.82V37ZM102.631 30.44C101.451 30.44 100.691 29.6 100.691 28.64C100.691 27.58 101.211 26.56 102.731 26.56C103.231 26.56 103.651 26.7 104.031 26.88V29.92C103.651 30.28 103.131 30.44 102.631 30.44ZM117.621 24H114.621V29.62C114.161 30.2 113.681 30.44 113.181 30.44C112.301 30.44 112.021 29.72 112.021 29.02V24H109.021V29.66C109.021 32.14 110.521 33.24 112.041 33.24C113.401 33.24 114.181 32.66 114.621 32.1V33H117.621V24ZM126.887 30.1C126.407 30.4 125.567 30.74 124.527 30.74C123.547 30.74 122.707 30.36 122.427 29.5H128.387C128.507 29.1 128.567 28.7 128.567 28C128.567 25.44 126.527 23.76 124.207 23.76C121.247 23.76 119.327 25.88 119.327 28.5C119.327 31.34 121.247 33.24 124.207 33.24C125.487 33.24 126.767 32.92 127.707 32.22L126.887 30.1ZM124.107 26.26C125.067 26.26 125.567 26.88 125.567 27.5H122.327C122.607 26.7 123.107 26.26 124.107 26.26ZM134.541 30.34C134.541 30.6 134.301 30.74 133.861 30.74C132.961 30.74 131.541 30.16 130.981 29.62L129.561 31.58C129.981 32.22 131.761 33.24 133.661 33.24C136.061 33.24 137.541 32.02 137.541 30.2C137.541 27 132.781 27.6 132.781 26.66C132.781 26.46 133.041 26.26 133.481 26.26C134.461 26.26 135.441 26.74 135.961 27.1L137.081 24.98C136.481 24.46 135.321 23.76 133.301 23.76C131.381 23.76 129.781 24.76 129.781 26.7C129.781 29.98 134.541 29.38 134.541 30.34ZM139.041 29.58C139.041 31.88 139.801 33.24 141.841 33.24C143.181 33.24 144.261 32.74 144.861 32.22L143.961 29.92C143.641 30.16 143.261 30.44 142.621 30.44C142.221 30.44 142.041 29.98 142.041 29.44V26.8H144.541V24H142.041V21.5H139.041V29.58Z" fill="#282932"/>
<path d="M152.057 33H152.277C153.457 33 154.777 33.04 155.717 33.04C161.057 33.04 163.737 29.8 163.737 25.82C163.737 22.16 161.477 18.94 155.877 18.94C154.737 18.94 153.217 19 152.297 19H152.057V33ZM155.837 20.54C159.897 20.54 161.937 22.78 161.937 25.82C161.937 29.08 159.777 31.44 155.777 31.44C155.537 31.44 154.677 31.42 153.757 31.4V20.6C154.457 20.58 154.997 20.54 155.837 20.54ZM173.106 30.76C172.526 31.3 171.506 31.7 170.346 31.7C168.586 31.7 167.346 30.7 167.206 29H174.126C174.186 28.72 174.226 28.36 174.226 27.92C174.226 25.44 172.366 23.8 170.046 23.8C167.086 23.8 165.406 25.88 165.406 28.5C165.406 31.34 167.306 33.2 170.226 33.2C171.426 33.2 172.726 32.82 173.606 32.02L173.106 30.76ZM169.966 25.3C171.526 25.3 172.486 26.22 172.566 27.7H167.106C167.286 26.32 168.326 25.3 169.966 25.3ZM180.957 30.56C180.957 31.38 180.197 31.8 179.357 31.8C178.457 31.8 177.277 31.26 176.757 30.66L175.857 31.8C176.277 32.44 177.717 33.2 179.177 33.2C180.977 33.2 182.657 32.38 182.657 30.48C182.657 27.32 177.797 28.22 177.797 26.32C177.797 25.72 178.337 25.2 179.237 25.2C180.177 25.2 180.957 25.6 181.497 26.08L182.257 24.86C181.717 24.34 180.637 23.8 179.157 23.8C177.377 23.8 176.097 24.76 176.097 26.34C176.097 29.64 180.957 28.74 180.957 30.56ZM185.431 33H187.031V24H185.431V33ZM185.231 20.62C185.231 21.28 185.711 21.66 186.271 21.66C186.771 21.66 187.251 21.28 187.251 20.62C187.251 20.04 186.771 19.66 186.271 19.66C185.711 19.66 185.231 20.04 185.231 20.62ZM189.102 34.3C189.102 36.26 191.062 37.16 193.682 37.16C196.302 37.16 198.262 36.22 198.262 34.3C198.262 32.34 196.302 31.4 193.682 31.4C193.502 31.4 193.322 31.42 193.142 31.42C193.022 31.26 192.962 31.04 192.962 30.82C192.962 30.66 192.982 30.48 193.062 30.32C193.262 30.34 193.462 30.34 193.662 30.34C195.882 30.34 197.342 28.9 197.342 27.1C197.342 26.54 197.202 26 196.922 25.54L198.622 25.12L198.582 23.82L195.942 24.46C195.322 24.04 194.542 23.8 193.662 23.8C191.402 23.8 189.982 25.3 189.982 27.1C189.982 28.42 190.722 29.54 192.002 30.06C191.842 30.26 191.762 30.54 191.762 30.82C191.762 31.08 191.822 31.36 191.982 31.56C190.262 31.92 189.102 32.84 189.102 34.3ZM190.602 34.3C190.602 33.3 191.762 32.7 193.682 32.7C195.602 32.7 196.762 33.3 196.762 34.3C196.762 35.32 195.542 35.86 193.682 35.86C191.822 35.86 190.602 35.3 190.602 34.3ZM191.482 27.1C191.482 25.98 192.342 25.1 193.662 25.1C195.002 25.1 195.842 25.98 195.842 27.1C195.842 28.26 194.922 29.04 193.662 29.04C192.342 29.04 191.482 28.22 191.482 27.1ZM200.225 33H201.825V26.5C202.405 25.84 203.345 25.34 204.365 25.34C206.045 25.34 206.905 26.22 206.905 28.1V33H208.505V27.8C208.505 24.98 207.105 23.84 204.765 23.84C203.585 23.84 202.445 24.42 201.825 25.1V24H200.225V33Z" fill="#282932"/>
<path d="M23.7363 3.76372L3.76368 23.7363C1.68506 25.8149 1.68506 29.1851 3.76368 31.2637L23.7363 51.2363C25.8149 53.3149 29.185 53.3149 31.2636 51.2363L51.2362 31.2637C53.3149 29.1851 53.3149 25.8149 51.2362 23.7363L31.2636 3.76371C29.185 1.68509 25.8149 1.68509 23.7363 3.76372Z" fill="#242424"/>
<path d="M27.5642 43.2494C36.2625 43.2494 43.3139 36.198 43.3139 27.4997C43.3139 18.8014 36.2625 11.75 27.5642 11.75C18.8658 11.75 11.8145 18.8014 11.8145 27.4997C11.8145 36.198 18.8658 43.2494 27.5642 43.2494Z" fill="#FCFCFC"/>
<path d="M32.221 17.6562H23.0394C20.0998 17.6562 17.7168 20.0393 17.7168 22.9789V32.1605C17.7168 35.1001 20.0998 37.4831 23.0394 37.4831H32.221C35.1606 37.4831 37.5437 35.1001 37.5437 32.1605V22.9789C37.5437 20.0393 35.1606 17.6562 32.221 17.6562Z" fill="#242424"/>
<path d="M27.5326 34.3367C31.3227 34.3367 34.3953 31.2641 34.3953 27.474C34.3953 23.6839 31.3227 20.6113 27.5326 20.6113C23.7424 20.6113 20.6699 23.6839 20.6699 27.474C20.6699 31.2641 23.7424 34.3367 27.5326 34.3367Z" fill="#FCFCFC"/>
<path d="M26.502 25.6094L25.8659 26.2454C25.173 26.9383 25.173 28.0617 25.8659 28.7546L26.502 29.3906C27.1948 30.0835 28.3182 30.0835 29.0111 29.3906L29.6471 28.7546C30.34 28.0617 30.34 26.9383 29.6471 26.2454L29.0111 25.6094C28.3182 24.9165 27.1948 24.9165 26.502 25.6094Z" fill="#242424"/>
</svg>
