<svg width="21" height="21" viewBox="0 0 21 21" fill="none" xmlns="http://www.w3.org/2000/svg">
<path d="M10.4734 12.9856L10.4736 12.9857L13.6935 14.9072C13.9116 15.049 14.1435 15.098 14.3548 15.098C14.7908 15.098 15.2198 14.879 15.4612 14.4689C15.8336 13.8542 15.6269 13.0677 15.0154 12.7092L11.7881 10.7832L11.7881 10.7832L11.783 10.7802C11.727 10.7477 11.6227 10.6454 11.5277 10.4784C11.4331 10.312 11.3965 10.1671 11.3965 10.098V5.82715C11.3965 5.12392 10.8185 4.5459 10.1152 4.5459C9.41201 4.5459 8.83399 5.12392 8.83399 5.82715V10.098C8.83399 11.2006 9.5199 12.4159 10.4734 12.9856ZM0.583984 10.4938C0.583984 5.03037 5.03721 0.577148 10.5007 0.577148C15.9641 0.577148 20.4173 5.03037 20.4173 10.4938C20.4173 15.9573 15.9641 20.4105 10.5007 20.4105C5.03721 20.4105 0.583984 15.9573 0.583984 10.4938Z" fill="#58C69E"/>
<path d="M10.4734 12.9856L10.4736 12.9857L13.6935 14.9072C13.9116 15.049 14.1435 15.098 14.3548 15.098C14.7908 15.098 15.2198 14.879 15.4612 14.4689C15.8336 13.8542 15.6269 13.0677 15.0154 12.7092L11.7881 10.7832L11.7881 10.7832L11.783 10.7802C11.727 10.7477 11.6227 10.6454 11.5277 10.4784C11.4331 10.312 11.3965 10.1671 11.3965 10.098V5.82715C11.3965 5.12392 10.8185 4.5459 10.1152 4.5459C9.41201 4.5459 8.83399 5.12392 8.83399 5.82715V10.098C8.83399 11.2006 9.5199 12.4159 10.4734 12.9856ZM0.583984 10.4938C0.583984 5.03037 5.03721 0.577148 10.5007 0.577148C15.9641 0.577148 20.4173 5.03037 20.4173 10.4938C20.4173 15.9573 15.9641 20.4105 10.5007 20.4105C5.03721 20.4105 0.583984 15.9573 0.583984 10.4938Z" fill="url(#paint0_linear_25_404)"/>
<path d="M10.4734 12.9856L10.4736 12.9857L13.6935 14.9072C13.9116 15.049 14.1435 15.098 14.3548 15.098C14.7908 15.098 15.2198 14.879 15.4612 14.4689C15.8336 13.8542 15.6269 13.0677 15.0154 12.7092L11.7881 10.7832L11.7881 10.7832L11.783 10.7802C11.727 10.7477 11.6227 10.6454 11.5277 10.4784C11.4331 10.312 11.3965 10.1671 11.3965 10.098V5.82715C11.3965 5.12392 10.8185 4.5459 10.1152 4.5459C9.41201 4.5459 8.83399 5.12392 8.83399 5.82715V10.098C8.83399 11.2006 9.5199 12.4159 10.4734 12.9856ZM0.583984 10.4938C0.583984 5.03037 5.03721 0.577148 10.5007 0.577148C15.9641 0.577148 20.4173 5.03037 20.4173 10.4938C20.4173 15.9573 15.9641 20.4105 10.5007 20.4105C5.03721 20.4105 0.583984 15.9573 0.583984 10.4938Z" stroke="url(#paint1_linear_25_404)"/>
<defs>
<linearGradient id="paint0_linear_25_404" x1="2.57734" y1="-5.54785" x2="9.01714" y2="32.2047" gradientUnits="userSpaceOnUse">
<stop stop-color="#3BC985"/>
<stop offset="1" stop-color="#087B52"/>
</linearGradient>
<linearGradient id="paint1_linear_25_404" x1="19.8208" y1="30.7789" x2="8.85591" y2="11.5903" gradientUnits="userSpaceOnUse">
<stop stop-color="white"/>
<stop offset="1" stop-opacity="0"/>
</linearGradient>
</defs>
</svg>
