<svg width="324" height="93" viewBox="0 0 324 93" fill="none" xmlns="http://www.w3.org/2000/svg">
<path fill-rule="evenodd" clip-rule="evenodd" d="M0.5 68C30.8698 69.4224 45.1001 66.2155 66.5 54L115.5 22C124.648 15.8152 130.337 12.805 141 8.00003C156.458 2.84006 167.523 0.73639 178.5 0.949904C188.864 0.654648 199.055 2.78311 212.5 6.99996C223.285 11.3733 231.784 15.494 241 22L289 54C301.528 63.2391 308.994 66.5888 323.5 68V93H0.5V68ZM131.5 22C118.312 29.2846 117.5 29.5 101 42.5C84.5 55.5 93.2719 76.0002 113.5 73.5C133.728 70.9997 191.748 69.8824 243.5 73.5C260.726 71.8892 269.5 55.5 252.5 42.5L252.351 42.3859C235.487 29.4902 233.296 27.8142 221.5 22C186.882 7.87806 166.794 6.41354 131.5 22Z" fill="#FCFDFF"/>
</svg>