<svg width="556" height="75" viewBox="0 0 556 75" fill="none" xmlns="http://www.w3.org/2000/svg">
<path fill-rule="evenodd" clip-rule="evenodd" d="M7 16.9999C7.33267 47.0139 29.7271 66.6192 59 66.9999H201C227.921 67.5253 241.907 62.9927 265 47.9999C303.998 21.9851 320.181 11.7026 329 8.4999C360.131 -2.53042 377.706 -2.06927 409.5 8.4999C420.533 13.1573 434.616 22.7187 460 39.9999C482.046 55.0952 491.427 61.112 498 63.4999C518.863 70.2278 527.89 67.3468 541.5 55.9999C547.878 49.7258 550.308 43.715 550 22.9999H556V74.4999H0.5V16.9999H7ZM341 14C320.805 20.9568 309.204 27.3694 288 45C280 52.5 282.5 64 291 70C296.437 72.9117 301.216 73.0689 312 72C338.27 70.1546 353.44 69.9578 381 70.5C401.431 71.0115 413.519 71.4706 436 72.5C445.842 72.1307 452.393 64.1695 453 56C453.607 47.8305 446.5 44 435 34.5C423.5 25 405 17.5 405 17.5C378.33 8.70665 364.286 7.48687 341 14Z" fill="white"/>
</svg>